DROP TABLE IF EXISTS scores;
DROP TABLE IF EXISTS songs;
DROP TABLE IF EXISTS metrics;
DROP TABLE IF EXISTS app_logs;

CREATE TABLE scores (
  id TEXT PRIMARY KEY NOT NULL,
  title TEXT NOT NULL,
  audio_path TEXT NOT NULL,
  midi_data TEXT,
  music_xml TEXT,
  note_events TEXT NOT NULL DEFAULT '[]',
  duration REAL,
  tempo REAL,
  created_at TEXT NOT NULL,
  updated_at TEXT NOT NULL,
  checksum TEXT,
  spectrogram_data TEXT
);

CREATE TABLE songs (
  id TEXT PRIMARY KEY NOT NULL,
  song_title TEXT NOT NULL,
  artist TEXT,
  score_id TEXT NOT NULL,
  category TEXT,
  difficulty INTEGER,
  is_favorite INTEGER DEFAULT 0,
  created_at TEXT NOT NULL
);

CREATE TABLE metrics (
  id TEXT PRIMARY KEY NOT NULL,
  score_id TEXT NOT NULL,
  precision_val REAL,
  recall_val REAL,
  f_measure REAL,
  is_polyphonic INTEGER,
  created_at TEXT NOT NULL
);

CREATE TABLE app_logs (
  id INTEGER PRIMARY KEY AUTOINCREMENT,
  level TEXT NOT NULL,
  message TEXT NOT NULL,
  tag TEXT,
  stack_trace TEXT,
  created_at TEXT NOT NULL
);

INSERT INTO scores (id, title, audio_path, midi_data, music_xml, note_events, duration, tempo, created_at, updated_at, checksum, spectrogram_data) 
VALUES ('08f22e9e-1d07-4b55-9a68-ea05cf89121f', 'Bach: Minuet in G', 'assets/audio/bach_minuet_g.mp3', NULL, NULL, '[{"start_time":0.0,"end_time":0.47619047619047616,"midi_note":74,"velocity":80,"confidence":1.0},{"start_time":0.47619047619047616,"end_time":0.7142857142857142,"midi_note":67,"velocity":80,"confidence":1.0},{"start_time":0.7142857142857142,"end_time":0.9523809523809523,"midi_note":69,"velocity":80,"confidence":1.0},{"start_time":0.9523809523809523,"end_time":1.1904761904761905,"midi_note":71,"velocity":80,"confidence":1.0},{"start_time":1.1904761904761905,"end_time":1.4285714285714286,"midi_note":72,"velocity":80,"confidence":1.0},{"start_time":1.4285714285714286,"end_time":2.380952380952381,"midi_note":55,"velocity":80,"confidence":1.0},{"start_time":1.4285714285714286,"end_time":2.380952380952381,"midi_note":59,"velocity":80,"confidence":1.0},{"start_time":1.4285714285714286,"end_time":2.380952380952381,"midi_note":62,"velocity":80,"confidence":1.0},{"start_time":2.380952380952381,"end_time":2.857142857142857,"midi_note":57,"velocity":80,"confidence":1.0},{"start_time":2.857142857142857,"end_time":3.3333333333333335,"midi_note":74,"velocity":80,"confidence":1.0},{"start_time":3.3333333333333335,"end_time":3.8095238095238098,"midi_note":67,"velocity":80,"confidence":1.0},{"start_time":3.8095238095238098,"end_time":4.285714285714286,"midi_note":67,"velocity":80,"confidence":1.0},{"start_time":4.285714285714286,"end_time":5.7142857142857135,"midi_note":59,"velocity":80,"confidence":1.0},{"start_time":5.7142857142857135,"end_time":6.19047619047619,"midi_note":76,"velocity":80,"confidence":1.0},{"start_time":6.19047619047619,"end_time":6.428571428571428,"midi_note":72,"velocity":80,"confidence":1.0},{"start_time":6.428571428571428,"end_time":6.666666666666666,"midi_note":74,"velocity":80,"confidence":1.0},{"start_time":6.666666666666666,"end_time":6.904761904761904,"midi_note":76,"velocity":80,"confidence":1.0},{"start_time":6.904761904761904,"end_time":7.142857142857142,"midi_note":78,"velocity":80,"confidence":1.0},{"start_time":7.142857142857142,"end_time":8.571428571428571,"midi_note":60,"velocity":80,"confidence":1.0},{"start_time":8.571428571428571,"end_time":9.047619047619047,"midi_note":79,"velocity":80,"confidence":1.0},{"start_time":9.047619047619047,"end_time":9.523809523809524,"midi_note":67,"velocity":80,"confidence":1.0},{"start_time":9.523809523809524,"end_time":10.0,"midi_note":67,"velocity":80,"confidence":1.0},{"start_time":10.0,"end_time":11.428571428571429,"midi_note":59,"velocity":80,"confidence":1.0},{"start_time":11.428571428571429,"end_time":11.904761904761905,"midi_note":72,"velocity":80,"confidence":1.0},{"start_time":11.904761904761905,"end_time":12.142857142857142,"midi_note":74,"velocity":80,"confidence":1.0},{"start_time":12.142857142857142,"end_time":12.38095238095238,"midi_note":72,"velocity":80,"confidence":1.0},{"start_time":12.38095238095238,"end_time":12.619047619047617,"midi_note":71,"velocity":80,"confidence":1.0},{"start_time":12.619047619047617,"end_time":12.857142857142854,"midi_note":69,"velocity":80,"confidence":1.0},{"start_time":12.857142857142854,"end_time":14.285714285714283,"midi_note":57,"velocity":80,"confidence":1.0},{"start_time":14.285714285714283,"end_time":14.76190476190476,"midi_note":71,"velocity":80,"confidence":1.0},{"start_time":14.76190476190476,"end_time":14.999999999999996,"midi_note":72,"velocity":80,"confidence":1.0},{"start_time":14.999999999999996,"end_time":15.238095238095234,"midi_note":71,"velocity":80,"confidence":1.0},{"start_time":15.238095238095234,"end_time":15.476190476190471,"midi_note":69,"velocity":80,"confidence":1.0},{"start_time":15.476190476190471,"end_time":15.714285714285708,"midi_note":67,"velocity":80,"confidence":1.0},{"start_time":15.714285714285708,"end_time":17.142857142857135,"midi_note":55,"velocity":80,"confidence":1.0},{"start_time":17.142857142857135,"end_time":17.61904761904761,"midi_note":66,"velocity":80,"confidence":1.0},{"start_time":17.61904761904761,"end_time":17.857142857142847,"midi_note":67,"velocity":80,"confidence":1.0},{"start_time":17.857142857142847,"end_time":18.095238095238084,"midi_note":69,"velocity":80,"confidence":1.0},{"start_time":18.095238095238084,"end_time":18.33333333333332,"midi_note":71,"velocity":80,"confidence":1.0},{"start_time":18.33333333333332,"end_time":18.57142857142856,"midi_note":67,"velocity":80,"confidence":1.0},{"start_time":18.57142857142856,"end_time":19.047619047619033,"midi_note":62,"velocity":80,"confidence":1.0},{"start_time":19.047619047619033,"end_time":19.523809523809508,"midi_note":59,"velocity":80,"confidence":1.0},{"start_time":19.523809523809508,"end_time":19.999999999999982,"midi_note":55,"velocity":80,"confidence":1.0},{"start_time":19.999999999999982,"end_time":20.476190476190457,"midi_note":71,"velocity":80,"confidence":1.0},{"start_time":20.476190476190457,"end_time":21.42857142857141,"midi_note":69,"velocity":80,"confidence":1.0},{"start_time":21.42857142857141,"end_time":21.904761904761884,"midi_note":62,"velocity":80,"confidence":1.0},{"start_time":21.904761904761884,"end_time":22.14285714285712,"midi_note":50,"velocity":80,"confidence":1.0},{"start_time":22.14285714285712,"end_time":22.38095238095236,"midi_note":60,"velocity":80,"confidence":1.0},{"start_time":22.38095238095236,"end_time":22.619047619047596,"midi_note":59,"velocity":80,"confidence":1.0},{"start_time":22.619047619047596,"end_time":22.857142857142833,"midi_note":57,"velocity":80,"confidence":1.0},{"start_time":22.857142857142833,"end_time":23.333333333333307,"midi_note":74,"velocity":80,"confidence":1.0},{"start_time":23.333333333333307,"end_time":23.571428571428545,"midi_note":67,"velocity":80,"confidence":1.0},{"start_time":23.571428571428545,"end_time":23.809523809523782,"midi_note":69,"velocity":80,"confidence":1.0},{"start_time":23.809523809523782,"end_time":24.04761904761902,"midi_note":71,"velocity":80,"confidence":1.0},{"start_time":24.04761904761902,"end_time":24.285714285714256,"midi_note":72,"velocity":80,"confidence":1.0},{"start_time":24.285714285714256,"end_time":25.23809523809521,"midi_note":59,"velocity":80,"confidence":1.0},{"start_time":25.23809523809521,"end_time":25.714285714285683,"midi_note":57,"velocity":80,"confidence":1.0},{"start_time":25.714285714285683,"end_time":26.190476190476158,"midi_note":74,"velocity":80,"confidence":1.0},{"start_time":26.190476190476158,"end_time":26.666666666666632,"midi_note":67,"velocity":80,"confidence":1.0},{"start_time":26.666666666666632,"end_time":27.142857142857107,"midi_note":67,"velocity":80,"confidence":1.0},{"start_time":27.142857142857107,"end_time":27.61904761904758,"midi_note":55,"velocity":80,"confidence":1.0},{"start_time":27.61904761904758,"end_time":28.095238095238056,"midi_note":59,"velocity":80,"confidence":1.0},{"start_time":28.095238095238056,"end_time":28.57142857142853,"midi_note":55,"velocity":80,"confidence":1.0},{"start_time":28.57142857142853,"end_time":29.047619047619005,"midi_note":76,"velocity":80,"confidence":1.0},{"start_time":29.047619047619005,"end_time":29.285714285714242,"midi_note":72,"velocity":80,"confidence":1.0},{"start_time":29.285714285714242,"end_time":29.52380952380948,"midi_note":74,"velocity":80,"confidence":1.0},{"start_time":29.52380952380948,"end_time":29.761904761904717,"midi_note":76,"velocity":80,"confidence":1.0},{"start_time":29.761904761904717,"end_time":29.999999999999954,"midi_note":78,"velocity":80,"confidence":1.0},{"start_time":29.999999999999954,"end_time":31.42857142857138,"midi_note":60,"velocity":80,"confidence":1.0},{"start_time":31.42857142857138,"end_time":31.904761904761855,"midi_note":79,"velocity":80,"confidence":1.0},{"start_time":31.904761904761855,"end_time":32.38095238095233,"midi_note":67,"velocity":80,"confidence":1.0},{"start_time":32.38095238095233,"end_time":32.857142857142804,"midi_note":67,"velocity":80,"confidence":1.0},{"start_time":32.857142857142804,"end_time":33.33333333333328,"midi_note":59,"velocity":80,"confidence":1.0},{"start_time":33.33333333333328,"end_time":33.57142857142852,"midi_note":60,"velocity":80,"confidence":1.0},{"start_time":33.57142857142852,"end_time":33.80952380952376,"midi_note":59,"velocity":80,"confidence":1.0},{"start_time":33.80952380952376,"end_time":34.047619047619,"midi_note":57,"velocity":80,"confidence":1.0},{"start_time":34.047619047619,"end_time":34.28571428571424,"midi_note":55,"velocity":80,"confidence":1.0},{"start_time":34.28571428571424,"end_time":34.76190476190472,"midi_note":72,"velocity":80,"confidence":1.0},{"start_time":34.76190476190472,"end_time":34.99999999999996,"midi_note":74,"velocity":80,"confidence":1.0},{"start_time":34.99999999999996,"end_time":35.2380952380952,"midi_note":72,"velocity":80,"confidence":1.0},{"start_time":35.2380952380952,"end_time":35.47619047619044,"midi_note":71,"velocity":80,"confidence":1.0},{"start_time":35.47619047619044,"end_time":35.71428571428568,"midi_note":69,"velocity":80,"confidence":1.0},{"start_time":35.71428571428568,"end_time":36.66666666666663,"midi_note":57,"velocity":80,"confidence":1.0},{"start_time":36.66666666666663,"end_time":37.1428571428571,"midi_note":54,"velocity":80,"confidence":1.0},{"start_time":37.1428571428571,"end_time":37.61904761904758,"midi_note":71,"velocity":80,"confidence":1.0},{"start_time":37.61904761904758,"end_time":37.85714285714282,"midi_note":72,"velocity":80,"confidence":1.0},{"start_time":37.85714285714282,"end_time":38.09523809523806,"midi_note":71,"velocity":80,"confidence":1.0},{"start_time":38.09523809523806,"end_time":38.3333333333333,"midi_note":69,"velocity":80,"confidence":1.0},{"start_time":38.3333333333333,"end_time":38.57142857142854,"midi_note":67,"velocity":80,"confidence":1.0},{"start_time":38.57142857142854,"end_time":39.52380952380949,"midi_note":55,"velocity":80,"confidence":1.0},{"start_time":39.52380952380949,"end_time":39.999999999999964,"midi_note":59,"velocity":80,"confidence":1.0},{"start_time":39.999999999999964,"end_time":40.47619047619044,"midi_note":69,"velocity":80,"confidence":1.0},{"start_time":40.47619047619044,"end_time":40.71428571428568,"midi_note":71,"velocity":80,"confidence":1.0},{"start_time":40.71428571428568,"end_time":40.95238095238092,"midi_note":69,"velocity":80,"confidence":1.0},{"start_time":40.95238095238092,"end_time":41.19047619047616,"midi_note":67,"velocity":80,"confidence":1.0},{"start_time":41.19047619047616,"end_time":41.4285714285714,"midi_note":66,"velocity":80,"confidence":1.0},{"start_time":41.4285714285714,"end_time":41.90476190476188,"midi_note":60,"velocity":80,"confidence":1.0},{"start_time":41.90476190476188,"end_time":42.38095238095235,"midi_note":62,"velocity":80,"confidence":1.0},{"start_time":42.38095238095235,"end_time":42.857142857142826,"midi_note":50,"velocity":80,"confidence":1.0},{"start_time":42.857142857142826,"end_time":44.285714285714256,"midi_note":67,"velocity":80,"confidence":1.0},{"start_time":44.285714285714256,"end_time":45.238095238095205,"midi_note":55,"velocity":80,"confidence":1.0},{"start_time":45.238095238095205,"end_time":45.71428571428568,"midi_note":43,"velocity":80,"confidence":1.0},{"start_time":45.71428571428568,"end_time":46.190476190476154,"midi_note":83,"velocity":80,"confidence":1.0},{"start_time":46.190476190476154,"end_time":46.428571428571395,"midi_note":79,"velocity":80,"confidence":1.0},{"start_time":46.428571428571395,"end_time":46.666666666666636,"midi_note":81,"velocity":80,"confidence":1.0},{"start_time":46.666666666666636,"end_time":46.90476190476188,"midi_note":83,"velocity":80,"confidence":1.0},{"start_time":46.90476190476188,"end_time":47.14285714285712,"midi_note":79,"velocity":80,"confidence":1.0},{"start_time":47.14285714285712,"end_time":48.57142857142855,"midi_note":55,"velocity":80,"confidence":1.0},{"start_time":48.57142857142855,"end_time":49.04761904761902,"midi_note":81,"velocity":80,"confidence":1.0},{"start_time":49.04761904761902,"end_time":49.28571428571426,"midi_note":74,"velocity":80,"confidence":1.0},{"start_time":49.28571428571426,"end_time":49.523809523809504,"midi_note":76,"velocity":80,"confidence":1.0},{"start_time":49.523809523809504,"end_time":49.761904761904745,"midi_note":78,"velocity":80,"confidence":1.0},{"start_time":49.761904761904745,"end_time":49.999999999999986,"midi_note":74,"velocity":80,"confidence":1.0},{"start_time":49.999999999999986,"end_time":51.428571428571416,"midi_note":54,"velocity":80,"confidence":1.0},{"start_time":51.428571428571416,"end_time":51.90476190476189,"midi_note":79,"velocity":80,"confidence":1.0},{"start_time":51.90476190476189,"end_time":52.14285714285713,"midi_note":76,"velocity":80,"confidence":1.0},{"start_time":52.14285714285713,"end_time":52.38095238095237,"midi_note":78,"velocity":80,"confidence":1.0},{"start_time":52.38095238095237,"end_time":52.61904761904761,"midi_note":79,"velocity":80,"confidence":1.0},{"start_time":52.61904761904761,"end_time":52.857142857142854,"midi_note":74,"velocity":80,"confidence":1.0},{"start_time":52.857142857142854,"end_time":53.33333333333333,"midi_note":52,"velocity":80,"confidence":1.0},{"start_time":53.33333333333333,"end_time":53.8095238095238,"midi_note":55,"velocity":80,"confidence":1.0},{"start_time":53.8095238095238,"end_time":54.28571428571428,"midi_note":52,"velocity":80,"confidence":1.0},{"start_time":54.28571428571428,"end_time":54.76190476190475,"midi_note":73,"velocity":80,"confidence":1.0},{"start_time":54.76190476190475,"end_time":54.99999999999999,"midi_note":71,"velocity":80,"confidence":1.0},{"start_time":54.99999999999999,"end_time":55.238095238095234,"midi_note":73,"velocity":80,"confidence":1.0},{"start_time":55.238095238095234,"end_time":55.71428571428571,"midi_note":69,"velocity":80,"confidence":1.0},{"start_time":55.71428571428571,"end_time":56.66666666666666,"midi_note":57,"velocity":80,"confidence":1.0},{"start_time":56.66666666666666,"end_time":57.14285714285713,"midi_note":45,"velocity":80,"confidence":1.0},{"start_time":57.14285714285713,"end_time":57.38095238095237,"midi_note":69,"velocity":80,"confidence":1.0},{"start_time":57.38095238095237,"end_time":57.61904761904761,"midi_note":71,"velocity":80,"confidence":1.0},{"start_time":57.61904761904761,"end_time":57.857142857142854,"midi_note":73,"velocity":80,"confidence":1.0},{"start_time":57.857142857142854,"end_time":58.095238095238095,"midi_note":74,"velocity":80,"confidence":1.0},{"start_time":58.095238095238095,"end_time":58.333333333333336,"midi_note":76,"velocity":80,"confidence":1.0},{"start_time":58.333333333333336,"end_time":58.57142857142858,"midi_note":78,"velocity":80,"confidence":1.0},{"start_time":58.57142857142858,"end_time":60.00000000000001,"midi_note":57,"velocity":80,"confidence":1.0},{"start_time":60.00000000000001,"end_time":60.47619047619048,"midi_note":79,"velocity":80,"confidence":1.0},{"start_time":60.47619047619048,"end_time":60.952380952380956,"midi_note":78,"velocity":80,"confidence":1.0},{"start_time":60.952380952380956,"end_time":61.42857142857143,"midi_note":76,"velocity":80,"confidence":1.0},{"start_time":61.42857142857143,"end_time":61.904761904761905,"midi_note":59,"velocity":80,"confidence":1.0},{"start_time":61.904761904761905,"end_time":62.38095238095238,"midi_note":62,"velocity":80,"confidence":1.0},{"start_time":62.38095238095238,"end_time":62.857142857142854,"midi_note":61,"velocity":80,"confidence":1.0},{"start_time":62.857142857142854,"end_time":63.33333333333333,"midi_note":78,"velocity":80,"confidence":1.0},{"start_time":63.33333333333333,"end_time":63.8095238095238,"midi_note":69,"velocity":80,"confidence":1.0},{"start_time":63.8095238095238,"end_time":64.28571428571428,"midi_note":73,"velocity":80,"confidence":1.0},{"start_time":64.28571428571428,"end_time":64.76190476190476,"midi_note":62,"velocity":80,"confidence":1.0},{"start_time":64.76190476190476,"end_time":65.23809523809524,"midi_note":54,"velocity":80,"confidence":1.0},{"start_time":65.23809523809524,"end_time":65.71428571428572,"midi_note":57,"velocity":80,"confidence":1.0},{"start_time":65.71428571428572,"end_time":67.14285714285715,"midi_note":74,"velocity":80,"confidence":1.0},{"start_time":67.14285714285715,"end_time":67.61904761904763,"midi_note":62,"velocity":80,"confidence":1.0},{"start_time":67.61904761904763,"end_time":68.09523809523812,"midi_note":50,"velocity":80,"confidence":1.0},{"start_time":68.09523809523812,"end_time":68.5714285714286,"midi_note":60,"velocity":80,"confidence":1.0},{"start_time":70.00000000000003,"end_time":70.47619047619051,"midi_note":74,"velocity":80,"confidence":1.0},{"start_time":70.47619047619051,"end_time":70.71428571428575,"midi_note":67,"velocity":80,"confidence":1.0},{"start_time":70.71428571428575,"end_time":70.95238095238099,"midi_note":66,"velocity":80,"confidence":1.0},{"start_time":70.95238095238099,"end_time":71.42857142857147,"midi_note":67,"velocity":80,"confidence":1.0},{"start_time":71.42857142857147,"end_time":72.38095238095242,"midi_note":59,"velocity":80,"confidence":1.0},{"start_time":72.38095238095242,"end_time":72.8571428571429,"midi_note":59,"velocity":80,"confidence":1.0},{"start_time":73.33333333333339,"end_time":74.28571428571433,"midi_note":62,"velocity":80,"confidence":1.0},{"start_time":75.71428571428577,"end_time":76.19047619047625,"midi_note":76,"velocity":80,"confidence":1.0},{"start_time":76.19047619047625,"end_time":76.42857142857149,"midi_note":67,"velocity":80,"confidence":1.0},{"start_time":76.42857142857149,"end_time":76.66666666666673,"midi_note":66,"velocity":80,"confidence":1.0},{"start_time":76.66666666666673,"end_time":77.14285714285721,"midi_note":67,"velocity":80,"confidence":1.0},{"start_time":77.14285714285721,"end_time":78.09523809523816,"midi_note":60,"velocity":80,"confidence":1.0},{"start_time":78.09523809523816,"end_time":78.57142857142864,"midi_note":60,"velocity":80,"confidence":1.0},{"start_time":79.04761904761912,"end_time":80.00000000000007,"midi_note":64,"velocity":80,"confidence":1.0},{"start_time":80.00000000000007,"end_time":80.47619047619055,"midi_note":74,"velocity":80,"confidence":1.0},{"start_time":80.47619047619055,"end_time":80.95238095238103,"midi_note":72,"velocity":80,"confidence":1.0},{"start_time":80.95238095238103,"end_time":81.42857142857152,"midi_note":71,"velocity":80,"confidence":1.0},{"start_time":81.42857142857152,"end_time":81.904761904762,"midi_note":59,"velocity":80,"confidence":1.0},{"start_time":81.904761904762,"end_time":82.38095238095248,"midi_note":57,"velocity":80,"confidence":1.0},{"start_time":82.38095238095248,"end_time":82.85714285714296,"midi_note":55,"velocity":80,"confidence":1.0},{"start_time":82.85714285714296,"end_time":83.0952380952382,"midi_note":69,"velocity":80,"confidence":1.0},{"start_time":83.0952380952382,"end_time":83.33333333333344,"midi_note":67,"velocity":80,"confidence":1.0},{"start_time":83.33333333333344,"end_time":83.57142857142868,"midi_note":66,"velocity":80,"confidence":1.0},{"start_time":83.57142857142868,"end_time":83.80952380952392,"midi_note":67,"velocity":80,"confidence":1.0},{"start_time":83.80952380952392,"end_time":84.2857142857144,"midi_note":69,"velocity":80,"confidence":1.0},{"start_time":84.2857142857144,"end_time":85.23809523809535,"midi_note":62,"velocity":80,"confidence":1.0},{"start_time":85.71428571428584,"end_time":85.95238095238108,"midi_note":62,"velocity":80,"confidence":1.0},{"start_time":85.95238095238108,"end_time":86.19047619047632,"midi_note":64,"velocity":80,"confidence":1.0},{"start_time":86.19047619047632,"end_time":86.42857142857156,"midi_note":66,"velocity":80,"confidence":1.0},{"start_time":86.42857142857156,"end_time":86.6666666666668,"midi_note":67,"velocity":80,"confidence":1.0},{"start_time":86.6666666666668,"end_time":86.90476190476204,"midi_note":69,"velocity":80,"confidence":1.0},{"start_time":86.90476190476204,"end_time":87.14285714285728,"midi_note":71,"velocity":80,"confidence":1.0},{"start_time":87.14285714285728,"end_time":88.57142857142871,"midi_note":50,"velocity":80,"confidence":1.0},{"start_time":88.57142857142871,"end_time":89.0476190476192,"midi_note":54,"velocity":80,"confidence":1.0},{"start_time":89.0476190476192,"end_time":89.52380952380967,"midi_note":72,"velocity":80,"confidence":1.0},{"start_time":89.52380952380967,"end_time":90.00000000000016,"midi_note":71,"velocity":80,"confidence":1.0},{"start_time":90.00000000000016,"end_time":90.47619047619064,"midi_note":69,"velocity":80,"confidence":1.0},{"start_time":90.47619047619064,"end_time":90.95238095238112,"midi_note":52,"velocity":80,"confidence":1.0},{"start_time":90.95238095238112,"end_time":91.4285714285716,"midi_note":55,"velocity":80,"confidence":1.0},{"start_time":91.4285714285716,"end_time":91.90476190476208,"midi_note":54,"velocity":80,"confidence":1.0},{"start_time":91.90476190476208,"end_time":92.14285714285732,"midi_note":71,"velocity":80,"confidence":1.0},{"start_time":92.14285714285732,"end_time":92.38095238095256,"midi_note":74,"velocity":80,"confidence":1.0},{"start_time":92.38095238095256,"end_time":92.85714285714305,"midi_note":67,"velocity":80,"confidence":1.0},{"start_time":92.85714285714305,"end_time":93.33333333333353,"midi_note":66,"velocity":80,"confidence":1.0},{"start_time":93.33333333333353,"end_time":93.80952380952401,"midi_note":55,"velocity":80,"confidence":1.0},{"start_time":93.80952380952401,"end_time":94.28571428571449,"midi_note":47,"velocity":80,"confidence":1.0},{"start_time":94.28571428571449,"end_time":94.76190476190497,"midi_note":50,"velocity":80,"confidence":1.0},{"start_time":94.76190476190497,"end_time":96.1904761904764,"midi_note":59,"velocity":80,"confidence":1.0},{"start_time":94.76190476190497,"end_time":96.1904761904764,"midi_note":62,"velocity":80,"confidence":1.0},{"start_time":94.76190476190497,"end_time":96.1904761904764,"midi_note":67,"velocity":80,"confidence":1.0},{"start_time":96.1904761904764,"end_time":96.66666666666688,"midi_note":55,"velocity":80,"confidence":1.0},{"start_time":96.66666666666688,"end_time":97.14285714285737,"midi_note":50,"velocity":80,"confidence":1.0},{"start_time":97.14285714285737,"end_time":97.61904761904785,"midi_note":43,"velocity":80,"confidence":1.0}]', 132.0, 120.0, '2026-03-21T13:13:39.941453', '2026-03-21T13:13:39.941453', NULL, NULL);

INSERT INTO songs (id, song_title, artist, score_id, category, difficulty, is_favorite, created_at) 
VALUES ('99044965-1ae2-44b6-a0ef-7c45afe3878d', 'Bach: Minuet in G', 'J.S. Bach', '08f22e9e-1d07-4b55-9a68-ea05cf89121f', 'Clásica', 1, 0, '2026-03-21T13:13:39.941453');

INSERT INTO scores (id, title, audio_path, midi_data, music_xml, note_events, duration, tempo, created_at, updated_at, checksum, spectrogram_data) 
VALUES ('f51553d8-cd38-40d6-b016-1083c2849e58', 'Beethoven: 5th Symphony', 'assets/audio/beethoven_5th_symphony.mp3', NULL, NULL, '[{"start_time":0.18292682926829268,"end_time":0.36585365853658536,"midi_note":67,"velocity":80,"confidence":1.0},{"start_time":0.36585365853658536,"end_time":0.5487804878048781,"midi_note":67,"velocity":80,"confidence":1.0},{"start_time":0.5487804878048781,"end_time":0.7317073170731707,"midi_note":67,"velocity":80,"confidence":1.0},{"start_time":0.9146341463414633,"end_time":1.097560975609756,"midi_note":43,"velocity":80,"confidence":1.0},{"start_time":0.9146341463414633,"end_time":1.097560975609756,"midi_note":55,"velocity":80,"confidence":1.0},{"start_time":1.097560975609756,"end_time":1.2804878048780486,"midi_note":43,"velocity":80,"confidence":1.0},{"start_time":1.097560975609756,"end_time":1.2804878048780486,"midi_note":55,"velocity":80,"confidence":1.0},{"start_time":1.2804878048780486,"end_time":1.4634146341463412,"midi_note":43,"velocity":80,"confidence":1.0},{"start_time":1.2804878048780486,"end_time":1.4634146341463412,"midi_note":55,"velocity":80,"confidence":1.0},{"start_time":1.4634146341463412,"end_time":3.463414634146341,"midi_note":63,"velocity":80,"confidence":1.0},{"start_time":3.463414634146341,"end_time":5.463414634146341,"midi_note":39,"velocity":80,"confidence":1.0},{"start_time":3.463414634146341,"end_time":5.463414634146341,"midi_note":51,"velocity":80,"confidence":1.0},{"start_time":5.646341463414633,"end_time":5.829268292682926,"midi_note":65,"velocity":80,"confidence":1.0},{"start_time":5.829268292682926,"end_time":6.012195121951218,"midi_note":65,"velocity":80,"confidence":1.0},{"start_time":6.012195121951218,"end_time":6.195121951219511,"midi_note":65,"velocity":80,"confidence":1.0},{"start_time":6.378048780487803,"end_time":6.560975609756095,"midi_note":41,"velocity":80,"confidence":1.0},{"start_time":6.378048780487803,"end_time":6.560975609756095,"midi_note":53,"velocity":80,"confidence":1.0},{"start_time":6.560975609756095,"end_time":6.743902439024388,"midi_note":41,"velocity":80,"confidence":1.0},{"start_time":6.560975609756095,"end_time":6.743902439024388,"midi_note":53,"velocity":80,"confidence":1.0},{"start_time":6.743902439024388,"end_time":6.92682926829268,"midi_note":41,"velocity":80,"confidence":1.0},{"start_time":6.743902439024388,"end_time":6.92682926829268,"midi_note":53,"velocity":80,"confidence":1.0},{"start_time":6.92682926829268,"end_time":7.658536585365851,"midi_note":62,"velocity":80,"confidence":1.0},{"start_time":7.658536585365851,"end_time":8.390243902439021,"midi_note":38,"velocity":80,"confidence":1.0},{"start_time":7.658536585365851,"end_time":8.390243902439021,"midi_note":50,"velocity":80,"confidence":1.0},{"start_time":8.390243902439021,"end_time":10.390243902439021,"midi_note":62,"velocity":80,"confidence":1.0},{"start_time":10.390243902439021,"end_time":12.390243902439021,"midi_note":38,"velocity":80,"confidence":1.0},{"start_time":10.390243902439021,"end_time":12.390243902439021,"midi_note":50,"velocity":80,"confidence":1.0},{"start_time":12.573170731707314,"end_time":12.756097560975608,"midi_note":67,"velocity":80,"confidence":1.0},{"start_time":12.756097560975608,"end_time":12.939024390243901,"midi_note":67,"velocity":80,"confidence":1.0},{"start_time":12.939024390243901,"end_time":13.121951219512194,"midi_note":67,"velocity":80,"confidence":1.0},{"start_time":14.036585365853659,"end_time":14.219512195121952,"midi_note":68,"velocity":80,"confidence":1.0},{"start_time":14.219512195121952,"end_time":14.402439024390246,"midi_note":68,"velocity":80,"confidence":1.0},{"start_time":14.402439024390246,"end_time":14.585365853658539,"midi_note":68,"velocity":80,"confidence":1.0},{"start_time":14.585365853658539,"end_time":15.31707317073171,"midi_note":60,"velocity":80,"confidence":1.0},{"start_time":14.585365853658539,"end_time":15.31707317073171,"midi_note":63,"velocity":80,"confidence":1.0},{"start_time":15.500000000000004,"end_time":15.682926829268297,"midi_note":75,"velocity":80,"confidence":1.0},{"start_time":15.682926829268297,"end_time":15.86585365853659,"midi_note":75,"velocity":80,"confidence":1.0},{"start_time":15.86585365853659,"end_time":16.048780487804883,"midi_note":75,"velocity":80,"confidence":1.0},{"start_time":16.048780487804883,"end_time":16.780487804878053,"midi_note":67,"velocity":80,"confidence":1.0},{"start_time":16.780487804878053,"end_time":17.512195121951223,"midi_note":60,"velocity":80,"confidence":1.0},{"start_time":16.780487804878053,"end_time":17.512195121951223,"midi_note":63,"velocity":80,"confidence":1.0},{"start_time":17.512195121951223,"end_time":18.243902439024392,"midi_note":72,"velocity":80,"confidence":1.0},{"start_time":18.243902439024392,"end_time":18.975609756097562,"midi_note":67,"velocity":80,"confidence":1.0},{"start_time":18.975609756097562,"end_time":19.70731707317073,"midi_note":60,"velocity":80,"confidence":1.0},{"start_time":18.975609756097562,"end_time":19.70731707317073,"midi_note":63,"velocity":80,"confidence":1.0},{"start_time":19.70731707317073,"end_time":20.073170731707318,"midi_note":72,"velocity":80,"confidence":1.0},{"start_time":20.439024390243905,"end_time":20.621951219512198,"midi_note":67,"velocity":80,"confidence":1.0},{"start_time":20.621951219512198,"end_time":20.80487804878049,"midi_note":67,"velocity":80,"confidence":1.0},{"start_time":20.80487804878049,"end_time":20.987804878048784,"midi_note":67,"velocity":80,"confidence":1.0},{"start_time":20.987804878048784,"end_time":21.170731707317078,"midi_note":67,"velocity":80,"confidence":1.0},{"start_time":21.170731707317078,"end_time":21.536585365853664,"midi_note":60,"velocity":80,"confidence":1.0},{"start_time":21.170731707317078,"end_time":21.536585365853664,"midi_note":63,"velocity":80,"confidence":1.0},{"start_time":22.085365853658544,"end_time":22.268292682926838,"midi_note":68,"velocity":80,"confidence":1.0},{"start_time":22.268292682926838,"end_time":22.45121951219513,"midi_note":68,"velocity":80,"confidence":1.0},{"start_time":22.45121951219513,"end_time":22.634146341463424,"midi_note":68,"velocity":80,"confidence":1.0},{"start_time":22.634146341463424,"end_time":23.365853658536594,"midi_note":59,"velocity":80,"confidence":1.0},{"start_time":22.634146341463424,"end_time":23.365853658536594,"midi_note":62,"velocity":80,"confidence":1.0},{"start_time":23.548780487804887,"end_time":23.73170731707318,"midi_note":77,"velocity":80,"confidence":1.0},{"start_time":23.73170731707318,"end_time":23.914634146341474,"midi_note":77,"velocity":80,"confidence":1.0},{"start_time":23.914634146341474,"end_time":24.097560975609767,"midi_note":77,"velocity":80,"confidence":1.0},{"start_time":24.097560975609767,"end_time":24.829268292682936,"midi_note":67,"velocity":80,"confidence":1.0},{"start_time":24.829268292682936,"end_time":25.560975609756106,"midi_note":59,"velocity":80,"confidence":1.0},{"start_time":24.829268292682936,"end_time":25.560975609756106,"midi_note":62,"velocity":80,"confidence":1.0},{"start_time":25.560975609756106,"end_time":26.292682926829276,"midi_note":74,"velocity":80,"confidence":1.0},{"start_time":26.292682926829276,"end_time":27.024390243902445,"midi_note":67,"velocity":80,"confidence":1.0},{"start_time":27.024390243902445,"end_time":27.756097560975615,"midi_note":59,"velocity":80,"confidence":1.0},{"start_time":27.024390243902445,"end_time":27.756097560975615,"midi_note":62,"velocity":80,"confidence":1.0},{"start_time":27.756097560975615,"end_time":27.939024390243908,"midi_note":74,"velocity":80,"confidence":1.0},{"start_time":27.939024390243908,"end_time":28.1219512195122,"midi_note":79,"velocity":80,"confidence":1.0},{"start_time":28.1219512195122,"end_time":28.304878048780495,"midi_note":79,"velocity":80,"confidence":1.0},{"start_time":28.304878048780495,"end_time":28.487804878048788,"midi_note":77,"velocity":80,"confidence":1.0},{"start_time":28.487804878048788,"end_time":29.219512195121958,"midi_note":67,"velocity":80,"confidence":1.0},{"start_time":29.219512195121958,"end_time":29.951219512195127,"midi_note":59,"velocity":80,"confidence":1.0},{"start_time":29.219512195121958,"end_time":29.951219512195127,"midi_note":62,"velocity":80,"confidence":1.0},{"start_time":29.951219512195127,"end_time":30.682926829268297,"midi_note":75,"velocity":80,"confidence":1.0},{"start_time":30.86585365853659,"end_time":31.048780487804883,"midi_note":63,"velocity":80,"confidence":1.0},{"start_time":31.048780487804883,"end_time":31.231707317073177,"midi_note":63,"velocity":80,"confidence":1.0},{"start_time":31.231707317073177,"end_time":31.41463414634147,"midi_note":65,"velocity":80,"confidence":1.0},{"start_time":31.41463414634147,"end_time":32.14634146341464,"midi_note":60,"velocity":80,"confidence":1.0},{"start_time":32.14634146341464,"end_time":32.32926829268293,"midi_note":74,"velocity":80,"confidence":1.0},{"start_time":32.32926829268293,"end_time":32.51219512195122,"midi_note":79,"velocity":80,"confidence":1.0},{"start_time":32.51219512195122,"end_time":32.69512195121951,"midi_note":79,"velocity":80,"confidence":1.0},{"start_time":32.69512195121951,"end_time":32.8780487804878,"midi_note":77,"velocity":80,"confidence":1.0},{"start_time":32.8780487804878,"end_time":33.609756097560975,"midi_note":67,"velocity":80,"confidence":1.0},{"start_time":33.609756097560975,"end_time":34.34146341463415,"midi_note":59,"velocity":80,"confidence":1.0},{"start_time":34.34146341463415,"end_time":35.07317073170732,"midi_note":75,"velocity":80,"confidence":1.0},{"start_time":35.07317073170732,"end_time":35.25609756097561,"midi_note":67,"velocity":80,"confidence":1.0},{"start_time":35.25609756097561,"end_time":35.4390243902439,"midi_note":63,"velocity":80,"confidence":1.0},{"start_time":35.4390243902439,"end_time":35.62195121951219,"midi_note":63,"velocity":80,"confidence":1.0},{"start_time":35.62195121951219,"end_time":35.80487804878048,"midi_note":65,"velocity":80,"confidence":1.0},{"start_time":35.80487804878048,"end_time":36.536585365853654,"midi_note":60,"velocity":80,"confidence":1.0},{"start_time":36.536585365853654,"end_time":36.71951219512194,"midi_note":74,"velocity":80,"confidence":1.0},{"start_time":36.71951219512194,"end_time":36.90243902439023,"midi_note":67,"velocity":80,"confidence":1.0},{"start_time":36.71951219512194,"end_time":36.90243902439023,"midi_note":74,"velocity":80,"confidence":1.0},{"start_time":36.71951219512194,"end_time":36.90243902439023,"midi_note":79,"velocity":80,"confidence":1.0},{"start_time":36.90243902439023,"end_time":37.08536585365852,"midi_note":67,"velocity":80,"confidence":1.0},{"start_time":36.90243902439023,"end_time":37.08536585365852,"midi_note":74,"velocity":80,"confidence":1.0},{"start_time":36.90243902439023,"end_time":37.08536585365852,"midi_note":79,"velocity":80,"confidence":1.0},{"start_time":37.08536585365852,"end_time":37.26829268292681,"midi_note":67,"velocity":80,"confidence":1.0},{"start_time":37.08536585365852,"end_time":37.26829268292681,"midi_note":74,"velocity":80,"confidence":1.0},{"start_time":37.08536585365852,"end_time":37.26829268292681,"midi_note":77,"velocity":80,"confidence":1.0},{"start_time":37.26829268292681,"end_time":37.4512195121951,"midi_note":59,"velocity":80,"confidence":1.0},{"start_time":37.26829268292681,"end_time":37.4512195121951,"midi_note":67,"velocity":80,"confidence":1.0},{"start_time":37.4512195121951,"end_time":37.63414634146339,"midi_note":47,"velocity":80,"confidence":1.0},{"start_time":37.4512195121951,"end_time":37.63414634146339,"midi_note":55,"velocity":80,"confidence":1.0},{"start_time":37.4512195121951,"end_time":37.63414634146339,"midi_note":59,"velocity":80,"confidence":1.0},{"start_time":37.63414634146339,"end_time":37.81707317073168,"midi_note":47,"velocity":80,"confidence":1.0},{"start_time":37.63414634146339,"end_time":37.81707317073168,"midi_note":55,"velocity":80,"confidence":1.0},{"start_time":37.63414634146339,"end_time":37.81707317073168,"midi_note":59,"velocity":80,"confidence":1.0},{"start_time":37.81707317073168,"end_time":37.99999999999997,"midi_note":47,"velocity":80,"confidence":1.0},{"start_time":37.81707317073168,"end_time":37.99999999999997,"midi_note":55,"velocity":80,"confidence":1.0},{"start_time":37.81707317073168,"end_time":37.99999999999997,"midi_note":59,"velocity":80,"confidence":1.0},{"start_time":37.99999999999997,"end_time":38.36585365853656,"midi_note":67,"velocity":80,"confidence":1.0},{"start_time":37.99999999999997,"end_time":38.36585365853656,"midi_note":72,"velocity":80,"confidence":1.0},{"start_time":37.99999999999997,"end_time":38.36585365853656,"midi_note":75,"velocity":80,"confidence":1.0},{"start_time":38.731707317073145,"end_time":39.09756097560973,"midi_note":48,"velocity":80,"confidence":1.0},{"start_time":38.731707317073145,"end_time":39.09756097560973,"midi_note":55,"velocity":80,"confidence":1.0},{"start_time":38.731707317073145,"end_time":39.09756097560973,"midi_note":60,"velocity":80,"confidence":1.0},{"start_time":39.46341463414632,"end_time":39.829268292682904,"midi_note":60,"velocity":80,"confidence":1.0},{"start_time":39.46341463414632,"end_time":39.829268292682904,"midi_note":66,"velocity":80,"confidence":1.0},{"start_time":39.46341463414632,"end_time":39.829268292682904,"midi_note":72,"velocity":80,"confidence":1.0},{"start_time":40.19512195121949,"end_time":40.56097560975608,"midi_note":44,"velocity":80,"confidence":1.0},{"start_time":40.19512195121949,"end_time":40.56097560975608,"midi_note":48,"velocity":80,"confidence":1.0},{"start_time":40.19512195121949,"end_time":40.56097560975608,"midi_note":56,"velocity":80,"confidence":1.0},{"start_time":40.926829268292664,"end_time":42.926829268292664,"midi_note":79,"velocity":80,"confidence":1.0},{"start_time":42.926829268292664,"end_time":43.926829268292664,"midi_note":67,"velocity":80,"confidence":1.0},{"start_time":42.926829268292664,"end_time":43.926829268292664,"midi_note":71,"velocity":80,"confidence":1.0},{"start_time":44.926829268292664,"end_time":45.926829268292664,"midi_note":43,"velocity":80,"confidence":1.0},{"start_time":44.926829268292664,"end_time":45.926829268292664,"midi_note":50,"velocity":80,"confidence":1.0},{"start_time":44.926829268292664,"end_time":45.926829268292664,"midi_note":55,"velocity":80,"confidence":1.0},{"start_time":47.109756097560954,"end_time":47.292682926829244,"midi_note":68,"velocity":80,"confidence":1.0},{"start_time":47.109756097560954,"end_time":47.292682926829244,"midi_note":80,"velocity":80,"confidence":1.0},{"start_time":47.292682926829244,"end_time":47.47560975609753,"midi_note":68,"velocity":80,"confidence":1.0},{"start_time":47.292682926829244,"end_time":47.47560975609753,"midi_note":80,"velocity":80,"confidence":1.0},{"start_time":47.47560975609753,"end_time":47.65853658536582,"midi_note":68,"velocity":80,"confidence":1.0},{"start_time":47.47560975609753,"end_time":47.65853658536582,"midi_note":80,"velocity":80,"confidence":1.0},{"start_time":47.84146341463411,"end_time":48.0243902439024,"midi_note":44,"velocity":80,"confidence":1.0},{"start_time":47.84146341463411,"end_time":48.0243902439024,"midi_note":56,"velocity":80,"confidence":1.0},{"start_time":48.0243902439024,"end_time":48.20731707317069,"midi_note":44,"velocity":80,"confidence":1.0},{"start_time":48.0243902439024,"end_time":48.20731707317069,"midi_note":56,"velocity":80,"confidence":1.0},{"start_time":48.20731707317069,"end_time":48.39024390243898,"midi_note":44,"velocity":80,"confidence":1.0},{"start_time":48.20731707317069,"end_time":48.39024390243898,"midi_note":56,"velocity":80,"confidence":1.0},{"start_time":48.39024390243898,"end_time":49.121951219512155,"midi_note":65,"velocity":80,"confidence":1.0},{"start_time":48.39024390243898,"end_time":49.121951219512155,"midi_note":77,"velocity":80,"confidence":1.0},{"start_time":49.121951219512155,"end_time":49.85365853658533,"midi_note":41,"velocity":80,"confidence":1.0},{"start_time":49.121951219512155,"end_time":49.85365853658533,"midi_note":53,"velocity":80,"confidence":1.0},{"start_time":49.85365853658533,"end_time":51.85365853658533,"midi_note":65,"velocity":80,"confidence":1.0},{"start_time":49.85365853658533,"end_time":51.85365853658533,"midi_note":77,"velocity":80,"confidence":1.0},{"start_time":51.85365853658533,"end_time":53.85365853658533,"midi_note":41,"velocity":80,"confidence":1.0},{"start_time":51.85365853658533,"end_time":53.85365853658533,"midi_note":53,"velocity":80,"confidence":1.0},{"start_time":54.03658536585362,"end_time":54.21951219512191,"midi_note":68,"velocity":80,"confidence":1.0},{"start_time":54.21951219512191,"end_time":54.4024390243902,"midi_note":68,"velocity":80,"confidence":1.0},{"start_time":54.4024390243902,"end_time":54.58536585365849,"midi_note":68,"velocity":80,"confidence":1.0},{"start_time":55.31707317073166,"end_time":56.048780487804834,"midi_note":65,"velocity":80,"confidence":1.0},{"start_time":56.23170731707312,"end_time":56.41463414634141,"midi_note":62,"velocity":80,"confidence":1.0},{"start_time":56.41463414634141,"end_time":56.5975609756097,"midi_note":62,"velocity":80,"confidence":1.0},{"start_time":56.5975609756097,"end_time":56.78048780487799,"midi_note":62,"velocity":80,"confidence":1.0},{"start_time":57.512195121951166,"end_time":58.24390243902434,"midi_note":65,"velocity":80,"confidence":1.0},{"start_time":58.24390243902434,"end_time":58.97560975609751,"midi_note":59,"velocity":80,"confidence":1.0},{"start_time":59.1585365853658,"end_time":59.34146341463409,"midi_note":56,"velocity":80,"confidence":1.0},{"start_time":59.34146341463409,"end_time":59.52439024390238,"midi_note":56,"velocity":80,"confidence":1.0},{"start_time":59.52439024390238,"end_time":59.70731707317067,"midi_note":56,"velocity":80,"confidence":1.0},{"start_time":59.70731707317067,"end_time":60.439024390243844,"midi_note":65,"velocity":80,"confidence":1.0},{"start_time":60.439024390243844,"end_time":61.17073170731702,"midi_note":59,"velocity":80,"confidence":1.0},{"start_time":61.17073170731702,"end_time":61.90243902439019,"midi_note":55,"velocity":80,"confidence":1.0},{"start_time":62.08536585365848,"end_time":62.26829268292677,"midi_note":43,"velocity":80,"confidence":1.0},{"start_time":62.26829268292677,"end_time":62.45121951219506,"midi_note":43,"velocity":80,"confidence":1.0},{"start_time":62.45121951219506,"end_time":62.63414634146335,"midi_note":43,"velocity":80,"confidence":1.0},{"start_time":62.63414634146335,"end_time":62.81707317073164,"midi_note":63,"velocity":80,"confidence":1.0},{"start_time":62.81707317073164,"end_time":62.99999999999993,"midi_note":68,"velocity":80,"confidence":1.0},{"start_time":62.99999999999993,"end_time":63.18292682926822,"midi_note":68,"velocity":80,"confidence":1.0},{"start_time":63.18292682926822,"end_time":63.36585365853651,"midi_note":68,"velocity":80,"confidence":1.0},{"start_time":63.36585365853651,"end_time":63.731707317073095,"midi_note":60,"velocity":80,"confidence":1.0},{"start_time":64.09756097560968,"end_time":64.46341463414626,"midi_note":55,"velocity":80,"confidence":1.0},{"start_time":64.82926829268284,"end_time":65.19512195121942,"midi_note":48,"velocity":80,"confidence":1.0},{"start_time":65.560975609756,"end_time":66.29268292682917,"midi_note":65,"velocity":80,"confidence":1.0},{"start_time":66.47560975609747,"end_time":66.65853658536577,"midi_note":62,"velocity":80,"confidence":1.0},{"start_time":66.65853658536577,"end_time":66.84146341463406,"midi_note":62,"velocity":80,"confidence":1.0},{"start_time":66.84146341463406,"end_time":67.02439024390236,"midi_note":62,"velocity":80,"confidence":1.0},{"start_time":67.75609756097553,"end_time":68.4878048780487,"midi_note":65,"velocity":80,"confidence":1.0},{"start_time":68.4878048780487,"end_time":69.21951219512188,"midi_note":59,"velocity":80,"confidence":1.0},{"start_time":69.40243902439018,"end_time":69.58536585365847,"midi_note":56,"velocity":80,"confidence":1.0},{"start_time":69.58536585365847,"end_time":69.76829268292677,"midi_note":56,"velocity":80,"confidence":1.0},{"start_time":69.76829268292677,"end_time":69.95121951219507,"midi_note":56,"velocity":80,"confidence":1.0},{"start_time":69.95121951219507,"end_time":70.13414634146336,"midi_note":65,"velocity":80,"confidence":1.0},{"start_time":70.13414634146336,"end_time":70.31707317073166,"midi_note":67,"velocity":80,"confidence":1.0},{"start_time":70.13414634146336,"end_time":70.31707317073166,"midi_note":74,"velocity":80,"confidence":1.0},{"start_time":70.13414634146336,"end_time":70.31707317073166,"midi_note":77,"velocity":80,"confidence":1.0},{"start_time":70.31707317073166,"end_time":70.49999999999996,"midi_note":67,"velocity":80,"confidence":1.0},{"start_time":70.31707317073166,"end_time":70.49999999999996,"midi_note":74,"velocity":80,"confidence":1.0},{"start_time":70.31707317073166,"end_time":70.49999999999996,"midi_note":77,"velocity":80,"confidence":1.0},{"start_time":70.49999999999996,"end_time":70.68292682926825,"midi_note":67,"velocity":80,"confidence":1.0},{"start_time":70.49999999999996,"end_time":70.68292682926825,"midi_note":74,"velocity":80,"confidence":1.0},{"start_time":70.49999999999996,"end_time":70.68292682926825,"midi_note":77,"velocity":80,"confidence":1.0},{"start_time":70.68292682926825,"end_time":71.04878048780483,"midi_note":59,"velocity":80,"confidence":1.0},{"start_time":71.41463414634141,"end_time":72.14634146341459,"midi_note":55,"velocity":80,"confidence":1.0},{"start_time":72.32926829268288,"end_time":72.51219512195118,"midi_note":43,"velocity":80,"confidence":1.0},{"start_time":72.51219512195118,"end_time":72.69512195121948,"midi_note":43,"velocity":80,"confidence":1.0},{"start_time":72.69512195121948,"end_time":72.87804878048777,"midi_note":43,"velocity":80,"confidence":1.0},{"start_time":72.87804878048777,"end_time":73.06097560975607,"midi_note":67,"velocity":80,"confidence":1.0},{"start_time":72.87804878048777,"end_time":73.06097560975607,"midi_note":72,"velocity":80,"confidence":1.0},{"start_time":72.87804878048777,"end_time":73.06097560975607,"midi_note":75,"velocity":80,"confidence":1.0},{"start_time":73.06097560975607,"end_time":73.24390243902437,"midi_note":67,"velocity":80,"confidence":1.0},{"start_time":73.24390243902437,"end_time":73.42682926829266,"midi_note":63,"velocity":80,"confidence":1.0},{"start_time":73.24390243902437,"end_time":73.42682926829266,"midi_note":72,"velocity":80,"confidence":1.0},{"start_time":73.42682926829266,"end_time":73.60975609756096,"midi_note":63,"velocity":80,"confidence":1.0},{"start_time":73.42682926829266,"end_time":73.60975609756096,"midi_note":72,"velocity":80,"confidence":1.0},{"start_time":73.60975609756096,"end_time":73.97560975609754,"midi_note":55,"velocity":80,"confidence":1.0},{"start_time":74.34146341463412,"end_time":74.7073170731707,"midi_note":48,"velocity":80,"confidence":1.0},{"start_time":75.07317073170728,"end_time":75.80487804878045,"midi_note":68,"velocity":80,"confidence":1.0},{"start_time":75.07317073170728,"end_time":75.80487804878045,"midi_note":72,"velocity":80,"confidence":1.0},{"start_time":75.80487804878045,"end_time":76.53658536585363,"midi_note":62,"velocity":80,"confidence":1.0},{"start_time":75.80487804878045,"end_time":76.53658536585363,"midi_note":65,"velocity":80,"confidence":1.0},{"start_time":76.71951219512192,"end_time":76.90243902439022,"midi_note":36,"velocity":80,"confidence":1.0},{"start_time":76.71951219512192,"end_time":76.90243902439022,"midi_note":48,"velocity":80,"confidence":1.0},{"start_time":76.90243902439022,"end_time":77.08536585365852,"midi_note":36,"velocity":80,"confidence":1.0},{"start_time":76.90243902439022,"end_time":77.08536585365852,"midi_note":48,"velocity":80,"confidence":1.0},{"start_time":77.08536585365852,"end_time":77.26829268292681,"midi_note":36,"velocity":80,"confidence":1.0},{"start_time":77.08536585365852,"end_time":77.26829268292681,"midi_note":48,"velocity":80,"confidence":1.0},{"start_time":77.26829268292681,"end_time":77.45121951219511,"midi_note":68,"velocity":80,"confidence":1.0},{"start_time":77.26829268292681,"end_time":77.45121951219511,"midi_note":71,"velocity":80,"confidence":1.0},{"start_time":77.45121951219511,"end_time":77.6341463414634,"midi_note":65,"velocity":80,"confidence":1.0},{"start_time":77.45121951219511,"end_time":77.6341463414634,"midi_note":68,"velocity":80,"confidence":1.0},{"start_time":77.45121951219511,"end_time":77.6341463414634,"midi_note":71,"velocity":80,"confidence":1.0},{"start_time":77.6341463414634,"end_time":77.8170731707317,"midi_note":65,"velocity":80,"confidence":1.0},{"start_time":77.6341463414634,"end_time":77.8170731707317,"midi_note":68,"velocity":80,"confidence":1.0},{"start_time":77.6341463414634,"end_time":77.8170731707317,"midi_note":71,"velocity":80,"confidence":1.0},{"start_time":77.8170731707317,"end_time":78.0,"midi_note":74,"velocity":80,"confidence":1.0},{"start_time":78.0,"end_time":78.1829268292683,"midi_note":62,"velocity":80,"confidence":1.0},{"start_time":78.0,"end_time":78.1829268292683,"midi_note":65,"velocity":80,"confidence":1.0},{"start_time":78.73170731707317,"end_time":79.09756097560975,"midi_note":36,"velocity":80,"confidence":1.0},{"start_time":78.73170731707317,"end_time":79.09756097560975,"midi_note":48,"velocity":80,"confidence":1.0},{"start_time":79.46341463414633,"end_time":80.1951219512195,"midi_note":63,"velocity":80,"confidence":1.0},{"start_time":79.46341463414633,"end_time":80.1951219512195,"midi_note":67,"velocity":80,"confidence":1.0},{"start_time":79.46341463414633,"end_time":80.1951219512195,"midi_note":74,"velocity":80,"confidence":1.0},{"start_time":80.3780487804878,"end_time":80.5609756097561,"midi_note":36,"velocity":80,"confidence":1.0},{"start_time":80.3780487804878,"end_time":80.5609756097561,"midi_note":48,"velocity":80,"confidence":1.0},{"start_time":80.5609756097561,"end_time":80.7439024390244,"midi_note":36,"velocity":80,"confidence":1.0},{"start_time":80.5609756097561,"end_time":80.7439024390244,"midi_note":48,"velocity":80,"confidence":1.0},{"start_time":80.7439024390244,"end_time":80.92682926829269,"midi_note":36,"velocity":80,"confidence":1.0},{"start_time":80.7439024390244,"end_time":80.92682926829269,"midi_note":48,"velocity":80,"confidence":1.0},{"start_time":80.92682926829269,"end_time":81.10975609756099,"midi_note":63,"velocity":80,"confidence":1.0},{"start_time":80.92682926829269,"end_time":81.10975609756099,"midi_note":67,"velocity":80,"confidence":1.0},{"start_time":80.92682926829269,"end_time":81.10975609756099,"midi_note":72,"velocity":80,"confidence":1.0},{"start_time":81.10975609756099,"end_time":81.29268292682929,"midi_note":63,"velocity":80,"confidence":1.0},{"start_time":81.10975609756099,"end_time":81.29268292682929,"midi_note":67,"velocity":80,"confidence":1.0},{"start_time":81.10975609756099,"end_time":81.29268292682929,"midi_note":72,"velocity":80,"confidence":1.0},{"start_time":81.29268292682929,"end_time":81.47560975609758,"midi_note":63,"velocity":80,"confidence":1.0},{"start_time":81.29268292682929,"end_time":81.47560975609758,"midi_note":67,"velocity":80,"confidence":1.0},{"start_time":81.29268292682929,"end_time":81.47560975609758,"midi_note":72,"velocity":80,"confidence":1.0},{"start_time":81.47560975609758,"end_time":81.65853658536588,"midi_note":75,"velocity":80,"confidence":1.0},{"start_time":81.65853658536588,"end_time":82.02439024390246,"midi_note":36,"velocity":80,"confidence":1.0},{"start_time":81.65853658536588,"end_time":82.02439024390246,"midi_note":48,"velocity":80,"confidence":1.0},{"start_time":82.39024390243904,"end_time":82.57317073170734,"midi_note":65,"velocity":80,"confidence":1.0},{"start_time":82.39024390243904,"end_time":82.57317073170734,"midi_note":68,"velocity":80,"confidence":1.0},{"start_time":82.39024390243904,"end_time":82.57317073170734,"midi_note":75,"velocity":80,"confidence":1.0},{"start_time":82.57317073170734,"end_time":82.75609756097563,"midi_note":74,"velocity":80,"confidence":1.0},{"start_time":82.75609756097563,"end_time":82.93902439024393,"midi_note":74,"velocity":80,"confidence":1.0},{"start_time":82.93902439024393,"end_time":83.12195121951223,"midi_note":77,"velocity":80,"confidence":1.0},{"start_time":83.12195121951223,"end_time":83.4878048780488,"midi_note":48,"velocity":80,"confidence":1.0},{"start_time":83.12195121951223,"end_time":83.4878048780488,"midi_note":59,"velocity":80,"confidence":1.0},{"start_time":83.85365853658539,"end_time":84.03658536585368,"midi_note":67,"velocity":80,"confidence":1.0},{"start_time":83.85365853658539,"end_time":84.03658536585368,"midi_note":72,"velocity":80,"confidence":1.0},{"start_time":83.85365853658539,"end_time":84.03658536585368,"midi_note":77,"velocity":80,"confidence":1.0},{"start_time":84.03658536585368,"end_time":84.21951219512198,"midi_note":76,"velocity":80,"confidence":1.0},{"start_time":84.21951219512198,"end_time":84.40243902439028,"midi_note":76,"velocity":80,"confidence":1.0},{"start_time":84.40243902439028,"end_time":84.58536585365857,"midi_note":79,"velocity":80,"confidence":1.0},{"start_time":84.58536585365857,"end_time":84.95121951219515,"midi_note":48,"velocity":80,"confidence":1.0},{"start_time":84.58536585365857,"end_time":84.95121951219515,"midi_note":58,"velocity":80,"confidence":1.0},{"start_time":85.31707317073173,"end_time":85.50000000000003,"midi_note":68,"velocity":80,"confidence":1.0},{"start_time":85.31707317073173,"end_time":85.50000000000003,"midi_note":72,"velocity":80,"confidence":1.0},{"start_time":85.31707317073173,"end_time":85.50000000000003,"midi_note":79,"velocity":80,"confidence":1.0},{"start_time":85.50000000000003,"end_time":85.68292682926833,"midi_note":77,"velocity":80,"confidence":1.0},{"start_time":85.68292682926833,"end_time":85.86585365853662,"midi_note":77,"velocity":80,"confidence":1.0},{"start_time":85.86585365853662,"end_time":86.04878048780492,"midi_note":80,"velocity":80,"confidence":1.0},{"start_time":86.04878048780492,"end_time":86.4146341463415,"midi_note":48,"velocity":80,"confidence":1.0},{"start_time":86.04878048780492,"end_time":86.4146341463415,"midi_note":56,"velocity":80,"confidence":1.0},{"start_time":86.04878048780492,"end_time":86.4146341463415,"midi_note":60,"velocity":80,"confidence":1.0},{"start_time":86.78048780487808,"end_time":86.96341463414637,"midi_note":70,"velocity":80,"confidence":1.0},{"start_time":86.78048780487808,"end_time":86.96341463414637,"midi_note":76,"velocity":80,"confidence":1.0},{"start_time":86.78048780487808,"end_time":86.96341463414637,"midi_note":80,"velocity":80,"confidence":1.0},{"start_time":86.96341463414637,"end_time":87.14634146341467,"midi_note":79,"velocity":80,"confidence":1.0},{"start_time":87.14634146341467,"end_time":87.32926829268297,"midi_note":79,"velocity":80,"confidence":1.0},{"start_time":87.32926829268297,"end_time":87.51219512195127,"midi_note":82,"velocity":80,"confidence":1.0},{"start_time":87.51219512195127,"end_time":87.87804878048784,"midi_note":48,"velocity":80,"confidence":1.0},{"start_time":87.51219512195127,"end_time":87.87804878048784,"midi_note":52,"velocity":80,"confidence":1.0},{"start_time":87.51219512195127,"end_time":87.87804878048784,"midi_note":60,"velocity":80,"confidence":1.0},{"start_time":88.24390243902442,"end_time":88.42682926829272,"midi_note":72,"velocity":80,"confidence":1.0},{"start_time":88.24390243902442,"end_time":88.42682926829272,"midi_note":77,"velocity":80,"confidence":1.0},{"start_time":88.24390243902442,"end_time":88.42682926829272,"midi_note":82,"velocity":80,"confidence":1.0},{"start_time":88.42682926829272,"end_time":88.60975609756102,"midi_note":80,"velocity":80,"confidence":1.0},{"start_time":88.60975609756102,"end_time":88.79268292682931,"midi_note":80,"velocity":80,"confidence":1.0},{"start_time":88.79268292682931,"end_time":88.97560975609761,"midi_note":84,"velocity":80,"confidence":1.0},{"start_time":88.97560975609761,"end_time":89.34146341463419,"midi_note":48,"velocity":80,"confidence":1.0},{"start_time":88.97560975609761,"end_time":89.34146341463419,"midi_note":56,"velocity":80,"confidence":1.0},{"start_time":88.97560975609761,"end_time":89.34146341463419,"midi_note":60,"velocity":80,"confidence":1.0},{"start_time":89.70731707317077,"end_time":89.89024390243907,"midi_note":74,"velocity":80,"confidence":1.0},{"start_time":89.70731707317077,"end_time":89.89024390243907,"midi_note":80,"velocity":80,"confidence":1.0},{"start_time":89.70731707317077,"end_time":89.89024390243907,"midi_note":84,"velocity":80,"confidence":1.0},{"start_time":89.89024390243907,"end_time":90.07317073170736,"midi_note":83,"velocity":80,"confidence":1.0},{"start_time":90.07317073170736,"end_time":90.25609756097566,"midi_note":83,"velocity":80,"confidence":1.0},{"start_time":90.25609756097566,"end_time":90.43902439024396,"midi_note":86,"velocity":80,"confidence":1.0},{"start_time":90.43902439024396,"end_time":90.80487804878054,"midi_note":48,"velocity":80,"confidence":1.0},{"start_time":90.43902439024396,"end_time":90.80487804878054,"midi_note":53,"velocity":80,"confidence":1.0},{"start_time":90.43902439024396,"end_time":90.80487804878054,"midi_note":56,"velocity":80,"confidence":1.0},{"start_time":90.43902439024396,"end_time":90.80487804878054,"midi_note":60,"velocity":80,"confidence":1.0},{"start_time":91.17073170731712,"end_time":91.35365853658541,"midi_note":75,"velocity":80,"confidence":1.0},{"start_time":91.17073170731712,"end_time":91.35365853658541,"midi_note":79,"velocity":80,"confidence":1.0},{"start_time":91.17073170731712,"end_time":91.35365853658541,"midi_note":84,"velocity":80,"confidence":1.0},{"start_time":91.35365853658541,"end_time":91.53658536585371,"midi_note":75,"velocity":80,"confidence":1.0},{"start_time":91.35365853658541,"end_time":91.53658536585371,"midi_note":87,"velocity":80,"confidence":1.0},{"start_time":91.53658536585371,"end_time":91.71951219512201,"midi_note":75,"velocity":80,"confidence":1.0},{"start_time":91.53658536585371,"end_time":91.71951219512201,"midi_note":87,"velocity":80,"confidence":1.0},{"start_time":91.71951219512201,"end_time":91.9024390243903,"midi_note":75,"velocity":80,"confidence":1.0},{"start_time":91.71951219512201,"end_time":91.9024390243903,"midi_note":87,"velocity":80,"confidence":1.0},{"start_time":91.9024390243903,"end_time":92.0853658536586,"midi_note":48,"velocity":80,"confidence":1.0},{"start_time":91.9024390243903,"end_time":92.0853658536586,"midi_note":51,"velocity":80,"confidence":1.0},{"start_time":91.9024390243903,"end_time":92.0853658536586,"midi_note":55,"velocity":80,"confidence":1.0},{"start_time":91.9024390243903,"end_time":92.0853658536586,"midi_note":60,"velocity":80,"confidence":1.0},{"start_time":92.0853658536586,"end_time":92.2682926829269,"midi_note":48,"velocity":80,"confidence":1.0},{"start_time":92.0853658536586,"end_time":92.2682926829269,"midi_note":51,"velocity":80,"confidence":1.0},{"start_time":92.0853658536586,"end_time":92.2682926829269,"midi_note":55,"velocity":80,"confidence":1.0},{"start_time":92.0853658536586,"end_time":92.2682926829269,"midi_note":60,"velocity":80,"confidence":1.0},{"start_time":92.2682926829269,"end_time":92.4512195121952,"midi_note":48,"velocity":80,"confidence":1.0},{"start_time":92.2682926829269,"end_time":92.4512195121952,"midi_note":51,"velocity":80,"confidence":1.0},{"start_time":92.2682926829269,"end_time":92.4512195121952,"midi_note":55,"velocity":80,"confidence":1.0},{"start_time":92.2682926829269,"end_time":92.4512195121952,"midi_note":60,"velocity":80,"confidence":1.0},{"start_time":92.4512195121952,"end_time":92.63414634146349,"midi_note":48,"velocity":80,"confidence":1.0},{"start_time":92.4512195121952,"end_time":92.63414634146349,"midi_note":51,"velocity":80,"confidence":1.0},{"start_time":92.4512195121952,"end_time":92.63414634146349,"midi_note":55,"velocity":80,"confidence":1.0},{"start_time":92.4512195121952,"end_time":92.63414634146349,"midi_note":60,"velocity":80,"confidence":1.0},{"start_time":92.63414634146349,"end_time":92.81707317073179,"midi_note":72,"velocity":80,"confidence":1.0},{"start_time":92.63414634146349,"end_time":92.81707317073179,"midi_note":84,"velocity":80,"confidence":1.0},{"start_time":92.81707317073179,"end_time":93.00000000000009,"midi_note":79,"velocity":80,"confidence":1.0},{"start_time":93.00000000000009,"end_time":93.18292682926838,"midi_note":79,"velocity":80,"confidence":1.0},{"start_time":93.18292682926838,"end_time":93.36585365853668,"midi_note":79,"velocity":80,"confidence":1.0},{"start_time":93.36585365853668,"end_time":93.54878048780498,"midi_note":48,"velocity":80,"confidence":1.0},{"start_time":93.36585365853668,"end_time":93.54878048780498,"midi_note":51,"velocity":80,"confidence":1.0},{"start_time":93.36585365853668,"end_time":93.54878048780498,"midi_note":55,"velocity":80,"confidence":1.0},{"start_time":93.36585365853668,"end_time":93.54878048780498,"midi_note":60,"velocity":80,"confidence":1.0},{"start_time":93.54878048780498,"end_time":93.73170731707327,"midi_note":48,"velocity":80,"confidence":1.0},{"start_time":93.54878048780498,"end_time":93.73170731707327,"midi_note":51,"velocity":80,"confidence":1.0},{"start_time":93.54878048780498,"end_time":93.73170731707327,"midi_note":55,"velocity":80,"confidence":1.0},{"start_time":93.54878048780498,"end_time":93.73170731707327,"midi_note":60,"velocity":80,"confidence":1.0},{"start_time":93.73170731707327,"end_time":93.91463414634157,"midi_note":48,"velocity":80,"confidence":1.0},{"start_time":93.73170731707327,"end_time":93.91463414634157,"midi_note":51,"velocity":80,"confidence":1.0},{"start_time":93.73170731707327,"end_time":93.91463414634157,"midi_note":55,"velocity":80,"confidence":1.0},{"start_time":93.73170731707327,"end_time":93.91463414634157,"midi_note":60,"velocity":80,"confidence":1.0},{"start_time":93.91463414634157,"end_time":94.09756097560987,"midi_note":48,"velocity":80,"confidence":1.0},{"start_time":93.91463414634157,"end_time":94.09756097560987,"midi_note":51,"velocity":80,"confidence":1.0},{"start_time":93.91463414634157,"end_time":94.09756097560987,"midi_note":55,"velocity":80,"confidence":1.0},{"start_time":93.91463414634157,"end_time":94.09756097560987,"midi_note":60,"velocity":80,"confidence":1.0},{"start_time":94.09756097560987,"end_time":94.28048780487816,"midi_note":75,"velocity":80,"confidence":1.0},{"start_time":94.28048780487816,"end_time":94.46341463414646,"midi_note":72,"velocity":80,"confidence":1.0},{"start_time":94.46341463414646,"end_time":94.64634146341476,"midi_note":67,"velocity":80,"confidence":1.0},{"start_time":94.64634146341476,"end_time":94.82926829268305,"midi_note":67,"velocity":80,"confidence":1.0},{"start_time":94.82926829268305,"end_time":95.01219512195135,"midi_note":48,"velocity":80,"confidence":1.0},{"start_time":94.82926829268305,"end_time":95.01219512195135,"midi_note":51,"velocity":80,"confidence":1.0},{"start_time":94.82926829268305,"end_time":95.01219512195135,"midi_note":55,"velocity":80,"confidence":1.0},{"start_time":94.82926829268305,"end_time":95.01219512195135,"midi_note":60,"velocity":80,"confidence":1.0},{"start_time":95.01219512195135,"end_time":95.19512195121965,"midi_note":48,"velocity":80,"confidence":1.0},{"start_time":95.01219512195135,"end_time":95.19512195121965,"midi_note":51,"velocity":80,"confidence":1.0},{"start_time":95.01219512195135,"end_time":95.19512195121965,"midi_note":55,"velocity":80,"confidence":1.0},{"start_time":95.01219512195135,"end_time":95.19512195121965,"midi_note":60,"velocity":80,"confidence":1.0},{"start_time":95.19512195121965,"end_time":95.37804878048794,"midi_note":48,"velocity":80,"confidence":1.0},{"start_time":95.19512195121965,"end_time":95.37804878048794,"midi_note":51,"velocity":80,"confidence":1.0},{"start_time":95.19512195121965,"end_time":95.37804878048794,"midi_note":55,"velocity":80,"confidence":1.0},{"start_time":95.19512195121965,"end_time":95.37804878048794,"midi_note":60,"velocity":80,"confidence":1.0},{"start_time":95.37804878048794,"end_time":95.56097560975624,"midi_note":48,"velocity":80,"confidence":1.0},{"start_time":95.37804878048794,"end_time":95.56097560975624,"midi_note":51,"velocity":80,"confidence":1.0},{"start_time":95.37804878048794,"end_time":95.56097560975624,"midi_note":55,"velocity":80,"confidence":1.0},{"start_time":95.37804878048794,"end_time":95.56097560975624,"midi_note":60,"velocity":80,"confidence":1.0},{"start_time":95.56097560975624,"end_time":95.74390243902454,"midi_note":63,"velocity":80,"confidence":1.0},{"start_time":95.74390243902454,"end_time":95.92682926829283,"midi_note":60,"velocity":80,"confidence":1.0},{"start_time":95.92682926829283,"end_time":96.10975609756113,"midi_note":60,"velocity":80,"confidence":1.0},{"start_time":96.10975609756113,"end_time":96.29268292682943,"midi_note":60,"velocity":80,"confidence":1.0},{"start_time":96.29268292682943,"end_time":96.47560975609773,"midi_note":48,"velocity":80,"confidence":1.0},{"start_time":96.29268292682943,"end_time":96.47560975609773,"midi_note":51,"velocity":80,"confidence":1.0},{"start_time":96.47560975609773,"end_time":96.65853658536602,"midi_note":55,"velocity":80,"confidence":1.0},{"start_time":96.65853658536602,"end_time":96.84146341463432,"midi_note":48,"velocity":80,"confidence":1.0},{"start_time":96.65853658536602,"end_time":96.84146341463432,"midi_note":51,"velocity":80,"confidence":1.0},{"start_time":96.84146341463432,"end_time":97.02439024390262,"midi_note":55,"velocity":80,"confidence":1.0},{"start_time":97.02439024390262,"end_time":97.20731707317091,"midi_note":59,"velocity":80,"confidence":1.0},{"start_time":97.20731707317091,"end_time":97.39024390243921,"midi_note":77,"velocity":80,"confidence":1.0},{"start_time":97.20731707317091,"end_time":97.39024390243921,"midi_note":89,"velocity":80,"confidence":1.0},{"start_time":97.39024390243921,"end_time":97.5731707317075,"midi_note":74,"velocity":80,"confidence":1.0},{"start_time":97.39024390243921,"end_time":97.5731707317075,"midi_note":86,"velocity":80,"confidence":1.0},{"start_time":97.5731707317075,"end_time":97.7560975609758,"midi_note":74,"velocity":80,"confidence":1.0},{"start_time":97.5731707317075,"end_time":97.7560975609758,"midi_note":86,"velocity":80,"confidence":1.0},{"start_time":97.7560975609758,"end_time":97.9390243902441,"midi_note":43,"velocity":80,"confidence":1.0},{"start_time":97.7560975609758,"end_time":97.9390243902441,"midi_note":50,"velocity":80,"confidence":1.0},{"start_time":97.7560975609758,"end_time":97.9390243902441,"midi_note":53,"velocity":80,"confidence":1.0},{"start_time":97.9390243902441,"end_time":98.1219512195124,"midi_note":43,"velocity":80,"confidence":1.0},{"start_time":97.9390243902441,"end_time":98.1219512195124,"midi_note":50,"velocity":80,"confidence":1.0},{"start_time":97.9390243902441,"end_time":98.1219512195124,"midi_note":53,"velocity":80,"confidence":1.0},{"start_time":98.1219512195124,"end_time":98.3048780487807,"midi_note":43,"velocity":80,"confidence":1.0},{"start_time":98.1219512195124,"end_time":98.3048780487807,"midi_note":50,"velocity":80,"confidence":1.0},{"start_time":98.1219512195124,"end_time":98.3048780487807,"midi_note":53,"velocity":80,"confidence":1.0},{"start_time":98.3048780487807,"end_time":98.48780487804899,"midi_note":43,"velocity":80,"confidence":1.0},{"start_time":98.3048780487807,"end_time":98.48780487804899,"midi_note":50,"velocity":80,"confidence":1.0},{"start_time":98.3048780487807,"end_time":98.48780487804899,"midi_note":53,"velocity":80,"confidence":1.0},{"start_time":98.48780487804899,"end_time":98.67073170731729,"midi_note":83,"velocity":80,"confidence":1.0},{"start_time":98.67073170731729,"end_time":98.85365853658558,"midi_note":79,"velocity":80,"confidence":1.0},{"start_time":98.85365853658558,"end_time":99.03658536585388,"midi_note":77,"velocity":80,"confidence":1.0},{"start_time":99.03658536585388,"end_time":99.21951219512218,"midi_note":77,"velocity":80,"confidence":1.0},{"start_time":99.21951219512218,"end_time":99.40243902439047,"midi_note":43,"velocity":80,"confidence":1.0},{"start_time":99.21951219512218,"end_time":99.40243902439047,"midi_note":50,"velocity":80,"confidence":1.0},{"start_time":99.21951219512218,"end_time":99.40243902439047,"midi_note":53,"velocity":80,"confidence":1.0},{"start_time":99.40243902439047,"end_time":99.58536585365877,"midi_note":43,"velocity":80,"confidence":1.0},{"start_time":99.40243902439047,"end_time":99.58536585365877,"midi_note":50,"velocity":80,"confidence":1.0},{"start_time":99.40243902439047,"end_time":99.58536585365877,"midi_note":53,"velocity":80,"confidence":1.0},{"start_time":99.58536585365877,"end_time":99.76829268292707,"midi_note":43,"velocity":80,"confidence":1.0},{"start_time":99.58536585365877,"end_time":99.76829268292707,"midi_note":50,"velocity":80,"confidence":1.0},{"start_time":99.58536585365877,"end_time":99.76829268292707,"midi_note":53,"velocity":80,"confidence":1.0},{"start_time":99.76829268292707,"end_time":99.95121951219537,"midi_note":43,"velocity":80,"confidence":1.0},{"start_time":99.76829268292707,"end_time":99.95121951219537,"midi_note":50,"velocity":80,"confidence":1.0},{"start_time":99.76829268292707,"end_time":99.95121951219537,"midi_note":53,"velocity":80,"confidence":1.0},{"start_time":99.95121951219537,"end_time":100.13414634146366,"midi_note":74,"velocity":80,"confidence":1.0},{"start_time":100.13414634146366,"end_time":100.31707317073196,"midi_note":71,"velocity":80,"confidence":1.0},{"start_time":100.31707317073196,"end_time":100.50000000000026,"midi_note":67,"velocity":80,"confidence":1.0},{"start_time":100.50000000000026,"end_time":100.68292682926855,"midi_note":65,"velocity":80,"confidence":1.0},{"start_time":100.68292682926855,"end_time":100.86585365853685,"midi_note":43,"velocity":80,"confidence":1.0},{"start_time":100.68292682926855,"end_time":100.86585365853685,"midi_note":50,"velocity":80,"confidence":1.0},{"start_time":100.68292682926855,"end_time":100.86585365853685,"midi_note":53,"velocity":80,"confidence":1.0},{"start_time":100.86585365853685,"end_time":101.04878048780515,"midi_note":43,"velocity":80,"confidence":1.0},{"start_time":100.86585365853685,"end_time":101.04878048780515,"midi_note":50,"velocity":80,"confidence":1.0},{"start_time":100.86585365853685,"end_time":101.04878048780515,"midi_note":53,"velocity":80,"confidence":1.0},{"start_time":101.04878048780515,"end_time":101.23170731707344,"midi_note":43,"velocity":80,"confidence":1.0},{"start_time":101.04878048780515,"end_time":101.23170731707344,"midi_note":50,"velocity":80,"confidence":1.0},{"start_time":101.04878048780515,"end_time":101.23170731707344,"midi_note":53,"velocity":80,"confidence":1.0},{"start_time":101.23170731707344,"end_time":101.41463414634174,"midi_note":43,"velocity":80,"confidence":1.0},{"start_time":101.23170731707344,"end_time":101.41463414634174,"midi_note":50,"velocity":80,"confidence":1.0},{"start_time":101.23170731707344,"end_time":101.41463414634174,"midi_note":53,"velocity":80,"confidence":1.0},{"start_time":101.41463414634174,"end_time":101.59756097561004,"midi_note":62,"velocity":80,"confidence":1.0},{"start_time":101.59756097561004,"end_time":101.78048780487833,"midi_note":59,"velocity":80,"confidence":1.0},{"start_time":101.78048780487833,"end_time":101.96341463414663,"midi_note":60,"velocity":80,"confidence":1.0},{"start_time":101.96341463414663,"end_time":102.14634146341493,"midi_note":60,"velocity":80,"confidence":1.0},{"start_time":102.14634146341493,"end_time":102.32926829268322,"midi_note":43,"velocity":80,"confidence":1.0},{"start_time":102.14634146341493,"end_time":102.32926829268322,"midi_note":50,"velocity":80,"confidence":1.0},{"start_time":102.14634146341493,"end_time":102.32926829268322,"midi_note":53,"velocity":80,"confidence":1.0},{"start_time":102.32926829268322,"end_time":102.51219512195152,"midi_note":43,"velocity":80,"confidence":1.0},{"start_time":102.32926829268322,"end_time":102.51219512195152,"midi_note":50,"velocity":80,"confidence":1.0},{"start_time":102.32926829268322,"end_time":102.51219512195152,"midi_note":53,"velocity":80,"confidence":1.0},{"start_time":102.51219512195152,"end_time":102.69512195121982,"midi_note":48,"velocity":80,"confidence":1.0},{"start_time":102.51219512195152,"end_time":102.69512195121982,"midi_note":51,"velocity":80,"confidence":1.0},{"start_time":102.69512195121982,"end_time":102.87804878048811,"midi_note":55,"velocity":80,"confidence":1.0},{"start_time":102.87804878048811,"end_time":103.06097560975641,"midi_note":60,"velocity":80,"confidence":1.0},{"start_time":103.06097560975641,"end_time":103.24390243902471,"midi_note":75,"velocity":80,"confidence":1.0},{"start_time":103.06097560975641,"end_time":103.24390243902471,"midi_note":87,"velocity":80,"confidence":1.0},{"start_time":103.24390243902471,"end_time":103.426829268293,"midi_note":75,"velocity":80,"confidence":1.0},{"start_time":103.24390243902471,"end_time":103.426829268293,"midi_note":87,"velocity":80,"confidence":1.0},{"start_time":103.426829268293,"end_time":103.6097560975613,"midi_note":75,"velocity":80,"confidence":1.0},{"start_time":103.426829268293,"end_time":103.6097560975613,"midi_note":87,"velocity":80,"confidence":1.0},{"start_time":103.6097560975613,"end_time":103.7926829268296,"midi_note":48,"velocity":80,"confidence":1.0},{"start_time":103.6097560975613,"end_time":103.7926829268296,"midi_note":51,"velocity":80,"confidence":1.0},{"start_time":103.6097560975613,"end_time":103.7926829268296,"midi_note":54,"velocity":80,"confidence":1.0},{"start_time":103.7926829268296,"end_time":103.9756097560979,"midi_note":57,"velocity":80,"confidence":1.0},{"start_time":103.9756097560979,"end_time":104.15853658536619,"midi_note":48,"velocity":80,"confidence":1.0},{"start_time":103.9756097560979,"end_time":104.15853658536619,"midi_note":51,"velocity":80,"confidence":1.0},{"start_time":103.9756097560979,"end_time":104.15853658536619,"midi_note":54,"velocity":80,"confidence":1.0},{"start_time":104.15853658536619,"end_time":104.34146341463449,"midi_note":57,"velocity":80,"confidence":1.0},{"start_time":104.34146341463449,"end_time":104.52439024390279,"midi_note":72,"velocity":80,"confidence":1.0},{"start_time":104.34146341463449,"end_time":104.52439024390279,"midi_note":84,"velocity":80,"confidence":1.0},{"start_time":104.52439024390279,"end_time":104.70731707317108,"midi_note":69,"velocity":80,"confidence":1.0},{"start_time":104.52439024390279,"end_time":104.70731707317108,"midi_note":81,"velocity":80,"confidence":1.0},{"start_time":104.70731707317108,"end_time":104.89024390243938,"midi_note":69,"velocity":80,"confidence":1.0},{"start_time":104.70731707317108,"end_time":104.89024390243938,"midi_note":81,"velocity":80,"confidence":1.0},{"start_time":104.89024390243938,"end_time":105.07317073170768,"midi_note":69,"velocity":80,"confidence":1.0},{"start_time":104.89024390243938,"end_time":105.07317073170768,"midi_note":81,"velocity":80,"confidence":1.0},{"start_time":105.07317073170768,"end_time":105.25609756097597,"midi_note":48,"velocity":80,"confidence":1.0},{"start_time":105.07317073170768,"end_time":105.25609756097597,"midi_note":51,"velocity":80,"confidence":1.0},{"start_time":105.07317073170768,"end_time":105.25609756097597,"midi_note":54,"velocity":80,"confidence":1.0},{"start_time":105.25609756097597,"end_time":105.43902439024427,"midi_note":57,"velocity":80,"confidence":1.0},{"start_time":105.43902439024427,"end_time":105.62195121951257,"midi_note":48,"velocity":80,"confidence":1.0},{"start_time":105.43902439024427,"end_time":105.62195121951257,"midi_note":51,"velocity":80,"confidence":1.0},{"start_time":105.43902439024427,"end_time":105.62195121951257,"midi_note":54,"velocity":80,"confidence":1.0},{"start_time":105.62195121951257,"end_time":105.80487804878086,"midi_note":57,"velocity":80,"confidence":1.0},{"start_time":105.80487804878086,"end_time":105.98780487804916,"midi_note":78,"velocity":80,"confidence":1.0},{"start_time":105.98780487804916,"end_time":106.17073170731746,"midi_note":75,"velocity":80,"confidence":1.0},{"start_time":106.17073170731746,"end_time":106.35365853658575,"midi_note":75,"velocity":80,"confidence":1.0},{"start_time":106.35365853658575,"end_time":106.53658536585405,"midi_note":75,"velocity":80,"confidence":1.0},{"start_time":106.53658536585405,"end_time":106.71951219512235,"midi_note":48,"velocity":80,"confidence":1.0},{"start_time":106.53658536585405,"end_time":106.71951219512235,"midi_note":51,"velocity":80,"confidence":1.0},{"start_time":106.53658536585405,"end_time":106.71951219512235,"midi_note":54,"velocity":80,"confidence":1.0},{"start_time":106.71951219512235,"end_time":106.90243902439065,"midi_note":57,"velocity":80,"confidence":1.0},{"start_time":106.90243902439065,"end_time":107.08536585365894,"midi_note":48,"velocity":80,"confidence":1.0},{"start_time":106.90243902439065,"end_time":107.08536585365894,"midi_note":51,"velocity":80,"confidence":1.0},{"start_time":106.90243902439065,"end_time":107.08536585365894,"midi_note":54,"velocity":80,"confidence":1.0},{"start_time":107.08536585365894,"end_time":107.26829268292724,"midi_note":57,"velocity":80,"confidence":1.0},{"start_time":107.26829268292724,"end_time":107.45121951219554,"midi_note":72,"velocity":80,"confidence":1.0},{"start_time":107.45121951219554,"end_time":107.63414634146383,"midi_note":69,"velocity":80,"confidence":1.0},{"start_time":107.63414634146383,"end_time":107.81707317073213,"midi_note":69,"velocity":80,"confidence":1.0},{"start_time":107.81707317073213,"end_time":108.00000000000043,"midi_note":69,"velocity":80,"confidence":1.0},{"start_time":108.00000000000043,"end_time":108.18292682926872,"midi_note":48,"velocity":80,"confidence":1.0},{"start_time":108.00000000000043,"end_time":108.18292682926872,"midi_note":51,"velocity":80,"confidence":1.0},{"start_time":108.00000000000043,"end_time":108.18292682926872,"midi_note":54,"velocity":80,"confidence":1.0},{"start_time":108.18292682926872,"end_time":108.36585365853702,"midi_note":57,"velocity":80,"confidence":1.0},{"start_time":108.36585365853702,"end_time":108.54878048780532,"midi_note":48,"velocity":80,"confidence":1.0},{"start_time":108.36585365853702,"end_time":108.54878048780532,"midi_note":51,"velocity":80,"confidence":1.0},{"start_time":108.36585365853702,"end_time":108.54878048780532,"midi_note":54,"velocity":80,"confidence":1.0},{"start_time":108.54878048780532,"end_time":108.73170731707361,"midi_note":57,"velocity":80,"confidence":1.0},{"start_time":108.73170731707361,"end_time":109.0975609756102,"midi_note":69,"velocity":80,"confidence":1.0},{"start_time":108.73170731707361,"end_time":109.0975609756102,"midi_note":75,"velocity":80,"confidence":1.0},{"start_time":108.73170731707361,"end_time":109.0975609756102,"midi_note":78,"velocity":80,"confidence":1.0},{"start_time":108.73170731707361,"end_time":109.0975609756102,"midi_note":81,"velocity":80,"confidence":1.0},{"start_time":109.46341463414677,"end_time":109.82926829268335,"midi_note":48,"velocity":80,"confidence":1.0},{"start_time":109.46341463414677,"end_time":109.82926829268335,"midi_note":51,"velocity":80,"confidence":1.0},{"start_time":109.46341463414677,"end_time":109.82926829268335,"midi_note":54,"velocity":80,"confidence":1.0},{"start_time":109.46341463414677,"end_time":109.82926829268335,"midi_note":57,"velocity":80,"confidence":1.0},{"start_time":111.65853658536628,"end_time":112.02439024390286,"midi_note":70,"velocity":80,"confidence":1.0},{"start_time":111.65853658536628,"end_time":112.02439024390286,"midi_note":77,"velocity":80,"confidence":1.0},{"start_time":111.65853658536628,"end_time":112.02439024390286,"midi_note":82,"velocity":80,"confidence":1.0},{"start_time":112.39024390243944,"end_time":112.75609756097602,"midi_note":50,"velocity":80,"confidence":1.0},{"start_time":112.39024390243944,"end_time":112.75609756097602,"midi_note":53,"velocity":80,"confidence":1.0},{"start_time":112.39024390243944,"end_time":112.75609756097602,"midi_note":58,"velocity":80,"confidence":1.0},{"start_time":113.30487804878089,"end_time":113.48780487804919,"midi_note":70,"velocity":80,"confidence":1.0},{"start_time":113.48780487804919,"end_time":113.67073170731749,"midi_note":70,"velocity":80,"confidence":1.0},{"start_time":113.67073170731749,"end_time":113.85365853658578,"midi_note":70,"velocity":80,"confidence":1.0},{"start_time":115.31707317073213,"end_time":116.0487804878053,"midi_note":63,"velocity":80,"confidence":1.0},{"start_time":116.0487804878053,"end_time":116.78048780487848,"midi_note":65,"velocity":80,"confidence":1.0},{"start_time":118.975609756098,"end_time":119.70731707317117,"midi_note":58,"velocity":80,"confidence":1.0},{"start_time":119.70731707317117,"end_time":120.07317073170775,"midi_note":70,"velocity":80,"confidence":1.0},{"start_time":120.07317073170775,"end_time":120.43902439024433,"midi_note":75,"velocity":80,"confidence":1.0},{"start_time":120.43902439024433,"end_time":121.1707317073175,"midi_note":67,"velocity":80,"confidence":1.0},{"start_time":121.1707317073175,"end_time":121.90243902439067,"midi_note":63,"velocity":80,"confidence":1.0},{"start_time":121.90243902439067,"end_time":122.63414634146385,"midi_note":58,"velocity":80,"confidence":1.0},{"start_time":122.63414634146385,"end_time":123.00000000000043,"midi_note":74,"velocity":80,"confidence":1.0},{"start_time":123.00000000000043,"end_time":123.365853658537,"midi_note":75,"velocity":80,"confidence":1.0},{"start_time":123.365853658537,"end_time":124.09756097561018,"midi_note":68,"velocity":80,"confidence":1.0},{"start_time":124.09756097561018,"end_time":124.82926829268335,"midi_note":65,"velocity":80,"confidence":1.0},{"start_time":124.82926829268335,"end_time":125.56097560975653,"midi_note":58,"velocity":80,"confidence":1.0},{"start_time":125.56097560975653,"end_time":125.9268292682931,"midi_note":77,"velocity":80,"confidence":1.0},{"start_time":125.9268292682931,"end_time":126.29268292682968,"midi_note":72,"velocity":80,"confidence":1.0},{"start_time":126.29268292682968,"end_time":127.02439024390286,"midi_note":68,"velocity":80,"confidence":1.0},{"start_time":127.02439024390286,"end_time":127.75609756097603,"midi_note":62,"velocity":80,"confidence":1.0},{"start_time":127.75609756097603,"end_time":127.93902439024433,"midi_note":58,"velocity":80,"confidence":1.0},{"start_time":127.93902439024433,"end_time":128.12195121951262,"midi_note":46,"velocity":80,"confidence":1.0},{"start_time":128.12195121951262,"end_time":128.30487804878092,"midi_note":46,"velocity":80,"confidence":1.0},{"start_time":128.30487804878092,"end_time":128.48780487804922,"midi_note":46,"velocity":80,"confidence":1.0},{"start_time":128.48780487804922,"end_time":128.8536585365858,"midi_note":72,"velocity":80,"confidence":1.0},{"start_time":128.8536585365858,"end_time":129.2195121951224,"midi_note":70,"velocity":80,"confidence":1.0},{"start_time":129.2195121951224,"end_time":129.95121951219556,"midi_note":63,"velocity":80,"confidence":1.0},{"start_time":129.2195121951224,"end_time":129.95121951219556,"midi_note":67,"velocity":80,"confidence":1.0},{"start_time":129.95121951219556,"end_time":130.31707317073216,"midi_note":51,"velocity":80,"confidence":1.0},{"start_time":130.68292682926875,"end_time":131.04878048780535,"midi_note":70,"velocity":80,"confidence":1.0},{"start_time":131.04878048780535,"end_time":131.41463414634194,"midi_note":75,"velocity":80,"confidence":1.0},{"start_time":131.41463414634194,"end_time":132.1463414634151,"midi_note":67,"velocity":80,"confidence":1.0},{"start_time":132.1463414634151,"end_time":132.87804878048826,"midi_note":63,"velocity":80,"confidence":1.0},{"start_time":132.87804878048826,"end_time":133.60975609756142,"midi_note":58,"velocity":80,"confidence":1.0},{"start_time":133.60975609756142,"end_time":133.975609756098,"midi_note":74,"velocity":80,"confidence":1.0},{"start_time":133.975609756098,"end_time":134.3414634146346,"midi_note":75,"velocity":80,"confidence":1.0},{"start_time":134.3414634146346,"end_time":135.07317073170776,"midi_note":68,"velocity":80,"confidence":1.0},{"start_time":135.07317073170776,"end_time":135.80487804878092,"midi_note":65,"velocity":80,"confidence":1.0},{"start_time":135.80487804878092,"end_time":136.53658536585408,"midi_note":58,"velocity":80,"confidence":1.0},{"start_time":136.53658536585408,"end_time":136.90243902439067,"midi_note":77,"velocity":80,"confidence":1.0},{"start_time":136.90243902439067,"end_time":137.26829268292727,"midi_note":72,"velocity":80,"confidence":1.0},{"start_time":137.26829268292727,"end_time":138.00000000000043,"midi_note":68,"velocity":80,"confidence":1.0},{"start_time":138.00000000000043,"end_time":138.73170731707359,"midi_note":62,"velocity":80,"confidence":1.0},{"start_time":138.73170731707359,"end_time":138.91463414634188,"midi_note":58,"velocity":80,"confidence":1.0},{"start_time":138.91463414634188,"end_time":139.09756097561018,"midi_note":46,"velocity":80,"confidence":1.0},{"start_time":139.09756097561018,"end_time":139.28048780487848,"midi_note":46,"velocity":80,"confidence":1.0},{"start_time":139.28048780487848,"end_time":139.46341463414677,"midi_note":46,"velocity":80,"confidence":1.0},{"start_time":139.46341463414677,"end_time":139.82926829268337,"midi_note":72,"velocity":80,"confidence":1.0},{"start_time":139.82926829268337,"end_time":140.19512195121996,"midi_note":70,"velocity":80,"confidence":1.0},{"start_time":140.19512195121996,"end_time":140.92682926829312,"midi_note":63,"velocity":80,"confidence":1.0},{"start_time":140.19512195121996,"end_time":140.92682926829312,"midi_note":67,"velocity":80,"confidence":1.0},{"start_time":140.92682926829312,"end_time":141.2926829268297,"midi_note":51,"velocity":80,"confidence":1.0},{"start_time":141.6585365853663,"end_time":142.0243902439029,"midi_note":70,"velocity":80,"confidence":1.0},{"start_time":141.6585365853663,"end_time":142.0243902439029,"midi_note":82,"velocity":80,"confidence":1.0},{"start_time":142.0243902439029,"end_time":142.3902439024395,"midi_note":75,"velocity":80,"confidence":1.0},{"start_time":142.0243902439029,"end_time":142.3902439024395,"midi_note":87,"velocity":80,"confidence":1.0},{"start_time":142.3902439024395,"end_time":143.12195121951265,"midi_note":55,"velocity":80,"confidence":1.0},{"start_time":142.3902439024395,"end_time":143.12195121951265,"midi_note":58,"velocity":80,"confidence":1.0},{"start_time":143.12195121951265,"end_time":143.8536585365858,"midi_note":46,"velocity":80,"confidence":1.0},{"start_time":143.8536585365858,"end_time":144.2195121951224,"midi_note":74,"velocity":80,"confidence":1.0},{"start_time":143.8536585365858,"end_time":144.2195121951224,"midi_note":86,"velocity":80,"confidence":1.0},{"start_time":144.2195121951224,"end_time":144.585365853659,"midi_note":75,"velocity":80,"confidence":1.0},{"start_time":144.2195121951224,"end_time":144.585365853659,"midi_note":87,"velocity":80,"confidence":1.0},{"start_time":144.585365853659,"end_time":145.31707317073216,"midi_note":53,"velocity":80,"confidence":1.0},{"start_time":144.585365853659,"end_time":145.31707317073216,"midi_note":56,"velocity":80,"confidence":1.0},{"start_time":145.31707317073216,"end_time":146.04878048780532,"midi_note":46,"velocity":80,"confidence":1.0},{"start_time":146.04878048780532,"end_time":146.4146341463419,"midi_note":77,"velocity":80,"confidence":1.0},{"start_time":146.04878048780532,"end_time":146.4146341463419,"midi_note":89,"velocity":80,"confidence":1.0},{"start_time":146.4146341463419,"end_time":146.7804878048785,"midi_note":72,"velocity":80,"confidence":1.0},{"start_time":146.4146341463419,"end_time":146.7804878048785,"midi_note":84,"velocity":80,"confidence":1.0},{"start_time":146.7804878048785,"end_time":147.51219512195166,"midi_note":50,"velocity":80,"confidence":1.0},{"start_time":146.7804878048785,"end_time":147.51219512195166,"midi_note":56,"velocity":80,"confidence":1.0},{"start_time":147.51219512195166,"end_time":147.69512195121996,"midi_note":46,"velocity":80,"confidence":1.0},{"start_time":147.69512195121996,"end_time":147.87804878048826,"midi_note":46,"velocity":80,"confidence":1.0},{"start_time":147.87804878048826,"end_time":148.06097560975655,"midi_note":46,"velocity":80,"confidence":1.0},{"start_time":148.06097560975655,"end_time":148.24390243902485,"midi_note":46,"velocity":80,"confidence":1.0},{"start_time":148.24390243902485,"end_time":148.60975609756144,"midi_note":72,"velocity":80,"confidence":1.0},{"start_time":148.24390243902485,"end_time":148.60975609756144,"midi_note":84,"velocity":80,"confidence":1.0},{"start_time":148.60975609756144,"end_time":148.97560975609804,"midi_note":70,"velocity":80,"confidence":1.0},{"start_time":148.60975609756144,"end_time":148.97560975609804,"midi_note":82,"velocity":80,"confidence":1.0},{"start_time":148.97560975609804,"end_time":149.7073170731712,"midi_note":51,"velocity":80,"confidence":1.0},{"start_time":148.97560975609804,"end_time":149.7073170731712,"midi_note":55,"velocity":80,"confidence":1.0},{"start_time":149.7073170731712,"end_time":150.0731707317078,"midi_note":70,"velocity":80,"confidence":1.0},{"start_time":150.0731707317078,"end_time":150.43902439024438,"midi_note":72,"velocity":80,"confidence":1.0},{"start_time":150.43902439024438,"end_time":151.17073170731754,"midi_note":63,"velocity":80,"confidence":1.0},{"start_time":150.43902439024438,"end_time":151.17073170731754,"midi_note":67,"velocity":80,"confidence":1.0},{"start_time":151.17073170731754,"end_time":151.9024390243907,"midi_note":55,"velocity":80,"confidence":1.0},{"start_time":151.17073170731754,"end_time":151.9024390243907,"midi_note":58,"velocity":80,"confidence":1.0},{"start_time":151.9024390243907,"end_time":152.2682926829273,"midi_note":73,"velocity":80,"confidence":1.0},{"start_time":152.2682926829273,"end_time":152.6341463414639,"midi_note":72,"velocity":80,"confidence":1.0},{"start_time":152.6341463414639,"end_time":153.36585365853705,"midi_note":64,"velocity":80,"confidence":1.0},{"start_time":152.6341463414639,"end_time":153.36585365853705,"midi_note":67,"velocity":80,"confidence":1.0},{"start_time":153.36585365853705,"end_time":154.0975609756102,"midi_note":52,"velocity":80,"confidence":1.0},{"start_time":153.36585365853705,"end_time":154.0975609756102,"midi_note":55,"velocity":80,"confidence":1.0},{"start_time":154.0975609756102,"end_time":154.4634146341468,"midi_note":70,"velocity":80,"confidence":1.0},{"start_time":154.4634146341468,"end_time":154.8292682926834,"midi_note":72,"velocity":80,"confidence":1.0},{"start_time":154.8292682926834,"end_time":155.56097560975655,"midi_note":64,"velocity":80,"confidence":1.0},{"start_time":154.8292682926834,"end_time":155.56097560975655,"midi_note":67,"velocity":80,"confidence":1.0},{"start_time":155.74390243902485,"end_time":155.92682926829315,"midi_note":36,"velocity":80,"confidence":1.0},{"start_time":155.74390243902485,"end_time":155.92682926829315,"midi_note":48,"velocity":80,"confidence":1.0},{"start_time":155.92682926829315,"end_time":156.10975609756144,"midi_note":36,"velocity":80,"confidence":1.0},{"start_time":155.92682926829315,"end_time":156.10975609756144,"midi_note":48,"velocity":80,"confidence":1.0},{"start_time":156.10975609756144,"end_time":156.29268292682974,"midi_note":36,"velocity":80,"confidence":1.0},{"start_time":156.10975609756144,"end_time":156.29268292682974,"midi_note":48,"velocity":80,"confidence":1.0},{"start_time":156.29268292682974,"end_time":156.65853658536633,"midi_note":70,"velocity":80,"confidence":1.0},{"start_time":156.65853658536633,"end_time":157.02439024390293,"midi_note":68,"velocity":80,"confidence":1.0},{"start_time":157.02439024390293,"end_time":157.7560975609761,"midi_note":60,"velocity":80,"confidence":1.0},{"start_time":157.02439024390293,"end_time":157.7560975609761,"midi_note":65,"velocity":80,"confidence":1.0},{"start_time":157.7560975609761,"end_time":158.12195121951268,"midi_note":41,"velocity":80,"confidence":1.0},{"start_time":157.7560975609761,"end_time":158.12195121951268,"midi_note":53,"velocity":80,"confidence":1.0},{"start_time":158.48780487804927,"end_time":158.85365853658587,"midi_note":73,"velocity":80,"confidence":1.0},{"start_time":158.85365853658587,"end_time":159.21951219512246,"midi_note":75,"velocity":80,"confidence":1.0},{"start_time":159.21951219512246,"end_time":159.95121951219562,"midi_note":65,"velocity":80,"confidence":1.0},{"start_time":159.21951219512246,"end_time":159.95121951219562,"midi_note":68,"velocity":80,"confidence":1.0},{"start_time":159.95121951219562,"end_time":160.68292682926878,"midi_note":56,"velocity":80,"confidence":1.0},{"start_time":159.95121951219562,"end_time":160.68292682926878,"midi_note":61,"velocity":80,"confidence":1.0},{"start_time":160.68292682926878,"end_time":161.04878048780537,"midi_note":77,"velocity":80,"confidence":1.0},{"start_time":161.04878048780537,"end_time":161.41463414634197,"midi_note":75,"velocity":80,"confidence":1.0},{"start_time":161.41463414634197,"end_time":162.14634146341513,"midi_note":67,"velocity":80,"confidence":1.0},{"start_time":161.41463414634197,"end_time":162.14634146341513,"midi_note":70,"velocity":80,"confidence":1.0},{"start_time":162.14634146341513,"end_time":162.87804878048829,"midi_note":55,"velocity":80,"confidence":1.0},{"start_time":162.14634146341513,"end_time":162.87804878048829,"midi_note":58,"velocity":80,"confidence":1.0},{"start_time":162.87804878048829,"end_time":163.24390243902488,"midi_note":73,"velocity":80,"confidence":1.0},{"start_time":163.24390243902488,"end_time":163.60975609756147,"midi_note":75,"velocity":80,"confidence":1.0},{"start_time":163.60975609756147,"end_time":164.34146341463463,"midi_note":67,"velocity":80,"confidence":1.0},{"start_time":163.60975609756147,"end_time":164.34146341463463,"midi_note":70,"velocity":80,"confidence":1.0},{"start_time":164.52439024390293,"end_time":164.70731707317123,"midi_note":39,"velocity":80,"confidence":1.0},{"start_time":164.52439024390293,"end_time":164.70731707317123,"midi_note":51,"velocity":80,"confidence":1.0},{"start_time":164.70731707317123,"end_time":164.89024390243952,"midi_note":39,"velocity":80,"confidence":1.0},{"start_time":164.70731707317123,"end_time":164.89024390243952,"midi_note":51,"velocity":80,"confidence":1.0},{"start_time":164.89024390243952,"end_time":165.07317073170782,"midi_note":39,"velocity":80,"confidence":1.0},{"start_time":164.89024390243952,"end_time":165.07317073170782,"midi_note":51,"velocity":80,"confidence":1.0},{"start_time":165.07317073170782,"end_time":165.4390243902444,"midi_note":73,"velocity":80,"confidence":1.0},{"start_time":165.4390243902444,"end_time":165.804878048781,"midi_note":72,"velocity":80,"confidence":1.0},{"start_time":165.804878048781,"end_time":166.53658536585417,"midi_note":63,"velocity":80,"confidence":1.0},{"start_time":165.804878048781,"end_time":166.53658536585417,"midi_note":68,"velocity":80,"confidence":1.0},{"start_time":166.53658536585417,"end_time":166.90243902439076,"midi_note":44,"velocity":80,"confidence":1.0},{"start_time":166.53658536585417,"end_time":166.90243902439076,"midi_note":56,"velocity":80,"confidence":1.0},{"start_time":167.26829268292735,"end_time":167.63414634146395,"midi_note":63,"velocity":80,"confidence":1.0},{"start_time":167.26829268292735,"end_time":167.63414634146395,"midi_note":75,"velocity":80,"confidence":1.0},{"start_time":167.63414634146395,"end_time":168.00000000000054,"midi_note":65,"velocity":80,"confidence":1.0},{"start_time":167.63414634146395,"end_time":168.00000000000054,"midi_note":77,"velocity":80,"confidence":1.0},{"start_time":168.00000000000054,"end_time":168.7317073170737,"midi_note":72,"velocity":80,"confidence":1.0},{"start_time":168.7317073170737,"end_time":169.46341463414686,"midi_note":56,"velocity":80,"confidence":1.0},{"start_time":168.7317073170737,"end_time":169.46341463414686,"midi_note":60,"velocity":80,"confidence":1.0},{"start_time":169.46341463414686,"end_time":169.82926829268345,"midi_note":66,"velocity":80,"confidence":1.0},{"start_time":169.46341463414686,"end_time":169.82926829268345,"midi_note":78,"velocity":80,"confidence":1.0},{"start_time":169.82926829268345,"end_time":170.19512195122005,"midi_note":65,"velocity":80,"confidence":1.0},{"start_time":169.82926829268345,"end_time":170.19512195122005,"midi_note":77,"velocity":80,"confidence":1.0},{"start_time":170.19512195122005,"end_time":170.9268292682932,"midi_note":72,"velocity":80,"confidence":1.0},{"start_time":170.19512195122005,"end_time":170.9268292682932,"midi_note":75,"velocity":80,"confidence":1.0},{"start_time":170.9268292682932,"end_time":171.1097560975615,"midi_note":57,"velocity":80,"confidence":1.0},{"start_time":170.9268292682932,"end_time":171.1097560975615,"midi_note":60,"velocity":80,"confidence":1.0},{"start_time":171.1097560975615,"end_time":171.2926829268298,"midi_note":45,"velocity":80,"confidence":1.0},{"start_time":171.1097560975615,"end_time":171.2926829268298,"midi_note":57,"velocity":80,"confidence":1.0},{"start_time":171.2926829268298,"end_time":171.4756097560981,"midi_note":45,"velocity":80,"confidence":1.0},{"start_time":171.2926829268298,"end_time":171.4756097560981,"midi_note":57,"velocity":80,"confidence":1.0},{"start_time":171.4756097560981,"end_time":171.6585365853664,"midi_note":45,"velocity":80,"confidence":1.0},{"start_time":171.4756097560981,"end_time":171.6585365853664,"midi_note":57,"velocity":80,"confidence":1.0},{"start_time":171.6585365853664,"end_time":172.02439024390299,"midi_note":63,"velocity":80,"confidence":1.0},{"start_time":171.6585365853664,"end_time":172.02439024390299,"midi_note":75,"velocity":80,"confidence":1.0},{"start_time":172.02439024390299,"end_time":172.39024390243958,"midi_note":65,"velocity":80,"confidence":1.0},{"start_time":172.02439024390299,"end_time":172.39024390243958,"midi_note":77,"velocity":80,"confidence":1.0},{"start_time":172.39024390243958,"end_time":172.75609756097617,"midi_note":45,"velocity":80,"confidence":1.0},{"start_time":172.39024390243958,"end_time":172.75609756097617,"midi_note":57,"velocity":80,"confidence":1.0},{"start_time":173.12195121951277,"end_time":173.48780487804936,"midi_note":66,"velocity":80,"confidence":1.0},{"start_time":173.12195121951277,"end_time":173.48780487804936,"midi_note":78,"velocity":80,"confidence":1.0},{"start_time":173.48780487804936,"end_time":173.85365853658595,"midi_note":65,"velocity":80,"confidence":1.0},{"start_time":173.48780487804936,"end_time":173.85365853658595,"midi_note":77,"velocity":80,"confidence":1.0},{"start_time":173.85365853658595,"end_time":174.5853658536591,"midi_note":70,"velocity":80,"confidence":1.0},{"start_time":173.85365853658595,"end_time":174.5853658536591,"midi_note":75,"velocity":80,"confidence":1.0},{"start_time":174.7682926829274,"end_time":174.9512195121957,"midi_note":46,"velocity":80,"confidence":1.0},{"start_time":174.7682926829274,"end_time":174.9512195121957,"midi_note":58,"velocity":80,"confidence":1.0},{"start_time":174.9512195121957,"end_time":175.134146341464,"midi_note":46,"velocity":80,"confidence":1.0},{"start_time":174.9512195121957,"end_time":175.134146341464,"midi_note":58,"velocity":80,"confidence":1.0},{"start_time":175.134146341464,"end_time":175.3170731707323,"midi_note":46,"velocity":80,"confidence":1.0},{"start_time":175.134146341464,"end_time":175.3170731707323,"midi_note":58,"velocity":80,"confidence":1.0},{"start_time":175.3170731707323,"end_time":175.6829268292689,"midi_note":63,"velocity":80,"confidence":1.0},{"start_time":175.3170731707323,"end_time":175.6829268292689,"midi_note":75,"velocity":80,"confidence":1.0},{"start_time":175.6829268292689,"end_time":176.0487804878055,"midi_note":65,"velocity":80,"confidence":1.0},{"start_time":175.6829268292689,"end_time":176.0487804878055,"midi_note":77,"velocity":80,"confidence":1.0},{"start_time":176.0487804878055,"end_time":176.41463414634208,"midi_note":46,"velocity":80,"confidence":1.0},{"start_time":176.0487804878055,"end_time":176.41463414634208,"midi_note":58,"velocity":80,"confidence":1.0},{"start_time":176.78048780487867,"end_time":177.14634146341527,"midi_note":66,"velocity":80,"confidence":1.0},{"start_time":176.78048780487867,"end_time":177.14634146341527,"midi_note":69,"velocity":80,"confidence":1.0},{"start_time":176.78048780487867,"end_time":177.14634146341527,"midi_note":78,"velocity":80,"confidence":1.0},{"start_time":177.14634146341527,"end_time":177.51219512195186,"midi_note":65,"velocity":80,"confidence":1.0},{"start_time":177.14634146341527,"end_time":177.51219512195186,"midi_note":77,"velocity":80,"confidence":1.0},{"start_time":177.51219512195186,"end_time":178.24390243902502,"midi_note":75,"velocity":80,"confidence":1.0},{"start_time":178.42682926829332,"end_time":178.60975609756161,"midi_note":47,"velocity":80,"confidence":1.0},{"start_time":178.42682926829332,"end_time":178.60975609756161,"midi_note":59,"velocity":80,"confidence":1.0},{"start_time":178.60975609756161,"end_time":178.7926829268299,"midi_note":47,"velocity":80,"confidence":1.0},{"start_time":178.60975609756161,"end_time":178.7926829268299,"midi_note":59,"velocity":80,"confidence":1.0},{"start_time":178.7926829268299,"end_time":178.9756097560982,"midi_note":47,"velocity":80,"confidence":1.0},{"start_time":178.7926829268299,"end_time":178.9756097560982,"midi_note":59,"velocity":80,"confidence":1.0},{"start_time":178.9756097560982,"end_time":179.3414634146348,"midi_note":63,"velocity":80,"confidence":1.0},{"start_time":178.9756097560982,"end_time":179.3414634146348,"midi_note":75,"velocity":80,"confidence":1.0},{"start_time":179.3414634146348,"end_time":179.7073170731714,"midi_note":65,"velocity":80,"confidence":1.0},{"start_time":179.3414634146348,"end_time":179.7073170731714,"midi_note":77,"velocity":80,"confidence":1.0},{"start_time":179.7073170731714,"end_time":180.073170731708,"midi_note":47,"velocity":80,"confidence":1.0},{"start_time":179.7073170731714,"end_time":180.073170731708,"midi_note":59,"velocity":80,"confidence":1.0},{"start_time":180.43902439024458,"end_time":180.80487804878118,"midi_note":66,"velocity":80,"confidence":1.0},{"start_time":180.43902439024458,"end_time":180.80487804878118,"midi_note":69,"velocity":80,"confidence":1.0},{"start_time":180.43902439024458,"end_time":180.80487804878118,"midi_note":78,"velocity":80,"confidence":1.0},{"start_time":180.80487804878118,"end_time":181.17073170731777,"midi_note":65,"velocity":80,"confidence":1.0},{"start_time":180.80487804878118,"end_time":181.17073170731777,"midi_note":77,"velocity":80,"confidence":1.0},{"start_time":181.17073170731777,"end_time":181.90243902439093,"midi_note":75,"velocity":80,"confidence":1.0},{"start_time":182.08536585365923,"end_time":182.26829268292752,"midi_note":48,"velocity":80,"confidence":1.0},{"start_time":182.08536585365923,"end_time":182.26829268292752,"midi_note":60,"velocity":80,"confidence":1.0},{"start_time":182.26829268292752,"end_time":182.45121951219582,"midi_note":48,"velocity":80,"confidence":1.0},{"start_time":182.26829268292752,"end_time":182.45121951219582,"midi_note":60,"velocity":80,"confidence":1.0},{"start_time":182.45121951219582,"end_time":182.63414634146412,"midi_note":48,"velocity":80,"confidence":1.0},{"start_time":182.45121951219582,"end_time":182.63414634146412,"midi_note":60,"velocity":80,"confidence":1.0},{"start_time":182.63414634146412,"end_time":183.0000000000007,"midi_note":63,"velocity":80,"confidence":1.0},{"start_time":182.63414634146412,"end_time":183.0000000000007,"midi_note":75,"velocity":80,"confidence":1.0},{"start_time":183.0000000000007,"end_time":183.3658536585373,"midi_note":65,"velocity":80,"confidence":1.0},{"start_time":183.0000000000007,"end_time":183.3658536585373,"midi_note":77,"velocity":80,"confidence":1.0},{"start_time":183.3658536585373,"end_time":183.7317073170739,"midi_note":48,"velocity":80,"confidence":1.0},{"start_time":183.3658536585373,"end_time":183.7317073170739,"midi_note":60,"velocity":80,"confidence":1.0},{"start_time":184.0975609756105,"end_time":184.46341463414709,"midi_note":66,"velocity":80,"confidence":1.0},{"start_time":184.0975609756105,"end_time":184.46341463414709,"midi_note":69,"velocity":80,"confidence":1.0},{"start_time":184.0975609756105,"end_time":184.46341463414709,"midi_note":78,"velocity":80,"confidence":1.0},{"start_time":184.46341463414709,"end_time":184.82926829268368,"midi_note":65,"velocity":80,"confidence":1.0},{"start_time":184.46341463414709,"end_time":184.82926829268368,"midi_note":77,"velocity":80,"confidence":1.0},{"start_time":184.82926829268368,"end_time":185.56097560975684,"midi_note":75,"velocity":80,"confidence":1.0},{"start_time":185.74390243902513,"end_time":185.92682926829343,"midi_note":48,"velocity":80,"confidence":1.0},{"start_time":185.74390243902513,"end_time":185.92682926829343,"midi_note":60,"velocity":80,"confidence":1.0},{"start_time":185.92682926829343,"end_time":186.10975609756173,"midi_note":48,"velocity":80,"confidence":1.0},{"start_time":185.92682926829343,"end_time":186.10975609756173,"midi_note":60,"velocity":80,"confidence":1.0},{"start_time":186.10975609756173,"end_time":186.29268292683003,"midi_note":48,"velocity":80,"confidence":1.0},{"start_time":186.10975609756173,"end_time":186.29268292683003,"midi_note":60,"velocity":80,"confidence":1.0},{"start_time":186.29268292683003,"end_time":186.65853658536662,"midi_note":66,"velocity":80,"confidence":1.0},{"start_time":186.29268292683003,"end_time":186.65853658536662,"midi_note":78,"velocity":80,"confidence":1.0},{"start_time":186.65853658536662,"end_time":187.0243902439032,"midi_note":69,"velocity":80,"confidence":1.0},{"start_time":186.65853658536662,"end_time":187.0243902439032,"midi_note":75,"velocity":80,"confidence":1.0},{"start_time":186.65853658536662,"end_time":187.0243902439032,"midi_note":78,"velocity":80,"confidence":1.0},{"start_time":186.65853658536662,"end_time":187.0243902439032,"midi_note":81,"velocity":80,"confidence":1.0},{"start_time":187.0243902439032,"end_time":187.3902439024398,"midi_note":48,"velocity":80,"confidence":1.0},{"start_time":187.0243902439032,"end_time":187.3902439024398,"midi_note":60,"velocity":80,"confidence":1.0},{"start_time":187.3902439024398,"end_time":187.5731707317081,"midi_note":48,"velocity":80,"confidence":1.0},{"start_time":187.3902439024398,"end_time":187.5731707317081,"midi_note":60,"velocity":80,"confidence":1.0},{"start_time":187.5731707317081,"end_time":187.7560975609764,"midi_note":48,"velocity":80,"confidence":1.0},{"start_time":187.5731707317081,"end_time":187.7560975609764,"midi_note":60,"velocity":80,"confidence":1.0},{"start_time":187.7560975609764,"end_time":188.48780487804956,"midi_note":70,"velocity":80,"confidence":1.0},{"start_time":187.7560975609764,"end_time":188.48780487804956,"midi_note":77,"velocity":80,"confidence":1.0},{"start_time":187.7560975609764,"end_time":188.48780487804956,"midi_note":80,"velocity":80,"confidence":1.0},{"start_time":187.7560975609764,"end_time":188.48780487804956,"midi_note":82,"velocity":80,"confidence":1.0},{"start_time":188.48780487804956,"end_time":189.21951219512272,"midi_note":50,"velocity":80,"confidence":1.0},{"start_time":188.48780487804956,"end_time":189.21951219512272,"midi_note":58,"velocity":80,"confidence":1.0},{"start_time":188.48780487804956,"end_time":189.21951219512272,"midi_note":62,"velocity":80,"confidence":1.0},{"start_time":189.21951219512272,"end_time":189.40243902439101,"midi_note":70,"velocity":80,"confidence":1.0},{"start_time":189.21951219512272,"end_time":189.40243902439101,"midi_note":77,"velocity":80,"confidence":1.0},{"start_time":189.21951219512272,"end_time":189.40243902439101,"midi_note":80,"velocity":80,"confidence":1.0},{"start_time":189.21951219512272,"end_time":189.40243902439101,"midi_note":82,"velocity":80,"confidence":1.0},{"start_time":189.40243902439101,"end_time":189.5853658536593,"midi_note":84,"velocity":80,"confidence":1.0},{"start_time":189.5853658536593,"end_time":189.7682926829276,"midi_note":70,"velocity":80,"confidence":1.0},{"start_time":189.5853658536593,"end_time":189.7682926829276,"midi_note":77,"velocity":80,"confidence":1.0},{"start_time":189.5853658536593,"end_time":189.7682926829276,"midi_note":82,"velocity":80,"confidence":1.0},{"start_time":189.7682926829276,"end_time":189.9512195121959,"midi_note":80,"velocity":80,"confidence":1.0},{"start_time":189.9512195121959,"end_time":190.3170731707325,"midi_note":50,"velocity":80,"confidence":1.0},{"start_time":189.9512195121959,"end_time":190.3170731707325,"midi_note":58,"velocity":80,"confidence":1.0},{"start_time":189.9512195121959,"end_time":190.3170731707325,"midi_note":62,"velocity":80,"confidence":1.0},{"start_time":190.3170731707325,"end_time":190.6829268292691,"midi_note":38,"velocity":80,"confidence":1.0},{"start_time":190.3170731707325,"end_time":190.6829268292691,"midi_note":46,"velocity":80,"confidence":1.0},{"start_time":190.3170731707325,"end_time":190.6829268292691,"midi_note":50,"velocity":80,"confidence":1.0},{"start_time":190.6829268292691,"end_time":190.8658536585374,"midi_note":70,"velocity":80,"confidence":1.0},{"start_time":190.6829268292691,"end_time":190.8658536585374,"midi_note":75,"velocity":80,"confidence":1.0},{"start_time":190.6829268292691,"end_time":190.8658536585374,"midi_note":80,"velocity":80,"confidence":1.0},{"start_time":190.8658536585374,"end_time":191.0487804878057,"midi_note":79,"velocity":80,"confidence":1.0},{"start_time":191.0487804878057,"end_time":191.23170731707398,"midi_note":77,"velocity":80,"confidence":1.0},{"start_time":191.23170731707398,"end_time":191.41463414634228,"midi_note":75,"velocity":80,"confidence":1.0},{"start_time":191.41463414634228,"end_time":191.78048780487887,"midi_note":39,"velocity":80,"confidence":1.0},{"start_time":191.41463414634228,"end_time":191.78048780487887,"midi_note":46,"velocity":80,"confidence":1.0},{"start_time":191.41463414634228,"end_time":191.78048780487887,"midi_note":51,"velocity":80,"confidence":1.0},{"start_time":192.14634146341547,"end_time":192.32926829268376,"midi_note":68,"velocity":80,"confidence":1.0},{"start_time":192.14634146341547,"end_time":192.32926829268376,"midi_note":75,"velocity":80,"confidence":1.0},{"start_time":192.32926829268376,"end_time":192.51219512195206,"midi_note":74,"velocity":80,"confidence":1.0},{"start_time":192.51219512195206,"end_time":192.69512195122036,"midi_note":72,"velocity":80,"confidence":1.0},{"start_time":192.69512195122036,"end_time":192.87804878048865,"midi_note":74,"velocity":80,"confidence":1.0},{"start_time":192.87804878048865,"end_time":193.24390243902525,"midi_note":41,"velocity":80,"confidence":1.0},{"start_time":192.87804878048865,"end_time":193.24390243902525,"midi_note":46,"velocity":80,"confidence":1.0},{"start_time":192.87804878048865,"end_time":193.24390243902525,"midi_note":53,"velocity":80,"confidence":1.0},{"start_time":193.60975609756184,"end_time":193.79268292683014,"midi_note":70,"velocity":80,"confidence":1.0},{"start_time":193.60975609756184,"end_time":193.79268292683014,"midi_note":77,"velocity":80,"confidence":1.0},{"start_time":193.79268292683014,"end_time":193.97560975609844,"midi_note":75,"velocity":80,"confidence":1.0},{"start_time":193.97560975609844,"end_time":194.15853658536673,"midi_note":70,"velocity":80,"confidence":1.0},{"start_time":194.15853658536673,"end_time":194.34146341463503,"midi_note":67,"velocity":80,"confidence":1.0},{"start_time":194.34146341463503,"end_time":194.70731707317162,"midi_note":43,"velocity":80,"confidence":1.0},{"start_time":194.34146341463503,"end_time":194.70731707317162,"midi_note":46,"velocity":80,"confidence":1.0},{"start_time":194.34146341463503,"end_time":194.70731707317162,"midi_note":51,"velocity":80,"confidence":1.0},{"start_time":194.34146341463503,"end_time":194.70731707317162,"midi_note":55,"velocity":80,"confidence":1.0},{"start_time":195.07317073170822,"end_time":195.2560975609765,"midi_note":65,"velocity":80,"confidence":1.0},{"start_time":195.07317073170822,"end_time":195.2560975609765,"midi_note":74,"velocity":80,"confidence":1.0},{"start_time":195.2560975609765,"end_time":195.4390243902448,"midi_note":72,"velocity":80,"confidence":1.0},{"start_time":195.4390243902448,"end_time":195.6219512195131,"midi_note":68,"velocity":80,"confidence":1.0},{"start_time":195.6219512195131,"end_time":195.8048780487814,"midi_note":65,"velocity":80,"confidence":1.0},{"start_time":195.8048780487814,"end_time":196.170731707318,"midi_note":44,"velocity":80,"confidence":1.0},{"start_time":195.8048780487814,"end_time":196.170731707318,"midi_note":51,"velocity":80,"confidence":1.0},{"start_time":195.8048780487814,"end_time":196.170731707318,"midi_note":53,"velocity":80,"confidence":1.0},{"start_time":195.8048780487814,"end_time":196.170731707318,"midi_note":56,"velocity":80,"confidence":1.0},{"start_time":196.5365853658546,"end_time":196.7195121951229,"midi_note":63,"velocity":80,"confidence":1.0},{"start_time":196.5365853658546,"end_time":196.7195121951229,"midi_note":72,"velocity":80,"confidence":1.0},{"start_time":196.7195121951229,"end_time":196.90243902439119,"midi_note":70,"velocity":80,"confidence":1.0},{"start_time":196.90243902439119,"end_time":197.08536585365948,"midi_note":67,"velocity":80,"confidence":1.0},{"start_time":197.08536585365948,"end_time":197.26829268292778,"midi_note":63,"velocity":80,"confidence":1.0},{"start_time":197.26829268292778,"end_time":197.63414634146437,"midi_note":46,"velocity":80,"confidence":1.0},{"start_time":197.26829268292778,"end_time":197.63414634146437,"midi_note":51,"velocity":80,"confidence":1.0},{"start_time":197.26829268292778,"end_time":197.63414634146437,"midi_note":55,"velocity":80,"confidence":1.0},{"start_time":197.26829268292778,"end_time":197.63414634146437,"midi_note":58,"velocity":80,"confidence":1.0},{"start_time":198.18292682926926,"end_time":198.36585365853756,"midi_note":81,"velocity":80,"confidence":1.0},{"start_time":198.36585365853756,"end_time":198.54878048780586,"midi_note":82,"velocity":80,"confidence":1.0},{"start_time":198.54878048780586,"end_time":198.73170731707415,"midi_note":81,"velocity":80,"confidence":1.0},{"start_time":198.73170731707415,"end_time":199.09756097561075,"midi_note":46,"velocity":80,"confidence":1.0},{"start_time":198.73170731707415,"end_time":199.09756097561075,"midi_note":50,"velocity":80,"confidence":1.0},{"start_time":198.73170731707415,"end_time":199.09756097561075,"midi_note":53,"velocity":80,"confidence":1.0},{"start_time":198.73170731707415,"end_time":199.09756097561075,"midi_note":58,"velocity":80,"confidence":1.0},{"start_time":199.46341463414734,"end_time":199.64634146341564,"midi_note":80,"velocity":80,"confidence":1.0},{"start_time":199.46341463414734,"end_time":199.64634146341564,"midi_note":82,"velocity":80,"confidence":1.0},{"start_time":199.64634146341564,"end_time":199.82926829268393,"midi_note":81,"velocity":80,"confidence":1.0},{"start_time":199.82926829268393,"end_time":200.01219512195223,"midi_note":82,"velocity":80,"confidence":1.0},{"start_time":200.01219512195223,"end_time":200.19512195122053,"midi_note":81,"velocity":80,"confidence":1.0},{"start_time":200.19512195122053,"end_time":200.9268292682937,"midi_note":77,"velocity":80,"confidence":1.0},{"start_time":200.9268292682937,"end_time":201.29268292683028,"midi_note":38,"velocity":80,"confidence":1.0},{"start_time":200.9268292682937,"end_time":201.29268292683028,"midi_note":50,"velocity":80,"confidence":1.0},{"start_time":201.29268292683028,"end_time":201.65853658536687,"midi_note":41,"velocity":80,"confidence":1.0},{"start_time":201.65853658536687,"end_time":201.84146341463517,"midi_note":80,"velocity":80,"confidence":1.0},{"start_time":201.65853658536687,"end_time":201.84146341463517,"midi_note":82,"velocity":80,"confidence":1.0},{"start_time":201.84146341463517,"end_time":202.02439024390347,"midi_note":84,"velocity":80,"confidence":1.0},{"start_time":202.02439024390347,"end_time":202.20731707317177,"midi_note":82,"velocity":80,"confidence":1.0},{"start_time":202.20731707317177,"end_time":202.39024390244006,"midi_note":80,"velocity":80,"confidence":1.0},{"start_time":202.39024390244006,"end_time":203.12195121951322,"midi_note":77,"velocity":80,"confidence":1.0},{"start_time":203.12195121951322,"end_time":203.48780487804981,"midi_note":38,"velocity":80,"confidence":1.0},{"start_time":203.12195121951322,"end_time":203.48780487804981,"midi_note":50,"velocity":80,"confidence":1.0},{"start_time":203.48780487804981,"end_time":203.8536585365864,"midi_note":41,"velocity":80,"confidence":1.0},{"start_time":203.8536585365864,"end_time":204.0365853658547,"midi_note":70,"velocity":80,"confidence":1.0},{"start_time":203.8536585365864,"end_time":204.0365853658547,"midi_note":75,"velocity":80,"confidence":1.0},{"start_time":203.8536585365864,"end_time":204.0365853658547,"midi_note":80,"velocity":80,"confidence":1.0},{"start_time":204.0365853658547,"end_time":204.219512195123,"midi_note":79,"velocity":80,"confidence":1.0},{"start_time":204.219512195123,"end_time":204.4024390243913,"midi_note":77,"velocity":80,"confidence":1.0},{"start_time":204.4024390243913,"end_time":204.5853658536596,"midi_note":75,"velocity":80,"confidence":1.0},{"start_time":204.5853658536596,"end_time":204.9512195121962,"midi_note":39,"velocity":80,"confidence":1.0},{"start_time":204.5853658536596,"end_time":204.9512195121962,"midi_note":51,"velocity":80,"confidence":1.0},{"start_time":204.9512195121962,"end_time":205.31707317073278,"midi_note":43,"velocity":80,"confidence":1.0},{"start_time":205.31707317073278,"end_time":205.50000000000108,"midi_note":68,"velocity":80,"confidence":1.0},{"start_time":205.31707317073278,"end_time":205.50000000000108,"midi_note":75,"velocity":80,"confidence":1.0},{"start_time":205.50000000000108,"end_time":205.68292682926938,"midi_note":74,"velocity":80,"confidence":1.0},{"start_time":205.68292682926938,"end_time":205.86585365853767,"midi_note":72,"velocity":80,"confidence":1.0},{"start_time":205.86585365853767,"end_time":206.04878048780597,"midi_note":74,"velocity":80,"confidence":1.0},{"start_time":206.04878048780597,"end_time":206.41463414634256,"midi_note":41,"velocity":80,"confidence":1.0},{"start_time":206.04878048780597,"end_time":206.41463414634256,"midi_note":53,"velocity":80,"confidence":1.0},{"start_time":206.41463414634256,"end_time":206.78048780487916,"midi_note":44,"velocity":80,"confidence":1.0},{"start_time":206.78048780487916,"end_time":206.96341463414745,"midi_note":70,"velocity":80,"confidence":1.0},{"start_time":206.78048780487916,"end_time":206.96341463414745,"midi_note":77,"velocity":80,"confidence":1.0},{"start_time":206.96341463414745,"end_time":207.14634146341575,"midi_note":75,"velocity":80,"confidence":1.0},{"start_time":207.14634146341575,"end_time":207.32926829268405,"midi_note":70,"velocity":80,"confidence":1.0},{"start_time":207.32926829268405,"end_time":207.51219512195235,"midi_note":67,"velocity":80,"confidence":1.0},{"start_time":207.51219512195235,"end_time":207.87804878048894,"midi_note":43,"velocity":80,"confidence":1.0},{"start_time":207.51219512195235,"end_time":207.87804878048894,"midi_note":55,"velocity":80,"confidence":1.0},{"start_time":207.87804878048894,"end_time":208.24390243902553,"midi_note":46,"velocity":80,"confidence":1.0},{"start_time":208.24390243902553,"end_time":208.42682926829383,"midi_note":65,"velocity":80,"confidence":1.0},{"start_time":208.24390243902553,"end_time":208.42682926829383,"midi_note":74,"velocity":80,"confidence":1.0},{"start_time":208.42682926829383,"end_time":208.60975609756213,"midi_note":72,"velocity":80,"confidence":1.0},{"start_time":208.60975609756213,"end_time":208.79268292683042,"midi_note":68,"velocity":80,"confidence":1.0},{"start_time":208.79268292683042,"end_time":208.97560975609872,"midi_note":65,"velocity":80,"confidence":1.0},{"start_time":208.97560975609872,"end_time":209.3414634146353,"midi_note":44,"velocity":80,"confidence":1.0},{"start_time":208.97560975609872,"end_time":209.3414634146353,"midi_note":51,"velocity":80,"confidence":1.0},{"start_time":208.97560975609872,"end_time":209.3414634146353,"midi_note":56,"velocity":80,"confidence":1.0},{"start_time":209.3414634146353,"end_time":209.7073170731719,"midi_note":48,"velocity":80,"confidence":1.0},{"start_time":209.7073170731719,"end_time":209.8902439024402,"midi_note":63,"velocity":80,"confidence":1.0},{"start_time":209.7073170731719,"end_time":209.8902439024402,"midi_note":72,"velocity":80,"confidence":1.0},{"start_time":209.8902439024402,"end_time":210.0731707317085,"midi_note":70,"velocity":80,"confidence":1.0},{"start_time":210.0731707317085,"end_time":210.2560975609768,"midi_note":67,"velocity":80,"confidence":1.0},{"start_time":210.2560975609768,"end_time":210.4390243902451,"midi_note":63,"velocity":80,"confidence":1.0},{"start_time":210.4390243902451,"end_time":210.8048780487817,"midi_note":46,"velocity":80,"confidence":1.0},{"start_time":210.4390243902451,"end_time":210.8048780487817,"midi_note":55,"velocity":80,"confidence":1.0},{"start_time":210.8048780487817,"end_time":211.17073170731828,"midi_note":58,"velocity":80,"confidence":1.0},{"start_time":211.35365853658658,"end_time":211.53658536585488,"midi_note":70,"velocity":80,"confidence":1.0},{"start_time":211.53658536585488,"end_time":211.71951219512317,"midi_note":74,"velocity":80,"confidence":1.0},{"start_time":211.53658536585488,"end_time":211.71951219512317,"midi_note":82,"velocity":80,"confidence":1.0},{"start_time":211.71951219512317,"end_time":211.90243902439147,"midi_note":74,"velocity":80,"confidence":1.0},{"start_time":211.71951219512317,"end_time":211.90243902439147,"midi_note":82,"velocity":80,"confidence":1.0},{"start_time":211.90243902439147,"end_time":212.26829268292806,"midi_note":46,"velocity":80,"confidence":1.0},{"start_time":211.90243902439147,"end_time":212.26829268292806,"midi_note":58,"velocity":80,"confidence":1.0},{"start_time":212.26829268292806,"end_time":212.63414634146466,"midi_note":53,"velocity":80,"confidence":1.0},{"start_time":212.26829268292806,"end_time":212.63414634146466,"midi_note":56,"velocity":80,"confidence":1.0},{"start_time":212.26829268292806,"end_time":212.63414634146466,"midi_note":58,"velocity":80,"confidence":1.0},{"start_time":212.26829268292806,"end_time":212.63414634146466,"midi_note":62,"velocity":80,"confidence":1.0},{"start_time":212.63414634146466,"end_time":212.81707317073295,"midi_note":75,"velocity":80,"confidence":1.0},{"start_time":212.81707317073295,"end_time":213.00000000000125,"midi_note":79,"velocity":80,"confidence":1.0},{"start_time":212.81707317073295,"end_time":213.00000000000125,"midi_note":91,"velocity":80,"confidence":1.0},{"start_time":213.00000000000125,"end_time":213.18292682926955,"midi_note":79,"velocity":80,"confidence":1.0},{"start_time":213.00000000000125,"end_time":213.18292682926955,"midi_note":91,"velocity":80,"confidence":1.0},{"start_time":213.18292682926955,"end_time":213.36585365853784,"midi_note":79,"velocity":80,"confidence":1.0},{"start_time":213.18292682926955,"end_time":213.36585365853784,"midi_note":91,"velocity":80,"confidence":1.0},{"start_time":213.36585365853784,"end_time":213.54878048780614,"midi_note":51,"velocity":80,"confidence":1.0},{"start_time":213.36585365853784,"end_time":213.54878048780614,"midi_note":55,"velocity":80,"confidence":1.0},{"start_time":213.36585365853784,"end_time":213.54878048780614,"midi_note":58,"velocity":80,"confidence":1.0},{"start_time":213.36585365853784,"end_time":213.54878048780614,"midi_note":63,"velocity":80,"confidence":1.0},{"start_time":213.54878048780614,"end_time":213.73170731707444,"midi_note":67,"velocity":80,"confidence":1.0},{"start_time":213.73170731707444,"end_time":213.91463414634273,"midi_note":67,"velocity":80,"confidence":1.0},{"start_time":213.91463414634273,"end_time":214.09756097561103,"midi_note":67,"velocity":80,"confidence":1.0},{"start_time":214.09756097561103,"end_time":214.28048780487933,"midi_note":75,"velocity":80,"confidence":1.0},{"start_time":214.09756097561103,"end_time":214.28048780487933,"midi_note":87,"velocity":80,"confidence":1.0},{"start_time":214.28048780487933,"end_time":214.46341463414763,"midi_note":70,"velocity":80,"confidence":1.0},{"start_time":214.28048780487933,"end_time":214.46341463414763,"midi_note":82,"velocity":80,"confidence":1.0},{"start_time":214.46341463414763,"end_time":214.64634146341592,"midi_note":70,"velocity":80,"confidence":1.0},{"start_time":214.46341463414763,"end_time":214.64634146341592,"midi_note":82,"velocity":80,"confidence":1.0},{"start_time":214.64634146341592,"end_time":214.82926829268422,"midi_note":70,"velocity":80,"confidence":1.0},{"start_time":214.64634146341592,"end_time":214.82926829268422,"midi_note":82,"velocity":80,"confidence":1.0},{"start_time":214.82926829268422,"end_time":215.01219512195252,"midi_note":63,"velocity":80,"confidence":1.0},{"start_time":215.01219512195252,"end_time":215.1951219512208,"midi_note":58,"velocity":80,"confidence":1.0},{"start_time":215.1951219512208,"end_time":215.3780487804891,"midi_note":58,"velocity":80,"confidence":1.0},{"start_time":215.3780487804891,"end_time":215.5609756097574,"midi_note":58,"velocity":80,"confidence":1.0},{"start_time":215.5609756097574,"end_time":215.7439024390257,"midi_note":67,"velocity":80,"confidence":1.0},{"start_time":215.5609756097574,"end_time":215.7439024390257,"midi_note":79,"velocity":80,"confidence":1.0},{"start_time":215.7439024390257,"end_time":215.926829268294,"midi_note":63,"velocity":80,"confidence":1.0},{"start_time":215.7439024390257,"end_time":215.926829268294,"midi_note":75,"velocity":80,"confidence":1.0},{"start_time":215.926829268294,"end_time":216.1097560975623,"midi_note":63,"velocity":80,"confidence":1.0},{"start_time":215.926829268294,"end_time":216.1097560975623,"midi_note":75,"velocity":80,"confidence":1.0},{"start_time":216.1097560975623,"end_time":216.2926829268306,"midi_note":63,"velocity":80,"confidence":1.0},{"start_time":216.1097560975623,"end_time":216.2926829268306,"midi_note":75,"velocity":80,"confidence":1.0},{"start_time":216.2926829268306,"end_time":216.4756097560989,"midi_note":55,"velocity":80,"confidence":1.0},{"start_time":216.4756097560989,"end_time":216.6585365853672,"midi_note":51,"velocity":80,"confidence":1.0},{"start_time":216.6585365853672,"end_time":216.84146341463548,"midi_note":51,"velocity":80,"confidence":1.0},{"start_time":216.84146341463548,"end_time":217.02439024390378,"midi_note":51,"velocity":80,"confidence":1.0},{"start_time":217.02439024390378,"end_time":217.20731707317208,"midi_note":70,"velocity":80,"confidence":1.0},{"start_time":217.20731707317208,"end_time":217.39024390244037,"midi_note":65,"velocity":80,"confidence":1.0},{"start_time":217.20731707317208,"end_time":217.39024390244037,"midi_note":74,"velocity":80,"confidence":1.0},{"start_time":217.20731707317208,"end_time":217.39024390244037,"midi_note":77,"velocity":80,"confidence":1.0},{"start_time":217.39024390244037,"end_time":217.57317073170867,"midi_note":65,"velocity":80,"confidence":1.0},{"start_time":217.39024390244037,"end_time":217.57317073170867,"midi_note":74,"velocity":80,"confidence":1.0},{"start_time":217.39024390244037,"end_time":217.57317073170867,"midi_note":77,"velocity":80,"confidence":1.0},{"start_time":217.57317073170867,"end_time":217.75609756097697,"midi_note":65,"velocity":80,"confidence":1.0},{"start_time":217.57317073170867,"end_time":217.75609756097697,"midi_note":74,"velocity":80,"confidence":1.0},{"start_time":217.57317073170867,"end_time":217.75609756097697,"midi_note":77,"velocity":80,"confidence":1.0},{"start_time":217.75609756097697,"end_time":217.93902439024527,"midi_note":46,"velocity":80,"confidence":1.0},{"start_time":217.75609756097697,"end_time":217.93902439024527,"midi_note":58,"velocity":80,"confidence":1.0},{"start_time":217.93902439024527,"end_time":218.12195121951356,"midi_note":34,"velocity":80,"confidence":1.0},{"start_time":217.93902439024527,"end_time":218.12195121951356,"midi_note":46,"velocity":80,"confidence":1.0},{"start_time":218.12195121951356,"end_time":218.30487804878186,"midi_note":34,"velocity":80,"confidence":1.0},{"start_time":218.12195121951356,"end_time":218.30487804878186,"midi_note":46,"velocity":80,"confidence":1.0},{"start_time":218.30487804878186,"end_time":218.48780487805016,"midi_note":34,"velocity":80,"confidence":1.0},{"start_time":218.30487804878186,"end_time":218.48780487805016,"midi_note":46,"velocity":80,"confidence":1.0},{"start_time":218.48780487805016,"end_time":218.67073170731845,"midi_note":67,"velocity":80,"confidence":1.0},{"start_time":218.48780487805016,"end_time":218.67073170731845,"midi_note":75,"velocity":80,"confidence":1.0},{"start_time":218.48780487805016,"end_time":218.67073170731845,"midi_note":79,"velocity":80,"confidence":1.0},{"start_time":218.67073170731845,"end_time":218.85365853658675,"midi_note":79,"velocity":80,"confidence":1.0},{"start_time":218.67073170731845,"end_time":218.85365853658675,"midi_note":91,"velocity":80,"confidence":1.0},{"start_time":218.85365853658675,"end_time":219.03658536585505,"midi_note":79,"velocity":80,"confidence":1.0},{"start_time":218.85365853658675,"end_time":219.03658536585505,"midi_note":91,"velocity":80,"confidence":1.0},{"start_time":219.03658536585505,"end_time":219.21951219512334,"midi_note":79,"velocity":80,"confidence":1.0},{"start_time":219.03658536585505,"end_time":219.21951219512334,"midi_note":91,"velocity":80,"confidence":1.0},{"start_time":219.21951219512334,"end_time":219.40243902439164,"midi_note":39,"velocity":80,"confidence":1.0},{"start_time":219.21951219512334,"end_time":219.40243902439164,"midi_note":51,"velocity":80,"confidence":1.0},{"start_time":219.40243902439164,"end_time":219.58536585365994,"midi_note":67,"velocity":80,"confidence":1.0},{"start_time":219.58536585365994,"end_time":219.76829268292823,"midi_note":67,"velocity":80,"confidence":1.0},{"start_time":219.76829268292823,"end_time":219.95121951219653,"midi_note":67,"velocity":80,"confidence":1.0},{"start_time":219.95121951219653,"end_time":220.13414634146483,"midi_note":75,"velocity":80,"confidence":1.0},{"start_time":219.95121951219653,"end_time":220.13414634146483,"midi_note":87,"velocity":80,"confidence":1.0},{"start_time":220.13414634146483,"end_time":220.31707317073312,"midi_note":70,"velocity":80,"confidence":1.0},{"start_time":220.13414634146483,"end_time":220.31707317073312,"midi_note":82,"velocity":80,"confidence":1.0},{"start_time":220.31707317073312,"end_time":220.50000000000142,"midi_note":70,"velocity":80,"confidence":1.0},{"start_time":220.31707317073312,"end_time":220.50000000000142,"midi_note":82,"velocity":80,"confidence":1.0},{"start_time":220.50000000000142,"end_time":220.68292682926972,"midi_note":70,"velocity":80,"confidence":1.0},{"start_time":220.50000000000142,"end_time":220.68292682926972,"midi_note":82,"velocity":80,"confidence":1.0},{"start_time":220.68292682926972,"end_time":220.86585365853801,"midi_note":63,"velocity":80,"confidence":1.0},{"start_time":220.86585365853801,"end_time":221.0487804878063,"midi_note":58,"velocity":80,"confidence":1.0},{"start_time":221.0487804878063,"end_time":221.2317073170746,"midi_note":58,"velocity":80,"confidence":1.0},{"start_time":221.2317073170746,"end_time":221.4146341463429,"midi_note":58,"velocity":80,"confidence":1.0},{"start_time":221.4146341463429,"end_time":221.5975609756112,"midi_note":67,"velocity":80,"confidence":1.0},{"start_time":221.4146341463429,"end_time":221.5975609756112,"midi_note":79,"velocity":80,"confidence":1.0},{"start_time":221.5975609756112,"end_time":221.7804878048795,"midi_note":63,"velocity":80,"confidence":1.0},{"start_time":221.5975609756112,"end_time":221.7804878048795,"midi_note":75,"velocity":80,"confidence":1.0},{"start_time":221.7804878048795,"end_time":221.9634146341478,"midi_note":63,"velocity":80,"confidence":1.0},{"start_time":221.7804878048795,"end_time":221.9634146341478,"midi_note":75,"velocity":80,"confidence":1.0},{"start_time":221.9634146341478,"end_time":222.1463414634161,"midi_note":63,"velocity":80,"confidence":1.0},{"start_time":221.9634146341478,"end_time":222.1463414634161,"midi_note":75,"velocity":80,"confidence":1.0},{"start_time":222.1463414634161,"end_time":222.3292682926844,"midi_note":55,"velocity":80,"confidence":1.0},{"start_time":222.3292682926844,"end_time":222.5121951219527,"midi_note":51,"velocity":80,"confidence":1.0},{"start_time":222.5121951219527,"end_time":222.69512195122098,"midi_note":51,"velocity":80,"confidence":1.0},{"start_time":222.69512195122098,"end_time":222.87804878048928,"midi_note":51,"velocity":80,"confidence":1.0},{"start_time":222.87804878048928,"end_time":223.06097560975758,"midi_note":70,"velocity":80,"confidence":1.0},{"start_time":223.06097560975758,"end_time":223.24390243902587,"midi_note":70,"velocity":80,"confidence":1.0},{"start_time":223.06097560975758,"end_time":223.24390243902587,"midi_note":74,"velocity":80,"confidence":1.0},{"start_time":223.06097560975758,"end_time":223.24390243902587,"midi_note":77,"velocity":80,"confidence":1.0},{"start_time":223.06097560975758,"end_time":223.24390243902587,"midi_note":82,"velocity":80,"confidence":1.0},{"start_time":223.24390243902587,"end_time":223.42682926829417,"midi_note":70,"velocity":80,"confidence":1.0},{"start_time":223.24390243902587,"end_time":223.42682926829417,"midi_note":74,"velocity":80,"confidence":1.0},{"start_time":223.24390243902587,"end_time":223.42682926829417,"midi_note":77,"velocity":80,"confidence":1.0},{"start_time":223.24390243902587,"end_time":223.42682926829417,"midi_note":82,"velocity":80,"confidence":1.0},{"start_time":223.42682926829417,"end_time":223.60975609756247,"midi_note":70,"velocity":80,"confidence":1.0},{"start_time":223.42682926829417,"end_time":223.60975609756247,"midi_note":74,"velocity":80,"confidence":1.0},{"start_time":223.42682926829417,"end_time":223.60975609756247,"midi_note":77,"velocity":80,"confidence":1.0},{"start_time":223.42682926829417,"end_time":223.60975609756247,"midi_note":82,"velocity":80,"confidence":1.0},{"start_time":223.60975609756247,"end_time":223.79268292683076,"midi_note":46,"velocity":80,"confidence":1.0},{"start_time":223.60975609756247,"end_time":223.79268292683076,"midi_note":58,"velocity":80,"confidence":1.0},{"start_time":223.79268292683076,"end_time":223.97560975609906,"midi_note":34,"velocity":80,"confidence":1.0},{"start_time":223.79268292683076,"end_time":223.97560975609906,"midi_note":46,"velocity":80,"confidence":1.0},{"start_time":223.97560975609906,"end_time":224.15853658536736,"midi_note":34,"velocity":80,"confidence":1.0},{"start_time":223.97560975609906,"end_time":224.15853658536736,"midi_note":46,"velocity":80,"confidence":1.0},{"start_time":224.15853658536736,"end_time":224.34146341463565,"midi_note":34,"velocity":80,"confidence":1.0},{"start_time":224.15853658536736,"end_time":224.34146341463565,"midi_note":46,"velocity":80,"confidence":1.0},{"start_time":224.34146341463565,"end_time":224.70731707317225,"midi_note":70,"velocity":80,"confidence":1.0},{"start_time":224.34146341463565,"end_time":224.70731707317225,"midi_note":75,"velocity":80,"confidence":1.0},{"start_time":224.34146341463565,"end_time":224.70731707317225,"midi_note":79,"velocity":80,"confidence":1.0},{"start_time":224.34146341463565,"end_time":224.70731707317225,"midi_note":82,"velocity":80,"confidence":1.0},{"start_time":225.07317073170884,"end_time":225.43902439024544,"midi_note":39,"velocity":80,"confidence":1.0},{"start_time":225.07317073170884,"end_time":225.43902439024544,"midi_note":51,"velocity":80,"confidence":1.0},{"start_time":225.98780487805033,"end_time":226.17073170731862,"midi_note":70,"velocity":80,"confidence":1.0},{"start_time":225.98780487805033,"end_time":226.17073170731862,"midi_note":74,"velocity":80,"confidence":1.0},{"start_time":225.98780487805033,"end_time":226.17073170731862,"midi_note":77,"velocity":80,"confidence":1.0},{"start_time":225.98780487805033,"end_time":226.17073170731862,"midi_note":82,"velocity":80,"confidence":1.0},{"start_time":226.17073170731862,"end_time":226.35365853658692,"midi_note":70,"velocity":80,"confidence":1.0},{"start_time":226.17073170731862,"end_time":226.35365853658692,"midi_note":74,"velocity":80,"confidence":1.0},{"start_time":226.17073170731862,"end_time":226.35365853658692,"midi_note":77,"velocity":80,"confidence":1.0},{"start_time":226.17073170731862,"end_time":226.35365853658692,"midi_note":82,"velocity":80,"confidence":1.0},{"start_time":226.35365853658692,"end_time":226.53658536585522,"midi_note":70,"velocity":80,"confidence":1.0},{"start_time":226.35365853658692,"end_time":226.53658536585522,"midi_note":74,"velocity":80,"confidence":1.0},{"start_time":226.35365853658692,"end_time":226.53658536585522,"midi_note":77,"velocity":80,"confidence":1.0},{"start_time":226.35365853658692,"end_time":226.53658536585522,"midi_note":82,"velocity":80,"confidence":1.0},{"start_time":226.7195121951235,"end_time":226.9024390243918,"midi_note":34,"velocity":80,"confidence":1.0},{"start_time":226.7195121951235,"end_time":226.9024390243918,"midi_note":46,"velocity":80,"confidence":1.0},{"start_time":226.9024390243918,"end_time":227.0853658536601,"midi_note":34,"velocity":80,"confidence":1.0},{"start_time":226.9024390243918,"end_time":227.0853658536601,"midi_note":46,"velocity":80,"confidence":1.0},{"start_time":227.0853658536601,"end_time":227.2682926829284,"midi_note":34,"velocity":80,"confidence":1.0},{"start_time":227.0853658536601,"end_time":227.2682926829284,"midi_note":46,"velocity":80,"confidence":1.0},{"start_time":227.2682926829284,"end_time":227.634146341465,"midi_note":70,"velocity":80,"confidence":1.0},{"start_time":227.2682926829284,"end_time":227.634146341465,"midi_note":75,"velocity":80,"confidence":1.0},{"start_time":227.2682926829284,"end_time":227.634146341465,"midi_note":79,"velocity":80,"confidence":1.0},{"start_time":227.2682926829284,"end_time":227.634146341465,"midi_note":82,"velocity":80,"confidence":1.0},{"start_time":228.0000000000016,"end_time":228.36585365853819,"midi_note":39,"velocity":80,"confidence":1.0},{"start_time":228.0000000000016,"end_time":228.36585365853819,"midi_note":51,"velocity":80,"confidence":1.0},{"start_time":228.91463414634308,"end_time":229.09756097561137,"midi_note":74,"velocity":80,"confidence":1.0},{"start_time":228.91463414634308,"end_time":229.09756097561137,"midi_note":77,"velocity":80,"confidence":1.0},{"start_time":228.91463414634308,"end_time":229.09756097561137,"midi_note":82,"velocity":80,"confidence":1.0},{"start_time":228.91463414634308,"end_time":229.09756097561137,"midi_note":86,"velocity":80,"confidence":1.0},{"start_time":229.09756097561137,"end_time":229.28048780487967,"midi_note":74,"velocity":80,"confidence":1.0},{"start_time":229.09756097561137,"end_time":229.28048780487967,"midi_note":77,"velocity":80,"confidence":1.0},{"start_time":229.09756097561137,"end_time":229.28048780487967,"midi_note":82,"velocity":80,"confidence":1.0},{"start_time":229.09756097561137,"end_time":229.28048780487967,"midi_note":86,"velocity":80,"confidence":1.0},{"start_time":229.28048780487967,"end_time":229.46341463414797,"midi_note":74,"velocity":80,"confidence":1.0},{"start_time":229.28048780487967,"end_time":229.46341463414797,"midi_note":77,"velocity":80,"confidence":1.0},{"start_time":229.28048780487967,"end_time":229.46341463414797,"midi_note":82,"velocity":80,"confidence":1.0},{"start_time":229.28048780487967,"end_time":229.46341463414797,"midi_note":86,"velocity":80,"confidence":1.0},{"start_time":229.64634146341626,"end_time":229.82926829268456,"midi_note":34,"velocity":80,"confidence":1.0},{"start_time":229.64634146341626,"end_time":229.82926829268456,"midi_note":46,"velocity":80,"confidence":1.0},{"start_time":229.82926829268456,"end_time":230.01219512195286,"midi_note":34,"velocity":80,"confidence":1.0},{"start_time":229.82926829268456,"end_time":230.01219512195286,"midi_note":46,"velocity":80,"confidence":1.0},{"start_time":230.01219512195286,"end_time":230.19512195122115,"midi_note":34,"velocity":80,"confidence":1.0},{"start_time":230.01219512195286,"end_time":230.19512195122115,"midi_note":46,"velocity":80,"confidence":1.0},{"start_time":230.19512195122115,"end_time":230.56097560975775,"midi_note":75,"velocity":80,"confidence":1.0},{"start_time":230.19512195122115,"end_time":230.56097560975775,"midi_note":79,"velocity":80,"confidence":1.0},{"start_time":230.19512195122115,"end_time":230.56097560975775,"midi_note":82,"velocity":80,"confidence":1.0},{"start_time":230.19512195122115,"end_time":230.56097560975775,"midi_note":87,"velocity":80,"confidence":1.0},{"start_time":230.92682926829434,"end_time":231.29268292683093,"midi_note":39,"velocity":80,"confidence":1.0},{"start_time":230.92682926829434,"end_time":231.29268292683093,"midi_note":51,"velocity":80,"confidence":1.0},{"start_time":234.76829268292846,"end_time":234.95121951219676,"midi_note":70,"velocity":80,"confidence":1.0},{"start_time":234.95121951219676,"end_time":235.13414634146505,"midi_note":70,"velocity":80,"confidence":1.0},{"start_time":235.13414634146505,"end_time":235.31707317073335,"midi_note":70,"velocity":80,"confidence":1.0},{"start_time":236.0487804878065,"end_time":236.78048780487967,"midi_note":67,"velocity":80,"confidence":1.0},{"start_time":236.96341463414797,"end_time":237.14634146341626,"midi_note":61,"velocity":80,"confidence":1.0},{"start_time":237.14634146341626,"end_time":237.32926829268456,"midi_note":61,"velocity":80,"confidence":1.0},{"start_time":237.32926829268456,"end_time":237.51219512195286,"midi_note":61,"velocity":80,"confidence":1.0},{"start_time":237.69512195122115,"end_time":237.87804878048945,"midi_note":37,"velocity":80,"confidence":1.0},{"start_time":237.69512195122115,"end_time":237.87804878048945,"midi_note":49,"velocity":80,"confidence":1.0},{"start_time":237.87804878048945,"end_time":238.06097560975775,"midi_note":37,"velocity":80,"confidence":1.0},{"start_time":237.87804878048945,"end_time":238.06097560975775,"midi_note":49,"velocity":80,"confidence":1.0},{"start_time":238.06097560975775,"end_time":238.24390243902604,"midi_note":37,"velocity":80,"confidence":1.0},{"start_time":238.06097560975775,"end_time":238.24390243902604,"midi_note":49,"velocity":80,"confidence":1.0},{"start_time":238.24390243902604,"end_time":238.9756097560992,"midi_note":67,"velocity":80,"confidence":1.0},{"start_time":238.9756097560992,"end_time":239.70731707317236,"midi_note":60,"velocity":80,"confidence":1.0},{"start_time":239.70731707317236,"end_time":240.43902439024552,"midi_note":36,"velocity":80,"confidence":1.0},{"start_time":239.70731707317236,"end_time":240.43902439024552,"midi_note":48,"velocity":80,"confidence":1.0},{"start_time":240.43902439024552,"end_time":242.43902439024552,"midi_note":67,"velocity":80,"confidence":1.0},{"start_time":242.43902439024552,"end_time":244.43902439024552,"midi_note":60,"velocity":80,"confidence":1.0},{"start_time":244.43902439024552,"end_time":246.43902439024552,"midi_note":36,"velocity":80,"confidence":1.0},{"start_time":244.43902439024552,"end_time":246.43902439024552,"midi_note":48,"velocity":80,"confidence":1.0},{"start_time":246.62195121951382,"end_time":246.80487804878211,"midi_note":72,"velocity":80,"confidence":1.0},{"start_time":246.80487804878211,"end_time":246.9878048780504,"midi_note":72,"velocity":80,"confidence":1.0},{"start_time":246.9878048780504,"end_time":247.1707317073187,"midi_note":72,"velocity":80,"confidence":1.0},{"start_time":248.08536585366016,"end_time":248.26829268292846,"midi_note":73,"velocity":80,"confidence":1.0},{"start_time":248.26829268292846,"end_time":248.45121951219676,"midi_note":73,"velocity":80,"confidence":1.0},{"start_time":248.45121951219676,"end_time":248.63414634146505,"midi_note":73,"velocity":80,"confidence":1.0},{"start_time":248.63414634146505,"end_time":249.3658536585382,"midi_note":68,"velocity":80,"confidence":1.0},{"start_time":249.3658536585382,"end_time":250.09756097561137,"midi_note":60,"velocity":80,"confidence":1.0},{"start_time":250.09756097561137,"end_time":250.82926829268453,"midi_note":53,"velocity":80,"confidence":1.0},{"start_time":250.82926829268453,"end_time":251.01219512195283,"midi_note":72,"velocity":80,"confidence":1.0},{"start_time":251.01219512195283,"end_time":251.19512195122113,"midi_note":80,"velocity":80,"confidence":1.0},{"start_time":251.19512195122113,"end_time":251.37804878048942,"midi_note":80,"velocity":80,"confidence":1.0},{"start_time":251.37804878048942,"end_time":251.56097560975772,"midi_note":80,"velocity":80,"confidence":1.0},{"start_time":251.56097560975772,"end_time":252.29268292683088,"midi_note":68,"velocity":80,"confidence":1.0},{"start_time":252.29268292683088,"end_time":253.02439024390404,"midi_note":60,"velocity":80,"confidence":1.0},{"start_time":253.02439024390404,"end_time":253.7560975609772,"midi_note":53,"velocity":80,"confidence":1.0},{"start_time":253.7560975609772,"end_time":254.48780487805035,"midi_note":77,"velocity":80,"confidence":1.0},{"start_time":254.48780487805035,"end_time":255.2195121951235,"midi_note":68,"velocity":80,"confidence":1.0},{"start_time":255.2195121951235,"end_time":255.4024390243918,"midi_note":60,"velocity":80,"confidence":1.0},{"start_time":255.4024390243918,"end_time":255.5853658536601,"midi_note":61,"velocity":80,"confidence":1.0},{"start_time":255.5853658536601,"end_time":255.7682926829284,"midi_note":61,"velocity":80,"confidence":1.0},{"start_time":255.7682926829284,"end_time":255.9512195121967,"midi_note":61,"velocity":80,"confidence":1.0},{"start_time":255.9512195121967,"end_time":256.6829268292699,"midi_note":53,"velocity":80,"confidence":1.0},{"start_time":256.6829268292699,"end_time":256.8658536585382,"midi_note":77,"velocity":80,"confidence":1.0},{"start_time":257.4146341463431,"end_time":257.5975609756114,"midi_note":68,"velocity":80,"confidence":1.0},{"start_time":257.5975609756114,"end_time":257.78048780487967,"midi_note":72,"velocity":80,"confidence":1.0},{"start_time":257.78048780487967,"end_time":257.96341463414797,"midi_note":72,"velocity":80,"confidence":1.0},{"start_time":257.96341463414797,"end_time":258.14634146341626,"midi_note":72,"velocity":80,"confidence":1.0},{"start_time":258.14634146341626,"end_time":258.87804878048945,"midi_note":60,"velocity":80,"confidence":1.0},{"start_time":258.87804878048945,"end_time":259.60975609756264,"midi_note":53,"velocity":80,"confidence":1.0},{"start_time":259.79268292683093,"end_time":259.97560975609923,"midi_note":73,"velocity":80,"confidence":1.0},{"start_time":259.97560975609923,"end_time":260.15853658536753,"midi_note":73,"velocity":80,"confidence":1.0},{"start_time":260.15853658536753,"end_time":260.3414634146358,"midi_note":73,"velocity":80,"confidence":1.0},{"start_time":260.3414634146358,"end_time":260.8902439024407,"midi_note":67,"velocity":80,"confidence":1.0},{"start_time":261.073170731709,"end_time":261.8048780487822,"midi_note":60,"velocity":80,"confidence":1.0},{"start_time":261.8048780487822,"end_time":262.5365853658554,"midi_note":52,"velocity":80,"confidence":1.0},{"start_time":262.7195121951237,"end_time":262.902439024392,"midi_note":82,"velocity":80,"confidence":1.0},{"start_time":262.902439024392,"end_time":263.0853658536603,"midi_note":82,"velocity":80,"confidence":1.0},{"start_time":263.0853658536603,"end_time":263.2682926829286,"midi_note":82,"velocity":80,"confidence":1.0},{"start_time":263.2682926829286,"end_time":264.00000000000176,"midi_note":72,"velocity":80,"confidence":1.0},{"start_time":264.00000000000176,"end_time":264.73170731707495,"midi_note":60,"velocity":80,"confidence":1.0},{"start_time":264.73170731707495,"end_time":265.46341463414814,"midi_note":52,"velocity":80,"confidence":1.0},{"start_time":265.46341463414814,"end_time":266.1951219512213,"midi_note":79,"velocity":80,"confidence":1.0},{"start_time":266.1951219512213,"end_time":266.9268292682945,"midi_note":72,"velocity":80,"confidence":1.0},{"start_time":266.9268292682945,"end_time":267.1097560975628,"midi_note":60,"velocity":80,"confidence":1.0},{"start_time":267.1097560975628,"end_time":267.2926829268311,"midi_note":61,"velocity":80,"confidence":1.0},{"start_time":267.2926829268311,"end_time":267.4756097560994,"midi_note":61,"velocity":80,"confidence":1.0},{"start_time":267.4756097560994,"end_time":267.6585365853677,"midi_note":61,"velocity":80,"confidence":1.0},{"start_time":267.6585365853677,"end_time":268.3902439024409,"midi_note":52,"velocity":80,"confidence":1.0},{"start_time":268.3902439024409,"end_time":268.5731707317092,"midi_note":79,"velocity":80,"confidence":1.0},{"start_time":268.5731707317092,"end_time":268.7560975609775,"midi_note":84,"velocity":80,"confidence":1.0},{"start_time":268.7560975609775,"end_time":268.9390243902458,"midi_note":84,"velocity":80,"confidence":1.0},{"start_time":268.9390243902458,"end_time":269.1219512195141,"midi_note":82,"velocity":80,"confidence":1.0},{"start_time":269.1219512195141,"end_time":269.85365853658726,"midi_note":72,"velocity":80,"confidence":1.0},{"start_time":269.85365853658726,"end_time":270.58536585366045,"midi_note":60,"velocity":80,"confidence":1.0},{"start_time":270.58536585366045,"end_time":271.31707317073364,"midi_note":52,"velocity":80,"confidence":1.0},{"start_time":271.31707317073364,"end_time":272.0487804878068,"midi_note":80,"velocity":80,"confidence":1.0},{"start_time":272.0487804878068,"end_time":272.2317073170751,"midi_note":72,"velocity":80,"confidence":1.0},{"start_time":272.2317073170751,"end_time":272.4146341463434,"midi_note":68,"velocity":80,"confidence":1.0},{"start_time":272.4146341463434,"end_time":272.5975609756117,"midi_note":68,"velocity":80,"confidence":1.0},{"start_time":272.5975609756117,"end_time":272.78048780488,"midi_note":70,"velocity":80,"confidence":1.0},{"start_time":272.78048780488,"end_time":273.5121951219532,"midi_note":60,"velocity":80,"confidence":1.0},{"start_time":273.5121951219532,"end_time":274.2439024390264,"midi_note":53,"velocity":80,"confidence":1.0},{"start_time":274.2439024390264,"end_time":274.4268292682947,"midi_note":79,"velocity":80,"confidence":1.0},{"start_time":274.4268292682947,"end_time":274.609756097563,"midi_note":84,"velocity":80,"confidence":1.0},{"start_time":274.609756097563,"end_time":274.7926829268313,"midi_note":84,"velocity":80,"confidence":1.0},{"start_time":274.7926829268313,"end_time":274.9756097560996,"midi_note":82,"velocity":80,"confidence":1.0},{"start_time":274.9756097560996,"end_time":275.70731707317276,"midi_note":72,"velocity":80,"confidence":1.0},{"start_time":275.70731707317276,"end_time":276.43902439024595,"midi_note":60,"velocity":80,"confidence":1.0},{"start_time":276.43902439024595,"end_time":277.17073170731913,"midi_note":52,"velocity":80,"confidence":1.0},{"start_time":277.17073170731913,"end_time":277.9024390243923,"midi_note":80,"velocity":80,"confidence":1.0},{"start_time":277.9024390243923,"end_time":278.0853658536606,"midi_note":72,"velocity":80,"confidence":1.0},{"start_time":278.0853658536606,"end_time":278.2682926829289,"midi_note":68,"velocity":80,"confidence":1.0},{"start_time":278.2682926829289,"end_time":278.4512195121972,"midi_note":68,"velocity":80,"confidence":1.0},{"start_time":278.4512195121972,"end_time":278.6341463414655,"midi_note":70,"velocity":80,"confidence":1.0},{"start_time":278.6341463414655,"end_time":279.3658536585387,"midi_note":60,"velocity":80,"confidence":1.0},{"start_time":279.3658536585387,"end_time":280.0975609756119,"midi_note":53,"velocity":80,"confidence":1.0},{"start_time":280.0975609756119,"end_time":280.2804878048802,"midi_note":79,"velocity":80,"confidence":1.0},{"start_time":280.2804878048802,"end_time":280.4634146341485,"midi_note":84,"velocity":80,"confidence":1.0},{"start_time":280.4634146341485,"end_time":280.6463414634168,"midi_note":84,"velocity":80,"confidence":1.0},{"start_time":280.6463414634168,"end_time":280.8292682926851,"midi_note":82,"velocity":80,"confidence":1.0},{"start_time":280.8292682926851,"end_time":281.56097560975826,"midi_note":72,"velocity":80,"confidence":1.0},{"start_time":281.56097560975826,"end_time":282.29268292683145,"midi_note":60,"velocity":80,"confidence":1.0},{"start_time":282.29268292683145,"end_time":283.02439024390463,"midi_note":52,"velocity":80,"confidence":1.0},{"start_time":283.02439024390463,"end_time":283.20731707317293,"midi_note":80,"velocity":80,"confidence":1.0},{"start_time":283.20731707317293,"end_time":283.3902439024412,"midi_note":80,"velocity":80,"confidence":1.0},{"start_time":283.3902439024412,"end_time":283.5731707317095,"midi_note":80,"velocity":80,"confidence":1.0},{"start_time":283.5731707317095,"end_time":283.7560975609778,"midi_note":79,"velocity":80,"confidence":1.0},{"start_time":283.7560975609778,"end_time":284.487804878051,"midi_note":60,"velocity":80,"confidence":1.0},{"start_time":284.487804878051,"end_time":284.8536585365876,"midi_note":53,"velocity":80,"confidence":1.0},{"start_time":285.2195121951242,"end_time":285.4024390243925,"midi_note":77,"velocity":80,"confidence":1.0},{"start_time":285.4024390243925,"end_time":285.5853658536608,"midi_note":77,"velocity":80,"confidence":1.0},{"start_time":285.5853658536608,"end_time":285.7682926829291,"midi_note":77,"velocity":80,"confidence":1.0},{"start_time":285.7682926829291,"end_time":285.9512195121974,"midi_note":75,"velocity":80,"confidence":1.0},{"start_time":285.9512195121974,"end_time":286.317073170734,"midi_note":62,"velocity":80,"confidence":1.0},{"start_time":286.317073170734,"end_time":286.68292682927057,"midi_note":63,"velocity":80,"confidence":1.0},{"start_time":286.68292682927057,"end_time":286.86585365853887,"midi_note":74,"velocity":80,"confidence":1.0},{"start_time":286.86585365853887,"end_time":287.04878048780716,"midi_note":74,"velocity":80,"confidence":1.0},{"start_time":287.04878048780716,"end_time":287.23170731707546,"midi_note":74,"velocity":80,"confidence":1.0},{"start_time":287.23170731707546,"end_time":287.41463414634376,"midi_note":72,"velocity":80,"confidence":1.0},{"start_time":287.41463414634376,"end_time":287.78048780488035,"midi_note":65,"velocity":80,"confidence":1.0},{"start_time":287.78048780488035,"end_time":288.14634146341695,"midi_note":66,"velocity":80,"confidence":1.0},{"start_time":288.14634146341695,"end_time":288.51219512195354,"midi_note":71,"velocity":80,"confidence":1.0},{"start_time":288.87804878049013,"end_time":289.06097560975843,"midi_note":67,"velocity":80,"confidence":1.0},{"start_time":289.06097560975843,"end_time":289.2439024390267,"midi_note":67,"velocity":80,"confidence":1.0},{"start_time":289.2439024390267,"end_time":289.426829268295,"midi_note":67,"velocity":80,"confidence":1.0},{"start_time":289.426829268295,"end_time":289.6097560975633,"midi_note":65,"velocity":80,"confidence":1.0},{"start_time":289.9756097560999,"end_time":290.3414634146365,"midi_note":55,"velocity":80,"confidence":1.0},{"start_time":290.5243902439048,"end_time":290.7073170731731,"midi_note":75,"velocity":80,"confidence":1.0},{"start_time":290.7073170731731,"end_time":290.8902439024414,"midi_note":75,"velocity":80,"confidence":1.0},{"start_time":290.8902439024414,"end_time":291.0731707317097,"midi_note":77,"velocity":80,"confidence":1.0},{"start_time":291.0731707317097,"end_time":291.8048780487829,"midi_note":63,"velocity":80,"confidence":1.0},{"start_time":291.8048780487829,"end_time":292.53658536585607,"midi_note":60,"velocity":80,"confidence":1.0},{"start_time":292.53658536585607,"end_time":293.26829268292926,"midi_note":79,"velocity":80,"confidence":1.0},{"start_time":293.26829268292926,"end_time":293.45121951219755,"midi_note":62,"velocity":80,"confidence":1.0},{"start_time":293.45121951219755,"end_time":293.63414634146585,"midi_note":67,"velocity":80,"confidence":1.0},{"start_time":293.63414634146585,"end_time":293.81707317073415,"midi_note":67,"velocity":80,"confidence":1.0},{"start_time":293.81707317073415,"end_time":294.00000000000244,"midi_note":65,"velocity":80,"confidence":1.0},{"start_time":294.00000000000244,"end_time":294.36585365853904,"midi_note":55,"velocity":80,"confidence":1.0},{"start_time":294.00000000000244,"end_time":294.36585365853904,"midi_note":59,"velocity":80,"confidence":1.0},{"start_time":294.73170731707563,"end_time":294.91463414634393,"midi_note":79,"velocity":80,"confidence":1.0},{"start_time":294.91463414634393,"end_time":295.0975609756122,"midi_note":75,"velocity":80,"confidence":1.0},{"start_time":295.0975609756122,"end_time":295.2804878048805,"midi_note":75,"velocity":80,"confidence":1.0},{"start_time":295.2804878048805,"end_time":295.4634146341488,"midi_note":77,"velocity":80,"confidence":1.0},{"start_time":295.4634146341488,"end_time":296.195121951222,"midi_note":60,"velocity":80,"confidence":1.0},{"start_time":295.4634146341488,"end_time":296.195121951222,"midi_note":63,"velocity":80,"confidence":1.0},{"start_time":296.195121951222,"end_time":296.9268292682952,"midi_note":79,"velocity":80,"confidence":1.0},{"start_time":296.9268292682952,"end_time":297.1097560975635,"midi_note":62,"velocity":80,"confidence":1.0},{"start_time":297.1097560975635,"end_time":297.2926829268318,"midi_note":67,"velocity":80,"confidence":1.0},{"start_time":297.2926829268318,"end_time":297.4756097561001,"midi_note":67,"velocity":80,"confidence":1.0},{"start_time":297.4756097561001,"end_time":297.6585365853684,"midi_note":65,"velocity":80,"confidence":1.0},{"start_time":297.6585365853684,"end_time":298.024390243905,"midi_note":55,"velocity":80,"confidence":1.0},{"start_time":297.6585365853684,"end_time":298.024390243905,"midi_note":59,"velocity":80,"confidence":1.0},{"start_time":298.39024390244157,"end_time":299.12195121951476,"midi_note":67,"velocity":80,"confidence":1.0},{"start_time":298.39024390244157,"end_time":299.12195121951476,"midi_note":79,"velocity":80,"confidence":1.0},{"start_time":299.12195121951476,"end_time":299.30487804878305,"midi_note":63,"velocity":80,"confidence":1.0},{"start_time":299.30487804878305,"end_time":299.48780487805135,"midi_note":63,"velocity":80,"confidence":1.0},{"start_time":299.48780487805135,"end_time":299.67073170731965,"midi_note":63,"velocity":80,"confidence":1.0},{"start_time":299.67073170731965,"end_time":299.85365853658794,"midi_note":62,"velocity":80,"confidence":1.0},{"start_time":299.85365853658794,"end_time":300.21951219512454,"midi_note":69,"velocity":80,"confidence":1.0},{"start_time":299.85365853658794,"end_time":300.21951219512454,"midi_note":81,"velocity":80,"confidence":1.0},{"start_time":300.21951219512454,"end_time":300.58536585366113,"midi_note":70,"velocity":80,"confidence":1.0},{"start_time":300.21951219512454,"end_time":300.58536585366113,"midi_note":82,"velocity":80,"confidence":1.0},{"start_time":300.58536585366113,"end_time":300.7682926829294,"midi_note":60,"velocity":80,"confidence":1.0},{"start_time":300.7682926829294,"end_time":300.9512195121977,"midi_note":60,"velocity":80,"confidence":1.0},{"start_time":300.7682926829294,"end_time":300.9512195121977,"midi_note":63,"velocity":80,"confidence":1.0},{"start_time":300.9512195121977,"end_time":301.134146341466,"midi_note":60,"velocity":80,"confidence":1.0},{"start_time":300.9512195121977,"end_time":301.134146341466,"midi_note":63,"velocity":80,"confidence":1.0},{"start_time":301.134146341466,"end_time":301.3170731707343,"midi_note":58,"velocity":80,"confidence":1.0},{"start_time":301.134146341466,"end_time":301.3170731707343,"midi_note":62,"velocity":80,"confidence":1.0},{"start_time":301.3170731707343,"end_time":301.6829268292709,"midi_note":72,"velocity":80,"confidence":1.0},{"start_time":301.3170731707343,"end_time":301.6829268292709,"midi_note":84,"velocity":80,"confidence":1.0},{"start_time":301.6829268292709,"end_time":302.0487804878075,"midi_note":73,"velocity":80,"confidence":1.0},{"start_time":301.6829268292709,"end_time":302.0487804878075,"midi_note":85,"velocity":80,"confidence":1.0},{"start_time":302.0487804878075,"end_time":302.2317073170758,"midi_note":57,"velocity":80,"confidence":1.0},{"start_time":302.0487804878075,"end_time":302.2317073170758,"midi_note":60,"velocity":80,"confidence":1.0},{"start_time":302.2317073170758,"end_time":302.4146341463441,"midi_note":57,"velocity":80,"confidence":1.0},{"start_time":302.2317073170758,"end_time":302.4146341463441,"midi_note":60,"velocity":80,"confidence":1.0},{"start_time":302.4146341463441,"end_time":302.5975609756124,"midi_note":57,"velocity":80,"confidence":1.0},{"start_time":302.4146341463441,"end_time":302.5975609756124,"midi_note":60,"velocity":80,"confidence":1.0},{"start_time":302.5975609756124,"end_time":302.7804878048807,"midi_note":55,"velocity":80,"confidence":1.0},{"start_time":302.5975609756124,"end_time":302.7804878048807,"midi_note":58,"velocity":80,"confidence":1.0},{"start_time":302.7804878048807,"end_time":302.963414634149,"midi_note":74,"velocity":80,"confidence":1.0},{"start_time":302.7804878048807,"end_time":302.963414634149,"midi_note":86,"velocity":80,"confidence":1.0},{"start_time":302.963414634149,"end_time":303.1463414634173,"midi_note":78,"velocity":80,"confidence":1.0},{"start_time":302.963414634149,"end_time":303.1463414634173,"midi_note":86,"velocity":80,"confidence":1.0},{"start_time":303.1463414634173,"end_time":303.3292682926856,"midi_note":78,"velocity":80,"confidence":1.0},{"start_time":303.1463414634173,"end_time":303.3292682926856,"midi_note":86,"velocity":80,"confidence":1.0},{"start_time":303.3292682926856,"end_time":303.5121951219539,"midi_note":81,"velocity":80,"confidence":1.0},{"start_time":303.3292682926856,"end_time":303.5121951219539,"midi_note":84,"velocity":80,"confidence":1.0},{"start_time":303.5121951219539,"end_time":303.8780487804905,"midi_note":50,"velocity":80,"confidence":1.0},{"start_time":303.5121951219539,"end_time":303.8780487804905,"midi_note":54,"velocity":80,"confidence":1.0},{"start_time":303.5121951219539,"end_time":303.8780487804905,"midi_note":57,"velocity":80,"confidence":1.0},{"start_time":304.24390243902707,"end_time":304.97560975610025,"midi_note":79,"velocity":80,"confidence":1.0},{"start_time":304.24390243902707,"end_time":304.97560975610025,"midi_note":82,"velocity":80,"confidence":1.0},{"start_time":305.15853658536855,"end_time":305.34146341463685,"midi_note":58,"velocity":80,"confidence":1.0},{"start_time":305.34146341463685,"end_time":305.52439024390515,"midi_note":58,"velocity":80,"confidence":1.0},{"start_time":305.52439024390515,"end_time":305.70731707317344,"midi_note":60,"velocity":80,"confidence":1.0},{"start_time":305.70731707317344,"end_time":306.07317073171004,"midi_note":55,"velocity":80,"confidence":1.0},{"start_time":306.43902439024663,"end_time":306.6219512195149,"midi_note":78,"velocity":80,"confidence":1.0},{"start_time":306.43902439024663,"end_time":306.6219512195149,"midi_note":81,"velocity":80,"confidence":1.0},{"start_time":306.6219512195149,"end_time":306.8048780487832,"midi_note":78,"velocity":80,"confidence":1.0},{"start_time":306.6219512195149,"end_time":306.8048780487832,"midi_note":86,"velocity":80,"confidence":1.0},{"start_time":306.8048780487832,"end_time":306.9878048780515,"midi_note":78,"velocity":80,"confidence":1.0},{"start_time":306.8048780487832,"end_time":306.9878048780515,"midi_note":86,"velocity":80,"confidence":1.0},{"start_time":306.9878048780515,"end_time":307.1707317073198,"midi_note":81,"velocity":80,"confidence":1.0},{"start_time":306.9878048780515,"end_time":307.1707317073198,"midi_note":84,"velocity":80,"confidence":1.0},{"start_time":307.1707317073198,"end_time":307.902439024393,"midi_note":62,"velocity":80,"confidence":1.0},{"start_time":307.902439024393,"end_time":308.2682926829296,"midi_note":50,"velocity":80,"confidence":1.0},{"start_time":308.6341463414662,"end_time":309.3658536585394,"midi_note":79,"velocity":80,"confidence":1.0},{"start_time":308.6341463414662,"end_time":309.3658536585394,"midi_note":82,"velocity":80,"confidence":1.0},{"start_time":309.5487804878077,"end_time":309.731707317076,"midi_note":58,"velocity":80,"confidence":1.0},{"start_time":309.731707317076,"end_time":309.91463414634427,"midi_note":58,"velocity":80,"confidence":1.0},{"start_time":309.91463414634427,"end_time":310.09756097561257,"midi_note":60,"velocity":80,"confidence":1.0},{"start_time":310.09756097561257,"end_time":310.46341463414916,"midi_note":55,"velocity":80,"confidence":1.0},{"start_time":310.82926829268575,"end_time":311.19512195122235,"midi_note":78,"velocity":80,"confidence":1.0},{"start_time":310.82926829268575,"end_time":311.19512195122235,"midi_note":81,"velocity":80,"confidence":1.0},{"start_time":311.19512195122235,"end_time":311.56097560975894,"midi_note":74,"velocity":80,"confidence":1.0},{"start_time":311.19512195122235,"end_time":311.56097560975894,"midi_note":78,"velocity":80,"confidence":1.0},{"start_time":311.19512195122235,"end_time":311.56097560975894,"midi_note":81,"velocity":80,"confidence":1.0},{"start_time":311.19512195122235,"end_time":311.56097560975894,"midi_note":86,"velocity":80,"confidence":1.0},{"start_time":311.56097560975894,"end_time":311.74390243902724,"midi_note":62,"velocity":80,"confidence":1.0},{"start_time":311.74390243902724,"end_time":311.92682926829553,"midi_note":62,"velocity":80,"confidence":1.0},{"start_time":311.92682926829553,"end_time":312.10975609756383,"midi_note":62,"velocity":80,"confidence":1.0},{"start_time":312.10975609756383,"end_time":312.29268292683213,"midi_note":60,"velocity":80,"confidence":1.0},{"start_time":312.29268292683213,"end_time":312.6585365853687,"midi_note":50,"velocity":80,"confidence":1.0},{"start_time":313.0243902439053,"end_time":313.2073170731736,"midi_note":74,"velocity":80,"confidence":1.0},{"start_time":313.0243902439053,"end_time":313.2073170731736,"midi_note":78,"velocity":80,"confidence":1.0},{"start_time":313.0243902439053,"end_time":313.2073170731736,"midi_note":81,"velocity":80,"confidence":1.0},{"start_time":313.0243902439053,"end_time":313.2073170731736,"midi_note":86,"velocity":80,"confidence":1.0},{"start_time":313.2073170731736,"end_time":313.3902439024419,"midi_note":67,"velocity":80,"confidence":1.0},{"start_time":313.3902439024419,"end_time":313.5731707317102,"midi_note":67,"velocity":80,"confidence":1.0},{"start_time":313.5731707317102,"end_time":313.7560975609785,"midi_note":69,"velocity":80,"confidence":1.0},{"start_time":313.7560975609785,"end_time":313.9390243902468,"midi_note":55,"velocity":80,"confidence":1.0},{"start_time":313.7560975609785,"end_time":313.9390243902468,"midi_note":58,"velocity":80,"confidence":1.0},{"start_time":313.9390243902468,"end_time":314.1219512195151,"midi_note":58,"velocity":80,"confidence":1.0},{"start_time":314.1219512195151,"end_time":314.3048780487834,"midi_note":58,"velocity":80,"confidence":1.0},{"start_time":314.3048780487834,"end_time":314.4878048780517,"midi_note":57,"velocity":80,"confidence":1.0},{"start_time":314.4878048780517,"end_time":314.67073170732,"midi_note":70,"velocity":80,"confidence":1.0},{"start_time":314.67073170732,"end_time":314.8536585365883,"midi_note":67,"velocity":80,"confidence":1.0},{"start_time":314.67073170732,"end_time":314.8536585365883,"midi_note":79,"velocity":80,"confidence":1.0},{"start_time":314.8536585365883,"end_time":315.0365853658566,"midi_note":69,"velocity":80,"confidence":1.0},{"start_time":314.8536585365883,"end_time":315.0365853658566,"midi_note":81,"velocity":80,"confidence":1.0},{"start_time":315.0365853658566,"end_time":315.2195121951249,"midi_note":70,"velocity":80,"confidence":1.0},{"start_time":315.0365853658566,"end_time":315.2195121951249,"midi_note":82,"velocity":80,"confidence":1.0},{"start_time":315.2195121951249,"end_time":315.4024390243932,"midi_note":55,"velocity":80,"confidence":1.0},{"start_time":315.4024390243932,"end_time":315.5853658536615,"midi_note":55,"velocity":80,"confidence":1.0},{"start_time":315.5853658536615,"end_time":315.76829268292977,"midi_note":55,"velocity":80,"confidence":1.0},{"start_time":315.76829268292977,"end_time":315.95121951219807,"midi_note":53,"velocity":80,"confidence":1.0},{"start_time":315.95121951219807,"end_time":316.13414634146636,"midi_note":72,"velocity":80,"confidence":1.0},{"start_time":315.95121951219807,"end_time":316.13414634146636,"midi_note":78,"velocity":80,"confidence":1.0},{"start_time":315.95121951219807,"end_time":316.13414634146636,"midi_note":84,"velocity":80,"confidence":1.0},{"start_time":316.13414634146636,"end_time":316.31707317073466,"midi_note":63,"velocity":80,"confidence":1.0},{"start_time":316.13414634146636,"end_time":316.31707317073466,"midi_note":66,"velocity":80,"confidence":1.0},{"start_time":316.31707317073466,"end_time":316.50000000000296,"midi_note":63,"velocity":80,"confidence":1.0},{"start_time":316.31707317073466,"end_time":316.50000000000296,"midi_note":69,"velocity":80,"confidence":1.0},{"start_time":316.50000000000296,"end_time":316.68292682927125,"midi_note":63,"velocity":80,"confidence":1.0},{"start_time":316.50000000000296,"end_time":316.68292682927125,"midi_note":70,"velocity":80,"confidence":1.0},{"start_time":316.68292682927125,"end_time":316.86585365853955,"midi_note":51,"velocity":80,"confidence":1.0},{"start_time":316.86585365853955,"end_time":317.04878048780785,"midi_note":51,"velocity":80,"confidence":1.0},{"start_time":317.04878048780785,"end_time":317.23170731707614,"midi_note":51,"velocity":80,"confidence":1.0},{"start_time":317.23170731707614,"end_time":317.41463414634444,"midi_note":50,"velocity":80,"confidence":1.0},{"start_time":317.41463414634444,"end_time":318.1463414634176,"midi_note":45,"velocity":80,"confidence":1.0},{"start_time":318.1463414634176,"end_time":318.3292682926859,"midi_note":63,"velocity":80,"confidence":1.0},{"start_time":318.1463414634176,"end_time":318.3292682926859,"midi_note":72,"velocity":80,"confidence":1.0},{"start_time":318.3292682926859,"end_time":318.5121951219542,"midi_note":66,"velocity":80,"confidence":1.0},{"start_time":318.3292682926859,"end_time":318.5121951219542,"midi_note":78,"velocity":80,"confidence":1.0},{"start_time":318.5121951219542,"end_time":318.6951219512225,"midi_note":69,"velocity":80,"confidence":1.0},{"start_time":318.5121951219542,"end_time":318.6951219512225,"midi_note":81,"velocity":80,"confidence":1.0},{"start_time":318.6951219512225,"end_time":318.8780487804908,"midi_note":70,"velocity":80,"confidence":1.0},{"start_time":318.6951219512225,"end_time":318.8780487804908,"midi_note":82,"velocity":80,"confidence":1.0},{"start_time":318.8780487804908,"end_time":319.0609756097591,"midi_note":48,"velocity":80,"confidence":1.0},{"start_time":319.0609756097591,"end_time":319.2439024390274,"midi_note":60,"velocity":80,"confidence":1.0},{"start_time":319.2439024390274,"end_time":319.4268292682957,"midi_note":60,"velocity":80,"confidence":1.0},{"start_time":319.4268292682957,"end_time":319.609756097564,"midi_note":58,"velocity":80,"confidence":1.0},{"start_time":319.609756097564,"end_time":319.7926829268323,"midi_note":45,"velocity":80,"confidence":1.0},{"start_time":320.3414634146372,"end_time":320.5243902439055,"midi_note":72,"velocity":80,"confidence":1.0},{"start_time":320.3414634146372,"end_time":320.5243902439055,"midi_note":78,"velocity":80,"confidence":1.0},{"start_time":320.3414634146372,"end_time":320.5243902439055,"midi_note":84,"velocity":80,"confidence":1.0},{"start_time":320.5243902439055,"end_time":320.7073170731738,"midi_note":63,"velocity":80,"confidence":1.0},{"start_time":320.5243902439055,"end_time":320.7073170731738,"midi_note":66,"velocity":80,"confidence":1.0},{"start_time":320.7073170731738,"end_time":320.8902439024421,"midi_note":63,"velocity":80,"confidence":1.0},{"start_time":320.7073170731738,"end_time":320.8902439024421,"midi_note":69,"velocity":80,"confidence":1.0},{"start_time":320.8902439024421,"end_time":321.0731707317104,"midi_note":63,"velocity":80,"confidence":1.0},{"start_time":320.8902439024421,"end_time":321.0731707317104,"midi_note":70,"velocity":80,"confidence":1.0},{"start_time":321.0731707317104,"end_time":321.2560975609787,"midi_note":57,"velocity":80,"confidence":1.0},{"start_time":321.2560975609787,"end_time":321.43902439024697,"midi_note":57,"velocity":80,"confidence":1.0},{"start_time":321.43902439024697,"end_time":321.62195121951527,"midi_note":57,"velocity":80,"confidence":1.0},{"start_time":321.62195121951527,"end_time":321.80487804878356,"midi_note":55,"velocity":80,"confidence":1.0},{"start_time":321.80487804878356,"end_time":321.98780487805186,"midi_note":63,"velocity":80,"confidence":1.0},{"start_time":321.80487804878356,"end_time":321.98780487805186,"midi_note":72,"velocity":80,"confidence":1.0},{"start_time":321.98780487805186,"end_time":322.17073170732016,"midi_note":69,"velocity":80,"confidence":1.0},{"start_time":321.98780487805186,"end_time":322.17073170732016,"midi_note":81,"velocity":80,"confidence":1.0},{"start_time":322.17073170732016,"end_time":322.35365853658845,"midi_note":70,"velocity":80,"confidence":1.0},{"start_time":322.17073170732016,"end_time":322.35365853658845,"midi_note":82,"velocity":80,"confidence":1.0},{"start_time":322.35365853658845,"end_time":322.53658536585675,"midi_note":72,"velocity":80,"confidence":1.0},{"start_time":322.35365853658845,"end_time":322.53658536585675,"midi_note":84,"velocity":80,"confidence":1.0},{"start_time":322.53658536585675,"end_time":322.71951219512505,"midi_note":54,"velocity":80,"confidence":1.0},{"start_time":322.71951219512505,"end_time":322.90243902439335,"midi_note":54,"velocity":80,"confidence":1.0},{"start_time":322.90243902439335,"end_time":323.08536585366164,"midi_note":54,"velocity":80,"confidence":1.0},{"start_time":323.08536585366164,"end_time":323.26829268292994,"midi_note":51,"velocity":80,"confidence":1.0},{"start_time":323.26829268292994,"end_time":323.45121951219824,"midi_note":74,"velocity":80,"confidence":1.0},{"start_time":323.26829268292994,"end_time":323.45121951219824,"midi_note":79,"velocity":80,"confidence":1.0},{"start_time":323.26829268292994,"end_time":323.45121951219824,"midi_note":86,"velocity":80,"confidence":1.0},{"start_time":323.45121951219824,"end_time":323.63414634146653,"midi_note":67,"velocity":80,"confidence":1.0},{"start_time":323.63414634146653,"end_time":323.81707317073483,"midi_note":67,"velocity":80,"confidence":1.0},{"start_time":323.63414634146653,"end_time":323.81707317073483,"midi_note":70,"velocity":80,"confidence":1.0},{"start_time":323.81707317073483,"end_time":324.0000000000031,"midi_note":67,"velocity":80,"confidence":1.0},{"start_time":323.81707317073483,"end_time":324.0000000000031,"midi_note":72,"velocity":80,"confidence":1.0},{"start_time":324.0000000000031,"end_time":324.1829268292714,"midi_note":50,"velocity":80,"confidence":1.0},{"start_time":324.1829268292714,"end_time":324.3658536585397,"midi_note":50,"velocity":80,"confidence":1.0},{"start_time":324.3658536585397,"end_time":324.548780487808,"midi_note":50,"velocity":80,"confidence":1.0},{"start_time":324.548780487808,"end_time":324.7317073170763,"midi_note":48,"velocity":80,"confidence":1.0},{"start_time":324.7317073170763,"end_time":324.9146341463446,"midi_note":67,"velocity":80,"confidence":1.0},{"start_time":324.7317073170763,"end_time":324.9146341463446,"midi_note":74,"velocity":80,"confidence":1.0},{"start_time":324.9146341463446,"end_time":325.0975609756129,"midi_note":67,"velocity":80,"confidence":1.0},{"start_time":324.9146341463446,"end_time":325.0975609756129,"midi_note":79,"velocity":80,"confidence":1.0},{"start_time":325.0975609756129,"end_time":325.2804878048812,"midi_note":70,"velocity":80,"confidence":1.0},{"start_time":325.0975609756129,"end_time":325.2804878048812,"midi_note":82,"velocity":80,"confidence":1.0},{"start_time":325.2804878048812,"end_time":325.4634146341495,"midi_note":72,"velocity":80,"confidence":1.0},{"start_time":325.2804878048812,"end_time":325.4634146341495,"midi_note":84,"velocity":80,"confidence":1.0},{"start_time":325.4634146341495,"end_time":325.6463414634178,"midi_note":46,"velocity":80,"confidence":1.0},{"start_time":325.6463414634178,"end_time":325.8292682926861,"midi_note":62,"velocity":80,"confidence":1.0},{"start_time":325.8292682926861,"end_time":326.0121951219544,"midi_note":62,"velocity":80,"confidence":1.0},{"start_time":326.0121951219544,"end_time":326.1951219512227,"midi_note":60,"velocity":80,"confidence":1.0},{"start_time":326.1951219512227,"end_time":326.378048780491,"midi_note":74,"velocity":80,"confidence":1.0},{"start_time":326.1951219512227,"end_time":326.378048780491,"midi_note":79,"velocity":80,"confidence":1.0},{"start_time":326.1951219512227,"end_time":326.378048780491,"midi_note":86,"velocity":80,"confidence":1.0},{"start_time":326.378048780491,"end_time":326.5609756097593,"midi_note":67,"velocity":80,"confidence":1.0},{"start_time":326.5609756097593,"end_time":326.7439024390276,"midi_note":67,"velocity":80,"confidence":1.0},{"start_time":326.5609756097593,"end_time":326.7439024390276,"midi_note":70,"velocity":80,"confidence":1.0},{"start_time":326.7439024390276,"end_time":326.9268292682959,"midi_note":67,"velocity":80,"confidence":1.0},{"start_time":326.7439024390276,"end_time":326.9268292682959,"midi_note":72,"velocity":80,"confidence":1.0},{"start_time":326.9268292682959,"end_time":327.1097560975642,"midi_note":58,"velocity":80,"confidence":1.0},{"start_time":327.1097560975642,"end_time":327.29268292683247,"midi_note":58,"velocity":80,"confidence":1.0},{"start_time":327.29268292683247,"end_time":327.47560975610077,"midi_note":58,"velocity":80,"confidence":1.0},{"start_time":327.47560975610077,"end_time":327.65853658536906,"midi_note":57,"velocity":80,"confidence":1.0},{"start_time":327.65853658536906,"end_time":327.84146341463736,"midi_note":67,"velocity":80,"confidence":1.0},{"start_time":327.65853658536906,"end_time":327.84146341463736,"midi_note":74,"velocity":80,"confidence":1.0},{"start_time":327.84146341463736,"end_time":328.02439024390566,"midi_note":79,"velocity":80,"confidence":1.0},{"start_time":327.84146341463736,"end_time":328.02439024390566,"midi_note":82,"velocity":80,"confidence":1.0},{"start_time":328.02439024390566,"end_time":328.20731707317395,"midi_note":81,"velocity":80,"confidence":1.0},{"start_time":328.02439024390566,"end_time":328.20731707317395,"midi_note":84,"velocity":80,"confidence":1.0},{"start_time":328.20731707317395,"end_time":328.39024390244225,"midi_note":82,"velocity":80,"confidence":1.0},{"start_time":328.20731707317395,"end_time":328.39024390244225,"midi_note":86,"velocity":80,"confidence":1.0},{"start_time":328.39024390244225,"end_time":328.57317073171055,"midi_note":46,"velocity":80,"confidence":1.0},{"start_time":328.39024390244225,"end_time":328.57317073171055,"midi_note":55,"velocity":80,"confidence":1.0},{"start_time":328.57317073171055,"end_time":328.75609756097884,"midi_note":46,"velocity":80,"confidence":1.0},{"start_time":328.57317073171055,"end_time":328.75609756097884,"midi_note":53,"velocity":80,"confidence":1.0},{"start_time":328.75609756097884,"end_time":328.93902439024714,"midi_note":46,"velocity":80,"confidence":1.0},{"start_time":328.75609756097884,"end_time":328.93902439024714,"midi_note":51,"velocity":80,"confidence":1.0},{"start_time":328.93902439024714,"end_time":329.12195121951544,"midi_note":46,"velocity":80,"confidence":1.0},{"start_time":328.93902439024714,"end_time":329.12195121951544,"midi_note":50,"velocity":80,"confidence":1.0},{"start_time":329.12195121951544,"end_time":329.30487804878373,"midi_note":75,"velocity":80,"confidence":1.0},{"start_time":329.12195121951544,"end_time":329.30487804878373,"midi_note":78,"velocity":80,"confidence":1.0},{"start_time":329.12195121951544,"end_time":329.30487804878373,"midi_note":81,"velocity":80,"confidence":1.0},{"start_time":329.12195121951544,"end_time":329.30487804878373,"midi_note":87,"velocity":80,"confidence":1.0},{"start_time":329.30487804878373,"end_time":329.48780487805203,"midi_note":75,"velocity":80,"confidence":1.0},{"start_time":329.30487804878373,"end_time":329.48780487805203,"midi_note":78,"velocity":80,"confidence":1.0},{"start_time":329.30487804878373,"end_time":329.48780487805203,"midi_note":81,"velocity":80,"confidence":1.0},{"start_time":329.30487804878373,"end_time":329.48780487805203,"midi_note":87,"velocity":80,"confidence":1.0},{"start_time":329.48780487805203,"end_time":329.67073170732033,"midi_note":75,"velocity":80,"confidence":1.0},{"start_time":329.48780487805203,"end_time":329.67073170732033,"midi_note":78,"velocity":80,"confidence":1.0},{"start_time":329.48780487805203,"end_time":329.67073170732033,"midi_note":81,"velocity":80,"confidence":1.0},{"start_time":329.48780487805203,"end_time":329.67073170732033,"midi_note":87,"velocity":80,"confidence":1.0},{"start_time":329.67073170732033,"end_time":329.8536585365886,"midi_note":75,"velocity":80,"confidence":1.0},{"start_time":329.67073170732033,"end_time":329.8536585365886,"midi_note":78,"velocity":80,"confidence":1.0},{"start_time":329.67073170732033,"end_time":329.8536585365886,"midi_note":81,"velocity":80,"confidence":1.0},{"start_time":329.67073170732033,"end_time":329.8536585365886,"midi_note":87,"velocity":80,"confidence":1.0},{"start_time":329.8536585365886,"end_time":330.0365853658569,"midi_note":48,"velocity":80,"confidence":1.0},{"start_time":329.8536585365886,"end_time":330.0365853658569,"midi_note":51,"velocity":80,"confidence":1.0},{"start_time":329.8536585365886,"end_time":330.0365853658569,"midi_note":54,"velocity":80,"confidence":1.0},{"start_time":329.8536585365886,"end_time":330.0365853658569,"midi_note":57,"velocity":80,"confidence":1.0},{"start_time":330.0365853658569,"end_time":330.2195121951252,"midi_note":48,"velocity":80,"confidence":1.0},{"start_time":330.0365853658569,"end_time":330.2195121951252,"midi_note":51,"velocity":80,"confidence":1.0},{"start_time":330.0365853658569,"end_time":330.2195121951252,"midi_note":54,"velocity":80,"confidence":1.0},{"start_time":330.0365853658569,"end_time":330.2195121951252,"midi_note":57,"velocity":80,"confidence":1.0},{"start_time":330.2195121951252,"end_time":330.4024390243935,"midi_note":48,"velocity":80,"confidence":1.0},{"start_time":330.2195121951252,"end_time":330.4024390243935,"midi_note":51,"velocity":80,"confidence":1.0},{"start_time":330.2195121951252,"end_time":330.4024390243935,"midi_note":54,"velocity":80,"confidence":1.0},{"start_time":330.2195121951252,"end_time":330.4024390243935,"midi_note":57,"velocity":80,"confidence":1.0},{"start_time":330.4024390243935,"end_time":330.5853658536618,"midi_note":48,"velocity":80,"confidence":1.0},{"start_time":330.4024390243935,"end_time":330.5853658536618,"midi_note":51,"velocity":80,"confidence":1.0},{"start_time":330.4024390243935,"end_time":330.5853658536618,"midi_note":54,"velocity":80,"confidence":1.0},{"start_time":330.4024390243935,"end_time":330.5853658536618,"midi_note":57,"velocity":80,"confidence":1.0},{"start_time":330.5853658536618,"end_time":330.7682926829301,"midi_note":75,"velocity":80,"confidence":1.0},{"start_time":330.5853658536618,"end_time":330.7682926829301,"midi_note":78,"velocity":80,"confidence":1.0},{"start_time":330.5853658536618,"end_time":330.7682926829301,"midi_note":81,"velocity":80,"confidence":1.0},{"start_time":330.5853658536618,"end_time":330.7682926829301,"midi_note":87,"velocity":80,"confidence":1.0},{"start_time":330.7682926829301,"end_time":330.9512195121984,"midi_note":75,"velocity":80,"confidence":1.0},{"start_time":330.7682926829301,"end_time":330.9512195121984,"midi_note":78,"velocity":80,"confidence":1.0},{"start_time":330.7682926829301,"end_time":330.9512195121984,"midi_note":81,"velocity":80,"confidence":1.0},{"start_time":330.7682926829301,"end_time":330.9512195121984,"midi_note":87,"velocity":80,"confidence":1.0},{"start_time":330.9512195121984,"end_time":331.1341463414667,"midi_note":75,"velocity":80,"confidence":1.0},{"start_time":330.9512195121984,"end_time":331.1341463414667,"midi_note":78,"velocity":80,"confidence":1.0},{"start_time":330.9512195121984,"end_time":331.1341463414667,"midi_note":81,"velocity":80,"confidence":1.0},{"start_time":330.9512195121984,"end_time":331.1341463414667,"midi_note":87,"velocity":80,"confidence":1.0},{"start_time":331.1341463414667,"end_time":331.317073170735,"midi_note":75,"velocity":80,"confidence":1.0},{"start_time":331.1341463414667,"end_time":331.317073170735,"midi_note":78,"velocity":80,"confidence":1.0},{"start_time":331.1341463414667,"end_time":331.317073170735,"midi_note":81,"velocity":80,"confidence":1.0},{"start_time":331.1341463414667,"end_time":331.317073170735,"midi_note":87,"velocity":80,"confidence":1.0},{"start_time":331.317073170735,"end_time":331.5000000000033,"midi_note":48,"velocity":80,"confidence":1.0},{"start_time":331.317073170735,"end_time":331.5000000000033,"midi_note":51,"velocity":80,"confidence":1.0},{"start_time":331.317073170735,"end_time":331.5000000000033,"midi_note":54,"velocity":80,"confidence":1.0},{"start_time":331.317073170735,"end_time":331.5000000000033,"midi_note":57,"velocity":80,"confidence":1.0},{"start_time":331.5000000000033,"end_time":331.6829268292716,"midi_note":48,"velocity":80,"confidence":1.0},{"start_time":331.5000000000033,"end_time":331.6829268292716,"midi_note":51,"velocity":80,"confidence":1.0},{"start_time":331.5000000000033,"end_time":331.6829268292716,"midi_note":54,"velocity":80,"confidence":1.0},{"start_time":331.5000000000033,"end_time":331.6829268292716,"midi_note":57,"velocity":80,"confidence":1.0},{"start_time":331.6829268292716,"end_time":331.8658536585399,"midi_note":48,"velocity":80,"confidence":1.0},{"start_time":331.6829268292716,"end_time":331.8658536585399,"midi_note":51,"velocity":80,"confidence":1.0},{"start_time":331.6829268292716,"end_time":331.8658536585399,"midi_note":54,"velocity":80,"confidence":1.0},{"start_time":331.6829268292716,"end_time":331.8658536585399,"midi_note":57,"velocity":80,"confidence":1.0},{"start_time":331.8658536585399,"end_time":332.0487804878082,"midi_note":48,"velocity":80,"confidence":1.0},{"start_time":331.8658536585399,"end_time":332.0487804878082,"midi_note":51,"velocity":80,"confidence":1.0},{"start_time":331.8658536585399,"end_time":332.0487804878082,"midi_note":54,"velocity":80,"confidence":1.0},{"start_time":331.8658536585399,"end_time":332.0487804878082,"midi_note":57,"velocity":80,"confidence":1.0},{"start_time":332.0487804878082,"end_time":332.4146341463448,"midi_note":75,"velocity":80,"confidence":1.0},{"start_time":332.0487804878082,"end_time":332.4146341463448,"midi_note":78,"velocity":80,"confidence":1.0},{"start_time":332.0487804878082,"end_time":332.4146341463448,"midi_note":81,"velocity":80,"confidence":1.0},{"start_time":332.0487804878082,"end_time":332.4146341463448,"midi_note":87,"velocity":80,"confidence":1.0},{"start_time":332.7804878048814,"end_time":333.14634146341797,"midi_note":48,"velocity":80,"confidence":1.0},{"start_time":332.7804878048814,"end_time":333.14634146341797,"midi_note":51,"velocity":80,"confidence":1.0},{"start_time":332.7804878048814,"end_time":333.14634146341797,"midi_note":54,"velocity":80,"confidence":1.0},{"start_time":332.7804878048814,"end_time":333.14634146341797,"midi_note":57,"velocity":80,"confidence":1.0},{"start_time":333.69512195122286,"end_time":333.87804878049116,"midi_note":76,"velocity":80,"confidence":1.0},{"start_time":333.69512195122286,"end_time":333.87804878049116,"midi_note":79,"velocity":80,"confidence":1.0},{"start_time":333.69512195122286,"end_time":333.87804878049116,"midi_note":82,"velocity":80,"confidence":1.0},{"start_time":333.69512195122286,"end_time":333.87804878049116,"midi_note":88,"velocity":80,"confidence":1.0},{"start_time":333.87804878049116,"end_time":334.06097560975945,"midi_note":76,"velocity":80,"confidence":1.0},{"start_time":333.87804878049116,"end_time":334.06097560975945,"midi_note":79,"velocity":80,"confidence":1.0},{"start_time":333.87804878049116,"end_time":334.06097560975945,"midi_note":82,"velocity":80,"confidence":1.0},{"start_time":333.87804878049116,"end_time":334.06097560975945,"midi_note":88,"velocity":80,"confidence":1.0},{"start_time":334.06097560975945,"end_time":334.24390243902775,"midi_note":76,"velocity":80,"confidence":1.0},{"start_time":334.06097560975945,"end_time":334.24390243902775,"midi_note":79,"velocity":80,"confidence":1.0},{"start_time":334.06097560975945,"end_time":334.24390243902775,"midi_note":82,"velocity":80,"confidence":1.0},{"start_time":334.06097560975945,"end_time":334.24390243902775,"midi_note":88,"velocity":80,"confidence":1.0},{"start_time":334.42682926829605,"end_time":334.60975609756434,"midi_note":37,"velocity":80,"confidence":1.0},{"start_time":334.42682926829605,"end_time":334.60975609756434,"midi_note":43,"velocity":80,"confidence":1.0},{"start_time":334.42682926829605,"end_time":334.60975609756434,"midi_note":49,"velocity":80,"confidence":1.0},{"start_time":334.60975609756434,"end_time":334.79268292683264,"midi_note":37,"velocity":80,"confidence":1.0},{"start_time":334.60975609756434,"end_time":334.79268292683264,"midi_note":43,"velocity":80,"confidence":1.0},{"start_time":334.60975609756434,"end_time":334.79268292683264,"midi_note":49,"velocity":80,"confidence":1.0},{"start_time":334.79268292683264,"end_time":334.97560975610094,"midi_note":37,"velocity":80,"confidence":1.0},{"start_time":334.79268292683264,"end_time":334.97560975610094,"midi_note":43,"velocity":80,"confidence":1.0},{"start_time":334.79268292683264,"end_time":334.97560975610094,"midi_note":49,"velocity":80,"confidence":1.0},{"start_time":334.97560975610094,"end_time":335.15853658536923,"midi_note":76,"velocity":80,"confidence":1.0},{"start_time":334.97560975610094,"end_time":335.15853658536923,"midi_note":79,"velocity":80,"confidence":1.0},{"start_time":334.97560975610094,"end_time":335.15853658536923,"midi_note":82,"velocity":80,"confidence":1.0},{"start_time":334.97560975610094,"end_time":335.15853658536923,"midi_note":88,"velocity":80,"confidence":1.0},{"start_time":335.15853658536923,"end_time":335.34146341463753,"midi_note":76,"velocity":80,"confidence":1.0},{"start_time":335.15853658536923,"end_time":335.34146341463753,"midi_note":79,"velocity":80,"confidence":1.0},{"start_time":335.15853658536923,"end_time":335.34146341463753,"midi_note":82,"velocity":80,"confidence":1.0},{"start_time":335.15853658536923,"end_time":335.34146341463753,"midi_note":88,"velocity":80,"confidence":1.0},{"start_time":335.34146341463753,"end_time":335.5243902439058,"midi_note":76,"velocity":80,"confidence":1.0},{"start_time":335.34146341463753,"end_time":335.5243902439058,"midi_note":79,"velocity":80,"confidence":1.0},{"start_time":335.34146341463753,"end_time":335.5243902439058,"midi_note":82,"velocity":80,"confidence":1.0},{"start_time":335.34146341463753,"end_time":335.5243902439058,"midi_note":88,"velocity":80,"confidence":1.0},{"start_time":335.5243902439058,"end_time":335.7073170731741,"midi_note":76,"velocity":80,"confidence":1.0},{"start_time":335.5243902439058,"end_time":335.7073170731741,"midi_note":79,"velocity":80,"confidence":1.0},{"start_time":335.5243902439058,"end_time":335.7073170731741,"midi_note":82,"velocity":80,"confidence":1.0},{"start_time":335.5243902439058,"end_time":335.7073170731741,"midi_note":88,"velocity":80,"confidence":1.0},{"start_time":335.7073170731741,"end_time":335.8902439024424,"midi_note":37,"velocity":80,"confidence":1.0},{"start_time":335.7073170731741,"end_time":335.8902439024424,"midi_note":43,"velocity":80,"confidence":1.0},{"start_time":335.7073170731741,"end_time":335.8902439024424,"midi_note":49,"velocity":80,"confidence":1.0},{"start_time":335.8902439024424,"end_time":336.0731707317107,"midi_note":37,"velocity":80,"confidence":1.0},{"start_time":335.8902439024424,"end_time":336.0731707317107,"midi_note":43,"velocity":80,"confidence":1.0},{"start_time":335.8902439024424,"end_time":336.0731707317107,"midi_note":49,"velocity":80,"confidence":1.0},{"start_time":336.0731707317107,"end_time":336.256097560979,"midi_note":37,"velocity":80,"confidence":1.0},{"start_time":336.0731707317107,"end_time":336.256097560979,"midi_note":43,"velocity":80,"confidence":1.0},{"start_time":336.0731707317107,"end_time":336.256097560979,"midi_note":49,"velocity":80,"confidence":1.0},{"start_time":336.256097560979,"end_time":336.4390243902473,"midi_note":37,"velocity":80,"confidence":1.0},{"start_time":336.256097560979,"end_time":336.4390243902473,"midi_note":43,"velocity":80,"confidence":1.0},{"start_time":336.256097560979,"end_time":336.4390243902473,"midi_note":49,"velocity":80,"confidence":1.0},{"start_time":336.4390243902473,"end_time":336.6219512195156,"midi_note":76,"velocity":80,"confidence":1.0},{"start_time":336.4390243902473,"end_time":336.6219512195156,"midi_note":79,"velocity":80,"confidence":1.0},{"start_time":336.4390243902473,"end_time":336.6219512195156,"midi_note":82,"velocity":80,"confidence":1.0},{"start_time":336.4390243902473,"end_time":336.6219512195156,"midi_note":88,"velocity":80,"confidence":1.0},{"start_time":336.6219512195156,"end_time":336.8048780487839,"midi_note":76,"velocity":80,"confidence":1.0},{"start_time":336.6219512195156,"end_time":336.8048780487839,"midi_note":79,"velocity":80,"confidence":1.0},{"start_time":336.6219512195156,"end_time":336.8048780487839,"midi_note":82,"velocity":80,"confidence":1.0},{"start_time":336.6219512195156,"end_time":336.8048780487839,"midi_note":88,"velocity":80,"confidence":1.0},{"start_time":336.8048780487839,"end_time":336.9878048780522,"midi_note":76,"velocity":80,"confidence":1.0},{"start_time":336.8048780487839,"end_time":336.9878048780522,"midi_note":79,"velocity":80,"confidence":1.0},{"start_time":336.8048780487839,"end_time":336.9878048780522,"midi_note":82,"velocity":80,"confidence":1.0},{"start_time":336.8048780487839,"end_time":336.9878048780522,"midi_note":88,"velocity":80,"confidence":1.0},{"start_time":336.9878048780522,"end_time":337.1707317073205,"midi_note":76,"velocity":80,"confidence":1.0},{"start_time":336.9878048780522,"end_time":337.1707317073205,"midi_note":79,"velocity":80,"confidence":1.0},{"start_time":336.9878048780522,"end_time":337.1707317073205,"midi_note":82,"velocity":80,"confidence":1.0},{"start_time":336.9878048780522,"end_time":337.1707317073205,"midi_note":88,"velocity":80,"confidence":1.0},{"start_time":337.1707317073205,"end_time":337.3536585365888,"midi_note":37,"velocity":80,"confidence":1.0},{"start_time":337.1707317073205,"end_time":337.3536585365888,"midi_note":43,"velocity":80,"confidence":1.0},{"start_time":337.1707317073205,"end_time":337.3536585365888,"midi_note":49,"velocity":80,"confidence":1.0},{"start_time":337.3536585365888,"end_time":337.5365853658571,"midi_note":37,"velocity":80,"confidence":1.0},{"start_time":337.3536585365888,"end_time":337.5365853658571,"midi_note":43,"velocity":80,"confidence":1.0},{"start_time":337.3536585365888,"end_time":337.5365853658571,"midi_note":49,"velocity":80,"confidence":1.0},{"start_time":337.5365853658571,"end_time":337.7195121951254,"midi_note":37,"velocity":80,"confidence":1.0},{"start_time":337.5365853658571,"end_time":337.7195121951254,"midi_note":43,"velocity":80,"confidence":1.0},{"start_time":337.5365853658571,"end_time":337.7195121951254,"midi_note":49,"velocity":80,"confidence":1.0},{"start_time":337.7195121951254,"end_time":337.9024390243937,"midi_note":37,"velocity":80,"confidence":1.0},{"start_time":337.7195121951254,"end_time":337.9024390243937,"midi_note":43,"velocity":80,"confidence":1.0},{"start_time":337.7195121951254,"end_time":337.9024390243937,"midi_note":49,"velocity":80,"confidence":1.0},{"start_time":337.9024390243937,"end_time":338.2682926829303,"midi_note":76,"velocity":80,"confidence":1.0},{"start_time":337.9024390243937,"end_time":338.2682926829303,"midi_note":79,"velocity":80,"confidence":1.0},{"start_time":337.9024390243937,"end_time":338.2682926829303,"midi_note":82,"velocity":80,"confidence":1.0},{"start_time":337.9024390243937,"end_time":338.2682926829303,"midi_note":88,"velocity":80,"confidence":1.0},{"start_time":338.6341463414669,"end_time":339.00000000000347,"midi_note":37,"velocity":80,"confidence":1.0},{"start_time":338.6341463414669,"end_time":339.00000000000347,"midi_note":43,"velocity":80,"confidence":1.0},{"start_time":338.6341463414669,"end_time":339.00000000000347,"midi_note":49,"velocity":80,"confidence":1.0},{"start_time":339.54878048780836,"end_time":339.73170731707665,"midi_note":74,"velocity":80,"confidence":1.0},{"start_time":339.54878048780836,"end_time":339.73170731707665,"midi_note":79,"velocity":80,"confidence":1.0},{"start_time":339.54878048780836,"end_time":339.73170731707665,"midi_note":82,"velocity":80,"confidence":1.0},{"start_time":339.54878048780836,"end_time":339.73170731707665,"midi_note":86,"velocity":80,"confidence":1.0},{"start_time":339.73170731707665,"end_time":339.91463414634495,"midi_note":74,"velocity":80,"confidence":1.0},{"start_time":339.73170731707665,"end_time":339.91463414634495,"midi_note":79,"velocity":80,"confidence":1.0},{"start_time":339.73170731707665,"end_time":339.91463414634495,"midi_note":82,"velocity":80,"confidence":1.0},{"start_time":339.73170731707665,"end_time":339.91463414634495,"midi_note":86,"velocity":80,"confidence":1.0},{"start_time":339.91463414634495,"end_time":340.09756097561325,"midi_note":74,"velocity":80,"confidence":1.0},{"start_time":339.91463414634495,"end_time":340.09756097561325,"midi_note":79,"velocity":80,"confidence":1.0},{"start_time":339.91463414634495,"end_time":340.09756097561325,"midi_note":82,"velocity":80,"confidence":1.0},{"start_time":339.91463414634495,"end_time":340.09756097561325,"midi_note":86,"velocity":80,"confidence":1.0},{"start_time":340.28048780488155,"end_time":340.46341463414984,"midi_note":38,"velocity":80,"confidence":1.0},{"start_time":340.28048780488155,"end_time":340.46341463414984,"midi_note":50,"velocity":80,"confidence":1.0},{"start_time":340.46341463414984,"end_time":340.64634146341814,"midi_note":38,"velocity":80,"confidence":1.0},{"start_time":340.46341463414984,"end_time":340.64634146341814,"midi_note":50,"velocity":80,"confidence":1.0},{"start_time":340.64634146341814,"end_time":340.82926829268644,"midi_note":38,"velocity":80,"confidence":1.0},{"start_time":340.64634146341814,"end_time":340.82926829268644,"midi_note":50,"velocity":80,"confidence":1.0},{"start_time":340.82926829268644,"end_time":341.19512195122303,"midi_note":74,"velocity":80,"confidence":1.0},{"start_time":340.82926829268644,"end_time":341.19512195122303,"midi_note":79,"velocity":80,"confidence":1.0},{"start_time":340.82926829268644,"end_time":341.19512195122303,"midi_note":82,"velocity":80,"confidence":1.0},{"start_time":340.82926829268644,"end_time":341.19512195122303,"midi_note":86,"velocity":80,"confidence":1.0},{"start_time":341.5609756097596,"end_time":341.9268292682962,"midi_note":38,"velocity":80,"confidence":1.0},{"start_time":341.5609756097596,"end_time":341.9268292682962,"midi_note":50,"velocity":80,"confidence":1.0},{"start_time":342.6585365853694,"end_time":342.8414634146377,"midi_note":73,"velocity":80,"confidence":1.0},{"start_time":342.6585365853694,"end_time":342.8414634146377,"midi_note":79,"velocity":80,"confidence":1.0},{"start_time":342.6585365853694,"end_time":342.8414634146377,"midi_note":82,"velocity":80,"confidence":1.0},{"start_time":342.6585365853694,"end_time":342.8414634146377,"midi_note":85,"velocity":80,"confidence":1.0},{"start_time":342.8414634146377,"end_time":343.024390243906,"midi_note":73,"velocity":80,"confidence":1.0},{"start_time":342.8414634146377,"end_time":343.024390243906,"midi_note":79,"velocity":80,"confidence":1.0},{"start_time":342.8414634146377,"end_time":343.024390243906,"midi_note":82,"velocity":80,"confidence":1.0},{"start_time":342.8414634146377,"end_time":343.024390243906,"midi_note":85,"velocity":80,"confidence":1.0},{"start_time":343.3902439024426,"end_time":343.5731707317109,"midi_note":40,"velocity":80,"confidence":1.0},{"start_time":343.3902439024426,"end_time":343.5731707317109,"midi_note":52,"velocity":80,"confidence":1.0},{"start_time":343.5731707317109,"end_time":343.7560975609792,"midi_note":40,"velocity":80,"confidence":1.0},{"start_time":343.5731707317109,"end_time":343.7560975609792,"midi_note":52,"velocity":80,"confidence":1.0},{"start_time":343.7560975609792,"end_time":344.1219512195158,"midi_note":73,"velocity":80,"confidence":1.0},{"start_time":343.7560975609792,"end_time":344.1219512195158,"midi_note":79,"velocity":80,"confidence":1.0},{"start_time":343.7560975609792,"end_time":344.1219512195158,"midi_note":82,"velocity":80,"confidence":1.0},{"start_time":343.7560975609792,"end_time":344.1219512195158,"midi_note":85,"velocity":80,"confidence":1.0},{"start_time":344.1219512195158,"end_time":344.3048780487841,"midi_note":74,"velocity":80,"confidence":1.0},{"start_time":344.1219512195158,"end_time":344.3048780487841,"midi_note":81,"velocity":80,"confidence":1.0},{"start_time":344.1219512195158,"end_time":344.3048780487841,"midi_note":86,"velocity":80,"confidence":1.0},{"start_time":344.3048780487841,"end_time":344.4878048780524,"midi_note":74,"velocity":80,"confidence":1.0},{"start_time":344.3048780487841,"end_time":344.4878048780524,"midi_note":81,"velocity":80,"confidence":1.0},{"start_time":344.3048780487841,"end_time":344.4878048780524,"midi_note":86,"velocity":80,"confidence":1.0},{"start_time":344.4878048780524,"end_time":344.85365853658897,"midi_note":40,"velocity":80,"confidence":1.0},{"start_time":344.4878048780524,"end_time":344.85365853658897,"midi_note":52,"velocity":80,"confidence":1.0},{"start_time":344.85365853658897,"end_time":345.03658536585726,"midi_note":42,"velocity":80,"confidence":1.0},{"start_time":344.85365853658897,"end_time":345.03658536585726,"midi_note":54,"velocity":80,"confidence":1.0},{"start_time":345.03658536585726,"end_time":345.21951219512556,"midi_note":42,"velocity":80,"confidence":1.0},{"start_time":345.03658536585726,"end_time":345.21951219512556,"midi_note":54,"velocity":80,"confidence":1.0},{"start_time":345.21951219512556,"end_time":345.40243902439386,"midi_note":74,"velocity":80,"confidence":1.0},{"start_time":345.21951219512556,"end_time":345.40243902439386,"midi_note":81,"velocity":80,"confidence":1.0},{"start_time":345.21951219512556,"end_time":345.40243902439386,"midi_note":86,"velocity":80,"confidence":1.0},{"start_time":345.40243902439386,"end_time":345.58536585366215,"midi_note":74,"velocity":80,"confidence":1.0},{"start_time":345.40243902439386,"end_time":345.58536585366215,"midi_note":86,"velocity":80,"confidence":1.0},{"start_time":345.58536585366215,"end_time":345.76829268293045,"midi_note":74,"velocity":80,"confidence":1.0},{"start_time":345.58536585366215,"end_time":345.76829268293045,"midi_note":86,"velocity":80,"confidence":1.0},{"start_time":345.76829268293045,"end_time":345.95121951219875,"midi_note":74,"velocity":80,"confidence":1.0},{"start_time":345.76829268293045,"end_time":345.95121951219875,"midi_note":86,"velocity":80,"confidence":1.0},{"start_time":345.95121951219875,"end_time":346.31707317073534,"midi_note":42,"velocity":80,"confidence":1.0},{"start_time":345.95121951219875,"end_time":346.31707317073534,"midi_note":54,"velocity":80,"confidence":1.0},{"start_time":346.68292682927193,"end_time":347.4146341463451,"midi_note":79,"velocity":80,"confidence":1.0},{"start_time":347.4146341463451,"end_time":348.1463414634183,"midi_note":67,"velocity":80,"confidence":1.0},{"start_time":348.1463414634183,"end_time":348.8780487804915,"midi_note":81,"velocity":80,"confidence":1.0},{"start_time":348.8780487804915,"end_time":349.6097560975647,"midi_note":69,"velocity":80,"confidence":1.0},{"start_time":349.6097560975647,"end_time":350.3414634146379,"midi_note":62,"velocity":80,"confidence":1.0},{"start_time":349.6097560975647,"end_time":350.3414634146379,"midi_note":74,"velocity":80,"confidence":1.0},{"start_time":350.70731707317447,"end_time":350.89024390244276,"midi_note":60,"velocity":80,"confidence":1.0},{"start_time":350.89024390244276,"end_time":351.07317073171106,"midi_note":60,"velocity":80,"confidence":1.0},{"start_time":351.43902439024765,"end_time":351.80487804878425,"midi_note":48,"velocity":80,"confidence":1.0},{"start_time":351.80487804878425,"end_time":352.53658536585743,"midi_note":62,"velocity":80,"confidence":1.0},{"start_time":351.80487804878425,"end_time":352.53658536585743,"midi_note":74,"velocity":80,"confidence":1.0},{"start_time":352.902439024394,"end_time":353.0853658536623,"midi_note":66,"velocity":80,"confidence":1.0},{"start_time":353.0853658536623,"end_time":353.2682926829306,"midi_note":66,"velocity":80,"confidence":1.0},{"start_time":353.2682926829306,"end_time":353.6341463414672,"midi_note":60,"velocity":80,"confidence":1.0},{"start_time":353.6341463414672,"end_time":354.0000000000038,"midi_note":45,"velocity":80,"confidence":1.0},{"start_time":353.6341463414672,"end_time":354.0000000000038,"midi_note":57,"velocity":80,"confidence":1.0},{"start_time":354.0000000000038,"end_time":354.3658536585404,"midi_note":48,"velocity":80,"confidence":1.0},{"start_time":354.3658536585404,"end_time":355.0975609756136,"midi_note":62,"velocity":80,"confidence":1.0},{"start_time":354.3658536585404,"end_time":355.0975609756136,"midi_note":74,"velocity":80,"confidence":1.0},{"start_time":355.0975609756136,"end_time":355.4634146341502,"midi_note":66,"velocity":80,"confidence":1.0},{"start_time":355.4634146341502,"end_time":355.6463414634185,"midi_note":72,"velocity":80,"confidence":1.0},{"start_time":355.6463414634185,"end_time":355.8292682926868,"midi_note":72,"velocity":80,"confidence":1.0},{"start_time":355.8292682926868,"end_time":356.19512195122337,"midi_note":42,"velocity":80,"confidence":1.0},{"start_time":355.8292682926868,"end_time":356.19512195122337,"midi_note":54,"velocity":80,"confidence":1.0},{"start_time":356.19512195122337,"end_time":356.56097560975996,"midi_note":38,"velocity":80,"confidence":1.0},{"start_time":356.19512195122337,"end_time":356.56097560975996,"midi_note":50,"velocity":80,"confidence":1.0},{"start_time":356.56097560975996,"end_time":356.92682926829656,"midi_note":62,"velocity":80,"confidence":1.0},{"start_time":356.56097560975996,"end_time":356.92682926829656,"midi_note":74,"velocity":80,"confidence":1.0},{"start_time":356.92682926829656,"end_time":357.10975609756485,"midi_note":66,"velocity":80,"confidence":1.0},{"start_time":356.92682926829656,"end_time":357.10975609756485,"midi_note":78,"velocity":80,"confidence":1.0},{"start_time":357.10975609756485,"end_time":357.29268292683315,"midi_note":66,"velocity":80,"confidence":1.0},{"start_time":357.10975609756485,"end_time":357.29268292683315,"midi_note":78,"velocity":80,"confidence":1.0},{"start_time":357.29268292683315,"end_time":357.65853658536975,"midi_note":72,"velocity":80,"confidence":1.0},{"start_time":357.65853658536975,"end_time":358.02439024390634,"midi_note":36,"velocity":80,"confidence":1.0},{"start_time":357.65853658536975,"end_time":358.02439024390634,"midi_note":48,"velocity":80,"confidence":1.0},{"start_time":358.02439024390634,"end_time":358.39024390244293,"midi_note":33,"velocity":80,"confidence":1.0},{"start_time":358.02439024390634,"end_time":358.39024390244293,"midi_note":45,"velocity":80,"confidence":1.0},{"start_time":358.39024390244293,"end_time":358.7560975609795,"midi_note":69,"velocity":80,"confidence":1.0},{"start_time":358.39024390244293,"end_time":358.7560975609795,"midi_note":81,"velocity":80,"confidence":1.0},{"start_time":358.7560975609795,"end_time":358.9390243902478,"midi_note":74,"velocity":80,"confidence":1.0},{"start_time":358.7560975609795,"end_time":358.9390243902478,"midi_note":78,"velocity":80,"confidence":1.0},{"start_time":358.7560975609795,"end_time":358.9390243902478,"midi_note":81,"velocity":80,"confidence":1.0},{"start_time":358.7560975609795,"end_time":358.9390243902478,"midi_note":86,"velocity":80,"confidence":1.0},{"start_time":358.9390243902478,"end_time":359.1219512195161,"midi_note":74,"velocity":80,"confidence":1.0},{"start_time":358.9390243902478,"end_time":359.1219512195161,"midi_note":78,"velocity":80,"confidence":1.0},{"start_time":358.9390243902478,"end_time":359.1219512195161,"midi_note":81,"velocity":80,"confidence":1.0},{"start_time":358.9390243902478,"end_time":359.1219512195161,"midi_note":86,"velocity":80,"confidence":1.0},{"start_time":359.1219512195161,"end_time":359.4878048780527,"midi_note":30,"velocity":80,"confidence":1.0},{"start_time":359.1219512195161,"end_time":359.4878048780527,"midi_note":42,"velocity":80,"confidence":1.0},{"start_time":359.4878048780527,"end_time":359.8536585365893,"midi_note":26,"velocity":80,"confidence":1.0},{"start_time":359.4878048780527,"end_time":359.8536585365893,"midi_note":38,"velocity":80,"confidence":1.0},{"start_time":359.8536585365893,"end_time":360.0365853658576,"midi_note":74,"velocity":80,"confidence":1.0},{"start_time":359.8536585365893,"end_time":360.0365853658576,"midi_note":79,"velocity":80,"confidence":1.0},{"start_time":359.8536585365893,"end_time":360.0365853658576,"midi_note":83,"velocity":80,"confidence":1.0},{"start_time":360.0365853658576,"end_time":360.2195121951259,"midi_note":67,"velocity":80,"confidence":1.0},{"start_time":360.0365853658576,"end_time":360.2195121951259,"midi_note":79,"velocity":80,"confidence":1.0},{"start_time":360.2195121951259,"end_time":360.4024390243942,"midi_note":67,"velocity":80,"confidence":1.0},{"start_time":360.2195121951259,"end_time":360.4024390243942,"midi_note":79,"velocity":80,"confidence":1.0},{"start_time":360.4024390243942,"end_time":360.5853658536625,"midi_note":67,"velocity":80,"confidence":1.0},{"start_time":360.4024390243942,"end_time":360.5853658536625,"midi_note":79,"velocity":80,"confidence":1.0},{"start_time":360.5853658536625,"end_time":360.7682926829308,"midi_note":31,"velocity":80,"confidence":1.0},{"start_time":360.5853658536625,"end_time":360.7682926829308,"midi_note":43,"velocity":80,"confidence":1.0},{"start_time":361.3170731707357,"end_time":362.04878048780887,"midi_note":72,"velocity":80,"confidence":1.0},{"start_time":362.04878048780887,"end_time":362.78048780488206,"midi_note":60,"velocity":80,"confidence":1.0},{"start_time":362.78048780488206,"end_time":363.51219512195524,"midi_note":74,"velocity":80,"confidence":1.0},{"start_time":363.51219512195524,"end_time":364.24390243902843,"midi_note":62,"velocity":80,"confidence":1.0},{"start_time":364.24390243902843,"end_time":364.9756097561016,"midi_note":67,"velocity":80,"confidence":1.0},{"start_time":365.3414634146382,"end_time":365.5243902439065,"midi_note":59,"velocity":80,"confidence":1.0},{"start_time":365.5243902439065,"end_time":365.7073170731748,"midi_note":59,"velocity":80,"confidence":1.0},{"start_time":365.7073170731748,"end_time":366.0731707317114,"midi_note":55,"velocity":80,"confidence":1.0},{"start_time":366.0731707317114,"end_time":366.439024390248,"midi_note":53,"velocity":80,"confidence":1.0},{"start_time":366.439024390248,"end_time":367.1707317073212,"midi_note":67,"velocity":80,"confidence":1.0},{"start_time":367.1707317073212,"end_time":367.5365853658578,"midi_note":59,"velocity":80,"confidence":1.0},{"start_time":367.5365853658578,"end_time":367.7195121951261,"midi_note":65,"velocity":80,"confidence":1.0},{"start_time":367.7195121951261,"end_time":367.90243902439437,"midi_note":65,"velocity":80,"confidence":1.0},{"start_time":367.90243902439437,"end_time":368.26829268293096,"midi_note":53,"velocity":80,"confidence":1.0},{"start_time":368.26829268293096,"end_time":368.63414634146756,"midi_note":50,"velocity":80,"confidence":1.0},{"start_time":368.26829268293096,"end_time":368.63414634146756,"midi_note":62,"velocity":80,"confidence":1.0},{"start_time":368.63414634146756,"end_time":369.36585365854074,"midi_note":67,"velocity":80,"confidence":1.0},{"start_time":369.36585365854074,"end_time":369.73170731707734,"midi_note":65,"velocity":80,"confidence":1.0},{"start_time":369.73170731707734,"end_time":369.91463414634563,"midi_note":71,"velocity":80,"confidence":1.0},{"start_time":369.91463414634563,"end_time":370.09756097561393,"midi_note":71,"velocity":80,"confidence":1.0},{"start_time":370.09756097561393,"end_time":370.4634146341505,"midi_note":47,"velocity":80,"confidence":1.0},{"start_time":370.09756097561393,"end_time":370.4634146341505,"midi_note":59,"velocity":80,"confidence":1.0},{"start_time":370.4634146341505,"end_time":370.8292682926871,"midi_note":43,"velocity":80,"confidence":1.0},{"start_time":370.4634146341505,"end_time":370.8292682926871,"midi_note":55,"velocity":80,"confidence":1.0},{"start_time":370.8292682926871,"end_time":371.1951219512237,"midi_note":67,"velocity":80,"confidence":1.0},{"start_time":371.1951219512237,"end_time":371.378048780492,"midi_note":71,"velocity":80,"confidence":1.0},{"start_time":371.1951219512237,"end_time":371.378048780492,"midi_note":77,"velocity":80,"confidence":1.0},{"start_time":371.378048780492,"end_time":371.5609756097603,"midi_note":71,"velocity":80,"confidence":1.0},{"start_time":371.378048780492,"end_time":371.5609756097603,"midi_note":77,"velocity":80,"confidence":1.0},{"start_time":371.5609756097603,"end_time":371.9268292682969,"midi_note":71,"velocity":80,"confidence":1.0},{"start_time":371.9268292682969,"end_time":372.2926829268335,"midi_note":41,"velocity":80,"confidence":1.0},{"start_time":371.9268292682969,"end_time":372.2926829268335,"midi_note":53,"velocity":80,"confidence":1.0},{"start_time":372.2926829268335,"end_time":372.6585365853701,"midi_note":38,"velocity":80,"confidence":1.0},{"start_time":372.2926829268335,"end_time":372.6585365853701,"midi_note":50,"velocity":80,"confidence":1.0},{"start_time":372.6585365853701,"end_time":373.0243902439067,"midi_note":74,"velocity":80,"confidence":1.0},{"start_time":372.6585365853701,"end_time":373.0243902439067,"midi_note":77,"velocity":80,"confidence":1.0},{"start_time":373.0243902439067,"end_time":373.207317073175,"midi_note":74,"velocity":80,"confidence":1.0},{"start_time":373.0243902439067,"end_time":373.207317073175,"midi_note":83,"velocity":80,"confidence":1.0},{"start_time":373.0243902439067,"end_time":373.207317073175,"midi_note":86,"velocity":80,"confidence":1.0},{"start_time":373.207317073175,"end_time":373.3902439024433,"midi_note":74,"velocity":80,"confidence":1.0},{"start_time":373.207317073175,"end_time":373.3902439024433,"midi_note":83,"velocity":80,"confidence":1.0},{"start_time":373.207317073175,"end_time":373.3902439024433,"midi_note":86,"velocity":80,"confidence":1.0},{"start_time":373.3902439024433,"end_time":373.75609756097987,"midi_note":35,"velocity":80,"confidence":1.0},{"start_time":373.3902439024433,"end_time":373.75609756097987,"midi_note":47,"velocity":80,"confidence":1.0},{"start_time":373.75609756097987,"end_time":374.12195121951646,"midi_note":31,"velocity":80,"confidence":1.0},{"start_time":373.75609756097987,"end_time":374.12195121951646,"midi_note":43,"velocity":80,"confidence":1.0},{"start_time":374.12195121951646,"end_time":374.30487804878476,"midi_note":76,"velocity":80,"confidence":1.0},{"start_time":374.12195121951646,"end_time":374.30487804878476,"midi_note":84,"velocity":80,"confidence":1.0},{"start_time":374.12195121951646,"end_time":374.30487804878476,"midi_note":88,"velocity":80,"confidence":1.0},{"start_time":374.30487804878476,"end_time":374.48780487805305,"midi_note":72,"velocity":80,"confidence":1.0},{"start_time":374.30487804878476,"end_time":374.48780487805305,"midi_note":84,"velocity":80,"confidence":1.0},{"start_time":374.48780487805305,"end_time":374.67073170732135,"midi_note":72,"velocity":80,"confidence":1.0},{"start_time":374.48780487805305,"end_time":374.67073170732135,"midi_note":84,"velocity":80,"confidence":1.0},{"start_time":374.67073170732135,"end_time":374.85365853658965,"midi_note":72,"velocity":80,"confidence":1.0},{"start_time":374.67073170732135,"end_time":374.85365853658965,"midi_note":84,"velocity":80,"confidence":1.0},{"start_time":374.85365853658965,"end_time":375.21951219512624,"midi_note":36,"velocity":80,"confidence":1.0},{"start_time":374.85365853658965,"end_time":375.21951219512624,"midi_note":48,"velocity":80,"confidence":1.0},{"start_time":375.58536585366284,"end_time":376.317073170736,"midi_note":77,"velocity":80,"confidence":1.0},{"start_time":376.317073170736,"end_time":377.0487804878092,"midi_note":56,"velocity":80,"confidence":1.0},{"start_time":376.317073170736,"end_time":377.0487804878092,"midi_note":60,"velocity":80,"confidence":1.0},{"start_time":376.317073170736,"end_time":377.0487804878092,"midi_note":65,"velocity":80,"confidence":1.0},{"start_time":377.0487804878092,"end_time":377.7804878048824,"midi_note":67,"velocity":80,"confidence":1.0},{"start_time":377.0487804878092,"end_time":377.7804878048824,"midi_note":79,"velocity":80,"confidence":1.0},{"start_time":377.7804878048824,"end_time":378.5121951219556,"midi_note":58,"velocity":80,"confidence":1.0},{"start_time":377.7804878048824,"end_time":378.5121951219556,"midi_note":61,"velocity":80,"confidence":1.0},{"start_time":378.5121951219556,"end_time":379.2439024390288,"midi_note":55,"velocity":80,"confidence":1.0},{"start_time":378.5121951219556,"end_time":379.2439024390288,"midi_note":58,"velocity":80,"confidence":1.0},{"start_time":378.5121951219556,"end_time":379.2439024390288,"midi_note":60,"velocity":80,"confidence":1.0},{"start_time":378.5121951219556,"end_time":379.2439024390288,"midi_note":64,"velocity":80,"confidence":1.0},{"start_time":379.2439024390288,"end_time":379.97560975610196,"midi_note":31,"velocity":80,"confidence":1.0},{"start_time":379.2439024390288,"end_time":379.97560975610196,"midi_note":36,"velocity":80,"confidence":1.0},{"start_time":379.2439024390288,"end_time":379.97560975610196,"midi_note":43,"velocity":80,"confidence":1.0},{"start_time":379.97560975610196,"end_time":380.70731707317515,"midi_note":56,"velocity":80,"confidence":1.0},{"start_time":379.97560975610196,"end_time":380.70731707317515,"midi_note":60,"velocity":80,"confidence":1.0},{"start_time":379.97560975610196,"end_time":380.70731707317515,"midi_note":65,"velocity":80,"confidence":1.0},{"start_time":380.70731707317515,"end_time":381.43902439024833,"midi_note":32,"velocity":80,"confidence":1.0},{"start_time":380.70731707317515,"end_time":381.43902439024833,"midi_note":41,"velocity":80,"confidence":1.0},{"start_time":380.70731707317515,"end_time":381.43902439024833,"midi_note":44,"velocity":80,"confidence":1.0},{"start_time":381.43902439024833,"end_time":382.1707317073215,"midi_note":65,"velocity":80,"confidence":1.0},{"start_time":381.43902439024833,"end_time":382.1707317073215,"midi_note":77,"velocity":80,"confidence":1.0},{"start_time":382.1707317073215,"end_time":382.9024390243947,"midi_note":56,"velocity":80,"confidence":1.0},{"start_time":382.1707317073215,"end_time":382.9024390243947,"midi_note":60,"velocity":80,"confidence":1.0},{"start_time":382.9024390243947,"end_time":383.6341463414679,"midi_note":67,"velocity":80,"confidence":1.0},{"start_time":382.9024390243947,"end_time":383.6341463414679,"midi_note":79,"velocity":80,"confidence":1.0},{"start_time":383.6341463414679,"end_time":384.3658536585411,"midi_note":58,"velocity":80,"confidence":1.0},{"start_time":383.6341463414679,"end_time":384.3658536585411,"midi_note":61,"velocity":80,"confidence":1.0},{"start_time":384.3658536585411,"end_time":385.0975609756143,"midi_note":55,"velocity":80,"confidence":1.0},{"start_time":384.3658536585411,"end_time":385.0975609756143,"midi_note":58,"velocity":80,"confidence":1.0},{"start_time":384.3658536585411,"end_time":385.0975609756143,"midi_note":60,"velocity":80,"confidence":1.0},{"start_time":384.3658536585411,"end_time":385.0975609756143,"midi_note":64,"velocity":80,"confidence":1.0},{"start_time":385.0975609756143,"end_time":385.82926829268746,"midi_note":31,"velocity":80,"confidence":1.0},{"start_time":385.0975609756143,"end_time":385.82926829268746,"midi_note":36,"velocity":80,"confidence":1.0},{"start_time":385.0975609756143,"end_time":385.82926829268746,"midi_note":43,"velocity":80,"confidence":1.0},{"start_time":385.82926829268746,"end_time":386.56097560976065,"midi_note":56,"velocity":80,"confidence":1.0},{"start_time":385.82926829268746,"end_time":386.56097560976065,"midi_note":60,"velocity":80,"confidence":1.0},{"start_time":385.82926829268746,"end_time":386.56097560976065,"midi_note":65,"velocity":80,"confidence":1.0},{"start_time":386.56097560976065,"end_time":387.29268292683383,"midi_note":32,"velocity":80,"confidence":1.0},{"start_time":386.56097560976065,"end_time":387.29268292683383,"midi_note":41,"velocity":80,"confidence":1.0},{"start_time":386.56097560976065,"end_time":387.29268292683383,"midi_note":44,"velocity":80,"confidence":1.0},{"start_time":387.29268292683383,"end_time":388.024390243907,"midi_note":65,"velocity":80,"confidence":1.0},{"start_time":387.29268292683383,"end_time":388.024390243907,"midi_note":77,"velocity":80,"confidence":1.0},{"start_time":388.024390243907,"end_time":388.7560975609802,"midi_note":56,"velocity":80,"confidence":1.0},{"start_time":388.024390243907,"end_time":388.7560975609802,"midi_note":60,"velocity":80,"confidence":1.0},{"start_time":388.7560975609802,"end_time":389.4878048780534,"midi_note":66,"velocity":80,"confidence":1.0},{"start_time":388.7560975609802,"end_time":389.4878048780534,"midi_note":78,"velocity":80,"confidence":1.0},{"start_time":389.4878048780534,"end_time":390.2195121951266,"midi_note":58,"velocity":80,"confidence":1.0},{"start_time":389.4878048780534,"end_time":390.2195121951266,"midi_note":61,"velocity":80,"confidence":1.0},{"start_time":390.2195121951266,"end_time":390.95121951219977,"midi_note":58,"velocity":80,"confidence":1.0},{"start_time":390.2195121951266,"end_time":390.95121951219977,"midi_note":61,"velocity":80,"confidence":1.0},{"start_time":390.2195121951266,"end_time":390.95121951219977,"midi_note":66,"velocity":80,"confidence":1.0},{"start_time":390.95121951219977,"end_time":391.68292682927296,"midi_note":34,"velocity":80,"confidence":1.0},{"start_time":390.95121951219977,"end_time":391.68292682927296,"midi_note":46,"velocity":80,"confidence":1.0},{"start_time":391.68292682927296,"end_time":392.41463414634615,"midi_note":57,"velocity":80,"confidence":1.0},{"start_time":391.68292682927296,"end_time":392.41463414634615,"midi_note":63,"velocity":80,"confidence":1.0},{"start_time":391.68292682927296,"end_time":392.41463414634615,"midi_note":69,"velocity":80,"confidence":1.0},{"start_time":392.41463414634615,"end_time":393.14634146341933,"midi_note":36,"velocity":80,"confidence":1.0},{"start_time":392.41463414634615,"end_time":393.14634146341933,"midi_note":48,"velocity":80,"confidence":1.0},{"start_time":393.14634146341933,"end_time":393.8780487804925,"midi_note":69,"velocity":80,"confidence":1.0},{"start_time":393.14634146341933,"end_time":393.8780487804925,"midi_note":75,"velocity":80,"confidence":1.0},{"start_time":393.14634146341933,"end_time":393.8780487804925,"midi_note":81,"velocity":80,"confidence":1.0},{"start_time":393.8780487804925,"end_time":394.6097560975657,"midi_note":60,"velocity":80,"confidence":1.0},{"start_time":393.8780487804925,"end_time":394.6097560975657,"midi_note":63,"velocity":80,"confidence":1.0},{"start_time":393.8780487804925,"end_time":394.6097560975657,"midi_note":65,"velocity":80,"confidence":1.0},{"start_time":394.6097560975657,"end_time":395.3414634146389,"midi_note":70,"velocity":80,"confidence":1.0},{"start_time":394.6097560975657,"end_time":395.3414634146389,"midi_note":73,"velocity":80,"confidence":1.0},{"start_time":394.6097560975657,"end_time":395.3414634146389,"midi_note":82,"velocity":80,"confidence":1.0},{"start_time":395.3414634146389,"end_time":396.0731707317121,"midi_note":61,"velocity":80,"confidence":1.0},{"start_time":395.3414634146389,"end_time":396.0731707317121,"midi_note":65,"velocity":80,"confidence":1.0},{"start_time":396.0731707317121,"end_time":396.80487804878527,"midi_note":61,"velocity":80,"confidence":1.0},{"start_time":396.0731707317121,"end_time":396.80487804878527,"midi_note":65,"velocity":80,"confidence":1.0},{"start_time":396.0731707317121,"end_time":396.80487804878527,"midi_note":70,"velocity":80,"confidence":1.0},{"start_time":396.80487804878527,"end_time":397.53658536585846,"midi_note":37,"velocity":80,"confidence":1.0},{"start_time":396.80487804878527,"end_time":397.53658536585846,"midi_note":49,"velocity":80,"confidence":1.0},{"start_time":397.53658536585846,"end_time":398.26829268293164,"midi_note":71,"velocity":80,"confidence":1.0},{"start_time":397.53658536585846,"end_time":398.26829268293164,"midi_note":83,"velocity":80,"confidence":1.0},{"start_time":398.26829268293164,"end_time":399.00000000000483,"midi_note":63,"velocity":80,"confidence":1.0},{"start_time":398.26829268293164,"end_time":399.00000000000483,"midi_note":66,"velocity":80,"confidence":1.0},{"start_time":399.00000000000483,"end_time":399.731707317078,"midi_note":59,"velocity":80,"confidence":1.0},{"start_time":399.00000000000483,"end_time":399.731707317078,"midi_note":66,"velocity":80,"confidence":1.0},{"start_time":399.00000000000483,"end_time":399.731707317078,"midi_note":71,"velocity":80,"confidence":1.0},{"start_time":399.731707317078,"end_time":400.4634146341512,"midi_note":39,"velocity":80,"confidence":1.0},{"start_time":399.731707317078,"end_time":400.4634146341512,"midi_note":51,"velocity":80,"confidence":1.0},{"start_time":400.4634146341512,"end_time":401.1951219512244,"midi_note":73,"velocity":80,"confidence":1.0},{"start_time":400.4634146341512,"end_time":401.1951219512244,"midi_note":85,"velocity":80,"confidence":1.0},{"start_time":401.1951219512244,"end_time":401.9268292682976,"midi_note":65,"velocity":80,"confidence":1.0},{"start_time":401.1951219512244,"end_time":401.9268292682976,"midi_note":68,"velocity":80,"confidence":1.0},{"start_time":401.9268292682976,"end_time":402.65853658537077,"midi_note":61,"velocity":80,"confidence":1.0},{"start_time":401.9268292682976,"end_time":402.65853658537077,"midi_note":68,"velocity":80,"confidence":1.0},{"start_time":401.9268292682976,"end_time":402.65853658537077,"midi_note":73,"velocity":80,"confidence":1.0},{"start_time":402.65853658537077,"end_time":403.39024390244396,"midi_note":41,"velocity":80,"confidence":1.0},{"start_time":402.65853658537077,"end_time":403.39024390244396,"midi_note":53,"velocity":80,"confidence":1.0},{"start_time":403.39024390244396,"end_time":404.12195121951714,"midi_note":73,"velocity":80,"confidence":1.0},{"start_time":403.39024390244396,"end_time":404.12195121951714,"midi_note":85,"velocity":80,"confidence":1.0},{"start_time":404.12195121951714,"end_time":404.85365853659033,"midi_note":66,"velocity":80,"confidence":1.0},{"start_time":404.12195121951714,"end_time":404.85365853659033,"midi_note":69,"velocity":80,"confidence":1.0},{"start_time":404.85365853659033,"end_time":405.5853658536635,"midi_note":54,"velocity":80,"confidence":1.0},{"start_time":404.85365853659033,"end_time":405.5853658536635,"midi_note":57,"velocity":80,"confidence":1.0},{"start_time":404.85365853659033,"end_time":405.5853658536635,"midi_note":61,"velocity":80,"confidence":1.0},{"start_time":405.5853658536635,"end_time":406.3170731707367,"midi_note":30,"velocity":80,"confidence":1.0},{"start_time":405.5853658536635,"end_time":406.3170731707367,"midi_note":42,"velocity":80,"confidence":1.0},{"start_time":406.3170731707367,"end_time":407.0487804878099,"midi_note":73,"velocity":80,"confidence":1.0},{"start_time":406.3170731707367,"end_time":407.0487804878099,"midi_note":81,"velocity":80,"confidence":1.0},{"start_time":406.3170731707367,"end_time":407.0487804878099,"midi_note":85,"velocity":80,"confidence":1.0},{"start_time":407.0487804878099,"end_time":407.7804878048831,"midi_note":66,"velocity":80,"confidence":1.0},{"start_time":407.0487804878099,"end_time":407.7804878048831,"midi_note":69,"velocity":80,"confidence":1.0},{"start_time":407.7804878048831,"end_time":408.51219512195627,"midi_note":54,"velocity":80,"confidence":1.0},{"start_time":407.7804878048831,"end_time":408.51219512195627,"midi_note":57,"velocity":80,"confidence":1.0},{"start_time":407.7804878048831,"end_time":408.51219512195627,"midi_note":61,"velocity":80,"confidence":1.0},{"start_time":408.51219512195627,"end_time":409.24390243902945,"midi_note":30,"velocity":80,"confidence":1.0},{"start_time":408.51219512195627,"end_time":409.24390243902945,"midi_note":42,"velocity":80,"confidence":1.0},{"start_time":409.24390243902945,"end_time":409.97560975610264,"midi_note":73,"velocity":80,"confidence":1.0},{"start_time":409.24390243902945,"end_time":409.97560975610264,"midi_note":81,"velocity":80,"confidence":1.0},{"start_time":409.24390243902945,"end_time":409.97560975610264,"midi_note":85,"velocity":80,"confidence":1.0},{"start_time":409.97560975610264,"end_time":410.70731707317583,"midi_note":66,"velocity":80,"confidence":1.0},{"start_time":409.97560975610264,"end_time":410.70731707317583,"midi_note":69,"velocity":80,"confidence":1.0},{"start_time":410.70731707317583,"end_time":411.439024390249,"midi_note":54,"velocity":80,"confidence":1.0},{"start_time":410.70731707317583,"end_time":411.439024390249,"midi_note":57,"velocity":80,"confidence":1.0},{"start_time":410.70731707317583,"end_time":411.439024390249,"midi_note":61,"velocity":80,"confidence":1.0},{"start_time":411.439024390249,"end_time":412.1707317073222,"midi_note":30,"velocity":80,"confidence":1.0},{"start_time":411.439024390249,"end_time":412.1707317073222,"midi_note":42,"velocity":80,"confidence":1.0},{"start_time":412.1707317073222,"end_time":412.9024390243954,"midi_note":74,"velocity":80,"confidence":1.0},{"start_time":412.1707317073222,"end_time":412.9024390243954,"midi_note":81,"velocity":80,"confidence":1.0},{"start_time":412.1707317073222,"end_time":412.9024390243954,"midi_note":86,"velocity":80,"confidence":1.0},{"start_time":412.9024390243954,"end_time":413.6341463414686,"midi_note":66,"velocity":80,"confidence":1.0},{"start_time":412.9024390243954,"end_time":413.6341463414686,"midi_note":69,"velocity":80,"confidence":1.0},{"start_time":413.6341463414686,"end_time":414.36585365854177,"midi_note":57,"velocity":80,"confidence":1.0},{"start_time":413.6341463414686,"end_time":414.36585365854177,"midi_note":62,"velocity":80,"confidence":1.0},{"start_time":414.36585365854177,"end_time":415.09756097561495,"midi_note":50,"velocity":80,"confidence":1.0},{"start_time":415.09756097561495,"end_time":415.82926829268814,"midi_note":30,"velocity":80,"confidence":1.0},{"start_time":415.09756097561495,"end_time":415.82926829268814,"midi_note":42,"velocity":80,"confidence":1.0},{"start_time":415.82926829268814,"end_time":416.56097560976133,"midi_note":74,"velocity":80,"confidence":1.0},{"start_time":415.82926829268814,"end_time":416.56097560976133,"midi_note":81,"velocity":80,"confidence":1.0},{"start_time":415.82926829268814,"end_time":416.56097560976133,"midi_note":86,"velocity":80,"confidence":1.0},{"start_time":416.56097560976133,"end_time":417.2926829268345,"midi_note":66,"velocity":80,"confidence":1.0},{"start_time":416.56097560976133,"end_time":417.2926829268345,"midi_note":69,"velocity":80,"confidence":1.0},{"start_time":417.2926829268345,"end_time":418.0243902439077,"midi_note":57,"velocity":80,"confidence":1.0},{"start_time":417.2926829268345,"end_time":418.0243902439077,"midi_note":62,"velocity":80,"confidence":1.0},{"start_time":418.0243902439077,"end_time":418.7560975609809,"midi_note":50,"velocity":80,"confidence":1.0},{"start_time":418.7560975609809,"end_time":419.4878048780541,"midi_note":30,"velocity":80,"confidence":1.0},{"start_time":418.7560975609809,"end_time":419.4878048780541,"midi_note":42,"velocity":80,"confidence":1.0},{"start_time":419.4878048780541,"end_time":420.21951219512727,"midi_note":74,"velocity":80,"confidence":1.0},{"start_time":419.4878048780541,"end_time":420.21951219512727,"midi_note":81,"velocity":80,"confidence":1.0},{"start_time":419.4878048780541,"end_time":420.21951219512727,"midi_note":86,"velocity":80,"confidence":1.0},{"start_time":420.21951219512727,"end_time":420.95121951220045,"midi_note":66,"velocity":80,"confidence":1.0},{"start_time":420.21951219512727,"end_time":420.95121951220045,"midi_note":69,"velocity":80,"confidence":1.0},{"start_time":420.95121951220045,"end_time":421.68292682927364,"midi_note":57,"velocity":80,"confidence":1.0},{"start_time":420.95121951220045,"end_time":421.68292682927364,"midi_note":62,"velocity":80,"confidence":1.0},{"start_time":421.68292682927364,"end_time":422.4146341463468,"midi_note":50,"velocity":80,"confidence":1.0},{"start_time":422.4146341463468,"end_time":423.14634146342,"midi_note":30,"velocity":80,"confidence":1.0},{"start_time":422.4146341463468,"end_time":423.14634146342,"midi_note":42,"velocity":80,"confidence":1.0},{"start_time":423.14634146342,"end_time":423.8780487804932,"midi_note":74,"velocity":80,"confidence":1.0},{"start_time":423.14634146342,"end_time":423.8780487804932,"midi_note":81,"velocity":80,"confidence":1.0},{"start_time":423.14634146342,"end_time":423.8780487804932,"midi_note":86,"velocity":80,"confidence":1.0},{"start_time":423.8780487804932,"end_time":424.6097560975664,"midi_note":66,"velocity":80,"confidence":1.0},{"start_time":423.8780487804932,"end_time":424.6097560975664,"midi_note":69,"velocity":80,"confidence":1.0},{"start_time":424.6097560975664,"end_time":424.7926829268347,"midi_note":57,"velocity":80,"confidence":1.0},{"start_time":424.6097560975664,"end_time":424.7926829268347,"midi_note":62,"velocity":80,"confidence":1.0},{"start_time":424.7926829268347,"end_time":424.975609756103,"midi_note":74,"velocity":80,"confidence":1.0},{"start_time":424.7926829268347,"end_time":424.975609756103,"midi_note":86,"velocity":80,"confidence":1.0},{"start_time":424.975609756103,"end_time":425.1585365853713,"midi_note":74,"velocity":80,"confidence":1.0},{"start_time":424.975609756103,"end_time":425.1585365853713,"midi_note":86,"velocity":80,"confidence":1.0},{"start_time":425.1585365853713,"end_time":425.3414634146396,"midi_note":74,"velocity":80,"confidence":1.0},{"start_time":425.1585365853713,"end_time":425.3414634146396,"midi_note":86,"velocity":80,"confidence":1.0},{"start_time":425.3414634146396,"end_time":425.5243902439079,"midi_note":42,"velocity":80,"confidence":1.0},{"start_time":425.3414634146396,"end_time":425.5243902439079,"midi_note":50,"velocity":80,"confidence":1.0},{"start_time":425.5243902439079,"end_time":425.70731707317617,"midi_note":38,"velocity":80,"confidence":1.0},{"start_time":425.5243902439079,"end_time":425.70731707317617,"midi_note":50,"velocity":80,"confidence":1.0},{"start_time":425.70731707317617,"end_time":425.89024390244447,"midi_note":38,"velocity":80,"confidence":1.0},{"start_time":425.70731707317617,"end_time":425.89024390244447,"midi_note":50,"velocity":80,"confidence":1.0},{"start_time":425.89024390244447,"end_time":426.07317073171276,"midi_note":38,"velocity":80,"confidence":1.0},{"start_time":425.89024390244447,"end_time":426.07317073171276,"midi_note":50,"velocity":80,"confidence":1.0},{"start_time":426.07317073171276,"end_time":426.80487804878595,"midi_note":74,"velocity":80,"confidence":1.0},{"start_time":426.07317073171276,"end_time":426.80487804878595,"midi_note":83,"velocity":80,"confidence":1.0},{"start_time":426.07317073171276,"end_time":426.80487804878595,"midi_note":86,"velocity":80,"confidence":1.0},{"start_time":426.80487804878595,"end_time":427.53658536585914,"midi_note":35,"velocity":80,"confidence":1.0},{"start_time":426.80487804878595,"end_time":427.53658536585914,"midi_note":47,"velocity":80,"confidence":1.0},{"start_time":427.53658536585914,"end_time":428.2682926829323,"midi_note":74,"velocity":80,"confidence":1.0},{"start_time":427.53658536585914,"end_time":428.2682926829323,"midi_note":84,"velocity":80,"confidence":1.0},{"start_time":427.53658536585914,"end_time":428.2682926829323,"midi_note":86,"velocity":80,"confidence":1.0},{"start_time":428.2682926829323,"end_time":429.0000000000055,"midi_note":36,"velocity":80,"confidence":1.0},{"start_time":428.2682926829323,"end_time":429.0000000000055,"midi_note":48,"velocity":80,"confidence":1.0},{"start_time":429.0000000000055,"end_time":429.7317073170787,"midi_note":74,"velocity":80,"confidence":1.0},{"start_time":429.0000000000055,"end_time":429.7317073170787,"midi_note":81,"velocity":80,"confidence":1.0},{"start_time":429.0000000000055,"end_time":429.7317073170787,"midi_note":86,"velocity":80,"confidence":1.0},{"start_time":429.7317073170787,"end_time":430.4634146341519,"midi_note":33,"velocity":80,"confidence":1.0},{"start_time":429.7317073170787,"end_time":430.4634146341519,"midi_note":45,"velocity":80,"confidence":1.0},{"start_time":430.4634146341519,"end_time":431.1951219512251,"midi_note":74,"velocity":80,"confidence":1.0},{"start_time":430.4634146341519,"end_time":431.1951219512251,"midi_note":81,"velocity":80,"confidence":1.0},{"start_time":430.4634146341519,"end_time":431.1951219512251,"midi_note":86,"velocity":80,"confidence":1.0},{"start_time":431.1951219512251,"end_time":431.92682926829826,"midi_note":33,"velocity":80,"confidence":1.0},{"start_time":431.1951219512251,"end_time":431.92682926829826,"midi_note":45,"velocity":80,"confidence":1.0},{"start_time":431.92682926829826,"end_time":432.65853658537145,"midi_note":74,"velocity":80,"confidence":1.0},{"start_time":431.92682926829826,"end_time":432.65853658537145,"midi_note":80,"velocity":80,"confidence":1.0},{"start_time":431.92682926829826,"end_time":432.65853658537145,"midi_note":86,"velocity":80,"confidence":1.0},{"start_time":432.65853658537145,"end_time":433.39024390244464,"midi_note":59,"velocity":80,"confidence":1.0},{"start_time":432.65853658537145,"end_time":433.39024390244464,"midi_note":65,"velocity":80,"confidence":1.0},{"start_time":433.39024390244464,"end_time":434.1219512195178,"midi_note":56,"velocity":80,"confidence":1.0},{"start_time":433.39024390244464,"end_time":434.1219512195178,"midi_note":62,"velocity":80,"confidence":1.0},{"start_time":434.1219512195178,"end_time":434.853658536591,"midi_note":53,"velocity":80,"confidence":1.0},{"start_time":434.853658536591,"end_time":435.5853658536642,"midi_note":35,"velocity":80,"confidence":1.0},{"start_time":434.853658536591,"end_time":435.5853658536642,"midi_note":47,"velocity":80,"confidence":1.0},{"start_time":435.5853658536642,"end_time":436.3170731707374,"midi_note":74,"velocity":80,"confidence":1.0},{"start_time":435.5853658536642,"end_time":436.3170731707374,"midi_note":80,"velocity":80,"confidence":1.0},{"start_time":435.5853658536642,"end_time":436.3170731707374,"midi_note":86,"velocity":80,"confidence":1.0},{"start_time":436.3170731707374,"end_time":437.0487804878106,"midi_note":59,"velocity":80,"confidence":1.0},{"start_time":436.3170731707374,"end_time":437.0487804878106,"midi_note":65,"velocity":80,"confidence":1.0},{"start_time":437.0487804878106,"end_time":437.78048780488376,"midi_note":56,"velocity":80,"confidence":1.0},{"start_time":437.0487804878106,"end_time":437.78048780488376,"midi_note":62,"velocity":80,"confidence":1.0},{"start_time":437.78048780488376,"end_time":438.51219512195695,"midi_note":53,"velocity":80,"confidence":1.0},{"start_time":438.51219512195695,"end_time":439.24390243903014,"midi_note":35,"velocity":80,"confidence":1.0},{"start_time":438.51219512195695,"end_time":439.24390243903014,"midi_note":47,"velocity":80,"confidence":1.0},{"start_time":439.24390243903014,"end_time":439.9756097561033,"midi_note":74,"velocity":80,"confidence":1.0},{"start_time":439.24390243903014,"end_time":439.9756097561033,"midi_note":80,"velocity":80,"confidence":1.0},{"start_time":439.24390243903014,"end_time":439.9756097561033,"midi_note":86,"velocity":80,"confidence":1.0},{"start_time":439.9756097561033,"end_time":440.7073170731765,"midi_note":59,"velocity":80,"confidence":1.0},{"start_time":439.9756097561033,"end_time":440.7073170731765,"midi_note":65,"velocity":80,"confidence":1.0},{"start_time":440.7073170731765,"end_time":441.4390243902497,"midi_note":56,"velocity":80,"confidence":1.0},{"start_time":440.7073170731765,"end_time":441.4390243902497,"midi_note":62,"velocity":80,"confidence":1.0},{"start_time":441.4390243902497,"end_time":442.1707317073229,"midi_note":53,"velocity":80,"confidence":1.0},{"start_time":442.1707317073229,"end_time":442.9024390243961,"midi_note":35,"velocity":80,"confidence":1.0},{"start_time":442.1707317073229,"end_time":442.9024390243961,"midi_note":47,"velocity":80,"confidence":1.0},{"start_time":442.9024390243961,"end_time":443.63414634146926,"midi_note":74,"velocity":80,"confidence":1.0},{"start_time":442.9024390243961,"end_time":443.63414634146926,"midi_note":80,"velocity":80,"confidence":1.0},{"start_time":442.9024390243961,"end_time":443.63414634146926,"midi_note":86,"velocity":80,"confidence":1.0},{"start_time":443.63414634146926,"end_time":444.36585365854245,"midi_note":59,"velocity":80,"confidence":1.0},{"start_time":443.63414634146926,"end_time":444.36585365854245,"midi_note":65,"velocity":80,"confidence":1.0},{"start_time":444.36585365854245,"end_time":445.09756097561564,"midi_note":56,"velocity":80,"confidence":1.0},{"start_time":444.36585365854245,"end_time":445.09756097561564,"midi_note":62,"velocity":80,"confidence":1.0},{"start_time":445.09756097561564,"end_time":445.8292682926888,"midi_note":53,"velocity":80,"confidence":1.0},{"start_time":445.8292682926888,"end_time":446.560975609762,"midi_note":35,"velocity":80,"confidence":1.0},{"start_time":445.8292682926888,"end_time":446.560975609762,"midi_note":47,"velocity":80,"confidence":1.0},{"start_time":446.560975609762,"end_time":446.7439024390303,"midi_note":56,"velocity":80,"confidence":1.0},{"start_time":446.560975609762,"end_time":446.7439024390303,"midi_note":62,"velocity":80,"confidence":1.0},{"start_time":447.2926829268352,"end_time":447.4756097561035,"midi_note":53,"velocity":80,"confidence":1.0},{"start_time":447.4756097561035,"end_time":447.6585365853718,"midi_note":44,"velocity":80,"confidence":1.0},{"start_time":447.4756097561035,"end_time":447.6585365853718,"midi_note":56,"velocity":80,"confidence":1.0},{"start_time":447.6585365853718,"end_time":447.8414634146401,"midi_note":44,"velocity":80,"confidence":1.0},{"start_time":447.6585365853718,"end_time":447.8414634146401,"midi_note":56,"velocity":80,"confidence":1.0},{"start_time":447.8414634146401,"end_time":448.0243902439084,"midi_note":44,"velocity":80,"confidence":1.0},{"start_time":447.8414634146401,"end_time":448.0243902439084,"midi_note":56,"velocity":80,"confidence":1.0},{"start_time":448.0243902439084,"end_time":448.2073170731767,"midi_note":35,"velocity":80,"confidence":1.0},{"start_time":448.0243902439084,"end_time":448.2073170731767,"midi_note":47,"velocity":80,"confidence":1.0},{"start_time":448.390243902445,"end_time":448.5731707317133,"midi_note":68,"velocity":80,"confidence":1.0},{"start_time":448.390243902445,"end_time":448.5731707317133,"midi_note":80,"velocity":80,"confidence":1.0},{"start_time":448.5731707317133,"end_time":448.7560975609816,"midi_note":68,"velocity":80,"confidence":1.0},{"start_time":448.5731707317133,"end_time":448.7560975609816,"midi_note":80,"velocity":80,"confidence":1.0},{"start_time":448.7560975609816,"end_time":448.93902439024987,"midi_note":68,"velocity":80,"confidence":1.0},{"start_time":448.7560975609816,"end_time":448.93902439024987,"midi_note":80,"velocity":80,"confidence":1.0},{"start_time":448.93902439024987,"end_time":449.67073170732306,"midi_note":41,"velocity":80,"confidence":1.0},{"start_time":448.93902439024987,"end_time":449.67073170732306,"midi_note":53,"velocity":80,"confidence":1.0},{"start_time":449.67073170732306,"end_time":450.40243902439624,"midi_note":65,"velocity":80,"confidence":1.0},{"start_time":449.67073170732306,"end_time":450.40243902439624,"midi_note":77,"velocity":80,"confidence":1.0},{"start_time":450.40243902439624,"end_time":450.58536585366454,"midi_note":41,"velocity":80,"confidence":1.0},{"start_time":450.40243902439624,"end_time":450.58536585366454,"midi_note":53,"velocity":80,"confidence":1.0},{"start_time":450.58536585366454,"end_time":450.76829268293284,"midi_note":44,"velocity":80,"confidence":1.0},{"start_time":450.58536585366454,"end_time":450.76829268293284,"midi_note":56,"velocity":80,"confidence":1.0},{"start_time":450.76829268293284,"end_time":450.95121951220113,"midi_note":44,"velocity":80,"confidence":1.0},{"start_time":450.76829268293284,"end_time":450.95121951220113,"midi_note":56,"velocity":80,"confidence":1.0},{"start_time":450.95121951220113,"end_time":451.13414634146943,"midi_note":44,"velocity":80,"confidence":1.0},{"start_time":450.95121951220113,"end_time":451.13414634146943,"midi_note":56,"velocity":80,"confidence":1.0},{"start_time":451.13414634146943,"end_time":451.31707317073773,"midi_note":65,"velocity":80,"confidence":1.0},{"start_time":451.13414634146943,"end_time":451.31707317073773,"midi_note":77,"velocity":80,"confidence":1.0},{"start_time":451.31707317073773,"end_time":451.500000000006,"midi_note":68,"velocity":80,"confidence":1.0},{"start_time":451.31707317073773,"end_time":451.500000000006,"midi_note":80,"velocity":80,"confidence":1.0},{"start_time":451.500000000006,"end_time":451.6829268292743,"midi_note":68,"velocity":80,"confidence":1.0},{"start_time":451.500000000006,"end_time":451.6829268292743,"midi_note":80,"velocity":80,"confidence":1.0},{"start_time":451.6829268292743,"end_time":451.8658536585426,"midi_note":68,"velocity":80,"confidence":1.0},{"start_time":451.6829268292743,"end_time":451.8658536585426,"midi_note":80,"velocity":80,"confidence":1.0},{"start_time":451.8658536585426,"end_time":452.5975609756158,"midi_note":41,"velocity":80,"confidence":1.0},{"start_time":451.8658536585426,"end_time":452.5975609756158,"midi_note":53,"velocity":80,"confidence":1.0},{"start_time":452.5975609756158,"end_time":453.329268292689,"midi_note":65,"velocity":80,"confidence":1.0},{"start_time":452.5975609756158,"end_time":453.329268292689,"midi_note":77,"velocity":80,"confidence":1.0},{"start_time":453.329268292689,"end_time":453.5121951219573,"midi_note":41,"velocity":80,"confidence":1.0},{"start_time":453.329268292689,"end_time":453.5121951219573,"midi_note":53,"velocity":80,"confidence":1.0},{"start_time":453.5121951219573,"end_time":453.6951219512256,"midi_note":44,"velocity":80,"confidence":1.0},{"start_time":453.5121951219573,"end_time":453.6951219512256,"midi_note":56,"velocity":80,"confidence":1.0},{"start_time":453.6951219512256,"end_time":453.8780487804939,"midi_note":44,"velocity":80,"confidence":1.0},{"start_time":453.6951219512256,"end_time":453.8780487804939,"midi_note":56,"velocity":80,"confidence":1.0},{"start_time":453.8780487804939,"end_time":454.0609756097622,"midi_note":44,"velocity":80,"confidence":1.0},{"start_time":453.8780487804939,"end_time":454.0609756097622,"midi_note":56,"velocity":80,"confidence":1.0},{"start_time":454.0609756097622,"end_time":454.2439024390305,"midi_note":65,"velocity":80,"confidence":1.0},{"start_time":454.0609756097622,"end_time":454.2439024390305,"midi_note":77,"velocity":80,"confidence":1.0},{"start_time":454.2439024390305,"end_time":454.4268292682988,"midi_note":68,"velocity":80,"confidence":1.0},{"start_time":454.2439024390305,"end_time":454.4268292682988,"midi_note":80,"velocity":80,"confidence":1.0},{"start_time":454.4268292682988,"end_time":454.6097560975671,"midi_note":68,"velocity":80,"confidence":1.0},{"start_time":454.4268292682988,"end_time":454.6097560975671,"midi_note":80,"velocity":80,"confidence":1.0},{"start_time":454.6097560975671,"end_time":454.79268292683537,"midi_note":68,"velocity":80,"confidence":1.0},{"start_time":454.6097560975671,"end_time":454.79268292683537,"midi_note":80,"velocity":80,"confidence":1.0},{"start_time":454.79268292683537,"end_time":454.97560975610367,"midi_note":41,"velocity":80,"confidence":1.0},{"start_time":454.79268292683537,"end_time":454.97560975610367,"midi_note":53,"velocity":80,"confidence":1.0},{"start_time":454.97560975610367,"end_time":455.15853658537196,"midi_note":44,"velocity":80,"confidence":1.0},{"start_time":454.97560975610367,"end_time":455.15853658537196,"midi_note":56,"velocity":80,"confidence":1.0},{"start_time":455.15853658537196,"end_time":455.34146341464026,"midi_note":44,"velocity":80,"confidence":1.0},{"start_time":455.15853658537196,"end_time":455.34146341464026,"midi_note":56,"velocity":80,"confidence":1.0},{"start_time":455.34146341464026,"end_time":455.52439024390856,"midi_note":44,"velocity":80,"confidence":1.0},{"start_time":455.34146341464026,"end_time":455.52439024390856,"midi_note":56,"velocity":80,"confidence":1.0},{"start_time":455.52439024390856,"end_time":455.70731707317685,"midi_note":65,"velocity":80,"confidence":1.0},{"start_time":455.52439024390856,"end_time":455.70731707317685,"midi_note":77,"velocity":80,"confidence":1.0},{"start_time":455.70731707317685,"end_time":455.89024390244515,"midi_note":68,"velocity":80,"confidence":1.0},{"start_time":455.70731707317685,"end_time":455.89024390244515,"midi_note":80,"velocity":80,"confidence":1.0},{"start_time":455.89024390244515,"end_time":456.07317073171345,"midi_note":68,"velocity":80,"confidence":1.0},{"start_time":455.89024390244515,"end_time":456.07317073171345,"midi_note":80,"velocity":80,"confidence":1.0},{"start_time":456.07317073171345,"end_time":456.25609756098174,"midi_note":68,"velocity":80,"confidence":1.0},{"start_time":456.07317073171345,"end_time":456.25609756098174,"midi_note":80,"velocity":80,"confidence":1.0},{"start_time":456.25609756098174,"end_time":456.43902439025004,"midi_note":41,"velocity":80,"confidence":1.0},{"start_time":456.25609756098174,"end_time":456.43902439025004,"midi_note":53,"velocity":80,"confidence":1.0},{"start_time":456.43902439025004,"end_time":456.62195121951834,"midi_note":44,"velocity":80,"confidence":1.0},{"start_time":456.43902439025004,"end_time":456.62195121951834,"midi_note":56,"velocity":80,"confidence":1.0},{"start_time":456.62195121951834,"end_time":456.80487804878663,"midi_note":44,"velocity":80,"confidence":1.0},{"start_time":456.62195121951834,"end_time":456.80487804878663,"midi_note":56,"velocity":80,"confidence":1.0},{"start_time":456.80487804878663,"end_time":456.98780487805493,"midi_note":44,"velocity":80,"confidence":1.0},{"start_time":456.80487804878663,"end_time":456.98780487805493,"midi_note":56,"velocity":80,"confidence":1.0},{"start_time":456.98780487805493,"end_time":457.1707317073232,"midi_note":65,"velocity":80,"confidence":1.0},{"start_time":456.98780487805493,"end_time":457.1707317073232,"midi_note":77,"velocity":80,"confidence":1.0},{"start_time":457.1707317073232,"end_time":457.3536585365915,"midi_note":80,"velocity":80,"confidence":1.0},{"start_time":457.1707317073232,"end_time":457.3536585365915,"midi_note":92,"velocity":80,"confidence":1.0},{"start_time":457.3536585365915,"end_time":457.5365853658598,"midi_note":80,"velocity":80,"confidence":1.0},{"start_time":457.3536585365915,"end_time":457.5365853658598,"midi_note":92,"velocity":80,"confidence":1.0},{"start_time":457.5365853658598,"end_time":457.7195121951281,"midi_note":80,"velocity":80,"confidence":1.0},{"start_time":457.5365853658598,"end_time":457.7195121951281,"midi_note":92,"velocity":80,"confidence":1.0},{"start_time":457.7195121951281,"end_time":457.9024390243964,"midi_note":41,"velocity":80,"confidence":1.0},{"start_time":457.7195121951281,"end_time":457.9024390243964,"midi_note":53,"velocity":80,"confidence":1.0},{"start_time":457.9024390243964,"end_time":458.0853658536647,"midi_note":44,"velocity":80,"confidence":1.0},{"start_time":457.9024390243964,"end_time":458.0853658536647,"midi_note":56,"velocity":80,"confidence":1.0},{"start_time":458.0853658536647,"end_time":458.268292682933,"midi_note":44,"velocity":80,"confidence":1.0},{"start_time":458.0853658536647,"end_time":458.268292682933,"midi_note":56,"velocity":80,"confidence":1.0},{"start_time":458.268292682933,"end_time":458.4512195122013,"midi_note":44,"velocity":80,"confidence":1.0},{"start_time":458.268292682933,"end_time":458.4512195122013,"midi_note":56,"velocity":80,"confidence":1.0},{"start_time":458.4512195122013,"end_time":458.6341463414696,"midi_note":77,"velocity":80,"confidence":1.0},{"start_time":458.4512195122013,"end_time":458.6341463414696,"midi_note":89,"velocity":80,"confidence":1.0},{"start_time":458.6341463414696,"end_time":458.8170731707379,"midi_note":79,"velocity":80,"confidence":1.0},{"start_time":458.6341463414696,"end_time":458.8170731707379,"midi_note":91,"velocity":80,"confidence":1.0},{"start_time":458.8170731707379,"end_time":459.0000000000062,"midi_note":79,"velocity":80,"confidence":1.0},{"start_time":458.8170731707379,"end_time":459.0000000000062,"midi_note":91,"velocity":80,"confidence":1.0},{"start_time":459.0000000000062,"end_time":459.1829268292745,"midi_note":79,"velocity":80,"confidence":1.0},{"start_time":459.0000000000062,"end_time":459.1829268292745,"midi_note":91,"velocity":80,"confidence":1.0},{"start_time":459.1829268292745,"end_time":459.3658536585428,"midi_note":41,"velocity":80,"confidence":1.0},{"start_time":459.1829268292745,"end_time":459.3658536585428,"midi_note":53,"velocity":80,"confidence":1.0},{"start_time":459.3658536585428,"end_time":459.5487804878111,"midi_note":43,"velocity":80,"confidence":1.0},{"start_time":459.3658536585428,"end_time":459.5487804878111,"midi_note":55,"velocity":80,"confidence":1.0},{"start_time":459.5487804878111,"end_time":459.7317073170794,"midi_note":43,"velocity":80,"confidence":1.0},{"start_time":459.5487804878111,"end_time":459.7317073170794,"midi_note":55,"velocity":80,"confidence":1.0},{"start_time":459.7317073170794,"end_time":459.9146341463477,"midi_note":43,"velocity":80,"confidence":1.0},{"start_time":459.7317073170794,"end_time":459.9146341463477,"midi_note":55,"velocity":80,"confidence":1.0},{"start_time":459.9146341463477,"end_time":461.9146341463477,"midi_note":79,"velocity":80,"confidence":1.0},{"start_time":459.9146341463477,"end_time":461.9146341463477,"midi_note":87,"velocity":80,"confidence":1.0},{"start_time":459.9146341463477,"end_time":461.9146341463477,"midi_note":91,"velocity":80,"confidence":1.0},{"start_time":461.9146341463477,"end_time":463.9146341463477,"midi_note":39,"velocity":80,"confidence":1.0},{"start_time":461.9146341463477,"end_time":463.9146341463477,"midi_note":43,"velocity":80,"confidence":1.0},{"start_time":461.9146341463477,"end_time":463.9146341463477,"midi_note":51,"velocity":80,"confidence":1.0},{"start_time":464.097560975616,"end_time":464.2804878048843,"midi_note":79,"velocity":80,"confidence":1.0},{"start_time":464.097560975616,"end_time":464.2804878048843,"midi_note":89,"velocity":80,"confidence":1.0},{"start_time":464.097560975616,"end_time":464.2804878048843,"midi_note":91,"velocity":80,"confidence":1.0},{"start_time":464.2804878048843,"end_time":464.46341463415257,"midi_note":79,"velocity":80,"confidence":1.0},{"start_time":464.2804878048843,"end_time":464.46341463415257,"midi_note":89,"velocity":80,"confidence":1.0},{"start_time":464.2804878048843,"end_time":464.46341463415257,"midi_note":91,"velocity":80,"confidence":1.0},{"start_time":464.46341463415257,"end_time":464.64634146342087,"midi_note":79,"velocity":80,"confidence":1.0},{"start_time":464.46341463415257,"end_time":464.64634146342087,"midi_note":89,"velocity":80,"confidence":1.0},{"start_time":464.46341463415257,"end_time":464.64634146342087,"midi_note":91,"velocity":80,"confidence":1.0},{"start_time":464.82926829268916,"end_time":465.01219512195746,"midi_note":41,"velocity":80,"confidence":1.0},{"start_time":464.82926829268916,"end_time":465.01219512195746,"midi_note":43,"velocity":80,"confidence":1.0},{"start_time":464.82926829268916,"end_time":465.01219512195746,"midi_note":53,"velocity":80,"confidence":1.0},{"start_time":465.01219512195746,"end_time":465.19512195122576,"midi_note":41,"velocity":80,"confidence":1.0},{"start_time":465.01219512195746,"end_time":465.19512195122576,"midi_note":43,"velocity":80,"confidence":1.0},{"start_time":465.01219512195746,"end_time":465.19512195122576,"midi_note":53,"velocity":80,"confidence":1.0},{"start_time":465.19512195122576,"end_time":465.37804878049405,"midi_note":41,"velocity":80,"confidence":1.0},{"start_time":465.19512195122576,"end_time":465.37804878049405,"midi_note":43,"velocity":80,"confidence":1.0},{"start_time":465.19512195122576,"end_time":465.37804878049405,"midi_note":53,"velocity":80,"confidence":1.0},{"start_time":465.37804878049405,"end_time":466.10975609756724,"midi_note":79,"velocity":80,"confidence":1.0},{"start_time":465.37804878049405,"end_time":466.10975609756724,"midi_note":86,"velocity":80,"confidence":1.0},{"start_time":465.37804878049405,"end_time":466.10975609756724,"midi_note":91,"velocity":80,"confidence":1.0},{"start_time":466.10975609756724,"end_time":466.84146341464043,"midi_note":38,"velocity":80,"confidence":1.0},{"start_time":466.10975609756724,"end_time":466.84146341464043,"midi_note":43,"velocity":80,"confidence":1.0},{"start_time":466.10975609756724,"end_time":466.84146341464043,"midi_note":50,"velocity":80,"confidence":1.0},{"start_time":466.84146341464043,"end_time":468.84146341464043,"midi_note":79,"velocity":80,"confidence":1.0},{"start_time":466.84146341464043,"end_time":468.84146341464043,"midi_note":86,"velocity":80,"confidence":1.0},{"start_time":466.84146341464043,"end_time":468.84146341464043,"midi_note":91,"velocity":80,"confidence":1.0},{"start_time":468.84146341464043,"end_time":470.84146341464043,"midi_note":38,"velocity":80,"confidence":1.0},{"start_time":468.84146341464043,"end_time":470.84146341464043,"midi_note":43,"velocity":80,"confidence":1.0},{"start_time":468.84146341464043,"end_time":470.84146341464043,"midi_note":50,"velocity":80,"confidence":1.0},{"start_time":471.0243902439087,"end_time":471.207317073177,"midi_note":67,"velocity":80,"confidence":1.0},{"start_time":471.207317073177,"end_time":471.3902439024453,"midi_note":67,"velocity":80,"confidence":1.0},{"start_time":471.3902439024453,"end_time":471.5731707317136,"midi_note":67,"velocity":80,"confidence":1.0},{"start_time":472.4878048780551,"end_time":472.6707317073234,"midi_note":68,"velocity":80,"confidence":1.0},{"start_time":472.6707317073234,"end_time":472.8536585365917,"midi_note":68,"velocity":80,"confidence":1.0},{"start_time":472.8536585365917,"end_time":473.03658536586,"midi_note":68,"velocity":80,"confidence":1.0},{"start_time":473.03658536586,"end_time":473.7682926829332,"midi_note":63,"velocity":80,"confidence":1.0},{"start_time":473.7682926829332,"end_time":474.50000000000637,"midi_note":48,"velocity":80,"confidence":1.0},{"start_time":474.50000000000637,"end_time":474.86585365854296,"midi_note":36,"velocity":80,"confidence":1.0},{"start_time":475.23170731707955,"end_time":475.41463414634785,"midi_note":67,"velocity":80,"confidence":1.0},{"start_time":475.41463414634785,"end_time":475.59756097561615,"midi_note":75,"velocity":80,"confidence":1.0},{"start_time":475.59756097561615,"end_time":475.78048780488444,"midi_note":75,"velocity":80,"confidence":1.0},{"start_time":475.78048780488444,"end_time":475.96341463415274,"midi_note":75,"velocity":80,"confidence":1.0},{"start_time":475.96341463415274,"end_time":476.69512195122593,"midi_note":63,"velocity":80,"confidence":1.0},{"start_time":476.69512195122593,"end_time":477.4268292682991,"midi_note":48,"velocity":80,"confidence":1.0},{"start_time":477.4268292682991,"end_time":478.1585365853723,"midi_note":72,"velocity":80,"confidence":1.0},{"start_time":478.1585365853723,"end_time":478.5243902439089,"midi_note":63,"velocity":80,"confidence":1.0},{"start_time":478.5243902439089,"end_time":478.8902439024455,"midi_note":60,"velocity":80,"confidence":1.0},{"start_time":478.8902439024455,"end_time":479.2560975609821,"midi_note":48,"velocity":80,"confidence":1.0},{"start_time":479.2560975609821,"end_time":479.6219512195187,"midi_note":48,"velocity":80,"confidence":1.0},{"start_time":479.804878048787,"end_time":479.9878048780553,"midi_note":67,"velocity":80,"confidence":1.0},{"start_time":479.9878048780553,"end_time":480.17073170732357,"midi_note":67,"velocity":80,"confidence":1.0},{"start_time":480.17073170732357,"end_time":480.35365853659187,"midi_note":67,"velocity":80,"confidence":1.0},{"start_time":480.35365853659187,"end_time":480.71951219512846,"midi_note":63,"velocity":80,"confidence":1.0},{"start_time":480.71951219512846,"end_time":481.08536585366505,"midi_note":60,"velocity":80,"confidence":1.0},{"start_time":481.08536585366505,"end_time":481.45121951220165,"midi_note":51,"velocity":80,"confidence":1.0},{"start_time":481.45121951220165,"end_time":481.81707317073824,"midi_note":48,"velocity":80,"confidence":1.0},{"start_time":482.00000000000654,"end_time":482.18292682927483,"midi_note":68,"velocity":80,"confidence":1.0},{"start_time":482.18292682927483,"end_time":482.36585365854313,"midi_note":68,"velocity":80,"confidence":1.0},{"start_time":482.36585365854313,"end_time":482.5487804878114,"midi_note":68,"velocity":80,"confidence":1.0},{"start_time":482.5487804878114,"end_time":483.2804878048846,"midi_note":62,"velocity":80,"confidence":1.0},{"start_time":483.2804878048846,"end_time":484.0121951219578,"midi_note":47,"velocity":80,"confidence":1.0},{"start_time":483.2804878048846,"end_time":484.0121951219578,"midi_note":59,"velocity":80,"confidence":1.0},{"start_time":484.0121951219578,"end_time":484.1951219512261,"midi_note":67,"velocity":80,"confidence":1.0},{"start_time":484.1951219512261,"end_time":484.3780487804944,"midi_note":77,"velocity":80,"confidence":1.0},{"start_time":484.3780487804944,"end_time":484.5609756097627,"midi_note":77,"velocity":80,"confidence":1.0},{"start_time":484.5609756097627,"end_time":484.743902439031,"midi_note":77,"velocity":80,"confidence":1.0},{"start_time":484.743902439031,"end_time":484.9268292682993,"midi_note":62,"velocity":80,"confidence":1.0},{"start_time":484.9268292682993,"end_time":485.6585365853725,"midi_note":47,"velocity":80,"confidence":1.0},{"start_time":484.9268292682993,"end_time":485.6585365853725,"midi_note":59,"velocity":80,"confidence":1.0},{"start_time":485.6585365853725,"end_time":486.39024390244566,"midi_note":65,"velocity":80,"confidence":1.0},{"start_time":485.6585365853725,"end_time":486.39024390244566,"midi_note":67,"velocity":80,"confidence":1.0},{"start_time":485.6585365853725,"end_time":486.39024390244566,"midi_note":74,"velocity":80,"confidence":1.0},{"start_time":486.39024390244566,"end_time":486.75609756098225,"midi_note":47,"velocity":80,"confidence":1.0},{"start_time":486.39024390244566,"end_time":486.75609756098225,"midi_note":59,"velocity":80,"confidence":1.0},{"start_time":486.75609756098225,"end_time":487.12195121951885,"midi_note":43,"velocity":80,"confidence":1.0},{"start_time":486.75609756098225,"end_time":487.12195121951885,"midi_note":55,"velocity":80,"confidence":1.0},{"start_time":487.12195121951885,"end_time":487.30487804878715,"midi_note":65,"velocity":80,"confidence":1.0},{"start_time":487.12195121951885,"end_time":487.30487804878715,"midi_note":67,"velocity":80,"confidence":1.0},{"start_time":487.12195121951885,"end_time":487.30487804878715,"midi_note":74,"velocity":80,"confidence":1.0},{"start_time":487.30487804878715,"end_time":487.48780487805544,"midi_note":79,"velocity":80,"confidence":1.0},{"start_time":487.48780487805544,"end_time":487.67073170732374,"midi_note":79,"velocity":80,"confidence":1.0},{"start_time":487.67073170732374,"end_time":487.85365853659204,"midi_note":77,"velocity":80,"confidence":1.0},{"start_time":487.85365853659204,"end_time":488.21951219512863,"midi_note":47,"velocity":80,"confidence":1.0},{"start_time":487.85365853659204,"end_time":488.21951219512863,"midi_note":59,"velocity":80,"confidence":1.0},{"start_time":488.21951219512863,"end_time":488.5853658536652,"midi_note":43,"velocity":80,"confidence":1.0},{"start_time":488.21951219512863,"end_time":488.5853658536652,"midi_note":55,"velocity":80,"confidence":1.0},{"start_time":488.5853658536652,"end_time":489.3170731707384,"midi_note":75,"velocity":80,"confidence":1.0},{"start_time":489.5000000000067,"end_time":489.682926829275,"midi_note":63,"velocity":80,"confidence":1.0},{"start_time":489.682926829275,"end_time":489.8658536585433,"midi_note":63,"velocity":80,"confidence":1.0},{"start_time":489.8658536585433,"end_time":490.0487804878116,"midi_note":65,"velocity":80,"confidence":1.0},{"start_time":490.0487804878116,"end_time":490.7804878048848,"midi_note":48,"velocity":80,"confidence":1.0},{"start_time":490.0487804878116,"end_time":490.7804878048848,"midi_note":60,"velocity":80,"confidence":1.0},{"start_time":490.7804878048848,"end_time":490.9634146341531,"midi_note":74,"velocity":80,"confidence":1.0},{"start_time":490.9634146341531,"end_time":491.1463414634214,"midi_note":79,"velocity":80,"confidence":1.0},{"start_time":491.1463414634214,"end_time":491.3292682926897,"midi_note":79,"velocity":80,"confidence":1.0},{"start_time":491.3292682926897,"end_time":491.512195121958,"midi_note":77,"velocity":80,"confidence":1.0},{"start_time":491.512195121958,"end_time":492.24390243903116,"midi_note":67,"velocity":80,"confidence":1.0},{"start_time":492.24390243903116,"end_time":492.97560975610435,"midi_note":47,"velocity":80,"confidence":1.0},{"start_time":492.24390243903116,"end_time":492.97560975610435,"midi_note":59,"velocity":80,"confidence":1.0},{"start_time":492.97560975610435,"end_time":493.70731707317753,"midi_note":72,"velocity":80,"confidence":1.0},{"start_time":492.97560975610435,"end_time":493.70731707317753,"midi_note":75,"velocity":80,"confidence":1.0},{"start_time":493.89024390244583,"end_time":494.07317073171413,"midi_note":63,"velocity":80,"confidence":1.0},{"start_time":494.07317073171413,"end_time":494.2560975609824,"midi_note":63,"velocity":80,"confidence":1.0},{"start_time":494.2560975609824,"end_time":494.4390243902507,"midi_note":65,"velocity":80,"confidence":1.0},{"start_time":494.4390243902507,"end_time":495.1707317073239,"midi_note":48,"velocity":80,"confidence":1.0},{"start_time":494.4390243902507,"end_time":495.1707317073239,"midi_note":60,"velocity":80,"confidence":1.0},{"start_time":495.1707317073239,"end_time":495.3536585365922,"midi_note":74,"velocity":80,"confidence":1.0},{"start_time":495.3536585365922,"end_time":495.5365853658605,"midi_note":79,"velocity":80,"confidence":1.0},{"start_time":495.5365853658605,"end_time":495.7195121951288,"midi_note":79,"velocity":80,"confidence":1.0},{"start_time":495.7195121951288,"end_time":495.9024390243971,"midi_note":77,"velocity":80,"confidence":1.0},{"start_time":495.9024390243971,"end_time":496.2682926829337,"midi_note":67,"velocity":80,"confidence":1.0},{"start_time":495.9024390243971,"end_time":496.2682926829337,"midi_note":71,"velocity":80,"confidence":1.0},{"start_time":496.2682926829337,"end_time":496.451219512202,"midi_note":72,"velocity":80,"confidence":1.0},{"start_time":496.451219512202,"end_time":496.6341463414703,"midi_note":74,"velocity":80,"confidence":1.0},{"start_time":496.6341463414703,"end_time":497.0000000000069,"midi_note":55,"velocity":80,"confidence":1.0},{"start_time":497.0000000000069,"end_time":497.1829268292752,"midi_note":57,"velocity":80,"confidence":1.0},{"start_time":497.1829268292752,"end_time":497.3658536585435,"midi_note":59,"velocity":80,"confidence":1.0},{"start_time":497.3658536585435,"end_time":497.73170731708007,"midi_note":43,"velocity":80,"confidence":1.0},{"start_time":497.73170731708007,"end_time":498.09756097561666,"midi_note":55,"velocity":80,"confidence":1.0},{"start_time":498.09756097561666,"end_time":498.82926829268985,"midi_note":75,"velocity":80,"confidence":1.0},{"start_time":498.82926829268985,"end_time":499.19512195122644,"midi_note":48,"velocity":80,"confidence":1.0},{"start_time":498.82926829268985,"end_time":499.19512195122644,"midi_note":60,"velocity":80,"confidence":1.0},{"start_time":499.56097560976303,"end_time":500.2926829268362,"midi_note":72,"velocity":80,"confidence":1.0},{"start_time":500.2926829268362,"end_time":500.6585365853728,"midi_note":60,"velocity":80,"confidence":1.0},{"start_time":500.2926829268362,"end_time":500.6585365853728,"midi_note":66,"velocity":80,"confidence":1.0},{"start_time":501.0243902439094,"end_time":501.390243902446,"midi_note":44,"velocity":80,"confidence":1.0},{"start_time":501.0243902439094,"end_time":501.390243902446,"midi_note":56,"velocity":80,"confidence":1.0},{"start_time":501.7560975609826,"end_time":505.7560975609826,"midi_note":79,"velocity":80,"confidence":1.0},{"start_time":505.7560975609826,"end_time":507.7560975609826,"midi_note":77,"velocity":80,"confidence":1.0},{"start_time":507.7560975609826,"end_time":509.7560975609826,"midi_note":75,"velocity":80,"confidence":1.0},{"start_time":509.7560975609826,"end_time":513.7560975609827,"midi_note":74,"velocity":80,"confidence":1.0},{"start_time":513.7560975609827,"end_time":514.2560975609827,"midi_note":75,"velocity":80,"confidence":1.0},{"start_time":514.2560975609827,"end_time":514.7560975609827,"midi_note":74,"velocity":80,"confidence":1.0},{"start_time":514.7560975609827,"end_time":515.2560975609827,"midi_note":72,"velocity":80,"confidence":1.0},{"start_time":515.2560975609827,"end_time":515.7560975609827,"midi_note":74,"velocity":80,"confidence":1.0},{"start_time":515.7560975609827,"end_time":517.7560975609827,"midi_note":77,"velocity":80,"confidence":1.0},{"start_time":517.7560975609827,"end_time":519.7560975609827,"midi_note":75,"velocity":80,"confidence":1.0},{"start_time":519.7560975609827,"end_time":521.7560975609827,"midi_note":74,"velocity":80,"confidence":1.0},{"start_time":521.7560975609827,"end_time":523.7560975609827,"midi_note":67,"velocity":80,"confidence":1.0},{"start_time":521.7560975609827,"end_time":523.7560975609827,"midi_note":71,"velocity":80,"confidence":1.0},{"start_time":523.7560975609827,"end_time":525.7560975609827,"midi_note":43,"velocity":80,"confidence":1.0},{"start_time":523.7560975609827,"end_time":525.7560975609827,"midi_note":55,"velocity":80,"confidence":1.0},{"start_time":543.9390243902509,"end_time":544.1219512195191,"midi_note":68,"velocity":80,"confidence":1.0},{"start_time":544.1219512195191,"end_time":544.3048780487874,"midi_note":68,"velocity":80,"confidence":1.0},{"start_time":544.3048780487874,"end_time":544.4878048780556,"midi_note":68,"velocity":80,"confidence":1.0},{"start_time":545.2195121951288,"end_time":545.951219512202,"midi_note":65,"velocity":80,"confidence":1.0},{"start_time":546.1341463414702,"end_time":546.3170731707385,"midi_note":62,"velocity":80,"confidence":1.0},{"start_time":546.3170731707385,"end_time":546.5000000000067,"midi_note":62,"velocity":80,"confidence":1.0},{"start_time":546.5000000000067,"end_time":546.682926829275,"midi_note":62,"velocity":80,"confidence":1.0},{"start_time":547.4146341463481,"end_time":548.1463414634213,"midi_note":65,"velocity":80,"confidence":1.0},{"start_time":548.1463414634213,"end_time":548.8780487804945,"midi_note":59,"velocity":80,"confidence":1.0},{"start_time":549.0609756097627,"end_time":549.243902439031,"midi_note":56,"velocity":80,"confidence":1.0},{"start_time":549.243902439031,"end_time":549.4268292682992,"midi_note":56,"velocity":80,"confidence":1.0},{"start_time":549.4268292682992,"end_time":549.6097560975675,"midi_note":56,"velocity":80,"confidence":1.0},{"start_time":550.3414634146407,"end_time":551.0731707317138,"midi_note":65,"velocity":80,"confidence":1.0},{"start_time":551.0731707317138,"end_time":551.804878048787,"midi_note":55,"velocity":80,"confidence":1.0},{"start_time":551.0731707317138,"end_time":551.804878048787,"midi_note":59,"velocity":80,"confidence":1.0},{"start_time":551.9878048780553,"end_time":552.1707317073235,"midi_note":31,"velocity":80,"confidence":1.0},{"start_time":551.9878048780553,"end_time":552.1707317073235,"midi_note":43,"velocity":80,"confidence":1.0},{"start_time":552.1707317073235,"end_time":552.3536585365918,"midi_note":31,"velocity":80,"confidence":1.0},{"start_time":552.1707317073235,"end_time":552.3536585365918,"midi_note":43,"velocity":80,"confidence":1.0},{"start_time":552.3536585365918,"end_time":552.53658536586,"midi_note":31,"velocity":80,"confidence":1.0},{"start_time":552.3536585365918,"end_time":552.53658536586,"midi_note":43,"velocity":80,"confidence":1.0},{"start_time":552.53658536586,"end_time":552.7195121951282,"midi_note":60,"velocity":80,"confidence":1.0},{"start_time":552.53658536586,"end_time":552.7195121951282,"midi_note":63,"velocity":80,"confidence":1.0},{"start_time":552.7195121951282,"end_time":552.9024390243965,"midi_note":68,"velocity":80,"confidence":1.0},{"start_time":552.9024390243965,"end_time":553.0853658536647,"midi_note":68,"velocity":80,"confidence":1.0},{"start_time":553.0853658536647,"end_time":553.268292682933,"midi_note":68,"velocity":80,"confidence":1.0},{"start_time":553.268292682933,"end_time":553.4512195122012,"midi_note":55,"velocity":80,"confidence":1.0},{"start_time":553.4512195122012,"end_time":553.6341463414694,"midi_note":36,"velocity":80,"confidence":1.0},{"start_time":553.6341463414694,"end_time":553.8170731707377,"midi_note":56,"velocity":80,"confidence":1.0},{"start_time":553.8170731707377,"end_time":554.0000000000059,"midi_note":56,"velocity":80,"confidence":1.0},{"start_time":554.0000000000059,"end_time":554.1829268292742,"midi_note":56,"velocity":80,"confidence":1.0},{"start_time":554.1829268292742,"end_time":554.9146341463473,"midi_note":62,"velocity":80,"confidence":1.0},{"start_time":554.1829268292742,"end_time":554.9146341463473,"midi_note":65,"velocity":80,"confidence":1.0},{"start_time":554.9146341463473,"end_time":555.0975609756156,"midi_note":53,"velocity":80,"confidence":1.0},{"start_time":555.0975609756156,"end_time":555.2804878048838,"midi_note":50,"velocity":80,"confidence":1.0},{"start_time":555.2804878048838,"end_time":555.4634146341521,"midi_note":50,"velocity":80,"confidence":1.0},{"start_time":555.4634146341521,"end_time":555.6463414634203,"midi_note":50,"velocity":80,"confidence":1.0},{"start_time":555.6463414634203,"end_time":556.3780487804935,"midi_note":62,"velocity":80,"confidence":1.0},{"start_time":555.6463414634203,"end_time":556.3780487804935,"midi_note":65,"velocity":80,"confidence":1.0},{"start_time":555.6463414634203,"end_time":556.3780487804935,"midi_note":71,"velocity":80,"confidence":1.0},{"start_time":556.3780487804935,"end_time":556.5609756097617,"midi_note":47,"velocity":80,"confidence":1.0},{"start_time":556.5609756097617,"end_time":556.74390243903,"midi_note":44,"velocity":80,"confidence":1.0},{"start_time":556.74390243903,"end_time":556.9268292682982,"midi_note":44,"velocity":80,"confidence":1.0},{"start_time":556.9268292682982,"end_time":557.1097560975664,"midi_note":44,"velocity":80,"confidence":1.0},{"start_time":557.1097560975664,"end_time":557.2926829268347,"midi_note":62,"velocity":80,"confidence":1.0},{"start_time":557.1097560975664,"end_time":557.2926829268347,"midi_note":65,"velocity":80,"confidence":1.0},{"start_time":557.1097560975664,"end_time":557.2926829268347,"midi_note":71,"velocity":80,"confidence":1.0},{"start_time":557.2926829268347,"end_time":557.4756097561029,"midi_note":62,"velocity":80,"confidence":1.0},{"start_time":557.2926829268347,"end_time":557.4756097561029,"midi_note":65,"velocity":80,"confidence":1.0},{"start_time":557.2926829268347,"end_time":557.4756097561029,"midi_note":71,"velocity":80,"confidence":1.0},{"start_time":557.4756097561029,"end_time":557.6585365853712,"midi_note":62,"velocity":80,"confidence":1.0},{"start_time":557.4756097561029,"end_time":557.6585365853712,"midi_note":65,"velocity":80,"confidence":1.0},{"start_time":557.4756097561029,"end_time":557.6585365853712,"midi_note":71,"velocity":80,"confidence":1.0},{"start_time":557.6585365853712,"end_time":557.8414634146394,"midi_note":62,"velocity":80,"confidence":1.0},{"start_time":557.6585365853712,"end_time":557.8414634146394,"midi_note":65,"velocity":80,"confidence":1.0},{"start_time":557.6585365853712,"end_time":557.8414634146394,"midi_note":71,"velocity":80,"confidence":1.0},{"start_time":557.8414634146394,"end_time":558.0243902439076,"midi_note":43,"velocity":80,"confidence":1.0},{"start_time":558.0243902439076,"end_time":558.2073170731759,"midi_note":55,"velocity":80,"confidence":1.0},{"start_time":558.2073170731759,"end_time":558.3902439024441,"midi_note":55,"velocity":80,"confidence":1.0},{"start_time":558.3902439024441,"end_time":558.5731707317124,"midi_note":55,"velocity":80,"confidence":1.0},{"start_time":558.5731707317124,"end_time":558.7560975609806,"midi_note":63,"velocity":80,"confidence":1.0},{"start_time":558.5731707317124,"end_time":558.7560975609806,"midi_note":72,"velocity":80,"confidence":1.0},{"start_time":558.7560975609806,"end_time":558.9390243902488,"midi_note":63,"velocity":80,"confidence":1.0},{"start_time":558.7560975609806,"end_time":558.9390243902488,"midi_note":67,"velocity":80,"confidence":1.0},{"start_time":558.9390243902488,"end_time":559.1219512195171,"midi_note":63,"velocity":80,"confidence":1.0},{"start_time":558.9390243902488,"end_time":559.1219512195171,"midi_note":72,"velocity":80,"confidence":1.0},{"start_time":559.1219512195171,"end_time":559.3048780487853,"midi_note":63,"velocity":80,"confidence":1.0},{"start_time":559.1219512195171,"end_time":559.3048780487853,"midi_note":72,"velocity":80,"confidence":1.0},{"start_time":559.3048780487853,"end_time":559.4878048780536,"midi_note":48,"velocity":80,"confidence":1.0},{"start_time":559.3048780487853,"end_time":559.4878048780536,"midi_note":60,"velocity":80,"confidence":1.0},{"start_time":559.4878048780536,"end_time":559.6707317073218,"midi_note":48,"velocity":80,"confidence":1.0},{"start_time":559.6707317073218,"end_time":559.85365853659,"midi_note":48,"velocity":80,"confidence":1.0},{"start_time":559.85365853659,"end_time":560.0365853658583,"midi_note":48,"velocity":80,"confidence":1.0},{"start_time":560.0365853658583,"end_time":560.7682926829315,"midi_note":62,"velocity":80,"confidence":1.0},{"start_time":560.0365853658583,"end_time":560.7682926829315,"midi_note":65,"velocity":80,"confidence":1.0},{"start_time":560.0365853658583,"end_time":560.7682926829315,"midi_note":72,"velocity":80,"confidence":1.0},{"start_time":560.9512195121997,"end_time":561.134146341468,"midi_note":53,"velocity":80,"confidence":1.0},{"start_time":560.9512195121997,"end_time":561.134146341468,"midi_note":56,"velocity":80,"confidence":1.0},{"start_time":561.134146341468,"end_time":561.3170731707362,"midi_note":53,"velocity":80,"confidence":1.0},{"start_time":561.134146341468,"end_time":561.3170731707362,"midi_note":56,"velocity":80,"confidence":1.0},{"start_time":561.3170731707362,"end_time":561.5000000000044,"midi_note":53,"velocity":80,"confidence":1.0},{"start_time":561.3170731707362,"end_time":561.5000000000044,"midi_note":56,"velocity":80,"confidence":1.0},{"start_time":561.5000000000044,"end_time":562.2317073170776,"midi_note":48,"velocity":80,"confidence":1.0},{"start_time":562.2317073170776,"end_time":562.4146341463459,"midi_note":62,"velocity":80,"confidence":1.0},{"start_time":562.2317073170776,"end_time":562.4146341463459,"midi_note":65,"velocity":80,"confidence":1.0},{"start_time":562.2317073170776,"end_time":562.4146341463459,"midi_note":71,"velocity":80,"confidence":1.0},{"start_time":562.4146341463459,"end_time":562.5975609756141,"midi_note":65,"velocity":80,"confidence":1.0},{"start_time":562.4146341463459,"end_time":562.5975609756141,"midi_note":68,"velocity":80,"confidence":1.0},{"start_time":562.4146341463459,"end_time":562.5975609756141,"midi_note":71,"velocity":80,"confidence":1.0},{"start_time":562.5975609756141,"end_time":562.7804878048823,"midi_note":65,"velocity":80,"confidence":1.0},{"start_time":562.5975609756141,"end_time":562.7804878048823,"midi_note":68,"velocity":80,"confidence":1.0},{"start_time":562.5975609756141,"end_time":562.7804878048823,"midi_note":71,"velocity":80,"confidence":1.0},{"start_time":562.7804878048823,"end_time":562.9634146341506,"midi_note":65,"velocity":80,"confidence":1.0},{"start_time":562.7804878048823,"end_time":562.9634146341506,"midi_note":74,"velocity":80,"confidence":1.0},{"start_time":562.9634146341506,"end_time":563.3292682926872,"midi_note":53,"velocity":80,"confidence":1.0},{"start_time":562.9634146341506,"end_time":563.3292682926872,"midi_note":56,"velocity":80,"confidence":1.0},{"start_time":563.6951219512238,"end_time":563.878048780492,"midi_note":48,"velocity":80,"confidence":1.0},{"start_time":563.878048780492,"end_time":564.0609756097602,"midi_note":48,"velocity":80,"confidence":1.0},{"start_time":564.0609756097602,"end_time":564.2439024390285,"midi_note":48,"velocity":80,"confidence":1.0},{"start_time":564.2439024390285,"end_time":564.4268292682967,"midi_note":48,"velocity":80,"confidence":1.0},{"start_time":564.4268292682967,"end_time":565.1585365853699,"midi_note":63,"velocity":80,"confidence":1.0},{"start_time":564.4268292682967,"end_time":565.1585365853699,"midi_note":67,"velocity":80,"confidence":1.0},{"start_time":564.4268292682967,"end_time":565.1585365853699,"midi_note":74,"velocity":80,"confidence":1.0},{"start_time":565.3414634146382,"end_time":565.5243902439064,"midi_note":51,"velocity":80,"confidence":1.0},{"start_time":565.3414634146382,"end_time":565.5243902439064,"midi_note":55,"velocity":80,"confidence":1.0},{"start_time":565.5243902439064,"end_time":565.7073170731746,"midi_note":51,"velocity":80,"confidence":1.0},{"start_time":565.5243902439064,"end_time":565.7073170731746,"midi_note":55,"velocity":80,"confidence":1.0},{"start_time":565.7073170731746,"end_time":565.8902439024429,"midi_note":51,"velocity":80,"confidence":1.0},{"start_time":565.7073170731746,"end_time":565.8902439024429,"midi_note":55,"velocity":80,"confidence":1.0},{"start_time":565.8902439024429,"end_time":566.6219512195161,"midi_note":48,"velocity":80,"confidence":1.0},{"start_time":566.6219512195161,"end_time":566.8048780487843,"midi_note":63,"velocity":80,"confidence":1.0},{"start_time":566.6219512195161,"end_time":566.8048780487843,"midi_note":67,"velocity":80,"confidence":1.0},{"start_time":566.6219512195161,"end_time":566.8048780487843,"midi_note":72,"velocity":80,"confidence":1.0},{"start_time":566.8048780487843,"end_time":566.9878048780525,"midi_note":63,"velocity":80,"confidence":1.0},{"start_time":566.8048780487843,"end_time":566.9878048780525,"midi_note":67,"velocity":80,"confidence":1.0},{"start_time":566.8048780487843,"end_time":566.9878048780525,"midi_note":72,"velocity":80,"confidence":1.0},{"start_time":566.9878048780525,"end_time":567.1707317073208,"midi_note":63,"velocity":80,"confidence":1.0},{"start_time":566.9878048780525,"end_time":567.1707317073208,"midi_note":67,"velocity":80,"confidence":1.0},{"start_time":566.9878048780525,"end_time":567.1707317073208,"midi_note":72,"velocity":80,"confidence":1.0},{"start_time":567.1707317073208,"end_time":567.353658536589,"midi_note":75,"velocity":80,"confidence":1.0},{"start_time":567.353658536589,"end_time":567.7195121951256,"midi_note":51,"velocity":80,"confidence":1.0},{"start_time":567.353658536589,"end_time":567.7195121951256,"midi_note":55,"velocity":80,"confidence":1.0},{"start_time":568.0853658536622,"end_time":568.2682926829305,"midi_note":48,"velocity":80,"confidence":1.0},{"start_time":568.2682926829305,"end_time":568.4512195121987,"midi_note":48,"velocity":80,"confidence":1.0},{"start_time":568.4512195121987,"end_time":568.6341463414669,"midi_note":48,"velocity":80,"confidence":1.0},{"start_time":568.6341463414669,"end_time":568.8170731707352,"midi_note":48,"velocity":80,"confidence":1.0},{"start_time":568.8170731707352,"end_time":569.0000000000034,"midi_note":65,"velocity":80,"confidence":1.0},{"start_time":568.8170731707352,"end_time":569.0000000000034,"midi_note":68,"velocity":80,"confidence":1.0},{"start_time":568.8170731707352,"end_time":569.0000000000034,"midi_note":75,"velocity":80,"confidence":1.0},{"start_time":569.0000000000034,"end_time":569.1829268292717,"midi_note":74,"velocity":80,"confidence":1.0},{"start_time":569.1829268292717,"end_time":569.3658536585399,"midi_note":74,"velocity":80,"confidence":1.0},{"start_time":569.3658536585399,"end_time":569.5487804878081,"midi_note":77,"velocity":80,"confidence":1.0},{"start_time":569.5487804878081,"end_time":569.9146341463447,"midi_note":48,"velocity":80,"confidence":1.0},{"start_time":569.5487804878081,"end_time":569.9146341463447,"midi_note":59,"velocity":80,"confidence":1.0},{"start_time":570.2804878048813,"end_time":570.4634146341496,"midi_note":67,"velocity":80,"confidence":1.0},{"start_time":570.2804878048813,"end_time":570.4634146341496,"midi_note":70,"velocity":80,"confidence":1.0},{"start_time":570.2804878048813,"end_time":570.4634146341496,"midi_note":77,"velocity":80,"confidence":1.0},{"start_time":570.4634146341496,"end_time":570.6463414634178,"midi_note":76,"velocity":80,"confidence":1.0},{"start_time":570.6463414634178,"end_time":570.829268292686,"midi_note":76,"velocity":80,"confidence":1.0},{"start_time":570.829268292686,"end_time":571.0121951219543,"midi_note":79,"velocity":80,"confidence":1.0},{"start_time":571.0121951219543,"end_time":571.3780487804909,"midi_note":48,"velocity":80,"confidence":1.0},{"start_time":571.0121951219543,"end_time":571.3780487804909,"midi_note":58,"velocity":80,"confidence":1.0},{"start_time":571.7439024390275,"end_time":571.9268292682957,"midi_note":68,"velocity":80,"confidence":1.0},{"start_time":571.7439024390275,"end_time":571.9268292682957,"midi_note":72,"velocity":80,"confidence":1.0},{"start_time":571.7439024390275,"end_time":571.9268292682957,"midi_note":79,"velocity":80,"confidence":1.0},{"start_time":571.9268292682957,"end_time":572.109756097564,"midi_note":77,"velocity":80,"confidence":1.0},{"start_time":572.109756097564,"end_time":572.2926829268322,"midi_note":77,"velocity":80,"confidence":1.0},{"start_time":572.2926829268322,"end_time":572.4756097561004,"midi_note":80,"velocity":80,"confidence":1.0},{"start_time":572.4756097561004,"end_time":572.841463414637,"midi_note":48,"velocity":80,"confidence":1.0},{"start_time":572.4756097561004,"end_time":572.841463414637,"midi_note":56,"velocity":80,"confidence":1.0},{"start_time":573.2073170731736,"end_time":573.3902439024419,"midi_note":70,"velocity":80,"confidence":1.0},{"start_time":573.2073170731736,"end_time":573.3902439024419,"midi_note":76,"velocity":80,"confidence":1.0},{"start_time":573.2073170731736,"end_time":573.3902439024419,"midi_note":80,"velocity":80,"confidence":1.0},{"start_time":573.3902439024419,"end_time":573.5731707317101,"midi_note":79,"velocity":80,"confidence":1.0},{"start_time":573.5731707317101,"end_time":573.7560975609783,"midi_note":79,"velocity":80,"confidence":1.0},{"start_time":573.7560975609783,"end_time":573.9390243902466,"midi_note":82,"velocity":80,"confidence":1.0},{"start_time":573.9390243902466,"end_time":574.3048780487832,"midi_note":48,"velocity":80,"confidence":1.0},{"start_time":573.9390243902466,"end_time":574.3048780487832,"midi_note":55,"velocity":80,"confidence":1.0},{"start_time":573.9390243902466,"end_time":574.3048780487832,"midi_note":58,"velocity":80,"confidence":1.0},{"start_time":574.6707317073198,"end_time":574.853658536588,"midi_note":72,"velocity":80,"confidence":1.0},{"start_time":574.6707317073198,"end_time":574.853658536588,"midi_note":77,"velocity":80,"confidence":1.0},{"start_time":574.6707317073198,"end_time":574.853658536588,"midi_note":82,"velocity":80,"confidence":1.0},{"start_time":574.853658536588,"end_time":575.0365853658562,"midi_note":80,"velocity":80,"confidence":1.0},{"start_time":575.0365853658562,"end_time":575.2195121951245,"midi_note":80,"velocity":80,"confidence":1.0},{"start_time":575.2195121951245,"end_time":575.4024390243927,"midi_note":84,"velocity":80,"confidence":1.0},{"start_time":575.4024390243927,"end_time":575.7682926829293,"midi_note":48,"velocity":80,"confidence":1.0},{"start_time":575.4024390243927,"end_time":575.7682926829293,"midi_note":53,"velocity":80,"confidence":1.0},{"start_time":575.4024390243927,"end_time":575.7682926829293,"midi_note":56,"velocity":80,"confidence":1.0},{"start_time":576.1341463414659,"end_time":576.3170731707341,"midi_note":77,"velocity":80,"confidence":1.0},{"start_time":576.1341463414659,"end_time":576.3170731707341,"midi_note":80,"velocity":80,"confidence":1.0},{"start_time":576.1341463414659,"end_time":576.3170731707341,"midi_note":84,"velocity":80,"confidence":1.0},{"start_time":576.3170731707341,"end_time":576.5000000000024,"midi_note":83,"velocity":80,"confidence":1.0},{"start_time":576.5000000000024,"end_time":576.6829268292706,"midi_note":83,"velocity":80,"confidence":1.0},{"start_time":576.6829268292706,"end_time":576.8658536585389,"midi_note":86,"velocity":80,"confidence":1.0},{"start_time":576.8658536585389,"end_time":577.2317073170755,"midi_note":48,"velocity":80,"confidence":1.0},{"start_time":576.8658536585389,"end_time":577.2317073170755,"midi_note":53,"velocity":80,"confidence":1.0},{"start_time":576.8658536585389,"end_time":577.2317073170755,"midi_note":56,"velocity":80,"confidence":1.0},{"start_time":577.597560975612,"end_time":577.7804878048803,"midi_note":75,"velocity":80,"confidence":1.0},{"start_time":577.597560975612,"end_time":577.7804878048803,"midi_note":79,"velocity":80,"confidence":1.0},{"start_time":577.597560975612,"end_time":577.7804878048803,"midi_note":84,"velocity":80,"confidence":1.0},{"start_time":577.7804878048803,"end_time":577.9634146341485,"midi_note":87,"velocity":80,"confidence":1.0},{"start_time":577.9634146341485,"end_time":578.1463414634168,"midi_note":87,"velocity":80,"confidence":1.0},{"start_time":578.1463414634168,"end_time":578.329268292685,"midi_note":87,"velocity":80,"confidence":1.0},{"start_time":578.329268292685,"end_time":578.6951219512216,"midi_note":36,"velocity":80,"confidence":1.0},{"start_time":578.329268292685,"end_time":578.6951219512216,"midi_note":48,"velocity":80,"confidence":1.0},{"start_time":578.6951219512216,"end_time":578.8780487804898,"midi_note":48,"velocity":80,"confidence":1.0},{"start_time":578.6951219512216,"end_time":578.8780487804898,"midi_note":51,"velocity":80,"confidence":1.0},{"start_time":578.6951219512216,"end_time":578.8780487804898,"midi_note":55,"velocity":80,"confidence":1.0},{"start_time":578.8780487804898,"end_time":579.0609756097581,"midi_note":60,"velocity":80,"confidence":1.0},{"start_time":579.0609756097581,"end_time":579.2439024390263,"midi_note":84,"velocity":80,"confidence":1.0},{"start_time":579.2439024390263,"end_time":579.4268292682946,"midi_note":79,"velocity":80,"confidence":1.0},{"start_time":579.4268292682946,"end_time":579.6097560975628,"midi_note":79,"velocity":80,"confidence":1.0},{"start_time":579.6097560975628,"end_time":579.792682926831,"midi_note":79,"velocity":80,"confidence":1.0},{"start_time":579.792682926831,"end_time":579.9756097560993,"midi_note":48,"velocity":80,"confidence":1.0},{"start_time":579.792682926831,"end_time":579.9756097560993,"midi_note":51,"velocity":80,"confidence":1.0},{"start_time":579.792682926831,"end_time":579.9756097560993,"midi_note":55,"velocity":80,"confidence":1.0},{"start_time":579.9756097560993,"end_time":580.1585365853675,"midi_note":60,"velocity":80,"confidence":1.0},{"start_time":580.1585365853675,"end_time":580.3414634146358,"midi_note":48,"velocity":80,"confidence":1.0},{"start_time":580.1585365853675,"end_time":580.3414634146358,"midi_note":51,"velocity":80,"confidence":1.0},{"start_time":580.1585365853675,"end_time":580.3414634146358,"midi_note":55,"velocity":80,"confidence":1.0},{"start_time":580.3414634146358,"end_time":580.524390243904,"midi_note":60,"velocity":80,"confidence":1.0},{"start_time":580.524390243904,"end_time":580.7073170731722,"midi_note":75,"velocity":80,"confidence":1.0},{"start_time":580.7073170731722,"end_time":580.8902439024405,"midi_note":72,"velocity":80,"confidence":1.0},{"start_time":580.8902439024405,"end_time":581.0731707317087,"midi_note":67,"velocity":80,"confidence":1.0},{"start_time":581.0731707317087,"end_time":581.256097560977,"midi_note":67,"velocity":80,"confidence":1.0},{"start_time":581.256097560977,"end_time":581.4390243902452,"midi_note":48,"velocity":80,"confidence":1.0},{"start_time":581.256097560977,"end_time":581.4390243902452,"midi_note":51,"velocity":80,"confidence":1.0},{"start_time":581.256097560977,"end_time":581.4390243902452,"midi_note":55,"velocity":80,"confidence":1.0},{"start_time":581.4390243902452,"end_time":581.6219512195134,"midi_note":60,"velocity":80,"confidence":1.0},{"start_time":581.6219512195134,"end_time":581.8048780487817,"midi_note":48,"velocity":80,"confidence":1.0},{"start_time":581.6219512195134,"end_time":581.8048780487817,"midi_note":51,"velocity":80,"confidence":1.0},{"start_time":581.6219512195134,"end_time":581.8048780487817,"midi_note":55,"velocity":80,"confidence":1.0},{"start_time":581.8048780487817,"end_time":581.9878048780499,"midi_note":60,"velocity":80,"confidence":1.0},{"start_time":581.9878048780499,"end_time":582.1707317073182,"midi_note":63,"velocity":80,"confidence":1.0},{"start_time":582.1707317073182,"end_time":582.3536585365864,"midi_note":60,"velocity":80,"confidence":1.0},{"start_time":582.3536585365864,"end_time":582.5365853658546,"midi_note":60,"velocity":80,"confidence":1.0},{"start_time":582.5365853658546,"end_time":582.7195121951229,"midi_note":60,"velocity":80,"confidence":1.0},{"start_time":582.7195121951229,"end_time":582.9024390243911,"midi_note":48,"velocity":80,"confidence":1.0},{"start_time":582.7195121951229,"end_time":582.9024390243911,"midi_note":51,"velocity":80,"confidence":1.0},{"start_time":582.9024390243911,"end_time":583.0853658536594,"midi_note":48,"velocity":80,"confidence":1.0},{"start_time":582.9024390243911,"end_time":583.0853658536594,"midi_note":51,"velocity":80,"confidence":1.0},{"start_time":582.9024390243911,"end_time":583.0853658536594,"midi_note":55,"velocity":80,"confidence":1.0},{"start_time":583.0853658536594,"end_time":583.2682926829276,"midi_note":48,"velocity":80,"confidence":1.0},{"start_time":583.0853658536594,"end_time":583.2682926829276,"midi_note":51,"velocity":80,"confidence":1.0},{"start_time":583.0853658536594,"end_time":583.2682926829276,"midi_note":55,"velocity":80,"confidence":1.0},{"start_time":583.2682926829276,"end_time":583.4512195121958,"midi_note":48,"velocity":80,"confidence":1.0},{"start_time":583.2682926829276,"end_time":583.4512195121958,"midi_note":51,"velocity":80,"confidence":1.0},{"start_time":583.2682926829276,"end_time":583.4512195121958,"midi_note":55,"velocity":80,"confidence":1.0},{"start_time":583.4512195121958,"end_time":583.6341463414641,"midi_note":59,"velocity":80,"confidence":1.0},{"start_time":583.6341463414641,"end_time":583.8170731707323,"midi_note":89,"velocity":80,"confidence":1.0},{"start_time":583.8170731707323,"end_time":584.0000000000006,"midi_note":86,"velocity":80,"confidence":1.0},{"start_time":584.0000000000006,"end_time":584.1829268292688,"midi_note":86,"velocity":80,"confidence":1.0},{"start_time":584.1829268292688,"end_time":584.365853658537,"midi_note":43,"velocity":80,"confidence":1.0},{"start_time":584.1829268292688,"end_time":584.365853658537,"midi_note":50,"velocity":80,"confidence":1.0},{"start_time":584.1829268292688,"end_time":584.365853658537,"midi_note":53,"velocity":80,"confidence":1.0},{"start_time":584.365853658537,"end_time":584.5487804878053,"midi_note":55,"velocity":80,"confidence":1.0},{"start_time":584.5487804878053,"end_time":584.7317073170735,"midi_note":43,"velocity":80,"confidence":1.0},{"start_time":584.5487804878053,"end_time":584.7317073170735,"midi_note":50,"velocity":80,"confidence":1.0},{"start_time":584.5487804878053,"end_time":584.7317073170735,"midi_note":53,"velocity":80,"confidence":1.0},{"start_time":584.7317073170735,"end_time":584.9146341463418,"midi_note":55,"velocity":80,"confidence":1.0},{"start_time":584.9146341463418,"end_time":585.09756097561,"midi_note":83,"velocity":80,"confidence":1.0},{"start_time":585.09756097561,"end_time":585.2804878048782,"midi_note":79,"velocity":80,"confidence":1.0},{"start_time":585.2804878048782,"end_time":585.4634146341465,"midi_note":77,"velocity":80,"confidence":1.0},{"start_time":585.4634146341465,"end_time":585.6463414634147,"midi_note":77,"velocity":80,"confidence":1.0},{"start_time":585.6463414634147,"end_time":585.829268292683,"midi_note":43,"velocity":80,"confidence":1.0},{"start_time":585.6463414634147,"end_time":585.829268292683,"midi_note":50,"velocity":80,"confidence":1.0},{"start_time":585.6463414634147,"end_time":585.829268292683,"midi_note":53,"velocity":80,"confidence":1.0},{"start_time":585.829268292683,"end_time":586.0121951219512,"midi_note":55,"velocity":80,"confidence":1.0},{"start_time":586.0121951219512,"end_time":586.1951219512194,"midi_note":43,"velocity":80,"confidence":1.0},{"start_time":586.0121951219512,"end_time":586.1951219512194,"midi_note":50,"velocity":80,"confidence":1.0},{"start_time":586.0121951219512,"end_time":586.1951219512194,"midi_note":53,"velocity":80,"confidence":1.0},{"start_time":586.1951219512194,"end_time":586.3780487804877,"midi_note":55,"velocity":80,"confidence":1.0},{"start_time":586.3780487804877,"end_time":586.5609756097559,"midi_note":74,"velocity":80,"confidence":1.0},{"start_time":586.5609756097559,"end_time":586.7439024390242,"midi_note":71,"velocity":80,"confidence":1.0},{"start_time":586.7439024390242,"end_time":586.9268292682924,"midi_note":67,"velocity":80,"confidence":1.0},{"start_time":586.9268292682924,"end_time":587.1097560975606,"midi_note":65,"velocity":80,"confidence":1.0},{"start_time":587.1097560975606,"end_time":587.2926829268289,"midi_note":43,"velocity":80,"confidence":1.0},{"start_time":587.1097560975606,"end_time":587.2926829268289,"midi_note":50,"velocity":80,"confidence":1.0},{"start_time":587.1097560975606,"end_time":587.2926829268289,"midi_note":53,"velocity":80,"confidence":1.0},{"start_time":587.2926829268289,"end_time":587.4756097560971,"midi_note":55,"velocity":80,"confidence":1.0},{"start_time":587.4756097560971,"end_time":587.6585365853654,"midi_note":43,"velocity":80,"confidence":1.0},{"start_time":587.4756097560971,"end_time":587.6585365853654,"midi_note":50,"velocity":80,"confidence":1.0},{"start_time":587.4756097560971,"end_time":587.6585365853654,"midi_note":53,"velocity":80,"confidence":1.0},{"start_time":587.6585365853654,"end_time":587.8414634146336,"midi_note":55,"velocity":80,"confidence":1.0},{"start_time":587.8414634146336,"end_time":588.0243902439018,"midi_note":62,"velocity":80,"confidence":1.0},{"start_time":588.0243902439018,"end_time":588.2073170731701,"midi_note":59,"velocity":80,"confidence":1.0},{"start_time":588.2073170731701,"end_time":588.3902439024383,"midi_note":55,"velocity":80,"confidence":1.0},{"start_time":588.2073170731701,"end_time":588.3902439024383,"midi_note":60,"velocity":80,"confidence":1.0},{"start_time":588.3902439024383,"end_time":588.5731707317066,"midi_note":55,"velocity":80,"confidence":1.0},{"start_time":588.3902439024383,"end_time":588.5731707317066,"midi_note":60,"velocity":80,"confidence":1.0},{"start_time":588.5731707317066,"end_time":588.7560975609748,"midi_note":43,"velocity":80,"confidence":1.0},{"start_time":588.5731707317066,"end_time":588.7560975609748,"midi_note":50,"velocity":80,"confidence":1.0},{"start_time":588.5731707317066,"end_time":588.7560975609748,"midi_note":53,"velocity":80,"confidence":1.0},{"start_time":588.7560975609748,"end_time":588.939024390243,"midi_note":55,"velocity":80,"confidence":1.0},{"start_time":588.939024390243,"end_time":589.1219512195113,"midi_note":48,"velocity":80,"confidence":1.0},{"start_time":588.939024390243,"end_time":589.1219512195113,"midi_note":51,"velocity":80,"confidence":1.0},{"start_time":589.1219512195113,"end_time":589.3048780487795,"midi_note":48,"velocity":80,"confidence":1.0},{"start_time":589.1219512195113,"end_time":589.3048780487795,"midi_note":51,"velocity":80,"confidence":1.0},{"start_time":589.3048780487795,"end_time":589.4878048780478,"midi_note":57,"velocity":80,"confidence":1.0},{"start_time":589.3048780487795,"end_time":589.4878048780478,"midi_note":60,"velocity":80,"confidence":1.0},{"start_time":589.3048780487795,"end_time":589.4878048780478,"midi_note":63,"velocity":80,"confidence":1.0},{"start_time":589.3048780487795,"end_time":589.4878048780478,"midi_note":66,"velocity":80,"confidence":1.0},{"start_time":589.4878048780478,"end_time":589.670731707316,"midi_note":75,"velocity":80,"confidence":1.0},{"start_time":589.4878048780478,"end_time":589.670731707316,"midi_note":87,"velocity":80,"confidence":1.0},{"start_time":589.670731707316,"end_time":589.8536585365842,"midi_note":75,"velocity":80,"confidence":1.0},{"start_time":589.670731707316,"end_time":589.8536585365842,"midi_note":87,"velocity":80,"confidence":1.0},{"start_time":589.8536585365842,"end_time":590.0365853658525,"midi_note":75,"velocity":80,"confidence":1.0},{"start_time":589.8536585365842,"end_time":590.0365853658525,"midi_note":87,"velocity":80,"confidence":1.0},{"start_time":590.0365853658525,"end_time":590.2195121951207,"midi_note":36,"velocity":80,"confidence":1.0},{"start_time":590.0365853658525,"end_time":590.2195121951207,"midi_note":48,"velocity":80,"confidence":1.0},{"start_time":590.2195121951207,"end_time":590.402439024389,"midi_note":63,"velocity":80,"confidence":1.0},{"start_time":590.402439024389,"end_time":590.5853658536572,"midi_note":63,"velocity":80,"confidence":1.0},{"start_time":590.5853658536572,"end_time":590.7682926829254,"midi_note":63,"velocity":80,"confidence":1.0},{"start_time":590.7682926829254,"end_time":590.9512195121937,"midi_note":72,"velocity":80,"confidence":1.0},{"start_time":590.7682926829254,"end_time":590.9512195121937,"midi_note":84,"velocity":80,"confidence":1.0},{"start_time":590.9512195121937,"end_time":591.1341463414619,"midi_note":69,"velocity":80,"confidence":1.0},{"start_time":590.9512195121937,"end_time":591.1341463414619,"midi_note":81,"velocity":80,"confidence":1.0},{"start_time":591.1341463414619,"end_time":591.3170731707302,"midi_note":69,"velocity":80,"confidence":1.0},{"start_time":591.1341463414619,"end_time":591.3170731707302,"midi_note":81,"velocity":80,"confidence":1.0},{"start_time":591.3170731707302,"end_time":591.4999999999984,"midi_note":69,"velocity":80,"confidence":1.0},{"start_time":591.3170731707302,"end_time":591.4999999999984,"midi_note":81,"velocity":80,"confidence":1.0},{"start_time":591.4999999999984,"end_time":591.6829268292666,"midi_note":60,"velocity":80,"confidence":1.0},{"start_time":591.6829268292666,"end_time":591.8658536585349,"midi_note":57,"velocity":80,"confidence":1.0},{"start_time":591.8658536585349,"end_time":592.0487804878031,"midi_note":57,"velocity":80,"confidence":1.0},{"start_time":592.0487804878031,"end_time":592.2317073170714,"midi_note":57,"velocity":80,"confidence":1.0},{"start_time":592.2317073170714,"end_time":592.4146341463396,"midi_note":78,"velocity":80,"confidence":1.0},{"start_time":592.4146341463396,"end_time":592.5975609756078,"midi_note":63,"velocity":80,"confidence":1.0},{"start_time":592.4146341463396,"end_time":592.5975609756078,"midi_note":75,"velocity":80,"confidence":1.0},{"start_time":592.5975609756078,"end_time":592.7804878048761,"midi_note":63,"velocity":80,"confidence":1.0},{"start_time":592.5975609756078,"end_time":592.7804878048761,"midi_note":75,"velocity":80,"confidence":1.0},{"start_time":592.7804878048761,"end_time":592.9634146341443,"midi_note":63,"velocity":80,"confidence":1.0},{"start_time":592.7804878048761,"end_time":592.9634146341443,"midi_note":75,"velocity":80,"confidence":1.0},{"start_time":592.9634146341443,"end_time":593.1463414634126,"midi_note":54,"velocity":80,"confidence":1.0},{"start_time":593.1463414634126,"end_time":593.3292682926808,"midi_note":51,"velocity":80,"confidence":1.0},{"start_time":593.3292682926808,"end_time":593.512195121949,"midi_note":51,"velocity":80,"confidence":1.0},{"start_time":593.512195121949,"end_time":593.6951219512173,"midi_note":51,"velocity":80,"confidence":1.0},{"start_time":593.6951219512173,"end_time":593.8780487804855,"midi_note":72,"velocity":80,"confidence":1.0},{"start_time":593.8780487804855,"end_time":594.0609756097538,"midi_note":57,"velocity":80,"confidence":1.0},{"start_time":593.8780487804855,"end_time":594.0609756097538,"midi_note":69,"velocity":80,"confidence":1.0},{"start_time":594.0609756097538,"end_time":594.243902439022,"midi_note":57,"velocity":80,"confidence":1.0},{"start_time":594.0609756097538,"end_time":594.243902439022,"midi_note":69,"velocity":80,"confidence":1.0},{"start_time":594.243902439022,"end_time":594.4268292682902,"midi_note":57,"velocity":80,"confidence":1.0},{"start_time":594.243902439022,"end_time":594.4268292682902,"midi_note":69,"velocity":80,"confidence":1.0},{"start_time":594.4268292682902,"end_time":594.6097560975585,"midi_note":48,"velocity":80,"confidence":1.0},{"start_time":594.6097560975585,"end_time":594.7926829268267,"midi_note":45,"velocity":80,"confidence":1.0},{"start_time":594.7926829268267,"end_time":594.975609756095,"midi_note":45,"velocity":80,"confidence":1.0},{"start_time":594.975609756095,"end_time":595.1585365853632,"midi_note":45,"velocity":80,"confidence":1.0},{"start_time":595.1585365853632,"end_time":595.5243902438998,"midi_note":57,"velocity":80,"confidence":1.0},{"start_time":595.1585365853632,"end_time":595.5243902438998,"midi_note":63,"velocity":80,"confidence":1.0},{"start_time":595.1585365853632,"end_time":595.5243902438998,"midi_note":66,"velocity":80,"confidence":1.0},{"start_time":595.8902439024364,"end_time":596.256097560973,"midi_note":36,"velocity":80,"confidence":1.0},{"start_time":595.8902439024364,"end_time":596.256097560973,"midi_note":48,"velocity":80,"confidence":1.0},{"start_time":598.085365853656,"end_time":598.4512195121926,"midi_note":55,"velocity":80,"confidence":1.0},{"start_time":598.085365853656,"end_time":598.4512195121926,"midi_note":62,"velocity":80,"confidence":1.0},{"start_time":598.085365853656,"end_time":598.4512195121926,"midi_note":67,"velocity":80,"confidence":1.0},{"start_time":598.8170731707291,"end_time":599.1829268292657,"midi_note":35,"velocity":80,"confidence":1.0},{"start_time":598.8170731707291,"end_time":599.1829268292657,"midi_note":43,"velocity":80,"confidence":1.0},{"start_time":598.8170731707291,"end_time":599.1829268292657,"midi_note":47,"velocity":80,"confidence":1.0},{"start_time":599.7317073170706,"end_time":599.9146341463388,"midi_note":67,"velocity":80,"confidence":1.0},{"start_time":599.9146341463388,"end_time":600.097560975607,"midi_note":67,"velocity":80,"confidence":1.0},{"start_time":600.097560975607,"end_time":600.2804878048753,"midi_note":67,"velocity":80,"confidence":1.0},{"start_time":601.7439024390216,"end_time":602.4756097560947,"midi_note":60,"velocity":80,"confidence":1.0},{"start_time":603.2073170731679,"end_time":603.9390243902411,"midi_note":62,"velocity":80,"confidence":1.0},{"start_time":605.4024390243875,"end_time":606.1341463414607,"midi_note":55,"velocity":80,"confidence":1.0},{"start_time":606.1341463414607,"end_time":606.4999999999973,"midi_note":67,"velocity":80,"confidence":1.0},{"start_time":606.4999999999973,"end_time":606.8658536585339,"midi_note":72,"velocity":80,"confidence":1.0},{"start_time":606.8658536585339,"end_time":607.597560975607,"midi_note":64,"velocity":80,"confidence":1.0},{"start_time":607.597560975607,"end_time":608.3292682926802,"midi_note":60,"velocity":80,"confidence":1.0},{"start_time":608.3292682926802,"end_time":609.0609756097534,"midi_note":55,"velocity":80,"confidence":1.0},{"start_time":609.0609756097534,"end_time":609.42682926829,"midi_note":71,"velocity":80,"confidence":1.0},{"start_time":609.42682926829,"end_time":609.7926829268266,"midi_note":72,"velocity":80,"confidence":1.0},{"start_time":609.7926829268266,"end_time":610.5243902438998,"midi_note":65,"velocity":80,"confidence":1.0},{"start_time":610.5243902438998,"end_time":611.256097560973,"midi_note":62,"velocity":80,"confidence":1.0},{"start_time":611.256097560973,"end_time":611.9878048780462,"midi_note":55,"velocity":80,"confidence":1.0},{"start_time":611.9878048780462,"end_time":612.3536585365828,"midi_note":74,"velocity":80,"confidence":1.0},{"start_time":612.3536585365828,"end_time":612.7195121951194,"midi_note":69,"velocity":80,"confidence":1.0},{"start_time":612.7195121951194,"end_time":613.4512195121926,"midi_note":65,"velocity":80,"confidence":1.0},{"start_time":613.4512195121926,"end_time":613.6341463414608,"midi_note":59,"velocity":80,"confidence":1.0},{"start_time":613.6341463414608,"end_time":613.817073170729,"midi_note":31,"velocity":80,"confidence":1.0},{"start_time":613.6341463414608,"end_time":613.817073170729,"midi_note":43,"velocity":80,"confidence":1.0},{"start_time":613.817073170729,"end_time":613.9999999999973,"midi_note":31,"velocity":80,"confidence":1.0},{"start_time":613.817073170729,"end_time":613.9999999999973,"midi_note":43,"velocity":80,"confidence":1.0},{"start_time":613.9999999999973,"end_time":614.1829268292655,"midi_note":31,"velocity":80,"confidence":1.0},{"start_time":613.9999999999973,"end_time":614.1829268292655,"midi_note":43,"velocity":80,"confidence":1.0},{"start_time":614.1829268292655,"end_time":614.3658536585338,"midi_note":55,"velocity":80,"confidence":1.0},{"start_time":614.3658536585338,"end_time":614.7317073170703,"midi_note":69,"velocity":80,"confidence":1.0},{"start_time":614.7317073170703,"end_time":615.0975609756069,"midi_note":67,"velocity":80,"confidence":1.0},{"start_time":615.0975609756069,"end_time":615.8292682926801,"midi_note":60,"velocity":80,"confidence":1.0},{"start_time":615.0975609756069,"end_time":615.8292682926801,"midi_note":64,"velocity":80,"confidence":1.0},{"start_time":615.8292682926801,"end_time":616.1951219512167,"midi_note":36,"velocity":80,"confidence":1.0},{"start_time":616.5609756097533,"end_time":616.9268292682899,"midi_note":79,"velocity":80,"confidence":1.0},{"start_time":616.9268292682899,"end_time":617.2926829268265,"midi_note":84,"velocity":80,"confidence":1.0},{"start_time":617.2926829268265,"end_time":618.0243902438997,"midi_note":72,"velocity":80,"confidence":1.0},{"start_time":617.2926829268265,"end_time":618.0243902438997,"midi_note":76,"velocity":80,"confidence":1.0},{"start_time":618.0243902438997,"end_time":618.7560975609729,"midi_note":64,"velocity":80,"confidence":1.0},{"start_time":618.0243902438997,"end_time":618.7560975609729,"midi_note":67,"velocity":80,"confidence":1.0},{"start_time":618.7560975609729,"end_time":619.4878048780461,"midi_note":55,"velocity":80,"confidence":1.0},{"start_time":619.4878048780461,"end_time":619.8536585365827,"midi_note":83,"velocity":80,"confidence":1.0},{"start_time":619.8536585365827,"end_time":620.2195121951193,"midi_note":84,"velocity":80,"confidence":1.0},{"start_time":620.2195121951193,"end_time":620.9512195121924,"midi_note":74,"velocity":80,"confidence":1.0},{"start_time":620.2195121951193,"end_time":620.9512195121924,"midi_note":77,"velocity":80,"confidence":1.0},{"start_time":620.9512195121924,"end_time":621.6829268292656,"midi_note":62,"velocity":80,"confidence":1.0},{"start_time":620.9512195121924,"end_time":621.6829268292656,"midi_note":65,"velocity":80,"confidence":1.0},{"start_time":621.6829268292656,"end_time":622.4146341463388,"midi_note":55,"velocity":80,"confidence":1.0},{"start_time":622.4146341463388,"end_time":622.7804878048754,"midi_note":86,"velocity":80,"confidence":1.0},{"start_time":622.7804878048754,"end_time":623.146341463412,"midi_note":81,"velocity":80,"confidence":1.0},{"start_time":623.146341463412,"end_time":623.8780487804852,"midi_note":77,"velocity":80,"confidence":1.0},{"start_time":623.8780487804852,"end_time":624.0609756097534,"midi_note":59,"velocity":80,"confidence":1.0},{"start_time":623.8780487804852,"end_time":624.0609756097534,"midi_note":62,"velocity":80,"confidence":1.0},{"start_time":624.6097560975583,"end_time":624.7926829268265,"midi_note":55,"velocity":80,"confidence":1.0},{"start_time":624.7926829268265,"end_time":624.9756097560947,"midi_note":43,"velocity":80,"confidence":1.0},{"start_time":624.9756097560947,"end_time":625.158536585363,"midi_note":43,"velocity":80,"confidence":1.0},{"start_time":625.158536585363,"end_time":625.3414634146312,"midi_note":43,"velocity":80,"confidence":1.0},{"start_time":625.3414634146312,"end_time":625.7073170731678,"midi_note":81,"velocity":80,"confidence":1.0},{"start_time":625.7073170731678,"end_time":626.0731707317044,"midi_note":79,"velocity":80,"confidence":1.0},{"start_time":626.0731707317044,"end_time":626.8048780487776,"midi_note":72,"velocity":80,"confidence":1.0},{"start_time":626.0731707317044,"end_time":626.8048780487776,"midi_note":76,"velocity":80,"confidence":1.0},{"start_time":626.8048780487776,"end_time":627.1707317073142,"midi_note":36,"velocity":80,"confidence":1.0},{"start_time":626.8048780487776,"end_time":627.1707317073142,"midi_note":48,"velocity":80,"confidence":1.0},{"start_time":627.5365853658508,"end_time":627.9024390243874,"midi_note":67,"velocity":80,"confidence":1.0},{"start_time":627.9024390243874,"end_time":628.268292682924,"midi_note":72,"velocity":80,"confidence":1.0},{"start_time":628.268292682924,"end_time":628.9999999999972,"midi_note":64,"velocity":80,"confidence":1.0},{"start_time":628.9999999999972,"end_time":629.7317073170703,"midi_note":60,"velocity":80,"confidence":1.0},{"start_time":629.7317073170703,"end_time":630.4634146341435,"midi_note":55,"velocity":80,"confidence":1.0},{"start_time":630.4634146341435,"end_time":630.8292682926801,"midi_note":71,"velocity":80,"confidence":1.0},{"start_time":630.8292682926801,"end_time":631.1951219512167,"midi_note":72,"velocity":80,"confidence":1.0},{"start_time":631.1951219512167,"end_time":631.9268292682899,"midi_note":65,"velocity":80,"confidence":1.0},{"start_time":631.9268292682899,"end_time":632.6585365853631,"midi_note":62,"velocity":80,"confidence":1.0},{"start_time":632.6585365853631,"end_time":633.3902439024363,"midi_note":55,"velocity":80,"confidence":1.0},{"start_time":633.3902439024363,"end_time":633.7560975609729,"midi_note":74,"velocity":80,"confidence":1.0},{"start_time":633.7560975609729,"end_time":634.1219512195095,"midi_note":69,"velocity":80,"confidence":1.0},{"start_time":634.1219512195095,"end_time":634.8536585365827,"midi_note":65,"velocity":80,"confidence":1.0},{"start_time":634.8536585365827,"end_time":635.0365853658509,"midi_note":59,"velocity":80,"confidence":1.0},{"start_time":635.0365853658509,"end_time":635.2195121951191,"midi_note":43,"velocity":80,"confidence":1.0},{"start_time":635.2195121951191,"end_time":635.4024390243874,"midi_note":43,"velocity":80,"confidence":1.0},{"start_time":635.4024390243874,"end_time":635.5853658536556,"midi_note":43,"velocity":80,"confidence":1.0},{"start_time":635.5853658536556,"end_time":635.7682926829239,"midi_note":55,"velocity":80,"confidence":1.0},{"start_time":635.7682926829239,"end_time":636.1341463414605,"midi_note":69,"velocity":80,"confidence":1.0},{"start_time":636.1341463414605,"end_time":636.499999999997,"midi_note":67,"velocity":80,"confidence":1.0},{"start_time":636.499999999997,"end_time":637.2317073170702,"midi_note":60,"velocity":80,"confidence":1.0},{"start_time":636.499999999997,"end_time":637.2317073170702,"midi_note":64,"velocity":80,"confidence":1.0},{"start_time":637.2317073170702,"end_time":637.5975609756068,"midi_note":36,"velocity":80,"confidence":1.0},{"start_time":637.2317073170702,"end_time":637.5975609756068,"midi_note":48,"velocity":80,"confidence":1.0},{"start_time":637.9634146341434,"end_time":638.32926829268,"midi_note":79,"velocity":80,"confidence":1.0},{"start_time":638.32926829268,"end_time":638.6951219512166,"midi_note":84,"velocity":80,"confidence":1.0},{"start_time":638.6951219512166,"end_time":639.4268292682898,"midi_note":72,"velocity":80,"confidence":1.0},{"start_time":638.6951219512166,"end_time":639.4268292682898,"midi_note":76,"velocity":80,"confidence":1.0},{"start_time":639.4268292682898,"end_time":640.158536585363,"midi_note":64,"velocity":80,"confidence":1.0},{"start_time":639.4268292682898,"end_time":640.158536585363,"midi_note":67,"velocity":80,"confidence":1.0},{"start_time":640.158536585363,"end_time":640.8902439024362,"midi_note":55,"velocity":80,"confidence":1.0},{"start_time":640.8902439024362,"end_time":641.2560975609728,"midi_note":83,"velocity":80,"confidence":1.0},{"start_time":641.2560975609728,"end_time":641.6219512195094,"midi_note":84,"velocity":80,"confidence":1.0},{"start_time":641.6219512195094,"end_time":642.3536585365825,"midi_note":74,"velocity":80,"confidence":1.0},{"start_time":641.6219512195094,"end_time":642.3536585365825,"midi_note":77,"velocity":80,"confidence":1.0},{"start_time":642.3536585365825,"end_time":643.0853658536557,"midi_note":62,"velocity":80,"confidence":1.0},{"start_time":642.3536585365825,"end_time":643.0853658536557,"midi_note":65,"velocity":80,"confidence":1.0},{"start_time":643.0853658536557,"end_time":643.8170731707289,"midi_note":55,"velocity":80,"confidence":1.0},{"start_time":643.8170731707289,"end_time":644.1829268292655,"midi_note":86,"velocity":80,"confidence":1.0},{"start_time":644.1829268292655,"end_time":644.5487804878021,"midi_note":81,"velocity":80,"confidence":1.0},{"start_time":644.5487804878021,"end_time":645.2804878048753,"midi_note":77,"velocity":80,"confidence":1.0},{"start_time":645.2804878048753,"end_time":645.4634146341435,"midi_note":59,"velocity":80,"confidence":1.0},{"start_time":645.2804878048753,"end_time":645.4634146341435,"midi_note":62,"velocity":80,"confidence":1.0},{"start_time":646.0121951219484,"end_time":646.1951219512166,"midi_note":55,"velocity":80,"confidence":1.0},{"start_time":646.1951219512166,"end_time":646.3780487804848,"midi_note":43,"velocity":80,"confidence":1.0},{"start_time":646.3780487804848,"end_time":646.5609756097531,"midi_note":43,"velocity":80,"confidence":1.0},{"start_time":646.5609756097531,"end_time":646.7439024390213,"midi_note":43,"velocity":80,"confidence":1.0},{"start_time":646.7439024390213,"end_time":647.1097560975579,"midi_note":81,"velocity":80,"confidence":1.0},{"start_time":647.1097560975579,"end_time":647.4756097560945,"midi_note":79,"velocity":80,"confidence":1.0},{"start_time":647.4756097560945,"end_time":648.2073170731677,"midi_note":72,"velocity":80,"confidence":1.0},{"start_time":647.4756097560945,"end_time":648.2073170731677,"midi_note":76,"velocity":80,"confidence":1.0},{"start_time":648.2073170731677,"end_time":648.5731707317043,"midi_note":36,"velocity":80,"confidence":1.0},{"start_time":648.2073170731677,"end_time":648.5731707317043,"midi_note":48,"velocity":80,"confidence":1.0},{"start_time":648.9390243902409,"end_time":649.3048780487775,"midi_note":70,"velocity":80,"confidence":1.0},{"start_time":649.3048780487775,"end_time":649.6707317073141,"midi_note":72,"velocity":80,"confidence":1.0},{"start_time":649.6707317073141,"end_time":650.4024390243873,"midi_note":67,"velocity":80,"confidence":1.0},{"start_time":649.6707317073141,"end_time":650.4024390243873,"midi_note":70,"velocity":80,"confidence":1.0},{"start_time":650.4024390243873,"end_time":651.1341463414605,"midi_note":55,"velocity":80,"confidence":1.0},{"start_time":650.4024390243873,"end_time":651.1341463414605,"midi_note":58,"velocity":80,"confidence":1.0},{"start_time":651.1341463414605,"end_time":651.499999999997,"midi_note":73,"velocity":80,"confidence":1.0},{"start_time":651.499999999997,"end_time":651.8658536585336,"midi_note":72,"velocity":80,"confidence":1.0},{"start_time":651.8658536585336,"end_time":652.5975609756068,"midi_note":64,"velocity":80,"confidence":1.0},{"start_time":651.8658536585336,"end_time":652.5975609756068,"midi_note":67,"velocity":80,"confidence":1.0},{"start_time":652.5975609756068,"end_time":653.32926829268,"midi_note":52,"velocity":80,"confidence":1.0},{"start_time":652.5975609756068,"end_time":653.32926829268,"midi_note":55,"velocity":80,"confidence":1.0},{"start_time":653.32926829268,"end_time":653.6951219512166,"midi_note":70,"velocity":80,"confidence":1.0},{"start_time":653.6951219512166,"end_time":654.0609756097532,"midi_note":72,"velocity":80,"confidence":1.0},{"start_time":654.0609756097532,"end_time":654.7926829268264,"midi_note":64,"velocity":80,"confidence":1.0},{"start_time":654.0609756097532,"end_time":654.7926829268264,"midi_note":67,"velocity":80,"confidence":1.0},{"start_time":654.9756097560946,"end_time":655.1585365853629,"midi_note":36,"velocity":80,"confidence":1.0},{"start_time":654.9756097560946,"end_time":655.1585365853629,"midi_note":48,"velocity":80,"confidence":1.0},{"start_time":655.1585365853629,"end_time":655.3414634146311,"midi_note":36,"velocity":80,"confidence":1.0},{"start_time":655.1585365853629,"end_time":655.3414634146311,"midi_note":48,"velocity":80,"confidence":1.0},{"start_time":655.3414634146311,"end_time":655.5243902438993,"midi_note":36,"velocity":80,"confidence":1.0},{"start_time":655.3414634146311,"end_time":655.5243902438993,"midi_note":48,"velocity":80,"confidence":1.0},{"start_time":655.5243902438993,"end_time":655.8902439024359,"midi_note":70,"velocity":80,"confidence":1.0},{"start_time":655.8902439024359,"end_time":656.2560975609725,"midi_note":69,"velocity":80,"confidence":1.0},{"start_time":656.2560975609725,"end_time":656.9878048780457,"midi_note":60,"velocity":80,"confidence":1.0},{"start_time":656.2560975609725,"end_time":656.9878048780457,"midi_note":65,"velocity":80,"confidence":1.0},{"start_time":656.9878048780457,"end_time":657.3536585365823,"midi_note":41,"velocity":80,"confidence":1.0},{"start_time":656.9878048780457,"end_time":657.3536585365823,"midi_note":53,"velocity":80,"confidence":1.0},{"start_time":657.7195121951189,"end_time":658.0853658536555,"midi_note":72,"velocity":80,"confidence":1.0},{"start_time":658.0853658536555,"end_time":658.4512195121921,"midi_note":74,"velocity":80,"confidence":1.0},{"start_time":658.4512195121921,"end_time":659.1829268292653,"midi_note":65,"velocity":80,"confidence":1.0},{"start_time":658.4512195121921,"end_time":659.1829268292653,"midi_note":69,"velocity":80,"confidence":1.0},{"start_time":659.1829268292653,"end_time":659.9146341463385,"midi_note":57,"velocity":80,"confidence":1.0},{"start_time":659.1829268292653,"end_time":659.9146341463385,"midi_note":60,"velocity":80,"confidence":1.0},{"start_time":659.9146341463385,"end_time":660.2804878048751,"midi_note":75,"velocity":80,"confidence":1.0},{"start_time":660.2804878048751,"end_time":660.6463414634117,"midi_note":74,"velocity":80,"confidence":1.0},{"start_time":660.6463414634117,"end_time":661.3780487804848,"midi_note":66,"velocity":80,"confidence":1.0},{"start_time":660.6463414634117,"end_time":661.3780487804848,"midi_note":69,"velocity":80,"confidence":1.0},{"start_time":661.3780487804848,"end_time":662.109756097558,"midi_note":54,"velocity":80,"confidence":1.0},{"start_time":661.3780487804848,"end_time":662.109756097558,"midi_note":57,"velocity":80,"confidence":1.0},{"start_time":662.109756097558,"end_time":662.4756097560946,"midi_note":72,"velocity":80,"confidence":1.0},{"start_time":662.4756097560946,"end_time":662.8414634146312,"midi_note":74,"velocity":80,"confidence":1.0},{"start_time":662.8414634146312,"end_time":663.5731707317044,"midi_note":66,"velocity":80,"confidence":1.0},{"start_time":662.8414634146312,"end_time":663.5731707317044,"midi_note":69,"velocity":80,"confidence":1.0},{"start_time":663.7560975609726,"end_time":663.9390243902409,"midi_note":38,"velocity":80,"confidence":1.0},{"start_time":663.7560975609726,"end_time":663.9390243902409,"midi_note":50,"velocity":80,"confidence":1.0},{"start_time":663.9390243902409,"end_time":664.1219512195091,"midi_note":38,"velocity":80,"confidence":1.0},{"start_time":663.9390243902409,"end_time":664.1219512195091,"midi_note":50,"velocity":80,"confidence":1.0},{"start_time":664.1219512195091,"end_time":664.3048780487774,"midi_note":38,"velocity":80,"confidence":1.0},{"start_time":664.1219512195091,"end_time":664.3048780487774,"midi_note":50,"velocity":80,"confidence":1.0},{"start_time":664.3048780487774,"end_time":664.670731707314,"midi_note":72,"velocity":80,"confidence":1.0},{"start_time":664.670731707314,"end_time":665.0365853658506,"midi_note":71,"velocity":80,"confidence":1.0},{"start_time":665.0365853658506,"end_time":665.7682926829237,"midi_note":62,"velocity":80,"confidence":1.0},{"start_time":665.0365853658506,"end_time":665.7682926829237,"midi_note":67,"velocity":80,"confidence":1.0},{"start_time":665.7682926829237,"end_time":666.1341463414603,"midi_note":43,"velocity":80,"confidence":1.0},{"start_time":665.7682926829237,"end_time":666.1341463414603,"midi_note":55,"velocity":80,"confidence":1.0},{"start_time":666.4999999999969,"end_time":666.8658536585335,"midi_note":65,"velocity":80,"confidence":1.0},{"start_time":666.4999999999969,"end_time":666.8658536585335,"midi_note":77,"velocity":80,"confidence":1.0},{"start_time":666.8658536585335,"end_time":667.2317073170701,"midi_note":67,"velocity":80,"confidence":1.0},{"start_time":666.8658536585335,"end_time":667.2317073170701,"midi_note":79,"velocity":80,"confidence":1.0},{"start_time":667.2317073170701,"end_time":667.9634146341433,"midi_note":56,"velocity":80,"confidence":1.0},{"start_time":667.9634146341433,"end_time":668.3292682926799,"midi_note":68,"velocity":80,"confidence":1.0},{"start_time":667.9634146341433,"end_time":668.3292682926799,"midi_note":80,"velocity":80,"confidence":1.0},{"start_time":668.3292682926799,"end_time":668.6951219512165,"midi_note":67,"velocity":80,"confidence":1.0},{"start_time":668.3292682926799,"end_time":668.6951219512165,"midi_note":79,"velocity":80,"confidence":1.0},{"start_time":668.6951219512165,"end_time":668.8780487804847,"midi_note":56,"velocity":80,"confidence":1.0},{"start_time":668.8780487804847,"end_time":669.060975609753,"midi_note":44,"velocity":80,"confidence":1.0},{"start_time":668.8780487804847,"end_time":669.060975609753,"midi_note":56,"velocity":80,"confidence":1.0},{"start_time":669.060975609753,"end_time":669.2439024390212,"midi_note":44,"velocity":80,"confidence":1.0},{"start_time":669.060975609753,"end_time":669.2439024390212,"midi_note":56,"velocity":80,"confidence":1.0},{"start_time":669.2439024390212,"end_time":669.4268292682895,"midi_note":44,"velocity":80,"confidence":1.0},{"start_time":669.2439024390212,"end_time":669.4268292682895,"midi_note":56,"velocity":80,"confidence":1.0},{"start_time":669.4268292682895,"end_time":669.792682926826,"midi_note":65,"velocity":80,"confidence":1.0},{"start_time":669.4268292682895,"end_time":669.792682926826,"midi_note":77,"velocity":80,"confidence":1.0},{"start_time":669.792682926826,"end_time":670.1585365853626,"midi_note":67,"velocity":80,"confidence":1.0},{"start_time":669.792682926826,"end_time":670.1585365853626,"midi_note":79,"velocity":80,"confidence":1.0},{"start_time":670.1585365853626,"end_time":670.5243902438992,"midi_note":44,"velocity":80,"confidence":1.0},{"start_time":670.1585365853626,"end_time":670.5243902438992,"midi_note":56,"velocity":80,"confidence":1.0},{"start_time":670.8902439024358,"end_time":671.2560975609724,"midi_note":68,"velocity":80,"confidence":1.0},{"start_time":670.8902439024358,"end_time":671.2560975609724,"midi_note":80,"velocity":80,"confidence":1.0},{"start_time":671.2560975609724,"end_time":671.621951219509,"midi_note":67,"velocity":80,"confidence":1.0},{"start_time":671.2560975609724,"end_time":671.621951219509,"midi_note":79,"velocity":80,"confidence":1.0},{"start_time":671.8048780487773,"end_time":671.9878048780455,"midi_note":47,"velocity":80,"confidence":1.0},{"start_time":671.8048780487773,"end_time":671.9878048780455,"midi_note":59,"velocity":80,"confidence":1.0},{"start_time":671.9878048780455,"end_time":672.1707317073137,"midi_note":47,"velocity":80,"confidence":1.0},{"start_time":671.9878048780455,"end_time":672.1707317073137,"midi_note":59,"velocity":80,"confidence":1.0},{"start_time":672.1707317073137,"end_time":672.353658536582,"midi_note":47,"velocity":80,"confidence":1.0},{"start_time":672.1707317073137,"end_time":672.353658536582,"midi_note":59,"velocity":80,"confidence":1.0},{"start_time":672.353658536582,"end_time":672.7195121951186,"midi_note":65,"velocity":80,"confidence":1.0},{"start_time":672.353658536582,"end_time":672.7195121951186,"midi_note":77,"velocity":80,"confidence":1.0},{"start_time":672.7195121951186,"end_time":673.0853658536552,"midi_note":67,"velocity":80,"confidence":1.0},{"start_time":672.7195121951186,"end_time":673.0853658536552,"midi_note":79,"velocity":80,"confidence":1.0},{"start_time":673.0853658536552,"end_time":673.4512195121918,"midi_note":47,"velocity":80,"confidence":1.0},{"start_time":673.0853658536552,"end_time":673.4512195121918,"midi_note":59,"velocity":80,"confidence":1.0},{"start_time":673.8170731707283,"end_time":674.1829268292649,"midi_note":68,"velocity":80,"confidence":1.0},{"start_time":673.8170731707283,"end_time":674.1829268292649,"midi_note":80,"velocity":80,"confidence":1.0},{"start_time":674.1829268292649,"end_time":674.5487804878015,"midi_note":67,"velocity":80,"confidence":1.0},{"start_time":674.1829268292649,"end_time":674.5487804878015,"midi_note":79,"velocity":80,"confidence":1.0},{"start_time":674.7317073170698,"end_time":674.914634146338,"midi_note":50,"velocity":80,"confidence":1.0},{"start_time":674.7317073170698,"end_time":674.914634146338,"midi_note":62,"velocity":80,"confidence":1.0},{"start_time":674.914634146338,"end_time":675.0975609756063,"midi_note":50,"velocity":80,"confidence":1.0},{"start_time":674.914634146338,"end_time":675.0975609756063,"midi_note":62,"velocity":80,"confidence":1.0},{"start_time":675.0975609756063,"end_time":675.2804878048745,"midi_note":50,"velocity":80,"confidence":1.0},{"start_time":675.0975609756063,"end_time":675.2804878048745,"midi_note":62,"velocity":80,"confidence":1.0},{"start_time":675.2804878048745,"end_time":675.6463414634111,"midi_note":65,"velocity":80,"confidence":1.0},{"start_time":675.2804878048745,"end_time":675.6463414634111,"midi_note":77,"velocity":80,"confidence":1.0},{"start_time":675.6463414634111,"end_time":676.0121951219477,"midi_note":67,"velocity":80,"confidence":1.0},{"start_time":675.6463414634111,"end_time":676.0121951219477,"midi_note":79,"velocity":80,"confidence":1.0},{"start_time":676.0121951219477,"end_time":676.3780487804843,"midi_note":50,"velocity":80,"confidence":1.0},{"start_time":676.0121951219477,"end_time":676.3780487804843,"midi_note":62,"velocity":80,"confidence":1.0},{"start_time":676.7439024390209,"end_time":677.1097560975575,"midi_note":68,"velocity":80,"confidence":1.0},{"start_time":676.7439024390209,"end_time":677.1097560975575,"midi_note":80,"velocity":80,"confidence":1.0},{"start_time":677.1097560975575,"end_time":677.4756097560941,"midi_note":67,"velocity":80,"confidence":1.0},{"start_time":677.1097560975575,"end_time":677.4756097560941,"midi_note":79,"velocity":80,"confidence":1.0},{"start_time":677.6585365853623,"end_time":677.8414634146305,"midi_note":50,"velocity":80,"confidence":1.0},{"start_time":677.6585365853623,"end_time":677.8414634146305,"midi_note":62,"velocity":80,"confidence":1.0},{"start_time":677.8414634146305,"end_time":678.0243902438988,"midi_note":50,"velocity":80,"confidence":1.0},{"start_time":677.8414634146305,"end_time":678.0243902438988,"midi_note":62,"velocity":80,"confidence":1.0},{"start_time":678.0243902438988,"end_time":678.207317073167,"midi_note":50,"velocity":80,"confidence":1.0},{"start_time":678.0243902438988,"end_time":678.207317073167,"midi_note":62,"velocity":80,"confidence":1.0},{"start_time":678.207317073167,"end_time":678.5731707317036,"midi_note":66,"velocity":80,"confidence":1.0},{"start_time":678.207317073167,"end_time":678.5731707317036,"midi_note":78,"velocity":80,"confidence":1.0},{"start_time":678.5731707317036,"end_time":678.9390243902402,"midi_note":67,"velocity":80,"confidence":1.0},{"start_time":678.5731707317036,"end_time":678.9390243902402,"midi_note":79,"velocity":80,"confidence":1.0},{"start_time":678.9390243902402,"end_time":679.3048780487768,"midi_note":50,"velocity":80,"confidence":1.0},{"start_time":678.9390243902402,"end_time":679.3048780487768,"midi_note":62,"velocity":80,"confidence":1.0},{"start_time":679.6707317073134,"end_time":680.03658536585,"midi_note":69,"velocity":80,"confidence":1.0},{"start_time":679.6707317073134,"end_time":680.03658536585,"midi_note":81,"velocity":80,"confidence":1.0},{"start_time":680.03658536585,"end_time":680.4024390243866,"midi_note":67,"velocity":80,"confidence":1.0},{"start_time":680.03658536585,"end_time":680.4024390243866,"midi_note":79,"velocity":80,"confidence":1.0},{"start_time":680.5853658536548,"end_time":680.7682926829231,"midi_note":50,"velocity":80,"confidence":1.0},{"start_time":680.5853658536548,"end_time":680.7682926829231,"midi_note":62,"velocity":80,"confidence":1.0},{"start_time":680.7682926829231,"end_time":680.9512195121913,"midi_note":50,"velocity":80,"confidence":1.0},{"start_time":680.7682926829231,"end_time":680.9512195121913,"midi_note":62,"velocity":80,"confidence":1.0},{"start_time":680.9512195121913,"end_time":681.1341463414595,"midi_note":50,"velocity":80,"confidence":1.0},{"start_time":680.9512195121913,"end_time":681.1341463414595,"midi_note":62,"velocity":80,"confidence":1.0},{"start_time":681.1341463414595,"end_time":681.4999999999961,"midi_note":66,"velocity":80,"confidence":1.0},{"start_time":681.1341463414595,"end_time":681.4999999999961,"midi_note":78,"velocity":80,"confidence":1.0},{"start_time":681.4999999999961,"end_time":681.8658536585327,"midi_note":67,"velocity":80,"confidence":1.0},{"start_time":681.4999999999961,"end_time":681.8658536585327,"midi_note":79,"velocity":80,"confidence":1.0},{"start_time":681.8658536585327,"end_time":682.2317073170693,"midi_note":50,"velocity":80,"confidence":1.0},{"start_time":681.8658536585327,"end_time":682.2317073170693,"midi_note":62,"velocity":80,"confidence":1.0},{"start_time":682.5975609756059,"end_time":682.9634146341425,"midi_note":69,"velocity":80,"confidence":1.0},{"start_time":682.5975609756059,"end_time":682.9634146341425,"midi_note":81,"velocity":80,"confidence":1.0},{"start_time":682.9634146341425,"end_time":683.3292682926791,"midi_note":67,"velocity":80,"confidence":1.0},{"start_time":682.9634146341425,"end_time":683.3292682926791,"midi_note":79,"velocity":80,"confidence":1.0},{"start_time":683.6951219512157,"end_time":684.0609756097523,"midi_note":50,"velocity":80,"confidence":1.0},{"start_time":683.6951219512157,"end_time":684.0609756097523,"midi_note":53,"velocity":80,"confidence":1.0},{"start_time":683.6951219512157,"end_time":684.0609756097523,"midi_note":62,"velocity":80,"confidence":1.0},{"start_time":684.0609756097523,"end_time":684.4268292682889,"midi_note":66,"velocity":80,"confidence":1.0},{"start_time":684.0609756097523,"end_time":684.4268292682889,"midi_note":78,"velocity":80,"confidence":1.0},{"start_time":684.4268292682889,"end_time":684.7926829268255,"midi_note":67,"velocity":80,"confidence":1.0},{"start_time":684.4268292682889,"end_time":684.7926829268255,"midi_note":79,"velocity":80,"confidence":1.0},{"start_time":685.1585365853621,"end_time":685.5243902438987,"midi_note":50,"velocity":80,"confidence":1.0},{"start_time":685.1585365853621,"end_time":685.5243902438987,"midi_note":53,"velocity":80,"confidence":1.0},{"start_time":685.1585365853621,"end_time":685.5243902438987,"midi_note":62,"velocity":80,"confidence":1.0},{"start_time":685.5243902438987,"end_time":685.8902439024353,"midi_note":66,"velocity":80,"confidence":1.0},{"start_time":685.5243902438987,"end_time":685.8902439024353,"midi_note":78,"velocity":80,"confidence":1.0},{"start_time":685.8902439024353,"end_time":686.2560975609719,"midi_note":67,"velocity":80,"confidence":1.0},{"start_time":685.8902439024353,"end_time":686.2560975609719,"midi_note":79,"velocity":80,"confidence":1.0},{"start_time":686.6219512195084,"end_time":686.987804878045,"midi_note":50,"velocity":80,"confidence":1.0},{"start_time":686.6219512195084,"end_time":686.987804878045,"midi_note":53,"velocity":80,"confidence":1.0},{"start_time":686.6219512195084,"end_time":686.987804878045,"midi_note":62,"velocity":80,"confidence":1.0},{"start_time":686.987804878045,"end_time":687.3536585365816,"midi_note":66,"velocity":80,"confidence":1.0},{"start_time":686.987804878045,"end_time":687.3536585365816,"midi_note":78,"velocity":80,"confidence":1.0},{"start_time":687.3536585365816,"end_time":687.7195121951182,"midi_note":67,"velocity":80,"confidence":1.0},{"start_time":687.3536585365816,"end_time":687.7195121951182,"midi_note":79,"velocity":80,"confidence":1.0},{"start_time":688.0853658536548,"end_time":688.4512195121914,"midi_note":50,"velocity":80,"confidence":1.0},{"start_time":688.0853658536548,"end_time":688.4512195121914,"midi_note":53,"velocity":80,"confidence":1.0},{"start_time":688.0853658536548,"end_time":688.4512195121914,"midi_note":62,"velocity":80,"confidence":1.0},{"start_time":688.4512195121914,"end_time":689.1829268292646,"midi_note":71,"velocity":80,"confidence":1.0},{"start_time":688.4512195121914,"end_time":689.1829268292646,"midi_note":77,"velocity":80,"confidence":1.0},{"start_time":688.4512195121914,"end_time":689.1829268292646,"midi_note":79,"velocity":80,"confidence":1.0},{"start_time":689.1829268292646,"end_time":689.9146341463378,"midi_note":38,"velocity":80,"confidence":1.0},{"start_time":689.1829268292646,"end_time":689.9146341463378,"midi_note":43,"velocity":80,"confidence":1.0},{"start_time":689.1829268292646,"end_time":689.9146341463378,"midi_note":50,"velocity":80,"confidence":1.0},{"start_time":689.9146341463378,"end_time":690.097560975606,"midi_note":71,"velocity":80,"confidence":1.0},{"start_time":689.9146341463378,"end_time":690.097560975606,"midi_note":77,"velocity":80,"confidence":1.0},{"start_time":689.9146341463378,"end_time":690.097560975606,"midi_note":79,"velocity":80,"confidence":1.0},{"start_time":690.097560975606,"end_time":690.2804878048743,"midi_note":81,"velocity":80,"confidence":1.0},{"start_time":690.2804878048743,"end_time":690.4634146341425,"midi_note":79,"velocity":80,"confidence":1.0},{"start_time":690.4634146341425,"end_time":690.6463414634107,"midi_note":77,"velocity":80,"confidence":1.0},{"start_time":690.6463414634107,"end_time":690.829268292679,"midi_note":38,"velocity":80,"confidence":1.0},{"start_time":690.6463414634107,"end_time":690.829268292679,"midi_note":43,"velocity":80,"confidence":1.0},{"start_time":690.6463414634107,"end_time":690.829268292679,"midi_note":50,"velocity":80,"confidence":1.0},{"start_time":691.0121951219472,"end_time":691.3780487804838,"midi_note":35,"velocity":80,"confidence":1.0},{"start_time":691.0121951219472,"end_time":691.3780487804838,"midi_note":43,"velocity":80,"confidence":1.0},{"start_time":691.0121951219472,"end_time":691.3780487804838,"midi_note":47,"velocity":80,"confidence":1.0},{"start_time":691.3780487804838,"end_time":691.5609756097521,"midi_note":67,"velocity":80,"confidence":1.0},{"start_time":691.3780487804838,"end_time":691.5609756097521,"midi_note":72,"velocity":80,"confidence":1.0},{"start_time":691.3780487804838,"end_time":691.5609756097521,"midi_note":77,"velocity":80,"confidence":1.0},{"start_time":691.5609756097521,"end_time":691.7439024390203,"midi_note":76,"velocity":80,"confidence":1.0},{"start_time":691.7439024390203,"end_time":691.9268292682885,"midi_note":74,"velocity":80,"confidence":1.0},{"start_time":691.9268292682885,"end_time":692.1097560975568,"midi_note":72,"velocity":80,"confidence":1.0},{"start_time":692.1097560975568,"end_time":692.4756097560934,"midi_note":36,"velocity":80,"confidence":1.0},{"start_time":692.1097560975568,"end_time":692.4756097560934,"midi_note":43,"velocity":80,"confidence":1.0},{"start_time":692.1097560975568,"end_time":692.4756097560934,"midi_note":48,"velocity":80,"confidence":1.0},{"start_time":692.84146341463,"end_time":693.0243902438982,"midi_note":65,"velocity":80,"confidence":1.0},{"start_time":692.84146341463,"end_time":693.0243902438982,"midi_note":67,"velocity":80,"confidence":1.0},{"start_time":692.84146341463,"end_time":693.0243902438982,"midi_note":72,"velocity":80,"confidence":1.0},{"start_time":693.0243902438982,"end_time":693.2073170731665,"midi_note":71,"velocity":80,"confidence":1.0},{"start_time":693.2073170731665,"end_time":693.3902439024347,"midi_note":69,"velocity":80,"confidence":1.0},{"start_time":693.3902439024347,"end_time":693.5731707317029,"midi_note":71,"velocity":80,"confidence":1.0},{"start_time":693.5731707317029,"end_time":693.9390243902395,"midi_note":38,"velocity":80,"confidence":1.0},{"start_time":693.5731707317029,"end_time":693.9390243902395,"midi_note":41,"velocity":80,"confidence":1.0},{"start_time":693.5731707317029,"end_time":693.9390243902395,"midi_note":50,"velocity":80,"confidence":1.0},{"start_time":694.3048780487761,"end_time":694.4878048780444,"midi_note":64,"velocity":80,"confidence":1.0},{"start_time":694.3048780487761,"end_time":694.4878048780444,"midi_note":67,"velocity":80,"confidence":1.0},{"start_time":694.3048780487761,"end_time":694.4878048780444,"midi_note":74,"velocity":80,"confidence":1.0},{"start_time":694.4878048780444,"end_time":694.6707317073126,"midi_note":72,"velocity":80,"confidence":1.0},{"start_time":694.6707317073126,"end_time":694.8536585365808,"midi_note":67,"velocity":80,"confidence":1.0},{"start_time":694.8536585365808,"end_time":695.0365853658491,"midi_note":64,"velocity":80,"confidence":1.0},{"start_time":695.0365853658491,"end_time":695.4024390243857,"midi_note":40,"velocity":80,"confidence":1.0},{"start_time":695.0365853658491,"end_time":695.4024390243857,"midi_note":48,"velocity":80,"confidence":1.0},{"start_time":695.0365853658491,"end_time":695.4024390243857,"midi_note":52,"velocity":80,"confidence":1.0},{"start_time":695.7682926829223,"end_time":695.9512195121905,"midi_note":62,"velocity":80,"confidence":1.0},{"start_time":695.7682926829223,"end_time":695.9512195121905,"midi_note":71,"velocity":80,"confidence":1.0},{"start_time":695.9512195121905,"end_time":696.1341463414587,"midi_note":69,"velocity":80,"confidence":1.0},{"start_time":696.1341463414587,"end_time":696.317073170727,"midi_note":65,"velocity":80,"confidence":1.0},{"start_time":696.317073170727,"end_time":696.4999999999952,"midi_note":62,"velocity":80,"confidence":1.0},{"start_time":696.4999999999952,"end_time":696.8658536585318,"midi_note":41,"velocity":80,"confidence":1.0},{"start_time":696.4999999999952,"end_time":696.8658536585318,"midi_note":48,"velocity":80,"confidence":1.0},{"start_time":696.4999999999952,"end_time":696.8658536585318,"midi_note":50,"velocity":80,"confidence":1.0},{"start_time":696.4999999999952,"end_time":696.8658536585318,"midi_note":53,"velocity":80,"confidence":1.0},{"start_time":697.2317073170684,"end_time":697.4146341463367,"midi_note":60,"velocity":80,"confidence":1.0},{"start_time":697.2317073170684,"end_time":697.4146341463367,"midi_note":69,"velocity":80,"confidence":1.0},{"start_time":697.4146341463367,"end_time":697.5975609756049,"midi_note":67,"velocity":80,"confidence":1.0},{"start_time":697.5975609756049,"end_time":697.7804878048731,"midi_note":64,"velocity":80,"confidence":1.0},{"start_time":697.7804878048731,"end_time":697.9634146341414,"midi_note":60,"velocity":80,"confidence":1.0},{"start_time":697.9634146341414,"end_time":698.329268292678,"midi_note":43,"velocity":80,"confidence":1.0},{"start_time":697.9634146341414,"end_time":698.329268292678,"midi_note":48,"velocity":80,"confidence":1.0},{"start_time":697.9634146341414,"end_time":698.329268292678,"midi_note":52,"velocity":80,"confidence":1.0},{"start_time":697.9634146341414,"end_time":698.329268292678,"midi_note":55,"velocity":80,"confidence":1.0},{"start_time":698.8780487804828,"end_time":699.060975609751,"midi_note":78,"velocity":80,"confidence":1.0},{"start_time":699.060975609751,"end_time":699.2439024390193,"midi_note":79,"velocity":80,"confidence":1.0},{"start_time":699.2439024390193,"end_time":699.4268292682875,"midi_note":78,"velocity":80,"confidence":1.0},{"start_time":699.4268292682875,"end_time":699.7926829268241,"midi_note":43,"velocity":80,"confidence":1.0},{"start_time":699.4268292682875,"end_time":699.7926829268241,"midi_note":47,"velocity":80,"confidence":1.0},{"start_time":699.4268292682875,"end_time":699.7926829268241,"midi_note":50,"velocity":80,"confidence":1.0},{"start_time":699.4268292682875,"end_time":699.7926829268241,"midi_note":55,"velocity":80,"confidence":1.0},{"start_time":700.1585365853607,"end_time":700.341463414629,"midi_note":79,"velocity":80,"confidence":1.0},{"start_time":700.341463414629,"end_time":700.5243902438972,"midi_note":78,"velocity":80,"confidence":1.0},{"start_time":700.5243902438972,"end_time":700.7073170731654,"midi_note":79,"velocity":80,"confidence":1.0},{"start_time":700.7073170731654,"end_time":700.8902439024337,"midi_note":78,"velocity":80,"confidence":1.0},{"start_time":700.8902439024337,"end_time":701.2560975609703,"midi_note":35,"velocity":80,"confidence":1.0},{"start_time":700.8902439024337,"end_time":701.2560975609703,"midi_note":47,"velocity":80,"confidence":1.0},{"start_time":701.2560975609703,"end_time":701.6219512195069,"midi_note":38,"velocity":80,"confidence":1.0},{"start_time":701.2560975609703,"end_time":701.6219512195069,"midi_note":50,"velocity":80,"confidence":1.0},{"start_time":701.6219512195069,"end_time":701.8048780487751,"midi_note":79,"velocity":80,"confidence":1.0},{"start_time":701.8048780487751,"end_time":701.9878048780433,"midi_note":81,"velocity":80,"confidence":1.0},{"start_time":701.9878048780433,"end_time":702.1707317073116,"midi_note":79,"velocity":80,"confidence":1.0},{"start_time":702.1707317073116,"end_time":702.3536585365798,"midi_note":77,"velocity":80,"confidence":1.0},{"start_time":702.3536585365798,"end_time":702.7195121951164,"midi_note":35,"velocity":80,"confidence":1.0},{"start_time":702.3536585365798,"end_time":702.7195121951164,"midi_note":47,"velocity":80,"confidence":1.0},{"start_time":702.7195121951164,"end_time":703.085365853653,"midi_note":38,"velocity":80,"confidence":1.0},{"start_time":702.7195121951164,"end_time":703.085365853653,"midi_note":50,"velocity":80,"confidence":1.0},{"start_time":703.085365853653,"end_time":703.2682926829212,"midi_note":67,"velocity":80,"confidence":1.0},{"start_time":703.085365853653,"end_time":703.2682926829212,"midi_note":72,"velocity":80,"confidence":1.0},{"start_time":703.085365853653,"end_time":703.2682926829212,"midi_note":77,"velocity":80,"confidence":1.0},{"start_time":703.2682926829212,"end_time":703.4512195121895,"midi_note":76,"velocity":80,"confidence":1.0},{"start_time":703.4512195121895,"end_time":703.6341463414577,"midi_note":74,"velocity":80,"confidence":1.0},{"start_time":703.6341463414577,"end_time":703.817073170726,"midi_note":72,"velocity":80,"confidence":1.0},{"start_time":703.817073170726,"end_time":704.1829268292626,"midi_note":36,"velocity":80,"confidence":1.0},{"start_time":703.817073170726,"end_time":704.1829268292626,"midi_note":48,"velocity":80,"confidence":1.0},{"start_time":704.1829268292626,"end_time":704.5487804877991,"midi_note":40,"velocity":80,"confidence":1.0},{"start_time":704.1829268292626,"end_time":704.5487804877991,"midi_note":52,"velocity":80,"confidence":1.0},{"start_time":704.5487804877991,"end_time":704.7317073170674,"midi_note":65,"velocity":80,"confidence":1.0},{"start_time":704.5487804877991,"end_time":704.7317073170674,"midi_note":67,"velocity":80,"confidence":1.0},{"start_time":704.5487804877991,"end_time":704.7317073170674,"midi_note":72,"velocity":80,"confidence":1.0},{"start_time":704.7317073170674,"end_time":704.9146341463356,"midi_note":71,"velocity":80,"confidence":1.0},{"start_time":704.9146341463356,"end_time":705.0975609756039,"midi_note":69,"velocity":80,"confidence":1.0},{"start_time":705.0975609756039,"end_time":705.2804878048721,"midi_note":71,"velocity":80,"confidence":1.0},{"start_time":705.2804878048721,"end_time":705.6463414634087,"midi_note":38,"velocity":80,"confidence":1.0},{"start_time":705.2804878048721,"end_time":705.6463414634087,"midi_note":50,"velocity":80,"confidence":1.0},{"start_time":705.6463414634087,"end_time":706.0121951219453,"midi_note":41,"velocity":80,"confidence":1.0},{"start_time":705.6463414634087,"end_time":706.0121951219453,"midi_note":53,"velocity":80,"confidence":1.0},{"start_time":706.0121951219453,"end_time":706.1951219512135,"midi_note":64,"velocity":80,"confidence":1.0},{"start_time":706.0121951219453,"end_time":706.1951219512135,"midi_note":67,"velocity":80,"confidence":1.0},{"start_time":706.0121951219453,"end_time":706.1951219512135,"midi_note":74,"velocity":80,"confidence":1.0},{"start_time":706.1951219512135,"end_time":706.3780487804818,"midi_note":72,"velocity":80,"confidence":1.0},{"start_time":706.3780487804818,"end_time":706.56097560975,"midi_note":67,"velocity":80,"confidence":1.0},{"start_time":706.56097560975,"end_time":706.7439024390183,"midi_note":64,"velocity":80,"confidence":1.0},{"start_time":706.7439024390183,"end_time":707.1097560975549,"midi_note":40,"velocity":80,"confidence":1.0},{"start_time":706.7439024390183,"end_time":707.1097560975549,"midi_note":52,"velocity":80,"confidence":1.0},{"start_time":707.1097560975549,"end_time":707.4756097560914,"midi_note":43,"velocity":80,"confidence":1.0},{"start_time":707.1097560975549,"end_time":707.4756097560914,"midi_note":55,"velocity":80,"confidence":1.0},{"start_time":707.4756097560914,"end_time":707.6585365853597,"midi_note":62,"velocity":80,"confidence":1.0},{"start_time":707.4756097560914,"end_time":707.6585365853597,"midi_note":71,"velocity":80,"confidence":1.0},{"start_time":707.6585365853597,"end_time":707.8414634146279,"midi_note":69,"velocity":80,"confidence":1.0},{"start_time":707.8414634146279,"end_time":708.0243902438962,"midi_note":65,"velocity":80,"confidence":1.0},{"start_time":708.0243902438962,"end_time":708.2073170731644,"midi_note":62,"velocity":80,"confidence":1.0},{"start_time":708.2073170731644,"end_time":708.573170731701,"midi_note":41,"velocity":80,"confidence":1.0},{"start_time":708.2073170731644,"end_time":708.573170731701,"midi_note":53,"velocity":80,"confidence":1.0},{"start_time":708.573170731701,"end_time":708.9390243902376,"midi_note":45,"velocity":80,"confidence":1.0},{"start_time":708.573170731701,"end_time":708.9390243902376,"midi_note":57,"velocity":80,"confidence":1.0},{"start_time":708.9390243902376,"end_time":709.1219512195058,"midi_note":60,"velocity":80,"confidence":1.0},{"start_time":708.9390243902376,"end_time":709.1219512195058,"midi_note":69,"velocity":80,"confidence":1.0},{"start_time":709.1219512195058,"end_time":709.3048780487741,"midi_note":67,"velocity":80,"confidence":1.0},{"start_time":709.3048780487741,"end_time":709.4878048780423,"midi_note":64,"velocity":80,"confidence":1.0},{"start_time":709.4878048780423,"end_time":709.6707317073106,"midi_note":60,"velocity":80,"confidence":1.0},{"start_time":709.6707317073106,"end_time":710.0365853658471,"midi_note":43,"velocity":80,"confidence":1.0},{"start_time":709.6707317073106,"end_time":710.0365853658471,"midi_note":55,"velocity":80,"confidence":1.0},{"start_time":710.0365853658471,"end_time":710.4024390243837,"midi_note":31,"velocity":80,"confidence":1.0},{"start_time":710.0365853658471,"end_time":710.4024390243837,"midi_note":43,"velocity":80,"confidence":1.0},{"start_time":710.4024390243837,"end_time":710.585365853652,"midi_note":59,"velocity":80,"confidence":1.0},{"start_time":710.585365853652,"end_time":710.7682926829202,"midi_note":67,"velocity":80,"confidence":1.0},{"start_time":710.7682926829202,"end_time":710.9512195121885,"midi_note":79,"velocity":80,"confidence":1.0},{"start_time":710.9512195121885,"end_time":711.1341463414567,"midi_note":79,"velocity":80,"confidence":1.0},{"start_time":711.1341463414567,"end_time":711.4999999999933,"midi_note":43,"velocity":80,"confidence":1.0},{"start_time":711.1341463414567,"end_time":711.4999999999933,"midi_note":55,"velocity":80,"confidence":1.0},{"start_time":711.4999999999933,"end_time":711.8658536585299,"midi_note":43,"velocity":80,"confidence":1.0},{"start_time":711.4999999999933,"end_time":711.8658536585299,"midi_note":50,"velocity":80,"confidence":1.0},{"start_time":711.4999999999933,"end_time":711.8658536585299,"midi_note":53,"velocity":80,"confidence":1.0},{"start_time":711.4999999999933,"end_time":711.8658536585299,"midi_note":55,"velocity":80,"confidence":1.0},{"start_time":711.8658536585299,"end_time":712.0487804877981,"midi_note":72,"velocity":80,"confidence":1.0},{"start_time":712.0487804877981,"end_time":712.2317073170664,"midi_note":76,"velocity":80,"confidence":1.0},{"start_time":712.0487804877981,"end_time":712.2317073170664,"midi_note":88,"velocity":80,"confidence":1.0},{"start_time":712.2317073170664,"end_time":712.4146341463346,"midi_note":76,"velocity":80,"confidence":1.0},{"start_time":712.2317073170664,"end_time":712.4146341463346,"midi_note":88,"velocity":80,"confidence":1.0},{"start_time":712.4146341463346,"end_time":712.5975609756028,"midi_note":76,"velocity":80,"confidence":1.0},{"start_time":712.4146341463346,"end_time":712.5975609756028,"midi_note":88,"velocity":80,"confidence":1.0},{"start_time":712.5975609756028,"end_time":712.7804878048711,"midi_note":48,"velocity":80,"confidence":1.0},{"start_time":712.5975609756028,"end_time":712.7804878048711,"midi_note":52,"velocity":80,"confidence":1.0},{"start_time":712.5975609756028,"end_time":712.7804878048711,"midi_note":55,"velocity":80,"confidence":1.0},{"start_time":712.5975609756028,"end_time":712.7804878048711,"midi_note":60,"velocity":80,"confidence":1.0},{"start_time":712.7804878048711,"end_time":712.9634146341393,"midi_note":64,"velocity":80,"confidence":1.0},{"start_time":712.9634146341393,"end_time":713.1463414634076,"midi_note":64,"velocity":80,"confidence":1.0},{"start_time":713.1463414634076,"end_time":713.3292682926758,"midi_note":64,"velocity":80,"confidence":1.0},{"start_time":713.3292682926758,"end_time":713.512195121944,"midi_note":84,"velocity":80,"confidence":1.0},{"start_time":713.512195121944,"end_time":713.6951219512123,"midi_note":67,"velocity":80,"confidence":1.0},{"start_time":713.512195121944,"end_time":713.6951219512123,"midi_note":79,"velocity":80,"confidence":1.0},{"start_time":713.6951219512123,"end_time":713.8780487804805,"midi_note":67,"velocity":80,"confidence":1.0},{"start_time":713.6951219512123,"end_time":713.8780487804805,"midi_note":79,"velocity":80,"confidence":1.0},{"start_time":713.8780487804805,"end_time":714.0609756097488,"midi_note":67,"velocity":80,"confidence":1.0},{"start_time":713.8780487804805,"end_time":714.0609756097488,"midi_note":79,"velocity":80,"confidence":1.0},{"start_time":714.0609756097488,"end_time":714.243902439017,"midi_note":60,"velocity":80,"confidence":1.0},{"start_time":714.243902439017,"end_time":714.4268292682852,"midi_note":55,"velocity":80,"confidence":1.0},{"start_time":714.4268292682852,"end_time":714.6097560975535,"midi_note":55,"velocity":80,"confidence":1.0},{"start_time":714.6097560975535,"end_time":714.7926829268217,"midi_note":55,"velocity":80,"confidence":1.0},{"start_time":714.7926829268217,"end_time":714.97560975609,"midi_note":76,"velocity":80,"confidence":1.0},{"start_time":714.97560975609,"end_time":715.1585365853582,"midi_note":60,"velocity":80,"confidence":1.0},{"start_time":714.97560975609,"end_time":715.1585365853582,"midi_note":72,"velocity":80,"confidence":1.0},{"start_time":715.1585365853582,"end_time":715.3414634146264,"midi_note":60,"velocity":80,"confidence":1.0},{"start_time":715.1585365853582,"end_time":715.3414634146264,"midi_note":72,"velocity":80,"confidence":1.0},{"start_time":715.3414634146264,"end_time":715.5243902438947,"midi_note":60,"velocity":80,"confidence":1.0},{"start_time":715.3414634146264,"end_time":715.5243902438947,"midi_note":72,"velocity":80,"confidence":1.0},{"start_time":715.5243902438947,"end_time":715.7073170731629,"midi_note":52,"velocity":80,"confidence":1.0},{"start_time":715.5243902438947,"end_time":715.7073170731629,"midi_note":64,"velocity":80,"confidence":1.0},{"start_time":715.7073170731629,"end_time":715.8902439024312,"midi_note":48,"velocity":80,"confidence":1.0},{"start_time":715.8902439024312,"end_time":716.0731707316994,"midi_note":48,"velocity":80,"confidence":1.0},{"start_time":716.0731707316994,"end_time":716.2560975609676,"midi_note":48,"velocity":80,"confidence":1.0},{"start_time":716.2560975609676,"end_time":716.4390243902359,"midi_note":67,"velocity":80,"confidence":1.0},{"start_time":716.4390243902359,"end_time":716.6219512195041,"midi_note":62,"velocity":80,"confidence":1.0},{"start_time":716.4390243902359,"end_time":716.6219512195041,"midi_note":71,"velocity":80,"confidence":1.0},{"start_time":716.4390243902359,"end_time":716.6219512195041,"midi_note":74,"velocity":80,"confidence":1.0},{"start_time":716.6219512195041,"end_time":716.8048780487724,"midi_note":62,"velocity":80,"confidence":1.0},{"start_time":716.6219512195041,"end_time":716.8048780487724,"midi_note":71,"velocity":80,"confidence":1.0},{"start_time":716.6219512195041,"end_time":716.8048780487724,"midi_note":74,"velocity":80,"confidence":1.0},{"start_time":716.8048780487724,"end_time":716.9878048780406,"midi_note":62,"velocity":80,"confidence":1.0},{"start_time":716.8048780487724,"end_time":716.9878048780406,"midi_note":71,"velocity":80,"confidence":1.0},{"start_time":716.8048780487724,"end_time":716.9878048780406,"midi_note":74,"velocity":80,"confidence":1.0},{"start_time":716.9878048780406,"end_time":717.1707317073088,"midi_note":43,"velocity":80,"confidence":1.0},{"start_time":716.9878048780406,"end_time":717.1707317073088,"midi_note":55,"velocity":80,"confidence":1.0},{"start_time":717.1707317073088,"end_time":717.3536585365771,"midi_note":31,"velocity":80,"confidence":1.0},{"start_time":717.1707317073088,"end_time":717.3536585365771,"midi_note":43,"velocity":80,"confidence":1.0},{"start_time":717.3536585365771,"end_time":717.5365853658453,"midi_note":31,"velocity":80,"confidence":1.0},{"start_time":717.3536585365771,"end_time":717.5365853658453,"midi_note":43,"velocity":80,"confidence":1.0},{"start_time":717.5365853658453,"end_time":717.7195121951136,"midi_note":31,"velocity":80,"confidence":1.0},{"start_time":717.5365853658453,"end_time":717.7195121951136,"midi_note":43,"velocity":80,"confidence":1.0},{"start_time":717.7195121951136,"end_time":717.9024390243818,"midi_note":64,"velocity":80,"confidence":1.0},{"start_time":717.7195121951136,"end_time":717.9024390243818,"midi_note":72,"velocity":80,"confidence":1.0},{"start_time":717.7195121951136,"end_time":717.9024390243818,"midi_note":76,"velocity":80,"confidence":1.0},{"start_time":717.9024390243818,"end_time":718.08536585365,"midi_note":76,"velocity":80,"confidence":1.0},{"start_time":717.9024390243818,"end_time":718.08536585365,"midi_note":88,"velocity":80,"confidence":1.0},{"start_time":718.08536585365,"end_time":718.2682926829183,"midi_note":76,"velocity":80,"confidence":1.0},{"start_time":718.08536585365,"end_time":718.2682926829183,"midi_note":88,"velocity":80,"confidence":1.0},{"start_time":718.2682926829183,"end_time":718.4512195121865,"midi_note":76,"velocity":80,"confidence":1.0},{"start_time":718.2682926829183,"end_time":718.4512195121865,"midi_note":88,"velocity":80,"confidence":1.0},{"start_time":718.4512195121865,"end_time":718.6341463414548,"midi_note":36,"velocity":80,"confidence":1.0},{"start_time":718.4512195121865,"end_time":718.6341463414548,"midi_note":48,"velocity":80,"confidence":1.0},{"start_time":718.6341463414548,"end_time":718.817073170723,"midi_note":64,"velocity":80,"confidence":1.0},{"start_time":718.817073170723,"end_time":718.9999999999912,"midi_note":64,"velocity":80,"confidence":1.0},{"start_time":718.9999999999912,"end_time":719.1829268292595,"midi_note":64,"velocity":80,"confidence":1.0},{"start_time":719.1829268292595,"end_time":719.3658536585277,"midi_note":84,"velocity":80,"confidence":1.0},{"start_time":719.3658536585277,"end_time":719.548780487796,"midi_note":67,"velocity":80,"confidence":1.0},{"start_time":719.3658536585277,"end_time":719.548780487796,"midi_note":79,"velocity":80,"confidence":1.0},{"start_time":719.548780487796,"end_time":719.7317073170642,"midi_note":67,"velocity":80,"confidence":1.0},{"start_time":719.548780487796,"end_time":719.7317073170642,"midi_note":79,"velocity":80,"confidence":1.0},{"start_time":719.7317073170642,"end_time":719.9146341463324,"midi_note":67,"velocity":80,"confidence":1.0},{"start_time":719.7317073170642,"end_time":719.9146341463324,"midi_note":79,"velocity":80,"confidence":1.0},{"start_time":719.9146341463324,"end_time":720.0975609756007,"midi_note":60,"velocity":80,"confidence":1.0},{"start_time":720.0975609756007,"end_time":720.2804878048689,"midi_note":55,"velocity":80,"confidence":1.0},{"start_time":720.2804878048689,"end_time":720.4634146341372,"midi_note":55,"velocity":80,"confidence":1.0},{"start_time":720.4634146341372,"end_time":720.6463414634054,"midi_note":55,"velocity":80,"confidence":1.0},{"start_time":720.6463414634054,"end_time":720.8292682926736,"midi_note":76,"velocity":80,"confidence":1.0},{"start_time":720.8292682926736,"end_time":721.0121951219419,"midi_note":60,"velocity":80,"confidence":1.0},{"start_time":720.8292682926736,"end_time":721.0121951219419,"midi_note":72,"velocity":80,"confidence":1.0},{"start_time":721.0121951219419,"end_time":721.1951219512101,"midi_note":60,"velocity":80,"confidence":1.0},{"start_time":721.0121951219419,"end_time":721.1951219512101,"midi_note":72,"velocity":80,"confidence":1.0},{"start_time":721.1951219512101,"end_time":721.3780487804784,"midi_note":60,"velocity":80,"confidence":1.0},{"start_time":721.1951219512101,"end_time":721.3780487804784,"midi_note":72,"velocity":80,"confidence":1.0},{"start_time":721.3780487804784,"end_time":721.5609756097466,"midi_note":52,"velocity":80,"confidence":1.0},{"start_time":721.3780487804784,"end_time":721.5609756097466,"midi_note":64,"velocity":80,"confidence":1.0},{"start_time":721.5609756097466,"end_time":721.7439024390148,"midi_note":48,"velocity":80,"confidence":1.0},{"start_time":721.7439024390148,"end_time":721.9268292682831,"midi_note":48,"velocity":80,"confidence":1.0},{"start_time":721.9268292682831,"end_time":722.1097560975513,"midi_note":48,"velocity":80,"confidence":1.0},{"start_time":722.1097560975513,"end_time":722.2926829268196,"midi_note":67,"velocity":80,"confidence":1.0},{"start_time":722.2926829268196,"end_time":722.4756097560878,"midi_note":67,"velocity":80,"confidence":1.0},{"start_time":722.2926829268196,"end_time":722.4756097560878,"midi_note":71,"velocity":80,"confidence":1.0},{"start_time":722.2926829268196,"end_time":722.4756097560878,"midi_note":74,"velocity":80,"confidence":1.0},{"start_time":722.2926829268196,"end_time":722.4756097560878,"midi_note":79,"velocity":80,"confidence":1.0},{"start_time":722.4756097560878,"end_time":722.658536585356,"midi_note":67,"velocity":80,"confidence":1.0},{"start_time":722.4756097560878,"end_time":722.658536585356,"midi_note":71,"velocity":80,"confidence":1.0},{"start_time":722.4756097560878,"end_time":722.658536585356,"midi_note":74,"velocity":80,"confidence":1.0},{"start_time":722.4756097560878,"end_time":722.658536585356,"midi_note":79,"velocity":80,"confidence":1.0},{"start_time":722.658536585356,"end_time":722.8414634146243,"midi_note":67,"velocity":80,"confidence":1.0},{"start_time":722.658536585356,"end_time":722.8414634146243,"midi_note":71,"velocity":80,"confidence":1.0},{"start_time":722.658536585356,"end_time":722.8414634146243,"midi_note":74,"velocity":80,"confidence":1.0},{"start_time":722.658536585356,"end_time":722.8414634146243,"midi_note":79,"velocity":80,"confidence":1.0},{"start_time":722.8414634146243,"end_time":723.0243902438925,"midi_note":43,"velocity":80,"confidence":1.0},{"start_time":723.0243902438925,"end_time":723.2073170731608,"midi_note":31,"velocity":80,"confidence":1.0},{"start_time":723.0243902438925,"end_time":723.2073170731608,"midi_note":43,"velocity":80,"confidence":1.0},{"start_time":723.2073170731608,"end_time":723.390243902429,"midi_note":31,"velocity":80,"confidence":1.0},{"start_time":723.2073170731608,"end_time":723.390243902429,"midi_note":43,"velocity":80,"confidence":1.0},{"start_time":723.390243902429,"end_time":723.5731707316972,"midi_note":31,"velocity":80,"confidence":1.0},{"start_time":723.390243902429,"end_time":723.5731707316972,"midi_note":43,"velocity":80,"confidence":1.0},{"start_time":723.5731707316972,"end_time":723.9390243902338,"midi_note":67,"velocity":80,"confidence":1.0},{"start_time":723.5731707316972,"end_time":723.9390243902338,"midi_note":72,"velocity":80,"confidence":1.0},{"start_time":723.5731707316972,"end_time":723.9390243902338,"midi_note":76,"velocity":80,"confidence":1.0},{"start_time":723.5731707316972,"end_time":723.9390243902338,"midi_note":79,"velocity":80,"confidence":1.0},{"start_time":724.3048780487704,"end_time":724.670731707307,"midi_note":36,"velocity":80,"confidence":1.0},{"start_time":724.3048780487704,"end_time":724.670731707307,"midi_note":48,"velocity":80,"confidence":1.0},{"start_time":725.2195121951119,"end_time":725.4024390243801,"midi_note":67,"velocity":80,"confidence":1.0},{"start_time":725.2195121951119,"end_time":725.4024390243801,"midi_note":71,"velocity":80,"confidence":1.0},{"start_time":725.2195121951119,"end_time":725.4024390243801,"midi_note":74,"velocity":80,"confidence":1.0},{"start_time":725.2195121951119,"end_time":725.4024390243801,"midi_note":79,"velocity":80,"confidence":1.0},{"start_time":725.4024390243801,"end_time":725.5853658536483,"midi_note":67,"velocity":80,"confidence":1.0},{"start_time":725.4024390243801,"end_time":725.5853658536483,"midi_note":71,"velocity":80,"confidence":1.0},{"start_time":725.4024390243801,"end_time":725.5853658536483,"midi_note":74,"velocity":80,"confidence":1.0},{"start_time":725.4024390243801,"end_time":725.5853658536483,"midi_note":79,"velocity":80,"confidence":1.0},{"start_time":725.5853658536483,"end_time":725.7682926829166,"midi_note":67,"velocity":80,"confidence":1.0},{"start_time":725.5853658536483,"end_time":725.7682926829166,"midi_note":71,"velocity":80,"confidence":1.0},{"start_time":725.5853658536483,"end_time":725.7682926829166,"midi_note":74,"velocity":80,"confidence":1.0},{"start_time":725.5853658536483,"end_time":725.7682926829166,"midi_note":79,"velocity":80,"confidence":1.0},{"start_time":725.9512195121848,"end_time":726.1341463414531,"midi_note":31,"velocity":80,"confidence":1.0},{"start_time":725.9512195121848,"end_time":726.1341463414531,"midi_note":43,"velocity":80,"confidence":1.0},{"start_time":726.1341463414531,"end_time":726.3170731707213,"midi_note":31,"velocity":80,"confidence":1.0},{"start_time":726.1341463414531,"end_time":726.3170731707213,"midi_note":43,"velocity":80,"confidence":1.0},{"start_time":726.3170731707213,"end_time":726.4999999999895,"midi_note":31,"velocity":80,"confidence":1.0},{"start_time":726.3170731707213,"end_time":726.4999999999895,"midi_note":43,"velocity":80,"confidence":1.0},{"start_time":726.4999999999895,"end_time":726.8658536585261,"midi_note":67,"velocity":80,"confidence":1.0},{"start_time":726.4999999999895,"end_time":726.8658536585261,"midi_note":72,"velocity":80,"confidence":1.0},{"start_time":726.4999999999895,"end_time":726.8658536585261,"midi_note":76,"velocity":80,"confidence":1.0},{"start_time":726.4999999999895,"end_time":726.8658536585261,"midi_note":79,"velocity":80,"confidence":1.0},{"start_time":727.2317073170627,"end_time":727.5975609755993,"midi_note":36,"velocity":80,"confidence":1.0},{"start_time":727.2317073170627,"end_time":727.5975609755993,"midi_note":48,"velocity":80,"confidence":1.0},{"start_time":728.1463414634042,"end_time":728.3292682926724,"midi_note":74,"velocity":80,"confidence":1.0},{"start_time":728.1463414634042,"end_time":728.3292682926724,"midi_note":79,"velocity":80,"confidence":1.0},{"start_time":728.1463414634042,"end_time":728.3292682926724,"midi_note":83,"velocity":80,"confidence":1.0},{"start_time":728.3292682926724,"end_time":728.5121951219406,"midi_note":74,"velocity":80,"confidence":1.0},{"start_time":728.3292682926724,"end_time":728.5121951219406,"midi_note":79,"velocity":80,"confidence":1.0},{"start_time":728.3292682926724,"end_time":728.5121951219406,"midi_note":83,"velocity":80,"confidence":1.0},{"start_time":728.5121951219406,"end_time":728.6951219512089,"midi_note":74,"velocity":80,"confidence":1.0},{"start_time":728.5121951219406,"end_time":728.6951219512089,"midi_note":79,"velocity":80,"confidence":1.0},{"start_time":728.5121951219406,"end_time":728.6951219512089,"midi_note":83,"velocity":80,"confidence":1.0},{"start_time":728.8780487804771,"end_time":729.0609756097454,"midi_note":31,"velocity":80,"confidence":1.0},{"start_time":728.8780487804771,"end_time":729.0609756097454,"midi_note":43,"velocity":80,"confidence":1.0},{"start_time":729.0609756097454,"end_time":729.2439024390136,"midi_note":31,"velocity":80,"confidence":1.0},{"start_time":729.0609756097454,"end_time":729.2439024390136,"midi_note":43,"velocity":80,"confidence":1.0},{"start_time":729.2439024390136,"end_time":729.4268292682818,"midi_note":31,"velocity":80,"confidence":1.0},{"start_time":729.2439024390136,"end_time":729.4268292682818,"midi_note":43,"velocity":80,"confidence":1.0},{"start_time":729.4268292682818,"end_time":729.6097560975501,"midi_note":72,"velocity":80,"confidence":1.0},{"start_time":729.4268292682818,"end_time":729.6097560975501,"midi_note":76,"velocity":80,"confidence":1.0},{"start_time":729.4268292682818,"end_time":729.6097560975501,"midi_note":79,"velocity":80,"confidence":1.0},{"start_time":729.4268292682818,"end_time":729.6097560975501,"midi_note":84,"velocity":80,"confidence":1.0},{"start_time":729.6097560975501,"end_time":729.7926829268183,"midi_note":72,"velocity":80,"confidence":1.0},{"start_time":729.6097560975501,"end_time":729.7926829268183,"midi_note":84,"velocity":80,"confidence":1.0},{"start_time":729.7926829268183,"end_time":729.9756097560866,"midi_note":72,"velocity":80,"confidence":1.0},{"start_time":729.7926829268183,"end_time":729.9756097560866,"midi_note":84,"velocity":80,"confidence":1.0},{"start_time":729.9756097560866,"end_time":730.1585365853548,"midi_note":72,"velocity":80,"confidence":1.0},{"start_time":729.9756097560866,"end_time":730.1585365853548,"midi_note":84,"velocity":80,"confidence":1.0},{"start_time":730.1585365853548,"end_time":730.890243902428,"midi_note":36,"velocity":80,"confidence":1.0},{"start_time":730.1585365853548,"end_time":730.890243902428,"midi_note":48,"velocity":80,"confidence":1.0},{"start_time":730.890243902428,"end_time":731.0731707316962,"midi_note":72,"velocity":80,"confidence":1.0},{"start_time":730.890243902428,"end_time":731.0731707316962,"midi_note":84,"velocity":80,"confidence":1.0},{"start_time":731.0731707316962,"end_time":731.2560975609645,"midi_note":72,"velocity":80,"confidence":1.0},{"start_time":731.0731707316962,"end_time":731.2560975609645,"midi_note":76,"velocity":80,"confidence":1.0},{"start_time":731.0731707316962,"end_time":731.2560975609645,"midi_note":84,"velocity":80,"confidence":1.0},{"start_time":731.2560975609645,"end_time":731.4390243902327,"midi_note":72,"velocity":80,"confidence":1.0},{"start_time":731.2560975609645,"end_time":731.4390243902327,"midi_note":76,"velocity":80,"confidence":1.0},{"start_time":731.2560975609645,"end_time":731.4390243902327,"midi_note":84,"velocity":80,"confidence":1.0},{"start_time":731.4390243902327,"end_time":731.6219512195009,"midi_note":72,"velocity":80,"confidence":1.0},{"start_time":731.4390243902327,"end_time":731.6219512195009,"midi_note":76,"velocity":80,"confidence":1.0},{"start_time":731.4390243902327,"end_time":731.6219512195009,"midi_note":84,"velocity":80,"confidence":1.0},{"start_time":731.6219512195009,"end_time":731.8048780487692,"midi_note":36,"velocity":80,"confidence":1.0},{"start_time":731.6219512195009,"end_time":731.8048780487692,"midi_note":48,"velocity":80,"confidence":1.0},{"start_time":731.8048780487692,"end_time":731.9878048780374,"midi_note":36,"velocity":80,"confidence":1.0},{"start_time":731.8048780487692,"end_time":731.9878048780374,"midi_note":48,"velocity":80,"confidence":1.0},{"start_time":731.9878048780374,"end_time":732.1707317073057,"midi_note":36,"velocity":80,"confidence":1.0},{"start_time":731.9878048780374,"end_time":732.1707317073057,"midi_note":48,"velocity":80,"confidence":1.0},{"start_time":732.1707317073057,"end_time":732.3536585365739,"midi_note":36,"velocity":80,"confidence":1.0},{"start_time":732.1707317073057,"end_time":732.3536585365739,"midi_note":48,"velocity":80,"confidence":1.0},{"start_time":732.3536585365739,"end_time":732.5365853658421,"midi_note":72,"velocity":80,"confidence":1.0},{"start_time":732.3536585365739,"end_time":732.5365853658421,"midi_note":77,"velocity":80,"confidence":1.0},{"start_time":732.3536585365739,"end_time":732.5365853658421,"midi_note":84,"velocity":80,"confidence":1.0},{"start_time":732.5365853658421,"end_time":732.7195121951104,"midi_note":72,"velocity":80,"confidence":1.0},{"start_time":732.5365853658421,"end_time":732.7195121951104,"midi_note":84,"velocity":80,"confidence":1.0},{"start_time":732.7195121951104,"end_time":732.9024390243786,"midi_note":72,"velocity":80,"confidence":1.0},{"start_time":732.7195121951104,"end_time":732.9024390243786,"midi_note":84,"velocity":80,"confidence":1.0},{"start_time":732.9024390243786,"end_time":733.0853658536469,"midi_note":72,"velocity":80,"confidence":1.0},{"start_time":732.9024390243786,"end_time":733.0853658536469,"midi_note":84,"velocity":80,"confidence":1.0},{"start_time":733.0853658536469,"end_time":733.81707317072,"midi_note":32,"velocity":80,"confidence":1.0},{"start_time":733.0853658536469,"end_time":733.81707317072,"midi_note":44,"velocity":80,"confidence":1.0},{"start_time":733.81707317072,"end_time":733.9999999999883,"midi_note":72,"velocity":80,"confidence":1.0},{"start_time":733.81707317072,"end_time":733.9999999999883,"midi_note":84,"velocity":80,"confidence":1.0},{"start_time":733.9999999999883,"end_time":734.1829268292565,"midi_note":72,"velocity":80,"confidence":1.0},{"start_time":733.9999999999883,"end_time":734.1829268292565,"midi_note":77,"velocity":80,"confidence":1.0},{"start_time":733.9999999999883,"end_time":734.1829268292565,"midi_note":84,"velocity":80,"confidence":1.0},{"start_time":734.1829268292565,"end_time":734.3658536585248,"midi_note":72,"velocity":80,"confidence":1.0},{"start_time":734.1829268292565,"end_time":734.3658536585248,"midi_note":77,"velocity":80,"confidence":1.0},{"start_time":734.1829268292565,"end_time":734.3658536585248,"midi_note":84,"velocity":80,"confidence":1.0},{"start_time":734.3658536585248,"end_time":734.548780487793,"midi_note":72,"velocity":80,"confidence":1.0},{"start_time":734.3658536585248,"end_time":734.548780487793,"midi_note":77,"velocity":80,"confidence":1.0},{"start_time":734.3658536585248,"end_time":734.548780487793,"midi_note":84,"velocity":80,"confidence":1.0},{"start_time":734.548780487793,"end_time":734.7317073170613,"midi_note":32,"velocity":80,"confidence":1.0},{"start_time":734.548780487793,"end_time":734.7317073170613,"midi_note":44,"velocity":80,"confidence":1.0},{"start_time":734.7317073170613,"end_time":734.9146341463295,"midi_note":32,"velocity":80,"confidence":1.0},{"start_time":734.7317073170613,"end_time":734.9146341463295,"midi_note":44,"velocity":80,"confidence":1.0},{"start_time":734.9146341463295,"end_time":735.0975609755977,"midi_note":32,"velocity":80,"confidence":1.0},{"start_time":734.9146341463295,"end_time":735.0975609755977,"midi_note":44,"velocity":80,"confidence":1.0},{"start_time":735.0975609755977,"end_time":735.280487804866,"midi_note":32,"velocity":80,"confidence":1.0},{"start_time":735.0975609755977,"end_time":735.280487804866,"midi_note":44,"velocity":80,"confidence":1.0},{"start_time":735.280487804866,"end_time":735.4634146341342,"midi_note":72,"velocity":80,"confidence":1.0},{"start_time":735.280487804866,"end_time":735.4634146341342,"midi_note":79,"velocity":80,"confidence":1.0},{"start_time":735.280487804866,"end_time":735.4634146341342,"midi_note":84,"velocity":80,"confidence":1.0},{"start_time":735.4634146341342,"end_time":735.6463414634025,"midi_note":72,"velocity":80,"confidence":1.0},{"start_time":735.4634146341342,"end_time":735.6463414634025,"midi_note":84,"velocity":80,"confidence":1.0},{"start_time":735.6463414634025,"end_time":735.8292682926707,"midi_note":72,"velocity":80,"confidence":1.0},{"start_time":735.6463414634025,"end_time":735.8292682926707,"midi_note":84,"velocity":80,"confidence":1.0},{"start_time":735.8292682926707,"end_time":736.0121951219389,"midi_note":72,"velocity":80,"confidence":1.0},{"start_time":735.8292682926707,"end_time":736.0121951219389,"midi_note":84,"velocity":80,"confidence":1.0},{"start_time":736.0121951219389,"end_time":736.7439024390121,"midi_note":40,"velocity":80,"confidence":1.0},{"start_time":736.0121951219389,"end_time":736.7439024390121,"midi_note":52,"velocity":80,"confidence":1.0},{"start_time":736.7439024390121,"end_time":736.9268292682804,"midi_note":72,"velocity":80,"confidence":1.0},{"start_time":736.7439024390121,"end_time":736.9268292682804,"midi_note":84,"velocity":80,"confidence":1.0},{"start_time":736.9268292682804,"end_time":737.1097560975486,"midi_note":72,"velocity":80,"confidence":1.0},{"start_time":736.9268292682804,"end_time":737.1097560975486,"midi_note":79,"velocity":80,"confidence":1.0},{"start_time":736.9268292682804,"end_time":737.1097560975486,"midi_note":84,"velocity":80,"confidence":1.0},{"start_time":737.1097560975486,"end_time":737.2926829268168,"midi_note":72,"velocity":80,"confidence":1.0},{"start_time":737.1097560975486,"end_time":737.2926829268168,"midi_note":79,"velocity":80,"confidence":1.0},{"start_time":737.1097560975486,"end_time":737.2926829268168,"midi_note":84,"velocity":80,"confidence":1.0},{"start_time":737.2926829268168,"end_time":737.4756097560851,"midi_note":72,"velocity":80,"confidence":1.0},{"start_time":737.2926829268168,"end_time":737.4756097560851,"midi_note":79,"velocity":80,"confidence":1.0},{"start_time":737.2926829268168,"end_time":737.4756097560851,"midi_note":84,"velocity":80,"confidence":1.0},{"start_time":737.4756097560851,"end_time":737.6585365853533,"midi_note":40,"velocity":80,"confidence":1.0},{"start_time":737.4756097560851,"end_time":737.6585365853533,"midi_note":52,"velocity":80,"confidence":1.0},{"start_time":737.6585365853533,"end_time":737.8414634146216,"midi_note":40,"velocity":80,"confidence":1.0},{"start_time":737.6585365853533,"end_time":737.8414634146216,"midi_note":52,"velocity":80,"confidence":1.0},{"start_time":737.8414634146216,"end_time":738.0243902438898,"midi_note":40,"velocity":80,"confidence":1.0},{"start_time":737.8414634146216,"end_time":738.0243902438898,"midi_note":52,"velocity":80,"confidence":1.0},{"start_time":738.0243902438898,"end_time":738.207317073158,"midi_note":40,"velocity":80,"confidence":1.0},{"start_time":738.0243902438898,"end_time":738.207317073158,"midi_note":52,"velocity":80,"confidence":1.0},{"start_time":738.207317073158,"end_time":738.3902439024263,"midi_note":72,"velocity":80,"confidence":1.0},{"start_time":738.207317073158,"end_time":738.3902439024263,"midi_note":80,"velocity":80,"confidence":1.0},{"start_time":738.207317073158,"end_time":738.3902439024263,"midi_note":84,"velocity":80,"confidence":1.0},{"start_time":738.3902439024263,"end_time":738.5731707316945,"midi_note":72,"velocity":80,"confidence":1.0},{"start_time":738.3902439024263,"end_time":738.5731707316945,"midi_note":84,"velocity":80,"confidence":1.0},{"start_time":738.5731707316945,"end_time":738.7560975609628,"midi_note":72,"velocity":80,"confidence":1.0},{"start_time":738.5731707316945,"end_time":738.7560975609628,"midi_note":84,"velocity":80,"confidence":1.0},{"start_time":738.7560975609628,"end_time":738.939024390231,"midi_note":72,"velocity":80,"confidence":1.0},{"start_time":738.7560975609628,"end_time":738.939024390231,"midi_note":84,"velocity":80,"confidence":1.0},{"start_time":738.939024390231,"end_time":739.6707317073042,"midi_note":41,"velocity":80,"confidence":1.0},{"start_time":738.939024390231,"end_time":739.6707317073042,"midi_note":53,"velocity":80,"confidence":1.0},{"start_time":739.6707317073042,"end_time":739.8536585365724,"midi_note":72,"velocity":80,"confidence":1.0},{"start_time":739.6707317073042,"end_time":739.8536585365724,"midi_note":84,"velocity":80,"confidence":1.0},{"start_time":739.8536585365724,"end_time":740.0365853658407,"midi_note":72,"velocity":80,"confidence":1.0},{"start_time":739.8536585365724,"end_time":740.0365853658407,"midi_note":80,"velocity":80,"confidence":1.0},{"start_time":739.8536585365724,"end_time":740.0365853658407,"midi_note":84,"velocity":80,"confidence":1.0},{"start_time":740.0365853658407,"end_time":740.2195121951089,"midi_note":72,"velocity":80,"confidence":1.0},{"start_time":740.0365853658407,"end_time":740.2195121951089,"midi_note":80,"velocity":80,"confidence":1.0},{"start_time":740.0365853658407,"end_time":740.2195121951089,"midi_note":84,"velocity":80,"confidence":1.0},{"start_time":740.2195121951089,"end_time":740.4024390243771,"midi_note":72,"velocity":80,"confidence":1.0},{"start_time":740.2195121951089,"end_time":740.4024390243771,"midi_note":80,"velocity":80,"confidence":1.0},{"start_time":740.2195121951089,"end_time":740.4024390243771,"midi_note":84,"velocity":80,"confidence":1.0},{"start_time":740.4024390243771,"end_time":740.5853658536454,"midi_note":41,"velocity":80,"confidence":1.0},{"start_time":740.4024390243771,"end_time":740.5853658536454,"midi_note":53,"velocity":80,"confidence":1.0},{"start_time":740.5853658536454,"end_time":740.7682926829136,"midi_note":41,"velocity":80,"confidence":1.0},{"start_time":740.5853658536454,"end_time":740.7682926829136,"midi_note":53,"velocity":80,"confidence":1.0},{"start_time":740.7682926829136,"end_time":740.9512195121819,"midi_note":41,"velocity":80,"confidence":1.0},{"start_time":740.7682926829136,"end_time":740.9512195121819,"midi_note":53,"velocity":80,"confidence":1.0},{"start_time":740.9512195121819,"end_time":741.1341463414501,"midi_note":41,"velocity":80,"confidence":1.0},{"start_time":740.9512195121819,"end_time":741.1341463414501,"midi_note":53,"velocity":80,"confidence":1.0},{"start_time":741.1341463414501,"end_time":741.3170731707183,"midi_note":73,"velocity":80,"confidence":1.0},{"start_time":741.1341463414501,"end_time":741.3170731707183,"midi_note":80,"velocity":80,"confidence":1.0},{"start_time":741.1341463414501,"end_time":741.3170731707183,"midi_note":85,"velocity":80,"confidence":1.0},{"start_time":741.3170731707183,"end_time":741.4999999999866,"midi_note":73,"velocity":80,"confidence":1.0},{"start_time":741.3170731707183,"end_time":741.4999999999866,"midi_note":80,"velocity":80,"confidence":1.0},{"start_time":741.3170731707183,"end_time":741.4999999999866,"midi_note":85,"velocity":80,"confidence":1.0},{"start_time":741.4999999999866,"end_time":741.6829268292548,"midi_note":73,"velocity":80,"confidence":1.0},{"start_time":741.4999999999866,"end_time":741.6829268292548,"midi_note":80,"velocity":80,"confidence":1.0},{"start_time":741.4999999999866,"end_time":741.6829268292548,"midi_note":85,"velocity":80,"confidence":1.0},{"start_time":741.6829268292548,"end_time":741.8658536585231,"midi_note":73,"velocity":80,"confidence":1.0},{"start_time":741.6829268292548,"end_time":741.8658536585231,"midi_note":80,"velocity":80,"confidence":1.0},{"start_time":741.6829268292548,"end_time":741.8658536585231,"midi_note":85,"velocity":80,"confidence":1.0},{"start_time":741.8658536585231,"end_time":742.0487804877913,"midi_note":41,"velocity":80,"confidence":1.0},{"start_time":741.8658536585231,"end_time":742.0487804877913,"midi_note":44,"velocity":80,"confidence":1.0},{"start_time":741.8658536585231,"end_time":742.0487804877913,"midi_note":49,"velocity":80,"confidence":1.0},{"start_time":741.8658536585231,"end_time":742.0487804877913,"midi_note":53,"velocity":80,"confidence":1.0},{"start_time":742.0487804877913,"end_time":742.2317073170595,"midi_note":41,"velocity":80,"confidence":1.0},{"start_time":742.0487804877913,"end_time":742.2317073170595,"midi_note":53,"velocity":80,"confidence":1.0},{"start_time":742.2317073170595,"end_time":742.4146341463278,"midi_note":41,"velocity":80,"confidence":1.0},{"start_time":742.2317073170595,"end_time":742.4146341463278,"midi_note":53,"velocity":80,"confidence":1.0},{"start_time":742.4146341463278,"end_time":742.597560975596,"midi_note":41,"velocity":80,"confidence":1.0},{"start_time":742.4146341463278,"end_time":742.597560975596,"midi_note":53,"velocity":80,"confidence":1.0},{"start_time":742.597560975596,"end_time":742.7804878048643,"midi_note":73,"velocity":80,"confidence":1.0},{"start_time":742.597560975596,"end_time":742.7804878048643,"midi_note":80,"velocity":80,"confidence":1.0},{"start_time":742.597560975596,"end_time":742.7804878048643,"midi_note":85,"velocity":80,"confidence":1.0},{"start_time":742.7804878048643,"end_time":742.9634146341325,"midi_note":73,"velocity":80,"confidence":1.0},{"start_time":742.7804878048643,"end_time":742.9634146341325,"midi_note":80,"velocity":80,"confidence":1.0},{"start_time":742.7804878048643,"end_time":742.9634146341325,"midi_note":85,"velocity":80,"confidence":1.0},{"start_time":742.9634146341325,"end_time":743.1463414634007,"midi_note":73,"velocity":80,"confidence":1.0},{"start_time":742.9634146341325,"end_time":743.1463414634007,"midi_note":80,"velocity":80,"confidence":1.0},{"start_time":742.9634146341325,"end_time":743.1463414634007,"midi_note":85,"velocity":80,"confidence":1.0},{"start_time":743.1463414634007,"end_time":743.329268292669,"midi_note":73,"velocity":80,"confidence":1.0},{"start_time":743.1463414634007,"end_time":743.329268292669,"midi_note":80,"velocity":80,"confidence":1.0},{"start_time":743.1463414634007,"end_time":743.329268292669,"midi_note":85,"velocity":80,"confidence":1.0},{"start_time":743.329268292669,"end_time":743.5121951219372,"midi_note":41,"velocity":80,"confidence":1.0},{"start_time":743.329268292669,"end_time":743.5121951219372,"midi_note":53,"velocity":80,"confidence":1.0},{"start_time":743.5121951219372,"end_time":743.6951219512055,"midi_note":41,"velocity":80,"confidence":1.0},{"start_time":743.5121951219372,"end_time":743.6951219512055,"midi_note":53,"velocity":80,"confidence":1.0},{"start_time":743.6951219512055,"end_time":743.8780487804737,"midi_note":41,"velocity":80,"confidence":1.0},{"start_time":743.6951219512055,"end_time":743.8780487804737,"midi_note":53,"velocity":80,"confidence":1.0},{"start_time":743.8780487804737,"end_time":744.060975609742,"midi_note":41,"velocity":80,"confidence":1.0},{"start_time":743.8780487804737,"end_time":744.060975609742,"midi_note":53,"velocity":80,"confidence":1.0},{"start_time":744.060975609742,"end_time":744.2439024390102,"midi_note":73,"velocity":80,"confidence":1.0},{"start_time":744.060975609742,"end_time":744.2439024390102,"midi_note":80,"velocity":80,"confidence":1.0},{"start_time":744.060975609742,"end_time":744.2439024390102,"midi_note":85,"velocity":80,"confidence":1.0},{"start_time":744.2439024390102,"end_time":744.4268292682784,"midi_note":73,"velocity":80,"confidence":1.0},{"start_time":744.2439024390102,"end_time":744.4268292682784,"midi_note":80,"velocity":80,"confidence":1.0},{"start_time":744.2439024390102,"end_time":744.4268292682784,"midi_note":85,"velocity":80,"confidence":1.0},{"start_time":744.4268292682784,"end_time":744.6097560975467,"midi_note":73,"velocity":80,"confidence":1.0},{"start_time":744.4268292682784,"end_time":744.6097560975467,"midi_note":80,"velocity":80,"confidence":1.0},{"start_time":744.4268292682784,"end_time":744.6097560975467,"midi_note":85,"velocity":80,"confidence":1.0},{"start_time":744.6097560975467,"end_time":744.7926829268149,"midi_note":73,"velocity":80,"confidence":1.0},{"start_time":744.6097560975467,"end_time":744.7926829268149,"midi_note":80,"velocity":80,"confidence":1.0},{"start_time":744.6097560975467,"end_time":744.7926829268149,"midi_note":85,"velocity":80,"confidence":1.0},{"start_time":744.7926829268149,"end_time":744.9756097560831,"midi_note":41,"velocity":80,"confidence":1.0},{"start_time":744.7926829268149,"end_time":744.9756097560831,"midi_note":53,"velocity":80,"confidence":1.0},{"start_time":744.9756097560831,"end_time":745.1585365853514,"midi_note":41,"velocity":80,"confidence":1.0},{"start_time":744.9756097560831,"end_time":745.1585365853514,"midi_note":53,"velocity":80,"confidence":1.0},{"start_time":745.1585365853514,"end_time":745.3414634146196,"midi_note":41,"velocity":80,"confidence":1.0},{"start_time":745.1585365853514,"end_time":745.3414634146196,"midi_note":53,"velocity":80,"confidence":1.0},{"start_time":745.3414634146196,"end_time":745.5243902438879,"midi_note":41,"velocity":80,"confidence":1.0},{"start_time":745.3414634146196,"end_time":745.5243902438879,"midi_note":53,"velocity":80,"confidence":1.0},{"start_time":745.5243902438879,"end_time":745.7073170731561,"midi_note":73,"velocity":80,"confidence":1.0},{"start_time":745.5243902438879,"end_time":745.7073170731561,"midi_note":80,"velocity":80,"confidence":1.0},{"start_time":745.5243902438879,"end_time":745.7073170731561,"midi_note":85,"velocity":80,"confidence":1.0},{"start_time":745.7073170731561,"end_time":745.8902439024243,"midi_note":73,"velocity":80,"confidence":1.0},{"start_time":745.7073170731561,"end_time":745.8902439024243,"midi_note":80,"velocity":80,"confidence":1.0},{"start_time":745.7073170731561,"end_time":745.8902439024243,"midi_note":85,"velocity":80,"confidence":1.0},{"start_time":745.8902439024243,"end_time":746.0731707316926,"midi_note":73,"velocity":80,"confidence":1.0},{"start_time":745.8902439024243,"end_time":746.0731707316926,"midi_note":80,"velocity":80,"confidence":1.0},{"start_time":745.8902439024243,"end_time":746.0731707316926,"midi_note":85,"velocity":80,"confidence":1.0},{"start_time":746.0731707316926,"end_time":746.2560975609608,"midi_note":73,"velocity":80,"confidence":1.0},{"start_time":746.0731707316926,"end_time":746.2560975609608,"midi_note":80,"velocity":80,"confidence":1.0},{"start_time":746.0731707316926,"end_time":746.2560975609608,"midi_note":85,"velocity":80,"confidence":1.0},{"start_time":746.2560975609608,"end_time":746.4390243902291,"midi_note":41,"velocity":80,"confidence":1.0},{"start_time":746.2560975609608,"end_time":746.4390243902291,"midi_note":53,"velocity":80,"confidence":1.0},{"start_time":746.4390243902291,"end_time":746.6219512194973,"midi_note":41,"velocity":80,"confidence":1.0},{"start_time":746.4390243902291,"end_time":746.6219512194973,"midi_note":53,"velocity":80,"confidence":1.0},{"start_time":746.6219512194973,"end_time":746.8048780487655,"midi_note":41,"velocity":80,"confidence":1.0},{"start_time":746.6219512194973,"end_time":746.8048780487655,"midi_note":53,"velocity":80,"confidence":1.0},{"start_time":746.8048780487655,"end_time":746.9878048780338,"midi_note":41,"velocity":80,"confidence":1.0},{"start_time":746.8048780487655,"end_time":746.9878048780338,"midi_note":53,"velocity":80,"confidence":1.0},{"start_time":746.9878048780338,"end_time":747.3536585365704,"midi_note":73,"velocity":80,"confidence":1.0},{"start_time":746.9878048780338,"end_time":747.3536585365704,"midi_note":80,"velocity":80,"confidence":1.0},{"start_time":746.9878048780338,"end_time":747.3536585365704,"midi_note":85,"velocity":80,"confidence":1.0},{"start_time":747.719512195107,"end_time":748.0853658536436,"midi_note":41,"velocity":80,"confidence":1.0},{"start_time":747.719512195107,"end_time":748.0853658536436,"midi_note":53,"velocity":80,"confidence":1.0},{"start_time":750.0975609755948,"end_time":750.280487804863,"midi_note":65,"velocity":80,"confidence":1.0},{"start_time":750.280487804863,"end_time":750.4634146341313,"midi_note":65,"velocity":80,"confidence":1.0},{"start_time":750.4634146341313,"end_time":750.6463414633995,"midi_note":65,"velocity":80,"confidence":1.0},{"start_time":751.3780487804727,"end_time":751.7439024390093,"midi_note":68,"velocity":80,"confidence":1.0},{"start_time":754.4878048780337,"end_time":754.6707317073019,"midi_note":75,"velocity":80,"confidence":1.0},{"start_time":754.4878048780337,"end_time":754.6707317073019,"midi_note":81,"velocity":80,"confidence":1.0},{"start_time":754.4878048780337,"end_time":754.6707317073019,"midi_note":84,"velocity":80,"confidence":1.0},{"start_time":754.4878048780337,"end_time":754.6707317073019,"midi_note":87,"velocity":80,"confidence":1.0},{"start_time":754.6707317073019,"end_time":754.8536585365702,"midi_note":75,"velocity":80,"confidence":1.0},{"start_time":754.6707317073019,"end_time":754.8536585365702,"midi_note":81,"velocity":80,"confidence":1.0},{"start_time":754.6707317073019,"end_time":754.8536585365702,"midi_note":84,"velocity":80,"confidence":1.0},{"start_time":754.6707317073019,"end_time":754.8536585365702,"midi_note":87,"velocity":80,"confidence":1.0},{"start_time":754.8536585365702,"end_time":755.0365853658384,"midi_note":75,"velocity":80,"confidence":1.0},{"start_time":754.8536585365702,"end_time":755.0365853658384,"midi_note":81,"velocity":80,"confidence":1.0},{"start_time":754.8536585365702,"end_time":755.0365853658384,"midi_note":84,"velocity":80,"confidence":1.0},{"start_time":754.8536585365702,"end_time":755.0365853658384,"midi_note":87,"velocity":80,"confidence":1.0},{"start_time":755.2195121951066,"end_time":755.4024390243749,"midi_note":42,"velocity":80,"confidence":1.0},{"start_time":755.2195121951066,"end_time":755.4024390243749,"midi_note":54,"velocity":80,"confidence":1.0},{"start_time":755.4024390243749,"end_time":755.5853658536431,"midi_note":42,"velocity":80,"confidence":1.0},{"start_time":755.4024390243749,"end_time":755.5853658536431,"midi_note":54,"velocity":80,"confidence":1.0},{"start_time":755.5853658536431,"end_time":755.7682926829114,"midi_note":42,"velocity":80,"confidence":1.0},{"start_time":755.5853658536431,"end_time":755.7682926829114,"midi_note":54,"velocity":80,"confidence":1.0},{"start_time":755.7682926829114,"end_time":755.9512195121796,"midi_note":75,"velocity":80,"confidence":1.0},{"start_time":755.7682926829114,"end_time":755.9512195121796,"midi_note":81,"velocity":80,"confidence":1.0},{"start_time":755.7682926829114,"end_time":755.9512195121796,"midi_note":84,"velocity":80,"confidence":1.0},{"start_time":755.7682926829114,"end_time":755.9512195121796,"midi_note":87,"velocity":80,"confidence":1.0},{"start_time":755.9512195121796,"end_time":756.1341463414478,"midi_note":75,"velocity":80,"confidence":1.0},{"start_time":755.9512195121796,"end_time":756.1341463414478,"midi_note":81,"velocity":80,"confidence":1.0},{"start_time":755.9512195121796,"end_time":756.1341463414478,"midi_note":84,"velocity":80,"confidence":1.0},{"start_time":755.9512195121796,"end_time":756.1341463414478,"midi_note":87,"velocity":80,"confidence":1.0},{"start_time":756.1341463414478,"end_time":756.3170731707161,"midi_note":75,"velocity":80,"confidence":1.0},{"start_time":756.1341463414478,"end_time":756.3170731707161,"midi_note":81,"velocity":80,"confidence":1.0},{"start_time":756.1341463414478,"end_time":756.3170731707161,"midi_note":84,"velocity":80,"confidence":1.0},{"start_time":756.1341463414478,"end_time":756.3170731707161,"midi_note":87,"velocity":80,"confidence":1.0},{"start_time":756.3170731707161,"end_time":756.4999999999843,"midi_note":75,"velocity":80,"confidence":1.0},{"start_time":756.3170731707161,"end_time":756.4999999999843,"midi_note":81,"velocity":80,"confidence":1.0},{"start_time":756.3170731707161,"end_time":756.4999999999843,"midi_note":84,"velocity":80,"confidence":1.0},{"start_time":756.3170731707161,"end_time":756.4999999999843,"midi_note":87,"velocity":80,"confidence":1.0},{"start_time":756.4999999999843,"end_time":756.6829268292526,"midi_note":42,"velocity":80,"confidence":1.0},{"start_time":756.4999999999843,"end_time":756.6829268292526,"midi_note":54,"velocity":80,"confidence":1.0},{"start_time":756.6829268292526,"end_time":756.8658536585208,"midi_note":42,"velocity":80,"confidence":1.0},{"start_time":756.6829268292526,"end_time":756.8658536585208,"midi_note":54,"velocity":80,"confidence":1.0},{"start_time":756.8658536585208,"end_time":757.048780487789,"midi_note":42,"velocity":80,"confidence":1.0},{"start_time":756.8658536585208,"end_time":757.048780487789,"midi_note":54,"velocity":80,"confidence":1.0},{"start_time":757.048780487789,"end_time":757.2317073170573,"midi_note":42,"velocity":80,"confidence":1.0},{"start_time":757.048780487789,"end_time":757.2317073170573,"midi_note":54,"velocity":80,"confidence":1.0},{"start_time":757.2317073170573,"end_time":757.4146341463255,"midi_note":75,"velocity":80,"confidence":1.0},{"start_time":757.2317073170573,"end_time":757.4146341463255,"midi_note":81,"velocity":80,"confidence":1.0},{"start_time":757.2317073170573,"end_time":757.4146341463255,"midi_note":84,"velocity":80,"confidence":1.0},{"start_time":757.2317073170573,"end_time":757.4146341463255,"midi_note":87,"velocity":80,"confidence":1.0},{"start_time":757.4146341463255,"end_time":757.5975609755938,"midi_note":75,"velocity":80,"confidence":1.0},{"start_time":757.4146341463255,"end_time":757.5975609755938,"midi_note":81,"velocity":80,"confidence":1.0},{"start_time":757.4146341463255,"end_time":757.5975609755938,"midi_note":84,"velocity":80,"confidence":1.0},{"start_time":757.4146341463255,"end_time":757.5975609755938,"midi_note":87,"velocity":80,"confidence":1.0},{"start_time":757.5975609755938,"end_time":757.780487804862,"midi_note":75,"velocity":80,"confidence":1.0},{"start_time":757.5975609755938,"end_time":757.780487804862,"midi_note":81,"velocity":80,"confidence":1.0},{"start_time":757.5975609755938,"end_time":757.780487804862,"midi_note":84,"velocity":80,"confidence":1.0},{"start_time":757.5975609755938,"end_time":757.780487804862,"midi_note":87,"velocity":80,"confidence":1.0},{"start_time":757.780487804862,"end_time":757.9634146341302,"midi_note":75,"velocity":80,"confidence":1.0},{"start_time":757.780487804862,"end_time":757.9634146341302,"midi_note":81,"velocity":80,"confidence":1.0},{"start_time":757.780487804862,"end_time":757.9634146341302,"midi_note":84,"velocity":80,"confidence":1.0},{"start_time":757.780487804862,"end_time":757.9634146341302,"midi_note":87,"velocity":80,"confidence":1.0},{"start_time":757.9634146341302,"end_time":758.1463414633985,"midi_note":42,"velocity":80,"confidence":1.0},{"start_time":757.9634146341302,"end_time":758.1463414633985,"midi_note":54,"velocity":80,"confidence":1.0},{"start_time":758.1463414633985,"end_time":758.3292682926667,"midi_note":42,"velocity":80,"confidence":1.0},{"start_time":758.1463414633985,"end_time":758.3292682926667,"midi_note":54,"velocity":80,"confidence":1.0},{"start_time":758.3292682926667,"end_time":758.512195121935,"midi_note":42,"velocity":80,"confidence":1.0},{"start_time":758.3292682926667,"end_time":758.512195121935,"midi_note":54,"velocity":80,"confidence":1.0},{"start_time":758.512195121935,"end_time":758.6951219512032,"midi_note":42,"velocity":80,"confidence":1.0},{"start_time":758.512195121935,"end_time":758.6951219512032,"midi_note":54,"velocity":80,"confidence":1.0},{"start_time":758.6951219512032,"end_time":758.8780487804714,"midi_note":75,"velocity":80,"confidence":1.0},{"start_time":758.6951219512032,"end_time":758.8780487804714,"midi_note":81,"velocity":80,"confidence":1.0},{"start_time":758.6951219512032,"end_time":758.8780487804714,"midi_note":84,"velocity":80,"confidence":1.0},{"start_time":758.6951219512032,"end_time":758.8780487804714,"midi_note":87,"velocity":80,"confidence":1.0},{"start_time":758.8780487804714,"end_time":759.0609756097397,"midi_note":75,"velocity":80,"confidence":1.0},{"start_time":758.8780487804714,"end_time":759.0609756097397,"midi_note":81,"velocity":80,"confidence":1.0},{"start_time":758.8780487804714,"end_time":759.0609756097397,"midi_note":84,"velocity":80,"confidence":1.0},{"start_time":758.8780487804714,"end_time":759.0609756097397,"midi_note":87,"velocity":80,"confidence":1.0},{"start_time":759.0609756097397,"end_time":759.2439024390079,"midi_note":75,"velocity":80,"confidence":1.0},{"start_time":759.0609756097397,"end_time":759.2439024390079,"midi_note":81,"velocity":80,"confidence":1.0},{"start_time":759.0609756097397,"end_time":759.2439024390079,"midi_note":84,"velocity":80,"confidence":1.0},{"start_time":759.0609756097397,"end_time":759.2439024390079,"midi_note":87,"velocity":80,"confidence":1.0},{"start_time":759.2439024390079,"end_time":759.4268292682762,"midi_note":75,"velocity":80,"confidence":1.0},{"start_time":759.2439024390079,"end_time":759.4268292682762,"midi_note":81,"velocity":80,"confidence":1.0},{"start_time":759.2439024390079,"end_time":759.4268292682762,"midi_note":84,"velocity":80,"confidence":1.0},{"start_time":759.2439024390079,"end_time":759.4268292682762,"midi_note":87,"velocity":80,"confidence":1.0},{"start_time":759.4268292682762,"end_time":759.6097560975444,"midi_note":42,"velocity":80,"confidence":1.0},{"start_time":759.4268292682762,"end_time":759.6097560975444,"midi_note":54,"velocity":80,"confidence":1.0},{"start_time":759.6097560975444,"end_time":759.7926829268126,"midi_note":42,"velocity":80,"confidence":1.0},{"start_time":759.6097560975444,"end_time":759.7926829268126,"midi_note":54,"velocity":80,"confidence":1.0},{"start_time":759.7926829268126,"end_time":759.9756097560809,"midi_note":42,"velocity":80,"confidence":1.0},{"start_time":759.7926829268126,"end_time":759.9756097560809,"midi_note":54,"velocity":80,"confidence":1.0},{"start_time":759.9756097560809,"end_time":760.1585365853491,"midi_note":42,"velocity":80,"confidence":1.0},{"start_time":759.9756097560809,"end_time":760.1585365853491,"midi_note":54,"velocity":80,"confidence":1.0},{"start_time":760.1585365853491,"end_time":760.3414634146174,"midi_note":75,"velocity":80,"confidence":1.0},{"start_time":760.1585365853491,"end_time":760.3414634146174,"midi_note":81,"velocity":80,"confidence":1.0},{"start_time":760.1585365853491,"end_time":760.3414634146174,"midi_note":84,"velocity":80,"confidence":1.0},{"start_time":760.1585365853491,"end_time":760.3414634146174,"midi_note":87,"velocity":80,"confidence":1.0},{"start_time":760.3414634146174,"end_time":760.5243902438856,"midi_note":75,"velocity":80,"confidence":1.0},{"start_time":760.3414634146174,"end_time":760.5243902438856,"midi_note":81,"velocity":80,"confidence":1.0},{"start_time":760.3414634146174,"end_time":760.5243902438856,"midi_note":84,"velocity":80,"confidence":1.0},{"start_time":760.3414634146174,"end_time":760.5243902438856,"midi_note":87,"velocity":80,"confidence":1.0},{"start_time":760.5243902438856,"end_time":760.7073170731538,"midi_note":75,"velocity":80,"confidence":1.0},{"start_time":760.5243902438856,"end_time":760.7073170731538,"midi_note":81,"velocity":80,"confidence":1.0},{"start_time":760.5243902438856,"end_time":760.7073170731538,"midi_note":84,"velocity":80,"confidence":1.0},{"start_time":760.5243902438856,"end_time":760.7073170731538,"midi_note":87,"velocity":80,"confidence":1.0},{"start_time":760.7073170731538,"end_time":760.8902439024221,"midi_note":75,"velocity":80,"confidence":1.0},{"start_time":760.7073170731538,"end_time":760.8902439024221,"midi_note":81,"velocity":80,"confidence":1.0},{"start_time":760.7073170731538,"end_time":760.8902439024221,"midi_note":84,"velocity":80,"confidence":1.0},{"start_time":760.7073170731538,"end_time":760.8902439024221,"midi_note":87,"velocity":80,"confidence":1.0},{"start_time":760.8902439024221,"end_time":761.0731707316903,"midi_note":42,"velocity":80,"confidence":1.0},{"start_time":760.8902439024221,"end_time":761.0731707316903,"midi_note":54,"velocity":80,"confidence":1.0},{"start_time":761.0731707316903,"end_time":761.2560975609586,"midi_note":42,"velocity":80,"confidence":1.0},{"start_time":761.0731707316903,"end_time":761.2560975609586,"midi_note":54,"velocity":80,"confidence":1.0},{"start_time":761.2560975609586,"end_time":761.4390243902268,"midi_note":42,"velocity":80,"confidence":1.0},{"start_time":761.2560975609586,"end_time":761.4390243902268,"midi_note":54,"velocity":80,"confidence":1.0},{"start_time":761.4390243902268,"end_time":761.621951219495,"midi_note":42,"velocity":80,"confidence":1.0},{"start_time":761.4390243902268,"end_time":761.621951219495,"midi_note":54,"velocity":80,"confidence":1.0},{"start_time":761.621951219495,"end_time":761.9878048780316,"midi_note":75,"velocity":80,"confidence":1.0},{"start_time":761.621951219495,"end_time":761.9878048780316,"midi_note":81,"velocity":80,"confidence":1.0},{"start_time":761.621951219495,"end_time":761.9878048780316,"midi_note":84,"velocity":80,"confidence":1.0},{"start_time":761.621951219495,"end_time":761.9878048780316,"midi_note":87,"velocity":80,"confidence":1.0},{"start_time":762.3536585365682,"end_time":762.7195121951048,"midi_note":42,"velocity":80,"confidence":1.0},{"start_time":762.3536585365682,"end_time":762.7195121951048,"midi_note":54,"velocity":80,"confidence":1.0},{"start_time":763.2682926829096,"end_time":763.4512195121779,"midi_note":72,"velocity":80,"confidence":1.0},{"start_time":763.2682926829096,"end_time":763.4512195121779,"midi_note":84,"velocity":80,"confidence":1.0},{"start_time":763.4512195121779,"end_time":763.6341463414461,"midi_note":72,"velocity":80,"confidence":1.0},{"start_time":763.4512195121779,"end_time":763.6341463414461,"midi_note":84,"velocity":80,"confidence":1.0},{"start_time":763.6341463414461,"end_time":763.8170731707144,"midi_note":72,"velocity":80,"confidence":1.0},{"start_time":763.6341463414461,"end_time":763.8170731707144,"midi_note":84,"velocity":80,"confidence":1.0},{"start_time":763.9999999999826,"end_time":764.1829268292508,"midi_note":60,"velocity":80,"confidence":1.0},{"start_time":764.1829268292508,"end_time":764.3658536585191,"midi_note":60,"velocity":80,"confidence":1.0},{"start_time":764.3658536585191,"end_time":764.5487804877873,"midi_note":60,"velocity":80,"confidence":1.0},{"start_time":764.5487804877873,"end_time":764.9146341463239,"midi_note":75,"velocity":80,"confidence":1.0},{"start_time":764.5487804877873,"end_time":764.9146341463239,"midi_note":87,"velocity":80,"confidence":1.0},{"start_time":765.2804878048605,"end_time":765.6463414633971,"midi_note":63,"velocity":80,"confidence":1.0},{"start_time":766.1951219512019,"end_time":766.3780487804702,"midi_note":67,"velocity":80,"confidence":1.0},{"start_time":766.3780487804702,"end_time":766.5609756097384,"midi_note":67,"velocity":80,"confidence":1.0},{"start_time":766.5609756097384,"end_time":766.7439024390067,"midi_note":67,"velocity":80,"confidence":1.0},{"start_time":767.4756097560798,"end_time":768.207317073153,"midi_note":63,"velocity":80,"confidence":1.0},{"start_time":768.207317073153,"end_time":768.5731707316896,"midi_note":55,"velocity":80,"confidence":1.0},{"start_time":768.9390243902262,"end_time":769.3048780487628,"midi_note":31,"velocity":80,"confidence":1.0},{"start_time":768.9390243902262,"end_time":769.3048780487628,"midi_note":43,"velocity":80,"confidence":1.0},{"start_time":769.6707317072994,"end_time":769.8536585365677,"midi_note":71,"velocity":80,"confidence":1.0},{"start_time":769.8536585365677,"end_time":770.0365853658359,"midi_note":72,"velocity":80,"confidence":1.0},{"start_time":770.0365853658359,"end_time":770.2195121951041,"midi_note":74,"velocity":80,"confidence":1.0},{"start_time":770.2195121951041,"end_time":770.4024390243724,"midi_note":75,"velocity":80,"confidence":1.0},{"start_time":770.4024390243724,"end_time":771.1341463414456,"midi_note":65,"velocity":80,"confidence":1.0},{"start_time":771.1341463414456,"end_time":771.8658536585187,"midi_note":83,"velocity":80,"confidence":1.0},{"start_time":771.8658536585187,"end_time":772.048780487787,"midi_note":77,"velocity":80,"confidence":1.0},{"start_time":772.048780487787,"end_time":772.2317073170552,"midi_note":79,"velocity":80,"confidence":1.0},{"start_time":772.2317073170552,"end_time":772.4146341463235,"midi_note":80,"velocity":80,"confidence":1.0},{"start_time":772.4146341463235,"end_time":772.5975609755917,"midi_note":79,"velocity":80,"confidence":1.0},{"start_time":772.5975609755917,"end_time":773.3292682926649,"midi_note":62,"velocity":80,"confidence":1.0},{"start_time":773.3292682926649,"end_time":774.0609756097381,"midi_note":83,"velocity":80,"confidence":1.0},{"start_time":774.0609756097381,"end_time":774.2439024390063,"midi_note":80,"velocity":80,"confidence":1.0},{"start_time":774.2439024390063,"end_time":774.4268292682746,"midi_note":79,"velocity":80,"confidence":1.0},{"start_time":774.4268292682746,"end_time":774.6097560975428,"midi_note":80,"velocity":80,"confidence":1.0},{"start_time":774.6097560975428,"end_time":774.792682926811,"midi_note":79,"velocity":80,"confidence":1.0},{"start_time":774.792682926811,"end_time":774.9756097560793,"midi_note":62,"velocity":80,"confidence":1.0},{"start_time":774.9756097560793,"end_time":775.1585365853475,"midi_note":67,"velocity":80,"confidence":1.0},{"start_time":775.1585365853475,"end_time":775.3414634146158,"midi_note":67,"velocity":80,"confidence":1.0},{"start_time":775.3414634146158,"end_time":775.524390243884,"midi_note":67,"velocity":80,"confidence":1.0},{"start_time":775.524390243884,"end_time":776.2560975609572,"midi_note":63,"velocity":80,"confidence":1.0},{"start_time":776.2560975609572,"end_time":776.6219512194938,"midi_note":43,"velocity":80,"confidence":1.0},{"start_time":776.2560975609572,"end_time":776.6219512194938,"midi_note":55,"velocity":80,"confidence":1.0},{"start_time":776.9878048780304,"end_time":777.1707317072986,"midi_note":71,"velocity":80,"confidence":1.0},{"start_time":777.1707317072986,"end_time":777.3536585365669,"midi_note":72,"velocity":80,"confidence":1.0},{"start_time":777.3536585365669,"end_time":777.5365853658351,"midi_note":74,"velocity":80,"confidence":1.0},{"start_time":777.5365853658351,"end_time":777.7195121951033,"midi_note":75,"velocity":80,"confidence":1.0},{"start_time":777.7195121951033,"end_time":778.4512195121765,"midi_note":65,"velocity":80,"confidence":1.0},{"start_time":778.4512195121765,"end_time":779.1829268292497,"midi_note":83,"velocity":80,"confidence":1.0},{"start_time":779.1829268292497,"end_time":779.365853658518,"midi_note":77,"velocity":80,"confidence":1.0},{"start_time":779.365853658518,"end_time":779.5487804877862,"midi_note":79,"velocity":80,"confidence":1.0},{"start_time":779.5487804877862,"end_time":779.7317073170544,"midi_note":80,"velocity":80,"confidence":1.0},{"start_time":779.7317073170544,"end_time":779.9146341463227,"midi_note":79,"velocity":80,"confidence":1.0},{"start_time":779.9146341463227,"end_time":780.6463414633959,"midi_note":62,"velocity":80,"confidence":1.0},{"start_time":780.6463414633959,"end_time":781.378048780469,"midi_note":83,"velocity":80,"confidence":1.0},{"start_time":781.378048780469,"end_time":781.5609756097373,"midi_note":80,"velocity":80,"confidence":1.0},{"start_time":781.5609756097373,"end_time":781.7439024390055,"midi_note":79,"velocity":80,"confidence":1.0},{"start_time":781.7439024390055,"end_time":781.9268292682738,"midi_note":80,"velocity":80,"confidence":1.0},{"start_time":781.9268292682738,"end_time":782.109756097542,"midi_note":79,"velocity":80,"confidence":1.0},{"start_time":782.109756097542,"end_time":782.2926829268102,"midi_note":62,"velocity":80,"confidence":1.0},{"start_time":782.2926829268102,"end_time":782.4756097560785,"midi_note":67,"velocity":80,"confidence":1.0},{"start_time":782.4756097560785,"end_time":782.6585365853467,"midi_note":67,"velocity":80,"confidence":1.0},{"start_time":782.6585365853467,"end_time":782.841463414615,"midi_note":67,"velocity":80,"confidence":1.0},{"start_time":782.841463414615,"end_time":783.0243902438832,"midi_note":80,"velocity":80,"confidence":1.0},{"start_time":783.0243902438832,"end_time":783.2073170731514,"midi_note":79,"velocity":80,"confidence":1.0},{"start_time":783.2073170731514,"end_time":783.3902439024197,"midi_note":82,"velocity":80,"confidence":1.0},{"start_time":783.3902439024197,"end_time":783.5731707316879,"midi_note":80,"velocity":80,"confidence":1.0},{"start_time":783.5731707316879,"end_time":783.9390243902245,"midi_note":63,"velocity":80,"confidence":1.0},{"start_time":783.9390243902245,"end_time":784.3048780487611,"midi_note":65,"velocity":80,"confidence":1.0},{"start_time":784.3048780487611,"end_time":784.4878048780294,"midi_note":79,"velocity":80,"confidence":1.0},{"start_time":784.4878048780294,"end_time":784.6707317072976,"midi_note":77,"velocity":80,"confidence":1.0},{"start_time":784.6707317072976,"end_time":784.8536585365658,"midi_note":80,"velocity":80,"confidence":1.0},{"start_time":784.8536585365658,"end_time":785.0365853658341,"midi_note":79,"velocity":80,"confidence":1.0},{"start_time":785.0365853658341,"end_time":785.4024390243707,"midi_note":62,"velocity":80,"confidence":1.0},{"start_time":785.4024390243707,"end_time":785.7682926829073,"midi_note":63,"velocity":80,"confidence":1.0},{"start_time":785.7682926829073,"end_time":785.9512195121755,"midi_note":77,"velocity":80,"confidence":1.0},{"start_time":785.9512195121755,"end_time":786.1341463414437,"midi_note":75,"velocity":80,"confidence":1.0},{"start_time":786.1341463414437,"end_time":786.317073170712,"midi_note":79,"velocity":80,"confidence":1.0},{"start_time":786.317073170712,"end_time":786.4999999999802,"midi_note":77,"velocity":80,"confidence":1.0},{"start_time":786.4999999999802,"end_time":786.8658536585168,"midi_note":60,"velocity":80,"confidence":1.0},{"start_time":786.8658536585168,"end_time":787.2317073170534,"midi_note":62,"velocity":80,"confidence":1.0},{"start_time":787.2317073170534,"end_time":787.4146341463216,"midi_note":75,"velocity":80,"confidence":1.0},{"start_time":787.4146341463216,"end_time":787.5975609755899,"midi_note":74,"velocity":80,"confidence":1.0},{"start_time":787.5975609755899,"end_time":787.7804878048581,"midi_note":77,"velocity":80,"confidence":1.0},{"start_time":787.7804878048581,"end_time":787.9634146341264,"midi_note":75,"velocity":80,"confidence":1.0},{"start_time":787.9634146341264,"end_time":788.329268292663,"midi_note":58,"velocity":80,"confidence":1.0},{"start_time":788.329268292663,"end_time":788.6951219511996,"midi_note":60,"velocity":80,"confidence":1.0},{"start_time":788.6951219511996,"end_time":788.8780487804678,"midi_note":74,"velocity":80,"confidence":1.0},{"start_time":788.8780487804678,"end_time":789.060975609736,"midi_note":72,"velocity":80,"confidence":1.0},{"start_time":789.060975609736,"end_time":789.2439024390043,"midi_note":75,"velocity":80,"confidence":1.0},{"start_time":789.2439024390043,"end_time":789.4268292682725,"midi_note":74,"velocity":80,"confidence":1.0},{"start_time":789.4268292682725,"end_time":789.7926829268091,"midi_note":44,"velocity":80,"confidence":1.0},{"start_time":789.4268292682725,"end_time":789.7926829268091,"midi_note":56,"velocity":80,"confidence":1.0},{"start_time":789.7926829268091,"end_time":790.1585365853457,"midi_note":46,"velocity":80,"confidence":1.0},{"start_time":789.7926829268091,"end_time":790.1585365853457,"midi_note":58,"velocity":80,"confidence":1.0},{"start_time":790.1585365853457,"end_time":790.3414634146139,"midi_note":72,"velocity":80,"confidence":1.0},{"start_time":790.3414634146139,"end_time":790.5243902438822,"midi_note":70,"velocity":80,"confidence":1.0},{"start_time":790.5243902438822,"end_time":790.7073170731504,"midi_note":74,"velocity":80,"confidence":1.0},{"start_time":790.7073170731504,"end_time":790.8902439024187,"midi_note":72,"velocity":80,"confidence":1.0},{"start_time":790.8902439024187,"end_time":791.2560975609553,"midi_note":43,"velocity":80,"confidence":1.0},{"start_time":790.8902439024187,"end_time":791.2560975609553,"midi_note":55,"velocity":80,"confidence":1.0},{"start_time":791.2560975609553,"end_time":791.6219512194918,"midi_note":44,"velocity":80,"confidence":1.0},{"start_time":791.2560975609553,"end_time":791.6219512194918,"midi_note":56,"velocity":80,"confidence":1.0},{"start_time":791.6219512194918,"end_time":791.8048780487601,"midi_note":70,"velocity":80,"confidence":1.0},{"start_time":791.8048780487601,"end_time":791.9878048780283,"midi_note":68,"velocity":80,"confidence":1.0},{"start_time":791.9878048780283,"end_time":792.1707317072966,"midi_note":72,"velocity":80,"confidence":1.0},{"start_time":792.1707317072966,"end_time":792.3536585365648,"midi_note":70,"velocity":80,"confidence":1.0},{"start_time":792.3536585365648,"end_time":792.7195121951014,"midi_note":41,"velocity":80,"confidence":1.0},{"start_time":792.3536585365648,"end_time":792.7195121951014,"midi_note":53,"velocity":80,"confidence":1.0},{"start_time":792.7195121951014,"end_time":793.085365853638,"midi_note":43,"velocity":80,"confidence":1.0},{"start_time":792.7195121951014,"end_time":793.085365853638,"midi_note":55,"velocity":80,"confidence":1.0},{"start_time":793.085365853638,"end_time":793.2682926829062,"midi_note":68,"velocity":80,"confidence":1.0},{"start_time":793.2682926829062,"end_time":793.4512195121745,"midi_note":67,"velocity":80,"confidence":1.0},{"start_time":793.4512195121745,"end_time":793.6341463414427,"midi_note":70,"velocity":80,"confidence":1.0},{"start_time":793.6341463414427,"end_time":793.817073170711,"midi_note":68,"velocity":80,"confidence":1.0},{"start_time":793.817073170711,"end_time":794.1829268292475,"midi_note":39,"velocity":80,"confidence":1.0},{"start_time":793.817073170711,"end_time":794.1829268292475,"midi_note":51,"velocity":80,"confidence":1.0},{"start_time":794.1829268292475,"end_time":794.5487804877841,"midi_note":41,"velocity":80,"confidence":1.0},{"start_time":794.1829268292475,"end_time":794.5487804877841,"midi_note":53,"velocity":80,"confidence":1.0},{"start_time":794.5487804877841,"end_time":794.7317073170524,"midi_note":65,"velocity":80,"confidence":1.0},{"start_time":794.7317073170524,"end_time":794.9146341463206,"midi_note":67,"velocity":80,"confidence":1.0},{"start_time":794.9146341463206,"end_time":795.0975609755889,"midi_note":55,"velocity":80,"confidence":1.0},{"start_time":794.9146341463206,"end_time":795.0975609755889,"midi_note":63,"velocity":80,"confidence":1.0},{"start_time":795.0975609755889,"end_time":795.2804878048571,"midi_note":67,"velocity":80,"confidence":1.0},{"start_time":795.2804878048571,"end_time":795.6463414633937,"midi_note":38,"velocity":80,"confidence":1.0},{"start_time":795.2804878048571,"end_time":795.6463414633937,"midi_note":50,"velocity":80,"confidence":1.0},{"start_time":795.6463414633937,"end_time":796.0121951219303,"midi_note":36,"velocity":80,"confidence":1.0},{"start_time":795.6463414633937,"end_time":796.0121951219303,"midi_note":43,"velocity":80,"confidence":1.0},{"start_time":795.6463414633937,"end_time":796.0121951219303,"midi_note":48,"velocity":80,"confidence":1.0},{"start_time":796.0121951219303,"end_time":796.1951219511985,"midi_note":55,"velocity":80,"confidence":1.0},{"start_time":796.0121951219303,"end_time":796.1951219511985,"midi_note":62,"velocity":80,"confidence":1.0},{"start_time":796.1951219511985,"end_time":796.3780487804668,"midi_note":67,"velocity":80,"confidence":1.0},{"start_time":796.3780487804668,"end_time":796.560975609735,"midi_note":55,"velocity":80,"confidence":1.0},{"start_time":796.3780487804668,"end_time":796.560975609735,"midi_note":63,"velocity":80,"confidence":1.0},{"start_time":796.560975609735,"end_time":796.7439024390033,"midi_note":67,"velocity":80,"confidence":1.0},{"start_time":796.7439024390033,"end_time":797.1097560975398,"midi_note":35,"velocity":80,"confidence":1.0},{"start_time":796.7439024390033,"end_time":797.1097560975398,"midi_note":43,"velocity":80,"confidence":1.0},{"start_time":796.7439024390033,"end_time":797.1097560975398,"midi_note":47,"velocity":80,"confidence":1.0},{"start_time":797.1097560975398,"end_time":797.4756097560764,"midi_note":36,"velocity":80,"confidence":1.0},{"start_time":797.1097560975398,"end_time":797.4756097560764,"midi_note":48,"velocity":80,"confidence":1.0},{"start_time":797.4756097560764,"end_time":797.6585365853447,"midi_note":55,"velocity":80,"confidence":1.0},{"start_time":797.4756097560764,"end_time":797.6585365853447,"midi_note":65,"velocity":80,"confidence":1.0},{"start_time":797.6585365853447,"end_time":797.8414634146129,"midi_note":67,"velocity":80,"confidence":1.0},{"start_time":797.8414634146129,"end_time":798.0243902438812,"midi_note":55,"velocity":80,"confidence":1.0},{"start_time":797.8414634146129,"end_time":798.0243902438812,"midi_note":63,"velocity":80,"confidence":1.0},{"start_time":798.0243902438812,"end_time":798.2073170731494,"midi_note":67,"velocity":80,"confidence":1.0},{"start_time":798.2073170731494,"end_time":798.573170731686,"midi_note":38,"velocity":80,"confidence":1.0},{"start_time":798.2073170731494,"end_time":798.573170731686,"midi_note":43,"velocity":80,"confidence":1.0},{"start_time":798.2073170731494,"end_time":798.573170731686,"midi_note":50,"velocity":80,"confidence":1.0},{"start_time":798.573170731686,"end_time":798.9390243902226,"midi_note":36,"velocity":80,"confidence":1.0},{"start_time":798.573170731686,"end_time":798.9390243902226,"midi_note":43,"velocity":80,"confidence":1.0},{"start_time":798.573170731686,"end_time":798.9390243902226,"midi_note":48,"velocity":80,"confidence":1.0},{"start_time":798.9390243902226,"end_time":799.1219512194908,"midi_note":55,"velocity":80,"confidence":1.0},{"start_time":798.9390243902226,"end_time":799.1219512194908,"midi_note":65,"velocity":80,"confidence":1.0},{"start_time":799.1219512194908,"end_time":799.3048780487591,"midi_note":67,"velocity":80,"confidence":1.0},{"start_time":799.3048780487591,"end_time":799.4878048780273,"midi_note":60,"velocity":80,"confidence":1.0},{"start_time":799.3048780487591,"end_time":799.4878048780273,"midi_note":67,"velocity":80,"confidence":1.0},{"start_time":799.4878048780273,"end_time":799.6707317072955,"midi_note":72,"velocity":80,"confidence":1.0},{"start_time":799.6707317072955,"end_time":800.0365853658321,"midi_note":38,"velocity":80,"confidence":1.0},{"start_time":799.6707317072955,"end_time":800.0365853658321,"midi_note":43,"velocity":80,"confidence":1.0},{"start_time":799.6707317072955,"end_time":800.0365853658321,"midi_note":50,"velocity":80,"confidence":1.0},{"start_time":800.0365853658321,"end_time":800.4024390243687,"midi_note":40,"velocity":80,"confidence":1.0},{"start_time":800.0365853658321,"end_time":800.4024390243687,"midi_note":48,"velocity":80,"confidence":1.0},{"start_time":800.0365853658321,"end_time":800.4024390243687,"midi_note":52,"velocity":80,"confidence":1.0},{"start_time":800.4024390243687,"end_time":800.585365853637,"midi_note":60,"velocity":80,"confidence":1.0},{"start_time":800.4024390243687,"end_time":800.585365853637,"midi_note":68,"velocity":80,"confidence":1.0},{"start_time":800.585365853637,"end_time":800.7682926829052,"midi_note":72,"velocity":80,"confidence":1.0},{"start_time":800.7682926829052,"end_time":800.9512195121735,"midi_note":60,"velocity":80,"confidence":1.0},{"start_time":800.7682926829052,"end_time":800.9512195121735,"midi_note":67,"velocity":80,"confidence":1.0},{"start_time":800.9512195121735,"end_time":801.1341463414417,"midi_note":72,"velocity":80,"confidence":1.0},{"start_time":801.1341463414417,"end_time":801.4999999999783,"midi_note":41,"velocity":80,"confidence":1.0},{"start_time":801.1341463414417,"end_time":801.4999999999783,"midi_note":48,"velocity":80,"confidence":1.0},{"start_time":801.1341463414417,"end_time":801.4999999999783,"midi_note":53,"velocity":80,"confidence":1.0},{"start_time":801.4999999999783,"end_time":801.8658536585149,"midi_note":40,"velocity":80,"confidence":1.0},{"start_time":801.4999999999783,"end_time":801.8658536585149,"midi_note":48,"velocity":80,"confidence":1.0},{"start_time":801.4999999999783,"end_time":801.8658536585149,"midi_note":52,"velocity":80,"confidence":1.0},{"start_time":801.8658536585149,"end_time":802.0487804877831,"midi_note":60,"velocity":80,"confidence":1.0},{"start_time":801.8658536585149,"end_time":802.0487804877831,"midi_note":68,"velocity":80,"confidence":1.0},{"start_time":802.0487804877831,"end_time":802.2317073170514,"midi_note":72,"velocity":80,"confidence":1.0},{"start_time":802.2317073170514,"end_time":802.4146341463196,"midi_note":67,"velocity":80,"confidence":1.0},{"start_time":802.2317073170514,"end_time":802.4146341463196,"midi_note":71,"velocity":80,"confidence":1.0},{"start_time":802.4146341463196,"end_time":802.5975609755878,"midi_note":77,"velocity":80,"confidence":1.0},{"start_time":802.5975609755878,"end_time":802.9634146341244,"midi_note":41,"velocity":80,"confidence":1.0},{"start_time":802.5975609755878,"end_time":802.9634146341244,"midi_note":48,"velocity":80,"confidence":1.0},{"start_time":802.5975609755878,"end_time":802.9634146341244,"midi_note":53,"velocity":80,"confidence":1.0},{"start_time":802.9634146341244,"end_time":803.329268292661,"midi_note":43,"velocity":80,"confidence":1.0},{"start_time":802.9634146341244,"end_time":803.329268292661,"midi_note":55,"velocity":80,"confidence":1.0},{"start_time":803.329268292661,"end_time":803.5121951219293,"midi_note":67,"velocity":80,"confidence":1.0},{"start_time":803.329268292661,"end_time":803.5121951219293,"midi_note":72,"velocity":80,"confidence":1.0},{"start_time":803.5121951219293,"end_time":803.6951219511975,"midi_note":77,"velocity":80,"confidence":1.0},{"start_time":803.6951219511975,"end_time":803.8780487804657,"midi_note":67,"velocity":80,"confidence":1.0},{"start_time":803.6951219511975,"end_time":803.8780487804657,"midi_note":71,"velocity":80,"confidence":1.0},{"start_time":803.8780487804657,"end_time":804.060975609734,"midi_note":77,"velocity":80,"confidence":1.0},{"start_time":804.060975609734,"end_time":804.4268292682706,"midi_note":44,"velocity":80,"confidence":1.0},{"start_time":804.060975609734,"end_time":804.4268292682706,"midi_note":56,"velocity":80,"confidence":1.0},{"start_time":804.4268292682706,"end_time":804.7926829268072,"midi_note":43,"velocity":80,"confidence":1.0},{"start_time":804.4268292682706,"end_time":804.7926829268072,"midi_note":55,"velocity":80,"confidence":1.0},{"start_time":804.7926829268072,"end_time":804.9756097560754,"midi_note":67,"velocity":80,"confidence":1.0},{"start_time":804.7926829268072,"end_time":804.9756097560754,"midi_note":72,"velocity":80,"confidence":1.0},{"start_time":804.9756097560754,"end_time":805.1585365853437,"midi_note":77,"velocity":80,"confidence":1.0},{"start_time":805.1585365853437,"end_time":805.3414634146119,"midi_note":67,"velocity":80,"confidence":1.0},{"start_time":805.1585365853437,"end_time":805.3414634146119,"midi_note":74,"velocity":80,"confidence":1.0},{"start_time":805.3414634146119,"end_time":805.5243902438801,"midi_note":79,"velocity":80,"confidence":1.0},{"start_time":805.5243902438801,"end_time":805.8902439024167,"midi_note":45,"velocity":80,"confidence":1.0},{"start_time":805.5243902438801,"end_time":805.8902439024167,"midi_note":55,"velocity":80,"confidence":1.0},{"start_time":805.5243902438801,"end_time":805.8902439024167,"midi_note":57,"velocity":80,"confidence":1.0},{"start_time":805.8902439024167,"end_time":806.2560975609533,"midi_note":47,"velocity":80,"confidence":1.0},{"start_time":805.8902439024167,"end_time":806.2560975609533,"midi_note":55,"velocity":80,"confidence":1.0},{"start_time":805.8902439024167,"end_time":806.2560975609533,"midi_note":59,"velocity":80,"confidence":1.0},{"start_time":806.2560975609533,"end_time":806.6219512194899,"midi_note":63,"velocity":80,"confidence":1.0},{"start_time":806.2560975609533,"end_time":806.6219512194899,"midi_note":75,"velocity":80,"confidence":1.0},{"start_time":806.6219512194899,"end_time":806.9878048780265,"midi_note":72,"velocity":80,"confidence":1.0},{"start_time":806.9878048780265,"end_time":807.7195121950997,"midi_note":48,"velocity":80,"confidence":1.0},{"start_time":806.9878048780265,"end_time":807.7195121950997,"midi_note":60,"velocity":80,"confidence":1.0},{"start_time":807.7195121950997,"end_time":808.0853658536363,"midi_note":62,"velocity":80,"confidence":1.0},{"start_time":807.7195121950997,"end_time":808.0853658536363,"midi_note":74,"velocity":80,"confidence":1.0},{"start_time":808.0853658536363,"end_time":808.4512195121729,"midi_note":63,"velocity":80,"confidence":1.0},{"start_time":808.0853658536363,"end_time":808.4512195121729,"midi_note":75,"velocity":80,"confidence":1.0},{"start_time":808.4512195121729,"end_time":809.1829268292461,"midi_note":48,"velocity":80,"confidence":1.0},{"start_time":808.4512195121729,"end_time":809.1829268292461,"midi_note":60,"velocity":80,"confidence":1.0},{"start_time":809.1829268292461,"end_time":809.5487804877827,"midi_note":65,"velocity":80,"confidence":1.0},{"start_time":809.1829268292461,"end_time":809.5487804877827,"midi_note":77,"velocity":80,"confidence":1.0},{"start_time":809.5487804877827,"end_time":809.9146341463193,"midi_note":62,"velocity":80,"confidence":1.0},{"start_time":809.5487804877827,"end_time":809.9146341463193,"midi_note":74,"velocity":80,"confidence":1.0},{"start_time":809.9146341463193,"end_time":810.6463414633924,"midi_note":72,"velocity":80,"confidence":1.0},{"start_time":810.6463414633924,"end_time":811.3780487804656,"midi_note":44,"velocity":80,"confidence":1.0},{"start_time":810.6463414633924,"end_time":811.3780487804656,"midi_note":48,"velocity":80,"confidence":1.0},{"start_time":810.6463414633924,"end_time":811.3780487804656,"midi_note":56,"velocity":80,"confidence":1.0},{"start_time":811.3780487804656,"end_time":811.7439024390022,"midi_note":63,"velocity":80,"confidence":1.0},{"start_time":811.3780487804656,"end_time":811.7439024390022,"midi_note":75,"velocity":80,"confidence":1.0},{"start_time":811.7439024390022,"end_time":812.1097560975388,"midi_note":65,"velocity":80,"confidence":1.0},{"start_time":811.7439024390022,"end_time":812.1097560975388,"midi_note":77,"velocity":80,"confidence":1.0},{"start_time":812.1097560975388,"end_time":812.841463414612,"midi_note":44,"velocity":80,"confidence":1.0},{"start_time":812.1097560975388,"end_time":812.841463414612,"midi_note":48,"velocity":80,"confidence":1.0},{"start_time":812.1097560975388,"end_time":812.841463414612,"midi_note":56,"velocity":80,"confidence":1.0},{"start_time":812.841463414612,"end_time":813.2073170731486,"midi_note":67,"velocity":80,"confidence":1.0},{"start_time":812.841463414612,"end_time":813.2073170731486,"midi_note":79,"velocity":80,"confidence":1.0},{"start_time":813.2073170731486,"end_time":813.5731707316852,"midi_note":63,"velocity":80,"confidence":1.0},{"start_time":813.2073170731486,"end_time":813.5731707316852,"midi_note":75,"velocity":80,"confidence":1.0},{"start_time":813.5731707316852,"end_time":814.3048780487584,"midi_note":72,"velocity":80,"confidence":1.0},{"start_time":814.3048780487584,"end_time":815.0365853658316,"midi_note":39,"velocity":80,"confidence":1.0},{"start_time":814.3048780487584,"end_time":815.0365853658316,"midi_note":48,"velocity":80,"confidence":1.0},{"start_time":814.3048780487584,"end_time":815.0365853658316,"midi_note":51,"velocity":80,"confidence":1.0},{"start_time":815.0365853658316,"end_time":815.4024390243682,"midi_note":65,"velocity":80,"confidence":1.0},{"start_time":815.0365853658316,"end_time":815.4024390243682,"midi_note":77,"velocity":80,"confidence":1.0},{"start_time":815.4024390243682,"end_time":815.7682926829048,"midi_note":67,"velocity":80,"confidence":1.0},{"start_time":815.4024390243682,"end_time":815.7682926829048,"midi_note":79,"velocity":80,"confidence":1.0},{"start_time":815.7682926829048,"end_time":816.499999999978,"midi_note":39,"velocity":80,"confidence":1.0},{"start_time":815.7682926829048,"end_time":816.499999999978,"midi_note":48,"velocity":80,"confidence":1.0},{"start_time":815.7682926829048,"end_time":816.499999999978,"midi_note":51,"velocity":80,"confidence":1.0},{"start_time":816.499999999978,"end_time":816.8658536585145,"midi_note":68,"velocity":80,"confidence":1.0},{"start_time":816.499999999978,"end_time":816.8658536585145,"midi_note":80,"velocity":80,"confidence":1.0},{"start_time":816.8658536585145,"end_time":817.2317073170511,"midi_note":65,"velocity":80,"confidence":1.0},{"start_time":816.8658536585145,"end_time":817.2317073170511,"midi_note":77,"velocity":80,"confidence":1.0},{"start_time":817.2317073170511,"end_time":817.9634146341243,"midi_note":72,"velocity":80,"confidence":1.0},{"start_time":817.9634146341243,"end_time":818.6951219511975,"midi_note":41,"velocity":80,"confidence":1.0},{"start_time":817.9634146341243,"end_time":818.6951219511975,"midi_note":48,"velocity":80,"confidence":1.0},{"start_time":817.9634146341243,"end_time":818.6951219511975,"midi_note":53,"velocity":80,"confidence":1.0},{"start_time":818.6951219511975,"end_time":819.0609756097341,"midi_note":67,"velocity":80,"confidence":1.0},{"start_time":818.6951219511975,"end_time":819.0609756097341,"midi_note":79,"velocity":80,"confidence":1.0},{"start_time":819.0609756097341,"end_time":819.4268292682707,"midi_note":69,"velocity":80,"confidence":1.0},{"start_time":819.0609756097341,"end_time":819.4268292682707,"midi_note":81,"velocity":80,"confidence":1.0},{"start_time":819.4268292682707,"end_time":820.1585365853439,"midi_note":39,"velocity":80,"confidence":1.0},{"start_time":819.4268292682707,"end_time":820.1585365853439,"midi_note":48,"velocity":80,"confidence":1.0},{"start_time":819.4268292682707,"end_time":820.1585365853439,"midi_note":51,"velocity":80,"confidence":1.0},{"start_time":820.1585365853439,"end_time":820.5243902438805,"midi_note":71,"velocity":80,"confidence":1.0},{"start_time":820.1585365853439,"end_time":820.5243902438805,"midi_note":83,"velocity":80,"confidence":1.0},{"start_time":820.5243902438805,"end_time":820.8902439024171,"midi_note":67,"velocity":80,"confidence":1.0},{"start_time":820.5243902438805,"end_time":820.8902439024171,"midi_note":79,"velocity":80,"confidence":1.0},{"start_time":820.8902439024171,"end_time":821.6219512194903,"midi_note":77,"velocity":80,"confidence":1.0},{"start_time":821.6219512194903,"end_time":822.3536585365634,"midi_note":38,"velocity":80,"confidence":1.0},{"start_time":821.6219512194903,"end_time":822.3536585365634,"midi_note":43,"velocity":80,"confidence":1.0},{"start_time":821.6219512194903,"end_time":822.3536585365634,"midi_note":50,"velocity":80,"confidence":1.0},{"start_time":822.3536585365634,"end_time":822.7195121951,"midi_note":69,"velocity":80,"confidence":1.0},{"start_time":822.3536585365634,"end_time":822.7195121951,"midi_note":81,"velocity":80,"confidence":1.0},{"start_time":822.7195121951,"end_time":823.0853658536366,"midi_note":71,"velocity":80,"confidence":1.0},{"start_time":822.7195121951,"end_time":823.0853658536366,"midi_note":83,"velocity":80,"confidence":1.0},{"start_time":823.0853658536366,"end_time":823.8170731707098,"midi_note":41,"velocity":80,"confidence":1.0},{"start_time":823.0853658536366,"end_time":823.8170731707098,"midi_note":43,"velocity":80,"confidence":1.0},{"start_time":823.0853658536366,"end_time":823.8170731707098,"midi_note":53,"velocity":80,"confidence":1.0},{"start_time":823.8170731707098,"end_time":824.1829268292464,"midi_note":72,"velocity":80,"confidence":1.0},{"start_time":823.8170731707098,"end_time":824.1829268292464,"midi_note":84,"velocity":80,"confidence":1.0},{"start_time":824.1829268292464,"end_time":824.548780487783,"midi_note":79,"velocity":80,"confidence":1.0},{"start_time":824.548780487783,"end_time":824.9146341463196,"midi_note":39,"velocity":80,"confidence":1.0},{"start_time":824.548780487783,"end_time":824.9146341463196,"midi_note":43,"velocity":80,"confidence":1.0},{"start_time":824.548780487783,"end_time":824.9146341463196,"midi_note":51,"velocity":80,"confidence":1.0},{"start_time":825.2804878048562,"end_time":825.6463414633928,"midi_note":68,"velocity":80,"confidence":1.0},{"start_time":825.2804878048562,"end_time":825.6463414633928,"midi_note":75,"velocity":80,"confidence":1.0},{"start_time":825.2804878048562,"end_time":825.6463414633928,"midi_note":80,"velocity":80,"confidence":1.0},{"start_time":825.6463414633928,"end_time":826.0121951219294,"midi_note":63,"velocity":80,"confidence":1.0},{"start_time":825.6463414633928,"end_time":826.0121951219294,"midi_note":75,"velocity":80,"confidence":1.0},{"start_time":826.0121951219294,"end_time":826.378048780466,"midi_note":36,"velocity":80,"confidence":1.0},{"start_time":826.0121951219294,"end_time":826.378048780466,"midi_note":48,"velocity":80,"confidence":1.0},{"start_time":826.7439024390026,"end_time":827.1097560975392,"midi_note":65,"velocity":80,"confidence":1.0},{"start_time":826.7439024390026,"end_time":827.1097560975392,"midi_note":68,"velocity":80,"confidence":1.0},{"start_time":826.7439024390026,"end_time":827.1097560975392,"midi_note":72,"velocity":80,"confidence":1.0},{"start_time":826.7439024390026,"end_time":827.1097560975392,"midi_note":77,"velocity":80,"confidence":1.0},{"start_time":827.1097560975392,"end_time":827.4756097560758,"midi_note":62,"velocity":80,"confidence":1.0},{"start_time":827.1097560975392,"end_time":827.4756097560758,"midi_note":74,"velocity":80,"confidence":1.0},{"start_time":827.4756097560758,"end_time":827.8414634146123,"midi_note":41,"velocity":80,"confidence":1.0},{"start_time":827.4756097560758,"end_time":827.8414634146123,"midi_note":53,"velocity":80,"confidence":1.0},{"start_time":828.2073170731489,"end_time":828.5731707316855,"midi_note":63,"velocity":80,"confidence":1.0},{"start_time":828.2073170731489,"end_time":828.5731707316855,"midi_note":68,"velocity":80,"confidence":1.0},{"start_time":828.2073170731489,"end_time":828.5731707316855,"midi_note":72,"velocity":80,"confidence":1.0},{"start_time":828.2073170731489,"end_time":828.5731707316855,"midi_note":75,"velocity":80,"confidence":1.0},{"start_time":828.5731707316855,"end_time":828.9390243902221,"midi_note":65,"velocity":80,"confidence":1.0},{"start_time":828.5731707316855,"end_time":828.9390243902221,"midi_note":77,"velocity":80,"confidence":1.0},{"start_time":828.9390243902221,"end_time":829.3048780487587,"midi_note":38,"velocity":80,"confidence":1.0},{"start_time":828.9390243902221,"end_time":829.3048780487587,"midi_note":50,"velocity":80,"confidence":1.0},{"start_time":829.6707317072953,"end_time":830.0365853658319,"midi_note":67,"velocity":80,"confidence":1.0},{"start_time":829.6707317072953,"end_time":830.0365853658319,"midi_note":72,"velocity":80,"confidence":1.0},{"start_time":829.6707317072953,"end_time":830.0365853658319,"midi_note":74,"velocity":80,"confidence":1.0},{"start_time":829.6707317072953,"end_time":830.0365853658319,"midi_note":79,"velocity":80,"confidence":1.0},{"start_time":830.0365853658319,"end_time":830.4024390243685,"midi_note":66,"velocity":80,"confidence":1.0},{"start_time":830.0365853658319,"end_time":830.4024390243685,"midi_note":78,"velocity":80,"confidence":1.0},{"start_time":830.4024390243685,"end_time":830.7682926829051,"midi_note":43,"velocity":80,"confidence":1.0},{"start_time":830.4024390243685,"end_time":830.7682926829051,"midi_note":55,"velocity":80,"confidence":1.0},{"start_time":831.1341463414417,"end_time":831.4999999999783,"midi_note":67,"velocity":80,"confidence":1.0},{"start_time":831.1341463414417,"end_time":831.4999999999783,"midi_note":71,"velocity":80,"confidence":1.0},{"start_time":831.1341463414417,"end_time":831.4999999999783,"midi_note":74,"velocity":80,"confidence":1.0},{"start_time":831.1341463414417,"end_time":831.4999999999783,"midi_note":79,"velocity":80,"confidence":1.0},{"start_time":831.4999999999783,"end_time":831.8658536585149,"midi_note":67,"velocity":80,"confidence":1.0},{"start_time":831.8658536585149,"end_time":832.2317073170515,"midi_note":31,"velocity":80,"confidence":1.0},{"start_time":831.8658536585149,"end_time":832.2317073170515,"midi_note":43,"velocity":80,"confidence":1.0},{"start_time":832.5975609755881,"end_time":833.3292682926613,"midi_note":60,"velocity":80,"confidence":1.0},{"start_time":832.5975609755881,"end_time":833.3292682926613,"midi_note":72,"velocity":80,"confidence":1.0},{"start_time":833.3292682926613,"end_time":834.0609756097344,"midi_note":36,"velocity":80,"confidence":1.0},{"start_time":833.3292682926613,"end_time":834.0609756097344,"midi_note":48,"velocity":80,"confidence":1.0},{"start_time":834.0609756097344,"end_time":834.426829268271,"midi_note":62,"velocity":80,"confidence":1.0},{"start_time":834.0609756097344,"end_time":834.426829268271,"midi_note":72,"velocity":80,"confidence":1.0},{"start_time":834.0609756097344,"end_time":834.426829268271,"midi_note":74,"velocity":80,"confidence":1.0},{"start_time":834.426829268271,"end_time":834.7926829268076,"midi_note":63,"velocity":80,"confidence":1.0},{"start_time":834.426829268271,"end_time":834.7926829268076,"midi_note":72,"velocity":80,"confidence":1.0},{"start_time":834.426829268271,"end_time":834.7926829268076,"midi_note":75,"velocity":80,"confidence":1.0},{"start_time":834.7926829268076,"end_time":835.1585365853442,"midi_note":48,"velocity":80,"confidence":1.0},{"start_time":834.7926829268076,"end_time":835.1585365853442,"midi_note":60,"velocity":80,"confidence":1.0},{"start_time":835.1585365853442,"end_time":835.5243902438808,"midi_note":48,"velocity":80,"confidence":1.0},{"start_time":835.1585365853442,"end_time":835.5243902438808,"midi_note":60,"velocity":80,"confidence":1.0},{"start_time":835.5243902438808,"end_time":835.8902439024174,"midi_note":50,"velocity":80,"confidence":1.0},{"start_time":835.8902439024174,"end_time":836.256097560954,"midi_note":51,"velocity":80,"confidence":1.0},{"start_time":836.256097560954,"end_time":836.6219512194906,"midi_note":65,"velocity":80,"confidence":1.0},{"start_time":836.256097560954,"end_time":836.6219512194906,"midi_note":77,"velocity":80,"confidence":1.0},{"start_time":836.6219512194906,"end_time":836.9878048780272,"midi_note":62,"velocity":80,"confidence":1.0},{"start_time":836.6219512194906,"end_time":836.9878048780272,"midi_note":74,"velocity":80,"confidence":1.0},{"start_time":836.9878048780272,"end_time":837.7195121951004,"midi_note":72,"velocity":80,"confidence":1.0},{"start_time":837.7195121951004,"end_time":838.4512195121736,"midi_note":48,"velocity":80,"confidence":1.0},{"start_time":837.7195121951004,"end_time":838.4512195121736,"midi_note":60,"velocity":80,"confidence":1.0},{"start_time":838.4512195121736,"end_time":838.8170731707102,"midi_note":53,"velocity":80,"confidence":1.0},{"start_time":838.8170731707102,"end_time":839.1829268292468,"midi_note":50,"velocity":80,"confidence":1.0},{"start_time":839.1829268292468,"end_time":839.5487804877833,"midi_note":60,"velocity":80,"confidence":1.0},{"start_time":839.1829268292468,"end_time":839.5487804877833,"midi_note":63,"velocity":80,"confidence":1.0},{"start_time":839.1829268292468,"end_time":839.5487804877833,"midi_note":72,"velocity":80,"confidence":1.0},{"start_time":839.5487804877833,"end_time":839.9146341463199,"midi_note":60,"velocity":80,"confidence":1.0},{"start_time":839.5487804877833,"end_time":839.9146341463199,"midi_note":65,"velocity":80,"confidence":1.0},{"start_time":839.5487804877833,"end_time":839.9146341463199,"midi_note":72,"velocity":80,"confidence":1.0},{"start_time":839.9146341463199,"end_time":840.2804878048565,"midi_note":39,"velocity":80,"confidence":1.0},{"start_time":839.9146341463199,"end_time":840.2804878048565,"midi_note":48,"velocity":80,"confidence":1.0},{"start_time":840.2804878048565,"end_time":840.6463414633931,"midi_note":41,"velocity":80,"confidence":1.0},{"start_time":840.2804878048565,"end_time":840.6463414633931,"midi_note":48,"velocity":80,"confidence":1.0},{"start_time":840.6463414633931,"end_time":841.3780487804663,"midi_note":60,"velocity":80,"confidence":1.0},{"start_time":840.6463414633931,"end_time":841.3780487804663,"midi_note":72,"velocity":80,"confidence":1.0},{"start_time":841.3780487804663,"end_time":841.7439024390029,"midi_note":67,"velocity":80,"confidence":1.0},{"start_time":841.7439024390029,"end_time":842.1097560975395,"midi_note":63,"velocity":80,"confidence":1.0},{"start_time":842.1097560975395,"end_time":842.8414634146127,"midi_note":48,"velocity":80,"confidence":1.0},{"start_time":842.8414634146127,"end_time":843.2073170731493,"midi_note":65,"velocity":80,"confidence":1.0},{"start_time":842.8414634146127,"end_time":843.2073170731493,"midi_note":72,"velocity":80,"confidence":1.0},{"start_time":842.8414634146127,"end_time":843.2073170731493,"midi_note":77,"velocity":80,"confidence":1.0},{"start_time":843.2073170731493,"end_time":843.5731707316859,"midi_note":67,"velocity":80,"confidence":1.0},{"start_time":843.2073170731493,"end_time":843.5731707316859,"midi_note":72,"velocity":80,"confidence":1.0},{"start_time":843.2073170731493,"end_time":843.5731707316859,"midi_note":79,"velocity":80,"confidence":1.0},{"start_time":843.5731707316859,"end_time":843.9390243902225,"midi_note":48,"velocity":80,"confidence":1.0},{"start_time":843.5731707316859,"end_time":843.9390243902225,"midi_note":60,"velocity":80,"confidence":1.0},{"start_time":843.9390243902225,"end_time":844.3048780487591,"midi_note":48,"velocity":80,"confidence":1.0},{"start_time":843.9390243902225,"end_time":844.3048780487591,"midi_note":60,"velocity":80,"confidence":1.0},{"start_time":844.3048780487591,"end_time":844.6707317072957,"midi_note":53,"velocity":80,"confidence":1.0},{"start_time":844.6707317072957,"end_time":845.0365853658323,"midi_note":55,"velocity":80,"confidence":1.0},{"start_time":845.0365853658323,"end_time":845.4024390243688,"midi_note":68,"velocity":80,"confidence":1.0},{"start_time":845.0365853658323,"end_time":845.4024390243688,"midi_note":80,"velocity":80,"confidence":1.0},{"start_time":845.4024390243688,"end_time":845.7682926829054,"midi_note":65,"velocity":80,"confidence":1.0},{"start_time":845.4024390243688,"end_time":845.7682926829054,"midi_note":77,"velocity":80,"confidence":1.0},{"start_time":845.7682926829054,"end_time":846.4999999999786,"midi_note":72,"velocity":80,"confidence":1.0},{"start_time":846.4999999999786,"end_time":847.2317073170518,"midi_note":48,"velocity":80,"confidence":1.0},{"start_time":846.4999999999786,"end_time":847.2317073170518,"midi_note":60,"velocity":80,"confidence":1.0},{"start_time":847.2317073170518,"end_time":847.5975609755884,"midi_note":56,"velocity":80,"confidence":1.0},{"start_time":847.5975609755884,"end_time":847.963414634125,"midi_note":53,"velocity":80,"confidence":1.0},{"start_time":847.963414634125,"end_time":848.3292682926616,"midi_note":59,"velocity":80,"confidence":1.0},{"start_time":847.963414634125,"end_time":848.3292682926616,"midi_note":67,"velocity":80,"confidence":1.0},{"start_time":847.963414634125,"end_time":848.3292682926616,"midi_note":71,"velocity":80,"confidence":1.0},{"start_time":848.3292682926616,"end_time":848.6951219511982,"midi_note":60,"velocity":80,"confidence":1.0},{"start_time":848.3292682926616,"end_time":848.6951219511982,"midi_note":67,"velocity":80,"confidence":1.0},{"start_time":848.3292682926616,"end_time":848.6951219511982,"midi_note":72,"velocity":80,"confidence":1.0},{"start_time":848.6951219511982,"end_time":849.0609756097348,"midi_note":31,"velocity":80,"confidence":1.0},{"start_time":848.6951219511982,"end_time":849.0609756097348,"midi_note":43,"velocity":80,"confidence":1.0},{"start_time":849.0609756097348,"end_time":849.4268292682714,"midi_note":33,"velocity":80,"confidence":1.0},{"start_time":849.0609756097348,"end_time":849.4268292682714,"midi_note":45,"velocity":80,"confidence":1.0},{"start_time":849.4268292682714,"end_time":849.792682926808,"midi_note":62,"velocity":80,"confidence":1.0},{"start_time":849.4268292682714,"end_time":849.792682926808,"midi_note":74,"velocity":80,"confidence":1.0},{"start_time":849.792682926808,"end_time":850.1585365853446,"midi_note":59,"velocity":80,"confidence":1.0},{"start_time":849.792682926808,"end_time":850.1585365853446,"midi_note":71,"velocity":80,"confidence":1.0},{"start_time":850.1585365853446,"end_time":850.8902439024178,"midi_note":67,"velocity":80,"confidence":1.0},{"start_time":850.8902439024178,"end_time":851.2560975609543,"midi_note":35,"velocity":80,"confidence":1.0},{"start_time":850.8902439024178,"end_time":851.2560975609543,"midi_note":47,"velocity":80,"confidence":1.0},{"start_time":851.2560975609543,"end_time":851.6219512194909,"midi_note":31,"velocity":80,"confidence":1.0},{"start_time":851.2560975609543,"end_time":851.6219512194909,"midi_note":43,"velocity":80,"confidence":1.0},{"start_time":851.6219512194909,"end_time":851.9878048780275,"midi_note":72,"velocity":80,"confidence":1.0},{"start_time":851.6219512194909,"end_time":851.9878048780275,"midi_note":81,"velocity":80,"confidence":1.0},{"start_time":851.6219512194909,"end_time":851.9878048780275,"midi_note":84,"velocity":80,"confidence":1.0},{"start_time":851.9878048780275,"end_time":852.3536585365641,"midi_note":74,"velocity":80,"confidence":1.0},{"start_time":851.9878048780275,"end_time":852.3536585365641,"midi_note":83,"velocity":80,"confidence":1.0},{"start_time":851.9878048780275,"end_time":852.3536585365641,"midi_note":86,"velocity":80,"confidence":1.0},{"start_time":852.3536585365641,"end_time":852.7195121951007,"midi_note":55,"velocity":80,"confidence":1.0},{"start_time":852.3536585365641,"end_time":852.7195121951007,"midi_note":57,"velocity":80,"confidence":1.0},{"start_time":852.3536585365641,"end_time":852.7195121951007,"midi_note":60,"velocity":80,"confidence":1.0},{"start_time":852.7195121951007,"end_time":853.0853658536373,"midi_note":55,"velocity":80,"confidence":1.0},{"start_time":852.7195121951007,"end_time":853.0853658536373,"midi_note":59,"velocity":80,"confidence":1.0},{"start_time":852.7195121951007,"end_time":853.0853658536373,"midi_note":62,"velocity":80,"confidence":1.0},{"start_time":853.0853658536373,"end_time":853.4512195121739,"midi_note":75,"velocity":80,"confidence":1.0},{"start_time":853.0853658536373,"end_time":853.4512195121739,"midi_note":84,"velocity":80,"confidence":1.0},{"start_time":853.0853658536373,"end_time":853.4512195121739,"midi_note":87,"velocity":80,"confidence":1.0},{"start_time":853.4512195121739,"end_time":853.8170731707105,"midi_note":72,"velocity":80,"confidence":1.0},{"start_time":853.4512195121739,"end_time":853.8170731707105,"midi_note":79,"velocity":80,"confidence":1.0},{"start_time":853.4512195121739,"end_time":853.8170731707105,"midi_note":84,"velocity":80,"confidence":1.0},{"start_time":853.8170731707105,"end_time":854.5487804877837,"midi_note":55,"velocity":80,"confidence":1.0},{"start_time":853.8170731707105,"end_time":854.5487804877837,"midi_note":60,"velocity":80,"confidence":1.0},{"start_time":853.8170731707105,"end_time":854.5487804877837,"midi_note":63,"velocity":80,"confidence":1.0},{"start_time":854.5487804877837,"end_time":854.9146341463203,"midi_note":59,"velocity":80,"confidence":1.0},{"start_time":854.5487804877837,"end_time":854.9146341463203,"midi_note":67,"velocity":80,"confidence":1.0},{"start_time":854.5487804877837,"end_time":854.9146341463203,"midi_note":71,"velocity":80,"confidence":1.0},{"start_time":854.9146341463203,"end_time":855.2804878048569,"midi_note":60,"velocity":80,"confidence":1.0},{"start_time":854.9146341463203,"end_time":855.2804878048569,"midi_note":67,"velocity":80,"confidence":1.0},{"start_time":854.9146341463203,"end_time":855.2804878048569,"midi_note":72,"velocity":80,"confidence":1.0},{"start_time":855.2804878048569,"end_time":855.6463414633935,"midi_note":31,"velocity":80,"confidence":1.0},{"start_time":855.2804878048569,"end_time":855.6463414633935,"midi_note":43,"velocity":80,"confidence":1.0},{"start_time":855.6463414633935,"end_time":856.0121951219301,"midi_note":33,"velocity":80,"confidence":1.0},{"start_time":855.6463414633935,"end_time":856.0121951219301,"midi_note":45,"velocity":80,"confidence":1.0},{"start_time":856.0121951219301,"end_time":856.3780487804667,"midi_note":62,"velocity":80,"confidence":1.0},{"start_time":856.0121951219301,"end_time":856.3780487804667,"midi_note":74,"velocity":80,"confidence":1.0},{"start_time":856.3780487804667,"end_time":856.7439024390033,"midi_note":59,"velocity":80,"confidence":1.0},{"start_time":856.3780487804667,"end_time":856.7439024390033,"midi_note":71,"velocity":80,"confidence":1.0},{"start_time":856.7439024390033,"end_time":857.4756097560764,"midi_note":67,"velocity":80,"confidence":1.0},{"start_time":857.4756097560764,"end_time":857.841463414613,"midi_note":35,"velocity":80,"confidence":1.0},{"start_time":857.4756097560764,"end_time":857.841463414613,"midi_note":47,"velocity":80,"confidence":1.0},{"start_time":857.841463414613,"end_time":858.2073170731496,"midi_note":31,"velocity":80,"confidence":1.0},{"start_time":857.841463414613,"end_time":858.2073170731496,"midi_note":43,"velocity":80,"confidence":1.0},{"start_time":858.2073170731496,"end_time":858.5731707316862,"midi_note":72,"velocity":80,"confidence":1.0},{"start_time":858.2073170731496,"end_time":858.5731707316862,"midi_note":81,"velocity":80,"confidence":1.0},{"start_time":858.2073170731496,"end_time":858.5731707316862,"midi_note":84,"velocity":80,"confidence":1.0},{"start_time":858.5731707316862,"end_time":858.9390243902228,"midi_note":74,"velocity":80,"confidence":1.0},{"start_time":858.5731707316862,"end_time":858.9390243902228,"midi_note":83,"velocity":80,"confidence":1.0},{"start_time":858.5731707316862,"end_time":858.9390243902228,"midi_note":86,"velocity":80,"confidence":1.0},{"start_time":858.9390243902228,"end_time":859.3048780487594,"midi_note":55,"velocity":80,"confidence":1.0},{"start_time":858.9390243902228,"end_time":859.3048780487594,"midi_note":57,"velocity":80,"confidence":1.0},{"start_time":858.9390243902228,"end_time":859.3048780487594,"midi_note":60,"velocity":80,"confidence":1.0},{"start_time":859.3048780487594,"end_time":859.670731707296,"midi_note":55,"velocity":80,"confidence":1.0},{"start_time":859.3048780487594,"end_time":859.670731707296,"midi_note":59,"velocity":80,"confidence":1.0},{"start_time":859.3048780487594,"end_time":859.670731707296,"midi_note":62,"velocity":80,"confidence":1.0},{"start_time":859.670731707296,"end_time":860.0365853658326,"midi_note":75,"velocity":80,"confidence":1.0},{"start_time":859.670731707296,"end_time":860.0365853658326,"midi_note":84,"velocity":80,"confidence":1.0},{"start_time":859.670731707296,"end_time":860.0365853658326,"midi_note":87,"velocity":80,"confidence":1.0},{"start_time":860.0365853658326,"end_time":860.4024390243692,"midi_note":74,"velocity":80,"confidence":1.0},{"start_time":860.0365853658326,"end_time":860.4024390243692,"midi_note":82,"velocity":80,"confidence":1.0},{"start_time":860.0365853658326,"end_time":860.4024390243692,"midi_note":86,"velocity":80,"confidence":1.0},{"start_time":860.4024390243692,"end_time":860.7682926829058,"midi_note":60,"velocity":80,"confidence":1.0},{"start_time":860.4024390243692,"end_time":860.7682926829058,"midi_note":63,"velocity":80,"confidence":1.0},{"start_time":860.7682926829058,"end_time":861.1341463414424,"midi_note":55,"velocity":80,"confidence":1.0},{"start_time":860.7682926829058,"end_time":861.1341463414424,"midi_note":62,"velocity":80,"confidence":1.0},{"start_time":861.1341463414424,"end_time":861.499999999979,"midi_note":72,"velocity":80,"confidence":1.0},{"start_time":861.1341463414424,"end_time":861.499999999979,"midi_note":80,"velocity":80,"confidence":1.0},{"start_time":861.1341463414424,"end_time":861.499999999979,"midi_note":84,"velocity":80,"confidence":1.0},{"start_time":861.499999999979,"end_time":861.8658536585156,"midi_note":70,"velocity":80,"confidence":1.0},{"start_time":861.499999999979,"end_time":861.8658536585156,"midi_note":79,"velocity":80,"confidence":1.0},{"start_time":861.499999999979,"end_time":861.8658536585156,"midi_note":82,"velocity":80,"confidence":1.0},{"start_time":861.8658536585156,"end_time":862.2317073170522,"midi_note":56,"velocity":80,"confidence":1.0},{"start_time":861.8658536585156,"end_time":862.2317073170522,"midi_note":60,"velocity":80,"confidence":1.0},{"start_time":862.2317073170522,"end_time":862.5975609755887,"midi_note":51,"velocity":80,"confidence":1.0},{"start_time":862.2317073170522,"end_time":862.5975609755887,"midi_note":58,"velocity":80,"confidence":1.0},{"start_time":862.5975609755887,"end_time":862.9634146341253,"midi_note":68,"velocity":80,"confidence":1.0},{"start_time":862.5975609755887,"end_time":862.9634146341253,"midi_note":77,"velocity":80,"confidence":1.0},{"start_time":862.5975609755887,"end_time":862.9634146341253,"midi_note":80,"velocity":80,"confidence":1.0},{"start_time":862.9634146341253,"end_time":863.3292682926619,"midi_note":67,"velocity":80,"confidence":1.0},{"start_time":862.9634146341253,"end_time":863.3292682926619,"midi_note":75,"velocity":80,"confidence":1.0},{"start_time":862.9634146341253,"end_time":863.3292682926619,"midi_note":79,"velocity":80,"confidence":1.0},{"start_time":863.3292682926619,"end_time":863.6951219511985,"midi_note":53,"velocity":80,"confidence":1.0},{"start_time":863.3292682926619,"end_time":863.6951219511985,"midi_note":56,"velocity":80,"confidence":1.0},{"start_time":863.6951219511985,"end_time":864.0609756097351,"midi_note":48,"velocity":80,"confidence":1.0},{"start_time":863.6951219511985,"end_time":864.0609756097351,"midi_note":55,"velocity":80,"confidence":1.0},{"start_time":864.0609756097351,"end_time":864.4268292682717,"midi_note":65,"velocity":80,"confidence":1.0},{"start_time":864.0609756097351,"end_time":864.4268292682717,"midi_note":68,"velocity":80,"confidence":1.0},{"start_time":864.4268292682717,"end_time":864.7926829268083,"midi_note":63,"velocity":80,"confidence":1.0},{"start_time":864.4268292682717,"end_time":864.7926829268083,"midi_note":67,"velocity":80,"confidence":1.0},{"start_time":864.7926829268083,"end_time":865.5243902438815,"midi_note":60,"velocity":80,"confidence":1.0},{"start_time":865.5243902438815,"end_time":865.8902439024181,"midi_note":41,"velocity":80,"confidence":1.0},{"start_time":865.5243902438815,"end_time":865.8902439024181,"midi_note":53,"velocity":80,"confidence":1.0},{"start_time":865.8902439024181,"end_time":866.2560975609547,"midi_note":36,"velocity":80,"confidence":1.0},{"start_time":865.8902439024181,"end_time":866.2560975609547,"midi_note":48,"velocity":80,"confidence":1.0},{"start_time":866.2560975609547,"end_time":866.6219512194913,"midi_note":77,"velocity":80,"confidence":1.0},{"start_time":866.2560975609547,"end_time":866.6219512194913,"midi_note":80,"velocity":80,"confidence":1.0},{"start_time":866.6219512194913,"end_time":866.9878048780279,"midi_note":75,"velocity":80,"confidence":1.0},{"start_time":866.6219512194913,"end_time":866.9878048780279,"midi_note":79,"velocity":80,"confidence":1.0},{"start_time":866.9878048780279,"end_time":867.7195121951011,"midi_note":72,"velocity":80,"confidence":1.0},{"start_time":867.7195121951011,"end_time":868.0853658536377,"midi_note":53,"velocity":80,"confidence":1.0},{"start_time":867.7195121951011,"end_time":868.0853658536377,"midi_note":56,"velocity":80,"confidence":1.0},{"start_time":868.0853658536377,"end_time":868.4512195121742,"midi_note":48,"velocity":80,"confidence":1.0},{"start_time":868.0853658536377,"end_time":868.4512195121742,"midi_note":55,"velocity":80,"confidence":1.0},{"start_time":868.4512195121742,"end_time":868.8170731707108,"midi_note":80,"velocity":80,"confidence":1.0},{"start_time":868.4512195121742,"end_time":868.8170731707108,"midi_note":84,"velocity":80,"confidence":1.0},{"start_time":868.4512195121742,"end_time":868.8170731707108,"midi_note":89,"velocity":80,"confidence":1.0},{"start_time":868.4512195121742,"end_time":868.8170731707108,"midi_note":92,"velocity":80,"confidence":1.0},{"start_time":868.8170731707108,"end_time":869.1829268292474,"midi_note":79,"velocity":80,"confidence":1.0},{"start_time":868.8170731707108,"end_time":869.1829268292474,"midi_note":84,"velocity":80,"confidence":1.0},{"start_time":868.8170731707108,"end_time":869.1829268292474,"midi_note":87,"velocity":80,"confidence":1.0},{"start_time":868.8170731707108,"end_time":869.1829268292474,"midi_note":91,"velocity":80,"confidence":1.0},{"start_time":869.1829268292474,"end_time":869.548780487784,"midi_note":41,"velocity":80,"confidence":1.0},{"start_time":869.1829268292474,"end_time":869.548780487784,"midi_note":53,"velocity":80,"confidence":1.0},{"start_time":869.548780487784,"end_time":869.9146341463206,"midi_note":36,"velocity":80,"confidence":1.0},{"start_time":869.548780487784,"end_time":869.9146341463206,"midi_note":48,"velocity":80,"confidence":1.0},{"start_time":870.2804878048572,"end_time":870.6463414633938,"midi_note":79,"velocity":80,"confidence":1.0},{"start_time":870.2804878048572,"end_time":870.6463414633938,"midi_note":84,"velocity":80,"confidence":1.0},{"start_time":870.2804878048572,"end_time":870.6463414633938,"midi_note":87,"velocity":80,"confidence":1.0},{"start_time":870.2804878048572,"end_time":870.6463414633938,"midi_note":91,"velocity":80,"confidence":1.0},{"start_time":870.6463414633938,"end_time":871.0121951219304,"midi_note":43,"velocity":80,"confidence":1.0},{"start_time":870.6463414633938,"end_time":871.0121951219304,"midi_note":48,"velocity":80,"confidence":1.0},{"start_time":870.6463414633938,"end_time":871.0121951219304,"midi_note":51,"velocity":80,"confidence":1.0},{"start_time":870.6463414633938,"end_time":871.0121951219304,"midi_note":55,"velocity":80,"confidence":1.0},{"start_time":871.7439024390036,"end_time":872.1097560975402,"midi_note":79,"velocity":80,"confidence":1.0},{"start_time":871.7439024390036,"end_time":872.1097560975402,"midi_note":83,"velocity":80,"confidence":1.0},{"start_time":871.7439024390036,"end_time":872.1097560975402,"midi_note":86,"velocity":80,"confidence":1.0},{"start_time":871.7439024390036,"end_time":872.1097560975402,"midi_note":91,"velocity":80,"confidence":1.0},{"start_time":872.1097560975402,"end_time":872.4756097560768,"midi_note":31,"velocity":80,"confidence":1.0},{"start_time":872.1097560975402,"end_time":872.4756097560768,"midi_note":35,"velocity":80,"confidence":1.0},{"start_time":872.1097560975402,"end_time":872.4756097560768,"midi_note":38,"velocity":80,"confidence":1.0},{"start_time":872.1097560975402,"end_time":872.4756097560768,"midi_note":43,"velocity":80,"confidence":1.0},{"start_time":872.8414634146134,"end_time":873.20731707315,"midi_note":63,"velocity":80,"confidence":1.0},{"start_time":872.8414634146134,"end_time":873.20731707315,"midi_note":75,"velocity":80,"confidence":1.0},{"start_time":873.20731707315,"end_time":873.5731707316866,"midi_note":70,"velocity":80,"confidence":1.0},{"start_time":873.20731707315,"end_time":873.5731707316866,"midi_note":74,"velocity":80,"confidence":1.0},{"start_time":873.5731707316866,"end_time":873.9390243902232,"midi_note":48,"velocity":80,"confidence":1.0},{"start_time":873.5731707316866,"end_time":873.9390243902232,"midi_note":60,"velocity":80,"confidence":1.0},{"start_time":873.9390243902232,"end_time":874.3048780487597,"midi_note":43,"velocity":80,"confidence":1.0},{"start_time":873.9390243902232,"end_time":874.3048780487597,"midi_note":55,"velocity":80,"confidence":1.0},{"start_time":874.3048780487597,"end_time":874.6707317072963,"midi_note":60,"velocity":80,"confidence":1.0},{"start_time":874.3048780487597,"end_time":874.6707317072963,"midi_note":72,"velocity":80,"confidence":1.0},{"start_time":874.6707317072963,"end_time":875.0365853658329,"midi_note":67,"velocity":80,"confidence":1.0},{"start_time":874.6707317072963,"end_time":875.0365853658329,"midi_note":70,"velocity":80,"confidence":1.0},{"start_time":875.0365853658329,"end_time":875.4024390243695,"midi_note":44,"velocity":80,"confidence":1.0},{"start_time":875.0365853658329,"end_time":875.4024390243695,"midi_note":56,"velocity":80,"confidence":1.0},{"start_time":875.4024390243695,"end_time":875.7682926829061,"midi_note":39,"velocity":80,"confidence":1.0},{"start_time":875.4024390243695,"end_time":875.7682926829061,"midi_note":51,"velocity":80,"confidence":1.0},{"start_time":875.7682926829061,"end_time":876.1341463414427,"midi_note":65,"velocity":80,"confidence":1.0},{"start_time":875.7682926829061,"end_time":876.1341463414427,"midi_note":68,"velocity":80,"confidence":1.0},{"start_time":876.1341463414427,"end_time":876.4999999999793,"midi_note":63,"velocity":80,"confidence":1.0},{"start_time":876.1341463414427,"end_time":876.4999999999793,"midi_note":67,"velocity":80,"confidence":1.0},{"start_time":876.4999999999793,"end_time":876.8658536585159,"midi_note":41,"velocity":80,"confidence":1.0},{"start_time":876.4999999999793,"end_time":876.8658536585159,"midi_note":53,"velocity":80,"confidence":1.0},{"start_time":876.8658536585159,"end_time":877.2317073170525,"midi_note":36,"velocity":80,"confidence":1.0},{"start_time":876.8658536585159,"end_time":877.2317073170525,"midi_note":48,"velocity":80,"confidence":1.0},{"start_time":877.2317073170525,"end_time":877.5975609755891,"midi_note":77,"velocity":80,"confidence":1.0},{"start_time":877.2317073170525,"end_time":877.5975609755891,"midi_note":80,"velocity":80,"confidence":1.0},{"start_time":877.5975609755891,"end_time":877.9634146341257,"midi_note":75,"velocity":80,"confidence":1.0},{"start_time":877.5975609755891,"end_time":877.9634146341257,"midi_note":79,"velocity":80,"confidence":1.0},{"start_time":877.9634146341257,"end_time":878.3292682926623,"midi_note":48,"velocity":80,"confidence":1.0},{"start_time":877.9634146341257,"end_time":878.3292682926623,"midi_note":53,"velocity":80,"confidence":1.0},{"start_time":877.9634146341257,"end_time":878.3292682926623,"midi_note":56,"velocity":80,"confidence":1.0},{"start_time":878.3292682926623,"end_time":878.6951219511989,"midi_note":48,"velocity":80,"confidence":1.0},{"start_time":878.3292682926623,"end_time":878.6951219511989,"midi_note":51,"velocity":80,"confidence":1.0},{"start_time":878.3292682926623,"end_time":878.6951219511989,"midi_note":55,"velocity":80,"confidence":1.0},{"start_time":878.6951219511989,"end_time":879.0609756097355,"midi_note":65,"velocity":80,"confidence":1.0},{"start_time":878.6951219511989,"end_time":879.0609756097355,"midi_note":68,"velocity":80,"confidence":1.0},{"start_time":879.0609756097355,"end_time":879.4268292682721,"midi_note":63,"velocity":80,"confidence":1.0},{"start_time":879.0609756097355,"end_time":879.4268292682721,"midi_note":67,"velocity":80,"confidence":1.0},{"start_time":879.4268292682721,"end_time":879.7926829268087,"midi_note":41,"velocity":80,"confidence":1.0},{"start_time":879.4268292682721,"end_time":879.7926829268087,"midi_note":53,"velocity":80,"confidence":1.0},{"start_time":879.7926829268087,"end_time":880.1585365853452,"midi_note":36,"velocity":80,"confidence":1.0},{"start_time":879.7926829268087,"end_time":880.1585365853452,"midi_note":48,"velocity":80,"confidence":1.0},{"start_time":880.1585365853452,"end_time":880.5243902438818,"midi_note":77,"velocity":80,"confidence":1.0},{"start_time":880.1585365853452,"end_time":880.5243902438818,"midi_note":80,"velocity":80,"confidence":1.0},{"start_time":880.5243902438818,"end_time":880.8902439024184,"midi_note":75,"velocity":80,"confidence":1.0},{"start_time":880.5243902438818,"end_time":880.8902439024184,"midi_note":79,"velocity":80,"confidence":1.0},{"start_time":880.8902439024184,"end_time":881.256097560955,"midi_note":48,"velocity":80,"confidence":1.0},{"start_time":880.8902439024184,"end_time":881.256097560955,"midi_note":53,"velocity":80,"confidence":1.0},{"start_time":880.8902439024184,"end_time":881.256097560955,"midi_note":56,"velocity":80,"confidence":1.0},{"start_time":881.256097560955,"end_time":881.6219512194916,"midi_note":48,"velocity":80,"confidence":1.0},{"start_time":881.256097560955,"end_time":881.6219512194916,"midi_note":51,"velocity":80,"confidence":1.0},{"start_time":881.256097560955,"end_time":881.6219512194916,"midi_note":55,"velocity":80,"confidence":1.0},{"start_time":881.6219512194916,"end_time":881.9878048780282,"midi_note":67,"velocity":80,"confidence":1.0},{"start_time":881.6219512194916,"end_time":881.9878048780282,"midi_note":72,"velocity":80,"confidence":1.0},{"start_time":881.6219512194916,"end_time":881.9878048780282,"midi_note":75,"velocity":80,"confidence":1.0},{"start_time":881.6219512194916,"end_time":881.9878048780282,"midi_note":79,"velocity":80,"confidence":1.0},{"start_time":881.9878048780282,"end_time":882.3536585365648,"midi_note":79,"velocity":80,"confidence":1.0},{"start_time":881.9878048780282,"end_time":882.3536585365648,"midi_note":84,"velocity":80,"confidence":1.0},{"start_time":881.9878048780282,"end_time":882.3536585365648,"midi_note":87,"velocity":80,"confidence":1.0},{"start_time":881.9878048780282,"end_time":882.3536585365648,"midi_note":91,"velocity":80,"confidence":1.0},{"start_time":882.3536585365648,"end_time":882.7195121951014,"midi_note":43,"velocity":80,"confidence":1.0},{"start_time":882.3536585365648,"end_time":882.7195121951014,"midi_note":48,"velocity":80,"confidence":1.0},{"start_time":882.3536585365648,"end_time":882.7195121951014,"midi_note":51,"velocity":80,"confidence":1.0},{"start_time":882.3536585365648,"end_time":882.7195121951014,"midi_note":55,"velocity":80,"confidence":1.0},{"start_time":882.7195121951014,"end_time":883.085365853638,"midi_note":55,"velocity":80,"confidence":1.0},{"start_time":882.7195121951014,"end_time":883.085365853638,"midi_note":60,"velocity":80,"confidence":1.0},{"start_time":882.7195121951014,"end_time":883.085365853638,"midi_note":63,"velocity":80,"confidence":1.0},{"start_time":883.085365853638,"end_time":883.4512195121746,"midi_note":67,"velocity":80,"confidence":1.0},{"start_time":883.085365853638,"end_time":883.4512195121746,"midi_note":71,"velocity":80,"confidence":1.0},{"start_time":883.085365853638,"end_time":883.4512195121746,"midi_note":74,"velocity":80,"confidence":1.0},{"start_time":883.085365853638,"end_time":883.4512195121746,"midi_note":79,"velocity":80,"confidence":1.0},{"start_time":883.4512195121746,"end_time":883.8170731707112,"midi_note":79,"velocity":80,"confidence":1.0},{"start_time":883.4512195121746,"end_time":883.8170731707112,"midi_note":83,"velocity":80,"confidence":1.0},{"start_time":883.4512195121746,"end_time":883.8170731707112,"midi_note":86,"velocity":80,"confidence":1.0},{"start_time":883.4512195121746,"end_time":883.8170731707112,"midi_note":91,"velocity":80,"confidence":1.0},{"start_time":883.8170731707112,"end_time":884.1829268292478,"midi_note":31,"velocity":80,"confidence":1.0},{"start_time":883.8170731707112,"end_time":884.1829268292478,"midi_note":35,"velocity":80,"confidence":1.0},{"start_time":883.8170731707112,"end_time":884.1829268292478,"midi_note":38,"velocity":80,"confidence":1.0},{"start_time":883.8170731707112,"end_time":884.1829268292478,"midi_note":43,"velocity":80,"confidence":1.0},{"start_time":884.1829268292478,"end_time":884.5487804877844,"midi_note":43,"velocity":80,"confidence":1.0},{"start_time":884.1829268292478,"end_time":884.5487804877844,"midi_note":47,"velocity":80,"confidence":1.0},{"start_time":884.1829268292478,"end_time":884.5487804877844,"midi_note":50,"velocity":80,"confidence":1.0},{"start_time":884.1829268292478,"end_time":884.5487804877844,"midi_note":55,"velocity":80,"confidence":1.0},{"start_time":884.5487804877844,"end_time":884.7317073170526,"midi_note":72,"velocity":80,"confidence":1.0},{"start_time":884.5487804877844,"end_time":884.7317073170526,"midi_note":75,"velocity":80,"confidence":1.0},{"start_time":884.5487804877844,"end_time":884.7317073170526,"midi_note":84,"velocity":80,"confidence":1.0},{"start_time":884.7317073170526,"end_time":884.9146341463209,"midi_note":67,"velocity":80,"confidence":1.0},{"start_time":884.7317073170526,"end_time":884.9146341463209,"midi_note":79,"velocity":80,"confidence":1.0},{"start_time":884.9146341463209,"end_time":885.0975609755891,"midi_note":67,"velocity":80,"confidence":1.0},{"start_time":884.9146341463209,"end_time":885.0975609755891,"midi_note":79,"velocity":80,"confidence":1.0},{"start_time":885.0975609755891,"end_time":885.2804878048573,"midi_note":67,"velocity":80,"confidence":1.0},{"start_time":885.0975609755891,"end_time":885.2804878048573,"midi_note":79,"velocity":80,"confidence":1.0},{"start_time":885.2804878048573,"end_time":885.4634146341256,"midi_note":36,"velocity":80,"confidence":1.0},{"start_time":885.2804878048573,"end_time":885.4634146341256,"midi_note":43,"velocity":80,"confidence":1.0},{"start_time":885.2804878048573,"end_time":885.4634146341256,"midi_note":48,"velocity":80,"confidence":1.0},{"start_time":885.4634146341256,"end_time":885.6463414633938,"midi_note":55,"velocity":80,"confidence":1.0},{"start_time":885.6463414633938,"end_time":885.829268292662,"midi_note":55,"velocity":80,"confidence":1.0},{"start_time":885.829268292662,"end_time":886.0121951219303,"midi_note":55,"velocity":80,"confidence":1.0},{"start_time":886.0121951219303,"end_time":886.7439024390035,"midi_note":67,"velocity":80,"confidence":1.0},{"start_time":886.0121951219303,"end_time":886.7439024390035,"midi_note":79,"velocity":80,"confidence":1.0},{"start_time":886.9268292682717,"end_time":887.10975609754,"midi_note":71,"velocity":80,"confidence":1.0},{"start_time":886.9268292682717,"end_time":887.10975609754,"midi_note":74,"velocity":80,"confidence":1.0},{"start_time":887.10975609754,"end_time":887.2926829268082,"midi_note":71,"velocity":80,"confidence":1.0},{"start_time":887.10975609754,"end_time":887.2926829268082,"midi_note":74,"velocity":80,"confidence":1.0},{"start_time":887.2926829268082,"end_time":887.4756097560764,"midi_note":71,"velocity":80,"confidence":1.0},{"start_time":887.2926829268082,"end_time":887.4756097560764,"midi_note":74,"velocity":80,"confidence":1.0},{"start_time":887.6585365853447,"end_time":887.8414634146129,"midi_note":62,"velocity":80,"confidence":1.0},{"start_time":887.6585365853447,"end_time":887.8414634146129,"midi_note":65,"velocity":80,"confidence":1.0},{"start_time":887.8414634146129,"end_time":888.0243902438812,"midi_note":62,"velocity":80,"confidence":1.0},{"start_time":887.8414634146129,"end_time":888.0243902438812,"midi_note":65,"velocity":80,"confidence":1.0},{"start_time":888.0243902438812,"end_time":888.2073170731494,"midi_note":62,"velocity":80,"confidence":1.0},{"start_time":888.0243902438812,"end_time":888.2073170731494,"midi_note":65,"velocity":80,"confidence":1.0},{"start_time":888.2073170731494,"end_time":888.9390243902226,"midi_note":55,"velocity":80,"confidence":1.0},{"start_time":888.9390243902226,"end_time":889.6707317072958,"midi_note":67,"velocity":80,"confidence":1.0},{"start_time":888.9390243902226,"end_time":889.6707317072958,"midi_note":79,"velocity":80,"confidence":1.0},{"start_time":889.6707317072958,"end_time":890.402439024369,"midi_note":71,"velocity":80,"confidence":1.0},{"start_time":889.6707317072958,"end_time":890.402439024369,"midi_note":74,"velocity":80,"confidence":1.0},{"start_time":890.402439024369,"end_time":891.1341463414421,"midi_note":62,"velocity":80,"confidence":1.0},{"start_time":890.402439024369,"end_time":891.1341463414421,"midi_note":65,"velocity":80,"confidence":1.0},{"start_time":891.1341463414421,"end_time":891.8658536585153,"midi_note":55,"velocity":80,"confidence":1.0},{"start_time":891.8658536585153,"end_time":892.5975609755885,"midi_note":67,"velocity":80,"confidence":1.0},{"start_time":891.8658536585153,"end_time":892.5975609755885,"midi_note":79,"velocity":80,"confidence":1.0},{"start_time":892.5975609755885,"end_time":892.9634146341251,"midi_note":71,"velocity":80,"confidence":1.0},{"start_time":892.5975609755885,"end_time":892.9634146341251,"midi_note":74,"velocity":80,"confidence":1.0},{"start_time":892.9634146341251,"end_time":893.3292682926617,"midi_note":72,"velocity":80,"confidence":1.0},{"start_time":892.9634146341251,"end_time":893.3292682926617,"midi_note":75,"velocity":80,"confidence":1.0},{"start_time":893.3292682926617,"end_time":893.6951219511983,"midi_note":62,"velocity":80,"confidence":1.0},{"start_time":893.3292682926617,"end_time":893.6951219511983,"midi_note":65,"velocity":80,"confidence":1.0},{"start_time":893.6951219511983,"end_time":894.0609756097349,"midi_note":60,"velocity":80,"confidence":1.0},{"start_time":893.6951219511983,"end_time":894.0609756097349,"midi_note":63,"velocity":80,"confidence":1.0},{"start_time":894.0609756097349,"end_time":894.7926829268081,"midi_note":55,"velocity":80,"confidence":1.0},{"start_time":894.7926829268081,"end_time":895.5243902438813,"midi_note":67,"velocity":80,"confidence":1.0},{"start_time":894.7926829268081,"end_time":895.5243902438813,"midi_note":79,"velocity":80,"confidence":1.0},{"start_time":895.5243902438813,"end_time":895.8902439024179,"midi_note":74,"velocity":80,"confidence":1.0},{"start_time":895.5243902438813,"end_time":895.8902439024179,"midi_note":77,"velocity":80,"confidence":1.0},{"start_time":895.8902439024179,"end_time":896.2560975609545,"midi_note":71,"velocity":80,"confidence":1.0},{"start_time":895.8902439024179,"end_time":896.2560975609545,"midi_note":74,"velocity":80,"confidence":1.0},{"start_time":896.2560975609545,"end_time":896.621951219491,"midi_note":59,"velocity":80,"confidence":1.0},{"start_time":896.2560975609545,"end_time":896.621951219491,"midi_note":62,"velocity":80,"confidence":1.0},{"start_time":896.621951219491,"end_time":896.9878048780276,"midi_note":62,"velocity":80,"confidence":1.0},{"start_time":896.621951219491,"end_time":896.9878048780276,"midi_note":65,"velocity":80,"confidence":1.0},{"start_time":896.9878048780276,"end_time":897.7195121951008,"midi_note":67,"velocity":80,"confidence":1.0},{"start_time":896.9878048780276,"end_time":897.7195121951008,"midi_note":79,"velocity":80,"confidence":1.0},{"start_time":897.7195121951008,"end_time":898.0853658536374,"midi_note":72,"velocity":80,"confidence":1.0},{"start_time":897.7195121951008,"end_time":898.0853658536374,"midi_note":75,"velocity":80,"confidence":1.0},{"start_time":898.0853658536374,"end_time":898.451219512174,"midi_note":74,"velocity":80,"confidence":1.0},{"start_time":898.0853658536374,"end_time":898.451219512174,"midi_note":77,"velocity":80,"confidence":1.0},{"start_time":898.6341463414423,"end_time":898.8170731707105,"midi_note":31,"velocity":80,"confidence":1.0},{"start_time":898.6341463414423,"end_time":898.8170731707105,"midi_note":43,"velocity":80,"confidence":1.0},{"start_time":898.8170731707105,"end_time":898.9999999999787,"midi_note":31,"velocity":80,"confidence":1.0},{"start_time":898.8170731707105,"end_time":898.9999999999787,"midi_note":43,"velocity":80,"confidence":1.0},{"start_time":898.9999999999787,"end_time":899.182926829247,"midi_note":31,"velocity":80,"confidence":1.0},{"start_time":898.9999999999787,"end_time":899.182926829247,"midi_note":43,"velocity":80,"confidence":1.0},{"start_time":899.182926829247,"end_time":899.3658536585152,"midi_note":67,"velocity":80,"confidence":1.0},{"start_time":899.182926829247,"end_time":899.3658536585152,"midi_note":72,"velocity":80,"confidence":1.0},{"start_time":899.182926829247,"end_time":899.3658536585152,"midi_note":75,"velocity":80,"confidence":1.0},{"start_time":899.182926829247,"end_time":899.3658536585152,"midi_note":79,"velocity":80,"confidence":1.0},{"start_time":899.3658536585152,"end_time":899.5487804877835,"midi_note":67,"velocity":80,"confidence":1.0},{"start_time":899.3658536585152,"end_time":899.5487804877835,"midi_note":79,"velocity":80,"confidence":1.0},{"start_time":899.5487804877835,"end_time":899.7317073170517,"midi_note":67,"velocity":80,"confidence":1.0},{"start_time":899.5487804877835,"end_time":899.7317073170517,"midi_note":79,"velocity":80,"confidence":1.0},{"start_time":899.7317073170517,"end_time":899.9146341463199,"midi_note":67,"velocity":80,"confidence":1.0},{"start_time":899.7317073170517,"end_time":899.9146341463199,"midi_note":79,"velocity":80,"confidence":1.0},{"start_time":899.9146341463199,"end_time":900.0975609755882,"midi_note":36,"velocity":80,"confidence":1.0},{"start_time":899.9146341463199,"end_time":900.0975609755882,"midi_note":48,"velocity":80,"confidence":1.0},{"start_time":900.0975609755882,"end_time":900.2804878048564,"midi_note":43,"velocity":80,"confidence":1.0},{"start_time":900.2804878048564,"end_time":900.4634146341247,"midi_note":43,"velocity":80,"confidence":1.0},{"start_time":900.4634146341247,"end_time":900.6463414633929,"midi_note":43,"velocity":80,"confidence":1.0},{"start_time":900.6463414633929,"end_time":900.8292682926611,"midi_note":67,"velocity":80,"confidence":1.0},{"start_time":900.6463414633929,"end_time":900.8292682926611,"midi_note":79,"velocity":80,"confidence":1.0},{"start_time":900.8292682926611,"end_time":901.0121951219294,"midi_note":79,"velocity":80,"confidence":1.0},{"start_time":900.8292682926611,"end_time":901.0121951219294,"midi_note":91,"velocity":80,"confidence":1.0},{"start_time":901.0121951219294,"end_time":901.1951219511976,"midi_note":79,"velocity":80,"confidence":1.0},{"start_time":901.0121951219294,"end_time":901.1951219511976,"midi_note":91,"velocity":80,"confidence":1.0},{"start_time":901.1951219511976,"end_time":901.3780487804659,"midi_note":79,"velocity":80,"confidence":1.0},{"start_time":901.1951219511976,"end_time":901.3780487804659,"midi_note":91,"velocity":80,"confidence":1.0},{"start_time":901.3780487804659,"end_time":901.5609756097341,"midi_note":43,"velocity":80,"confidence":1.0},{"start_time":901.5609756097341,"end_time":901.7439024390023,"midi_note":43,"velocity":80,"confidence":1.0},{"start_time":901.5609756097341,"end_time":901.7439024390023,"midi_note":55,"velocity":80,"confidence":1.0},{"start_time":901.7439024390023,"end_time":901.9268292682706,"midi_note":43,"velocity":80,"confidence":1.0},{"start_time":901.7439024390023,"end_time":901.9268292682706,"midi_note":55,"velocity":80,"confidence":1.0},{"start_time":901.9268292682706,"end_time":902.1097560975388,"midi_note":43,"velocity":80,"confidence":1.0},{"start_time":901.9268292682706,"end_time":902.1097560975388,"midi_note":55,"velocity":80,"confidence":1.0},{"start_time":902.1097560975388,"end_time":902.2926829268071,"midi_note":79,"velocity":80,"confidence":1.0},{"start_time":902.1097560975388,"end_time":902.2926829268071,"midi_note":91,"velocity":80,"confidence":1.0},{"start_time":902.2926829268071,"end_time":902.4756097560753,"midi_note":79,"velocity":80,"confidence":1.0},{"start_time":902.2926829268071,"end_time":902.4756097560753,"midi_note":91,"velocity":80,"confidence":1.0},{"start_time":902.4756097560753,"end_time":902.6585365853435,"midi_note":79,"velocity":80,"confidence":1.0},{"start_time":902.4756097560753,"end_time":902.6585365853435,"midi_note":91,"velocity":80,"confidence":1.0},{"start_time":902.6585365853435,"end_time":902.8414634146118,"midi_note":79,"velocity":80,"confidence":1.0},{"start_time":902.6585365853435,"end_time":902.8414634146118,"midi_note":91,"velocity":80,"confidence":1.0},{"start_time":902.8414634146118,"end_time":903.02439024388,"midi_note":43,"velocity":80,"confidence":1.0},{"start_time":902.8414634146118,"end_time":903.02439024388,"midi_note":55,"velocity":80,"confidence":1.0},{"start_time":903.02439024388,"end_time":903.2073170731483,"midi_note":43,"velocity":80,"confidence":1.0},{"start_time":903.02439024388,"end_time":903.2073170731483,"midi_note":55,"velocity":80,"confidence":1.0},{"start_time":903.2073170731483,"end_time":903.3902439024165,"midi_note":43,"velocity":80,"confidence":1.0},{"start_time":903.2073170731483,"end_time":903.3902439024165,"midi_note":55,"velocity":80,"confidence":1.0},{"start_time":903.3902439024165,"end_time":903.5731707316847,"midi_note":43,"velocity":80,"confidence":1.0},{"start_time":903.3902439024165,"end_time":903.5731707316847,"midi_note":55,"velocity":80,"confidence":1.0},{"start_time":903.5731707316847,"end_time":903.756097560953,"midi_note":79,"velocity":80,"confidence":1.0},{"start_time":903.5731707316847,"end_time":903.756097560953,"midi_note":91,"velocity":80,"confidence":1.0},{"start_time":903.756097560953,"end_time":903.9390243902212,"midi_note":79,"velocity":80,"confidence":1.0},{"start_time":903.756097560953,"end_time":903.9390243902212,"midi_note":91,"velocity":80,"confidence":1.0},{"start_time":903.9390243902212,"end_time":904.1219512194895,"midi_note":79,"velocity":80,"confidence":1.0},{"start_time":903.9390243902212,"end_time":904.1219512194895,"midi_note":91,"velocity":80,"confidence":1.0},{"start_time":904.1219512194895,"end_time":904.3048780487577,"midi_note":79,"velocity":80,"confidence":1.0},{"start_time":904.1219512194895,"end_time":904.3048780487577,"midi_note":91,"velocity":80,"confidence":1.0},{"start_time":904.3048780487577,"end_time":904.4878048780259,"midi_note":43,"velocity":80,"confidence":1.0},{"start_time":904.3048780487577,"end_time":904.4878048780259,"midi_note":55,"velocity":80,"confidence":1.0},{"start_time":904.4878048780259,"end_time":904.6707317072942,"midi_note":43,"velocity":80,"confidence":1.0},{"start_time":904.4878048780259,"end_time":904.6707317072942,"midi_note":55,"velocity":80,"confidence":1.0},{"start_time":904.6707317072942,"end_time":904.8536585365624,"midi_note":43,"velocity":80,"confidence":1.0},{"start_time":904.6707317072942,"end_time":904.8536585365624,"midi_note":55,"velocity":80,"confidence":1.0},{"start_time":904.8536585365624,"end_time":905.0365853658307,"midi_note":43,"velocity":80,"confidence":1.0},{"start_time":904.8536585365624,"end_time":905.0365853658307,"midi_note":55,"velocity":80,"confidence":1.0},{"start_time":905.0365853658307,"end_time":907.0365853658307,"midi_note":79,"velocity":80,"confidence":1.0},{"start_time":905.0365853658307,"end_time":907.0365853658307,"midi_note":87,"velocity":80,"confidence":1.0},{"start_time":905.0365853658307,"end_time":907.0365853658307,"midi_note":91,"velocity":80,"confidence":1.0},{"start_time":907.0365853658307,"end_time":909.0365853658307,"midi_note":39,"velocity":80,"confidence":1.0},{"start_time":907.0365853658307,"end_time":909.0365853658307,"midi_note":43,"velocity":80,"confidence":1.0},{"start_time":907.0365853658307,"end_time":909.0365853658307,"midi_note":51,"velocity":80,"confidence":1.0},{"start_time":909.2195121950989,"end_time":909.4024390243671,"midi_note":79,"velocity":80,"confidence":1.0},{"start_time":909.2195121950989,"end_time":909.4024390243671,"midi_note":89,"velocity":80,"confidence":1.0},{"start_time":909.2195121950989,"end_time":909.4024390243671,"midi_note":91,"velocity":80,"confidence":1.0},{"start_time":909.4024390243671,"end_time":909.5853658536354,"midi_note":79,"velocity":80,"confidence":1.0},{"start_time":909.4024390243671,"end_time":909.5853658536354,"midi_note":89,"velocity":80,"confidence":1.0},{"start_time":909.4024390243671,"end_time":909.5853658536354,"midi_note":91,"velocity":80,"confidence":1.0},{"start_time":909.5853658536354,"end_time":909.7682926829036,"midi_note":79,"velocity":80,"confidence":1.0},{"start_time":909.5853658536354,"end_time":909.7682926829036,"midi_note":89,"velocity":80,"confidence":1.0},{"start_time":909.5853658536354,"end_time":909.7682926829036,"midi_note":91,"velocity":80,"confidence":1.0},{"start_time":909.9512195121719,"end_time":910.1341463414401,"midi_note":41,"velocity":80,"confidence":1.0},{"start_time":909.9512195121719,"end_time":910.1341463414401,"midi_note":43,"velocity":80,"confidence":1.0},{"start_time":909.9512195121719,"end_time":910.1341463414401,"midi_note":53,"velocity":80,"confidence":1.0},{"start_time":910.1341463414401,"end_time":910.3170731707083,"midi_note":41,"velocity":80,"confidence":1.0},{"start_time":910.1341463414401,"end_time":910.3170731707083,"midi_note":43,"velocity":80,"confidence":1.0},{"start_time":910.1341463414401,"end_time":910.3170731707083,"midi_note":53,"velocity":80,"confidence":1.0},{"start_time":910.3170731707083,"end_time":910.4999999999766,"midi_note":41,"velocity":80,"confidence":1.0},{"start_time":910.3170731707083,"end_time":910.4999999999766,"midi_note":43,"velocity":80,"confidence":1.0},{"start_time":910.3170731707083,"end_time":910.4999999999766,"midi_note":53,"velocity":80,"confidence":1.0},{"start_time":910.4999999999766,"end_time":911.2317073170498,"midi_note":79,"velocity":80,"confidence":1.0},{"start_time":910.4999999999766,"end_time":911.2317073170498,"midi_note":86,"velocity":80,"confidence":1.0},{"start_time":910.4999999999766,"end_time":911.2317073170498,"midi_note":91,"velocity":80,"confidence":1.0},{"start_time":911.2317073170498,"end_time":911.963414634123,"midi_note":38,"velocity":80,"confidence":1.0},{"start_time":911.2317073170498,"end_time":911.963414634123,"midi_note":43,"velocity":80,"confidence":1.0},{"start_time":911.2317073170498,"end_time":911.963414634123,"midi_note":50,"velocity":80,"confidence":1.0},{"start_time":911.963414634123,"end_time":913.963414634123,"midi_note":79,"velocity":80,"confidence":1.0},{"start_time":911.963414634123,"end_time":913.963414634123,"midi_note":86,"velocity":80,"confidence":1.0},{"start_time":911.963414634123,"end_time":913.963414634123,"midi_note":91,"velocity":80,"confidence":1.0},{"start_time":913.963414634123,"end_time":915.963414634123,"midi_note":38,"velocity":80,"confidence":1.0},{"start_time":913.963414634123,"end_time":915.963414634123,"midi_note":43,"velocity":80,"confidence":1.0},{"start_time":913.963414634123,"end_time":915.963414634123,"midi_note":50,"velocity":80,"confidence":1.0},{"start_time":916.1463414633912,"end_time":916.3292682926594,"midi_note":67,"velocity":80,"confidence":1.0},{"start_time":916.3292682926594,"end_time":916.5121951219277,"midi_note":67,"velocity":80,"confidence":1.0},{"start_time":916.5121951219277,"end_time":916.6951219511959,"midi_note":67,"velocity":80,"confidence":1.0},{"start_time":917.6097560975373,"end_time":917.7926829268056,"midi_note":68,"velocity":80,"confidence":1.0},{"start_time":917.7926829268056,"end_time":917.9756097560738,"midi_note":68,"velocity":80,"confidence":1.0},{"start_time":917.9756097560738,"end_time":918.1585365853421,"midi_note":68,"velocity":80,"confidence":1.0},{"start_time":918.1585365853421,"end_time":918.8902439024152,"midi_note":63,"velocity":80,"confidence":1.0},{"start_time":918.8902439024152,"end_time":919.6219512194884,"midi_note":36,"velocity":80,"confidence":1.0},{"start_time":918.8902439024152,"end_time":919.6219512194884,"midi_note":43,"velocity":80,"confidence":1.0},{"start_time":919.6219512194884,"end_time":919.8048780487567,"midi_note":67,"velocity":80,"confidence":1.0},{"start_time":919.8048780487567,"end_time":919.9878048780249,"midi_note":75,"velocity":80,"confidence":1.0},{"start_time":919.9878048780249,"end_time":920.1707317072932,"midi_note":75,"velocity":80,"confidence":1.0},{"start_time":920.1707317072932,"end_time":920.3536585365614,"midi_note":75,"velocity":80,"confidence":1.0},{"start_time":920.3536585365614,"end_time":920.719512195098,"midi_note":63,"velocity":80,"confidence":1.0},{"start_time":921.0853658536346,"end_time":921.8170731707078,"midi_note":36,"velocity":80,"confidence":1.0},{"start_time":921.0853658536346,"end_time":921.8170731707078,"midi_note":43,"velocity":80,"confidence":1.0},{"start_time":922.1829268292444,"end_time":922.548780487781,"midi_note":80,"velocity":80,"confidence":1.0},{"start_time":922.548780487781,"end_time":923.2804878048541,"midi_note":72,"velocity":80,"confidence":1.0},{"start_time":923.2804878048541,"end_time":924.0121951219273,"midi_note":36,"velocity":80,"confidence":1.0},{"start_time":923.2804878048541,"end_time":924.0121951219273,"midi_note":43,"velocity":80,"confidence":1.0},{"start_time":924.0121951219273,"end_time":924.1951219511956,"midi_note":79,"velocity":80,"confidence":1.0},{"start_time":924.1951219511956,"end_time":924.3780487804638,"midi_note":67,"velocity":80,"confidence":1.0},{"start_time":924.3780487804638,"end_time":924.560975609732,"midi_note":67,"velocity":80,"confidence":1.0},{"start_time":924.560975609732,"end_time":924.7439024390003,"midi_note":67,"velocity":80,"confidence":1.0},{"start_time":924.7439024390003,"end_time":924.9268292682685,"midi_note":72,"velocity":80,"confidence":1.0},{"start_time":924.9268292682685,"end_time":925.6585365853417,"midi_note":36,"velocity":80,"confidence":1.0},{"start_time":924.9268292682685,"end_time":925.6585365853417,"midi_note":43,"velocity":80,"confidence":1.0},{"start_time":925.84146341461,"end_time":926.0243902438782,"midi_note":68,"velocity":80,"confidence":1.0},{"start_time":926.0243902438782,"end_time":926.2073170731464,"midi_note":68,"velocity":80,"confidence":1.0},{"start_time":926.2073170731464,"end_time":926.3902439024147,"midi_note":68,"velocity":80,"confidence":1.0},{"start_time":926.3902439024147,"end_time":927.1219512194879,"midi_note":63,"velocity":80,"confidence":1.0},{"start_time":927.1219512194879,"end_time":927.853658536561,"midi_note":36,"velocity":80,"confidence":1.0},{"start_time":927.1219512194879,"end_time":927.853658536561,"midi_note":43,"velocity":80,"confidence":1.0},{"start_time":927.853658536561,"end_time":928.0365853658293,"midi_note":67,"velocity":80,"confidence":1.0},{"start_time":928.0365853658293,"end_time":928.2195121950975,"midi_note":75,"velocity":80,"confidence":1.0},{"start_time":928.2195121950975,"end_time":928.4024390243658,"midi_note":75,"velocity":80,"confidence":1.0},{"start_time":928.4024390243658,"end_time":928.585365853634,"midi_note":75,"velocity":80,"confidence":1.0},{"start_time":928.585365853634,"end_time":928.9512195121706,"midi_note":63,"velocity":80,"confidence":1.0},{"start_time":929.3170731707072,"end_time":930.0487804877804,"midi_note":36,"velocity":80,"confidence":1.0},{"start_time":929.3170731707072,"end_time":930.0487804877804,"midi_note":43,"velocity":80,"confidence":1.0},{"start_time":930.414634146317,"end_time":930.7804878048536,"midi_note":80,"velocity":80,"confidence":1.0},{"start_time":930.7804878048536,"end_time":931.5121951219268,"midi_note":72,"velocity":80,"confidence":1.0},{"start_time":931.5121951219268,"end_time":932.243902439,"midi_note":36,"velocity":80,"confidence":1.0},{"start_time":931.5121951219268,"end_time":932.243902439,"midi_note":43,"velocity":80,"confidence":1.0},{"start_time":932.243902439,"end_time":932.4268292682682,"midi_note":79,"velocity":80,"confidence":1.0},{"start_time":932.4268292682682,"end_time":932.6097560975364,"midi_note":67,"velocity":80,"confidence":1.0},{"start_time":932.4268292682682,"end_time":932.6097560975364,"midi_note":71,"velocity":80,"confidence":1.0},{"start_time":932.4268292682682,"end_time":932.6097560975364,"midi_note":74,"velocity":80,"confidence":1.0},{"start_time":932.4268292682682,"end_time":932.6097560975364,"midi_note":79,"velocity":80,"confidence":1.0},{"start_time":932.6097560975364,"end_time":932.7926829268047,"midi_note":67,"velocity":80,"confidence":1.0},{"start_time":932.6097560975364,"end_time":932.7926829268047,"midi_note":71,"velocity":80,"confidence":1.0},{"start_time":932.6097560975364,"end_time":932.7926829268047,"midi_note":74,"velocity":80,"confidence":1.0},{"start_time":932.6097560975364,"end_time":932.7926829268047,"midi_note":79,"velocity":80,"confidence":1.0},{"start_time":932.7926829268047,"end_time":932.9756097560729,"midi_note":67,"velocity":80,"confidence":1.0},{"start_time":932.7926829268047,"end_time":932.9756097560729,"midi_note":71,"velocity":80,"confidence":1.0},{"start_time":932.7926829268047,"end_time":932.9756097560729,"midi_note":74,"velocity":80,"confidence":1.0},{"start_time":932.7926829268047,"end_time":932.9756097560729,"midi_note":79,"velocity":80,"confidence":1.0},{"start_time":932.9756097560729,"end_time":933.1585365853412,"midi_note":72,"velocity":80,"confidence":1.0},{"start_time":933.1585365853412,"end_time":933.3414634146094,"midi_note":36,"velocity":80,"confidence":1.0},{"start_time":933.1585365853412,"end_time":933.3414634146094,"midi_note":43,"velocity":80,"confidence":1.0},{"start_time":933.3414634146094,"end_time":933.5243902438776,"midi_note":31,"velocity":80,"confidence":1.0},{"start_time":933.3414634146094,"end_time":933.5243902438776,"midi_note":43,"velocity":80,"confidence":1.0},{"start_time":933.5243902438776,"end_time":933.7073170731459,"midi_note":31,"velocity":80,"confidence":1.0},{"start_time":933.5243902438776,"end_time":933.7073170731459,"midi_note":43,"velocity":80,"confidence":1.0},{"start_time":933.7073170731459,"end_time":933.8902439024141,"midi_note":31,"velocity":80,"confidence":1.0},{"start_time":933.7073170731459,"end_time":933.8902439024141,"midi_note":43,"velocity":80,"confidence":1.0},{"start_time":933.8902439024141,"end_time":934.2560975609507,"midi_note":67,"velocity":80,"confidence":1.0},{"start_time":933.8902439024141,"end_time":934.2560975609507,"midi_note":72,"velocity":80,"confidence":1.0},{"start_time":933.8902439024141,"end_time":934.2560975609507,"midi_note":75,"velocity":80,"confidence":1.0},{"start_time":933.8902439024141,"end_time":934.2560975609507,"midi_note":79,"velocity":80,"confidence":1.0},{"start_time":934.6219512194873,"end_time":934.9878048780239,"midi_note":36,"velocity":80,"confidence":1.0},{"start_time":934.6219512194873,"end_time":934.9878048780239,"midi_note":48,"velocity":80,"confidence":1.0},{"start_time":935.5365853658287,"end_time":935.719512195097,"midi_note":67,"velocity":80,"confidence":1.0},{"start_time":935.5365853658287,"end_time":935.719512195097,"midi_note":71,"velocity":80,"confidence":1.0},{"start_time":935.5365853658287,"end_time":935.719512195097,"midi_note":74,"velocity":80,"confidence":1.0},{"start_time":935.5365853658287,"end_time":935.719512195097,"midi_note":79,"velocity":80,"confidence":1.0},{"start_time":935.719512195097,"end_time":935.9024390243652,"midi_note":67,"velocity":80,"confidence":1.0},{"start_time":935.719512195097,"end_time":935.9024390243652,"midi_note":71,"velocity":80,"confidence":1.0},{"start_time":935.719512195097,"end_time":935.9024390243652,"midi_note":74,"velocity":80,"confidence":1.0},{"start_time":935.719512195097,"end_time":935.9024390243652,"midi_note":79,"velocity":80,"confidence":1.0},{"start_time":935.9024390243652,"end_time":936.0853658536334,"midi_note":67,"velocity":80,"confidence":1.0},{"start_time":935.9024390243652,"end_time":936.0853658536334,"midi_note":71,"velocity":80,"confidence":1.0},{"start_time":935.9024390243652,"end_time":936.0853658536334,"midi_note":74,"velocity":80,"confidence":1.0},{"start_time":935.9024390243652,"end_time":936.0853658536334,"midi_note":79,"velocity":80,"confidence":1.0},{"start_time":936.2682926829017,"end_time":936.4512195121699,"midi_note":31,"velocity":80,"confidence":1.0},{"start_time":936.2682926829017,"end_time":936.4512195121699,"midi_note":43,"velocity":80,"confidence":1.0},{"start_time":936.4512195121699,"end_time":936.6341463414382,"midi_note":31,"velocity":80,"confidence":1.0},{"start_time":936.4512195121699,"end_time":936.6341463414382,"midi_note":43,"velocity":80,"confidence":1.0},{"start_time":936.6341463414382,"end_time":936.8170731707064,"midi_note":31,"velocity":80,"confidence":1.0},{"start_time":936.6341463414382,"end_time":936.8170731707064,"midi_note":43,"velocity":80,"confidence":1.0},{"start_time":936.8170731707064,"end_time":937.182926829243,"midi_note":67,"velocity":80,"confidence":1.0},{"start_time":936.8170731707064,"end_time":937.182926829243,"midi_note":72,"velocity":80,"confidence":1.0},{"start_time":936.8170731707064,"end_time":937.182926829243,"midi_note":75,"velocity":80,"confidence":1.0},{"start_time":936.8170731707064,"end_time":937.182926829243,"midi_note":79,"velocity":80,"confidence":1.0},{"start_time":937.5487804877796,"end_time":937.9146341463162,"midi_note":36,"velocity":80,"confidence":1.0},{"start_time":937.5487804877796,"end_time":937.9146341463162,"midi_note":48,"velocity":80,"confidence":1.0},{"start_time":938.463414634121,"end_time":938.6463414633893,"midi_note":67,"velocity":80,"confidence":1.0},{"start_time":938.463414634121,"end_time":938.6463414633893,"midi_note":71,"velocity":80,"confidence":1.0},{"start_time":938.463414634121,"end_time":938.6463414633893,"midi_note":74,"velocity":80,"confidence":1.0},{"start_time":938.463414634121,"end_time":938.6463414633893,"midi_note":79,"velocity":80,"confidence":1.0},{"start_time":938.6463414633893,"end_time":938.8292682926575,"midi_note":67,"velocity":80,"confidence":1.0},{"start_time":938.6463414633893,"end_time":938.8292682926575,"midi_note":71,"velocity":80,"confidence":1.0},{"start_time":938.6463414633893,"end_time":938.8292682926575,"midi_note":74,"velocity":80,"confidence":1.0},{"start_time":938.6463414633893,"end_time":938.8292682926575,"midi_note":79,"velocity":80,"confidence":1.0},{"start_time":938.8292682926575,"end_time":939.0121951219257,"midi_note":67,"velocity":80,"confidence":1.0},{"start_time":938.8292682926575,"end_time":939.0121951219257,"midi_note":71,"velocity":80,"confidence":1.0},{"start_time":938.8292682926575,"end_time":939.0121951219257,"midi_note":74,"velocity":80,"confidence":1.0},{"start_time":938.8292682926575,"end_time":939.0121951219257,"midi_note":79,"velocity":80,"confidence":1.0},{"start_time":939.195121951194,"end_time":939.3780487804622,"midi_note":31,"velocity":80,"confidence":1.0},{"start_time":939.195121951194,"end_time":939.3780487804622,"midi_note":43,"velocity":80,"confidence":1.0},{"start_time":939.3780487804622,"end_time":939.5609756097305,"midi_note":31,"velocity":80,"confidence":1.0},{"start_time":939.3780487804622,"end_time":939.5609756097305,"midi_note":43,"velocity":80,"confidence":1.0},{"start_time":939.5609756097305,"end_time":939.7439024389987,"midi_note":31,"velocity":80,"confidence":1.0},{"start_time":939.5609756097305,"end_time":939.7439024389987,"midi_note":43,"velocity":80,"confidence":1.0},{"start_time":939.7439024389987,"end_time":940.1097560975353,"midi_note":67,"velocity":80,"confidence":1.0},{"start_time":939.7439024389987,"end_time":940.1097560975353,"midi_note":72,"velocity":80,"confidence":1.0},{"start_time":939.7439024389987,"end_time":940.1097560975353,"midi_note":75,"velocity":80,"confidence":1.0},{"start_time":939.7439024389987,"end_time":940.1097560975353,"midi_note":79,"velocity":80,"confidence":1.0},{"start_time":940.1097560975353,"end_time":940.4756097560719,"midi_note":67,"velocity":80,"confidence":1.0},{"start_time":940.1097560975353,"end_time":940.4756097560719,"midi_note":71,"velocity":80,"confidence":1.0},{"start_time":940.1097560975353,"end_time":940.4756097560719,"midi_note":74,"velocity":80,"confidence":1.0},{"start_time":940.1097560975353,"end_time":940.4756097560719,"midi_note":79,"velocity":80,"confidence":1.0},{"start_time":940.4756097560719,"end_time":940.8414634146085,"midi_note":36,"velocity":80,"confidence":1.0},{"start_time":940.4756097560719,"end_time":940.8414634146085,"midi_note":48,"velocity":80,"confidence":1.0},{"start_time":940.8414634146085,"end_time":941.2073170731451,"midi_note":31,"velocity":80,"confidence":1.0},{"start_time":940.8414634146085,"end_time":941.2073170731451,"midi_note":43,"velocity":80,"confidence":1.0},{"start_time":941.2073170731451,"end_time":941.5731707316817,"midi_note":67,"velocity":80,"confidence":1.0},{"start_time":941.2073170731451,"end_time":941.5731707316817,"midi_note":72,"velocity":80,"confidence":1.0},{"start_time":941.2073170731451,"end_time":941.5731707316817,"midi_note":75,"velocity":80,"confidence":1.0},{"start_time":941.2073170731451,"end_time":941.5731707316817,"midi_note":79,"velocity":80,"confidence":1.0},{"start_time":941.5731707316817,"end_time":941.9390243902183,"midi_note":67,"velocity":80,"confidence":1.0},{"start_time":941.5731707316817,"end_time":941.9390243902183,"midi_note":71,"velocity":80,"confidence":1.0},{"start_time":941.5731707316817,"end_time":941.9390243902183,"midi_note":74,"velocity":80,"confidence":1.0},{"start_time":941.5731707316817,"end_time":941.9390243902183,"midi_note":79,"velocity":80,"confidence":1.0},{"start_time":941.9390243902183,"end_time":942.3048780487549,"midi_note":36,"velocity":80,"confidence":1.0},{"start_time":941.9390243902183,"end_time":942.3048780487549,"midi_note":48,"velocity":80,"confidence":1.0},{"start_time":942.3048780487549,"end_time":942.6707317072915,"midi_note":31,"velocity":80,"confidence":1.0},{"start_time":942.3048780487549,"end_time":942.6707317072915,"midi_note":43,"velocity":80,"confidence":1.0},{"start_time":942.6707317072915,"end_time":943.036585365828,"midi_note":67,"velocity":80,"confidence":1.0},{"start_time":942.6707317072915,"end_time":943.036585365828,"midi_note":72,"velocity":80,"confidence":1.0},{"start_time":942.6707317072915,"end_time":943.036585365828,"midi_note":75,"velocity":80,"confidence":1.0},{"start_time":942.6707317072915,"end_time":943.036585365828,"midi_note":79,"velocity":80,"confidence":1.0},{"start_time":943.036585365828,"end_time":943.4024390243646,"midi_note":71,"velocity":80,"confidence":1.0},{"start_time":943.036585365828,"end_time":943.4024390243646,"midi_note":74,"velocity":80,"confidence":1.0},{"start_time":943.036585365828,"end_time":943.4024390243646,"midi_note":79,"velocity":80,"confidence":1.0},{"start_time":943.036585365828,"end_time":943.4024390243646,"midi_note":83,"velocity":80,"confidence":1.0},{"start_time":943.4024390243646,"end_time":943.7682926829012,"midi_note":36,"velocity":80,"confidence":1.0},{"start_time":943.4024390243646,"end_time":943.7682926829012,"midi_note":48,"velocity":80,"confidence":1.0},{"start_time":943.7682926829012,"end_time":944.1341463414378,"midi_note":43,"velocity":80,"confidence":1.0},{"start_time":943.7682926829012,"end_time":944.1341463414378,"midi_note":55,"velocity":80,"confidence":1.0},{"start_time":944.1341463414378,"end_time":944.4999999999744,"midi_note":72,"velocity":80,"confidence":1.0},{"start_time":944.1341463414378,"end_time":944.4999999999744,"midi_note":75,"velocity":80,"confidence":1.0},{"start_time":944.1341463414378,"end_time":944.4999999999744,"midi_note":79,"velocity":80,"confidence":1.0},{"start_time":944.1341463414378,"end_time":944.4999999999744,"midi_note":84,"velocity":80,"confidence":1.0},{"start_time":944.4999999999744,"end_time":944.865853658511,"midi_note":71,"velocity":80,"confidence":1.0},{"start_time":944.4999999999744,"end_time":944.865853658511,"midi_note":74,"velocity":80,"confidence":1.0},{"start_time":944.4999999999744,"end_time":944.865853658511,"midi_note":79,"velocity":80,"confidence":1.0},{"start_time":944.4999999999744,"end_time":944.865853658511,"midi_note":83,"velocity":80,"confidence":1.0},{"start_time":944.865853658511,"end_time":945.2317073170476,"midi_note":48,"velocity":80,"confidence":1.0},{"start_time":944.865853658511,"end_time":945.2317073170476,"midi_note":51,"velocity":80,"confidence":1.0},{"start_time":944.865853658511,"end_time":945.2317073170476,"midi_note":55,"velocity":80,"confidence":1.0},{"start_time":944.865853658511,"end_time":945.2317073170476,"midi_note":60,"velocity":80,"confidence":1.0},{"start_time":945.2317073170476,"end_time":945.5975609755842,"midi_note":43,"velocity":80,"confidence":1.0},{"start_time":945.2317073170476,"end_time":945.5975609755842,"midi_note":55,"velocity":80,"confidence":1.0},{"start_time":945.5975609755842,"end_time":945.9634146341208,"midi_note":72,"velocity":80,"confidence":1.0},{"start_time":945.5975609755842,"end_time":945.9634146341208,"midi_note":75,"velocity":80,"confidence":1.0},{"start_time":945.5975609755842,"end_time":945.9634146341208,"midi_note":79,"velocity":80,"confidence":1.0},{"start_time":945.5975609755842,"end_time":945.9634146341208,"midi_note":84,"velocity":80,"confidence":1.0},{"start_time":946.3292682926574,"end_time":946.695121951194,"midi_note":48,"velocity":80,"confidence":1.0},{"start_time":946.3292682926574,"end_time":946.695121951194,"midi_note":51,"velocity":80,"confidence":1.0},{"start_time":946.3292682926574,"end_time":946.695121951194,"midi_note":55,"velocity":80,"confidence":1.0},{"start_time":946.3292682926574,"end_time":946.695121951194,"midi_note":60,"velocity":80,"confidence":1.0},{"start_time":947.0609756097306,"end_time":947.4268292682672,"midi_note":59,"velocity":80,"confidence":1.0},{"start_time":947.0609756097306,"end_time":947.4268292682672,"midi_note":62,"velocity":80,"confidence":1.0},{"start_time":947.0609756097306,"end_time":947.4268292682672,"midi_note":67,"velocity":80,"confidence":1.0},{"start_time":947.0609756097306,"end_time":947.4268292682672,"midi_note":71,"velocity":80,"confidence":1.0},{"start_time":947.7926829268038,"end_time":948.1585365853404,"midi_note":31,"velocity":80,"confidence":1.0},{"start_time":947.7926829268038,"end_time":948.1585365853404,"midi_note":43,"velocity":80,"confidence":1.0},{"start_time":948.524390243877,"end_time":948.8902439024135,"midi_note":60,"velocity":80,"confidence":1.0},{"start_time":948.524390243877,"end_time":948.8902439024135,"midi_note":63,"velocity":80,"confidence":1.0},{"start_time":948.524390243877,"end_time":948.8902439024135,"midi_note":67,"velocity":80,"confidence":1.0},{"start_time":948.524390243877,"end_time":948.8902439024135,"midi_note":72,"velocity":80,"confidence":1.0},{"start_time":949.2560975609501,"end_time":949.6219512194867,"midi_note":36,"velocity":80,"confidence":1.0},{"start_time":949.2560975609501,"end_time":949.6219512194867,"midi_note":39,"velocity":80,"confidence":1.0},{"start_time":949.2560975609501,"end_time":949.6219512194867,"midi_note":43,"velocity":80,"confidence":1.0},{"start_time":949.2560975609501,"end_time":949.6219512194867,"midi_note":48,"velocity":80,"confidence":1.0}]', 120.0, 120.0, '2026-03-21T13:13:39.941453', '2026-03-21T13:13:39.941453', NULL, NULL);

INSERT INTO songs (id, song_title, artist, score_id, category, difficulty, is_favorite, created_at) 
VALUES ('9066b69f-29ad-43ab-9360-52ad31c59611', 'Beethoven: 5th Symphony', 'L. van Beethoven', 'f51553d8-cd38-40d6-b016-1083c2849e58', 'Clásica', 5, 0, '2026-03-21T13:13:39.941453');

INSERT INTO scores (id, title, audio_path, midi_data, music_xml, note_events, duration, tempo, created_at, updated_at, checksum, spectrogram_data) 
VALUES ('0f7c207f-2565-4228-a73f-7e440b527943', 'Bella Ciao', 'assets/audio/bella_ciao.mp3', NULL, NULL, '[{"start_time":0.22058823529411764,"end_time":0.4411764705882353,"midi_note":69,"velocity":80,"confidence":1.0},{"start_time":0.4411764705882353,"end_time":0.6617647058823529,"midi_note":68,"velocity":80,"confidence":1.0},{"start_time":0.6617647058823529,"end_time":0.8823529411764706,"midi_note":65,"velocity":80,"confidence":1.0},{"start_time":1.7647058823529411,"end_time":2.6470588235294117,"midi_note":64,"velocity":80,"confidence":1.0},{"start_time":2.8676470588235294,"end_time":3.088235294117647,"midi_note":74,"velocity":80,"confidence":1.0},{"start_time":3.088235294117647,"end_time":3.308823529411765,"midi_note":72,"velocity":80,"confidence":1.0},{"start_time":3.308823529411765,"end_time":3.5294117647058827,"midi_note":71,"velocity":80,"confidence":1.0},{"start_time":3.5294117647058827,"end_time":3.7500000000000004,"midi_note":52,"velocity":80,"confidence":1.0},{"start_time":3.7500000000000004,"end_time":3.970588235294118,"midi_note":56,"velocity":80,"confidence":1.0},{"start_time":3.7500000000000004,"end_time":3.970588235294118,"midi_note":59,"velocity":80,"confidence":1.0},{"start_time":3.970588235294118,"end_time":4.1911764705882355,"midi_note":47,"velocity":80,"confidence":1.0},{"start_time":4.1911764705882355,"end_time":4.411764705882353,"midi_note":56,"velocity":80,"confidence":1.0},{"start_time":4.1911764705882355,"end_time":4.411764705882353,"midi_note":59,"velocity":80,"confidence":1.0},{"start_time":4.411764705882353,"end_time":4.632352941176471,"midi_note":52,"velocity":80,"confidence":1.0},{"start_time":4.632352941176471,"end_time":4.852941176470589,"midi_note":56,"velocity":80,"confidence":1.0},{"start_time":4.632352941176471,"end_time":4.852941176470589,"midi_note":59,"velocity":80,"confidence":1.0},{"start_time":4.852941176470589,"end_time":5.0735294117647065,"midi_note":47,"velocity":80,"confidence":1.0},{"start_time":5.0735294117647065,"end_time":5.294117647058824,"midi_note":56,"velocity":80,"confidence":1.0},{"start_time":5.0735294117647065,"end_time":5.294117647058824,"midi_note":59,"velocity":80,"confidence":1.0},{"start_time":5.294117647058824,"end_time":6.176470588235295,"midi_note":69,"velocity":80,"confidence":1.0},{"start_time":6.397058823529413,"end_time":6.617647058823531,"midi_note":69,"velocity":80,"confidence":1.0},{"start_time":6.617647058823531,"end_time":6.8382352941176485,"midi_note":68,"velocity":80,"confidence":1.0},{"start_time":6.8382352941176485,"end_time":7.058823529411766,"midi_note":65,"velocity":80,"confidence":1.0},{"start_time":7.058823529411766,"end_time":7.279411764705884,"midi_note":45,"velocity":80,"confidence":1.0},{"start_time":7.279411764705884,"end_time":7.500000000000002,"midi_note":48,"velocity":80,"confidence":1.0},{"start_time":7.279411764705884,"end_time":7.500000000000002,"midi_note":52,"velocity":80,"confidence":1.0},{"start_time":7.500000000000002,"end_time":7.7205882352941195,"midi_note":40,"velocity":80,"confidence":1.0},{"start_time":7.7205882352941195,"end_time":7.941176470588237,"midi_note":48,"velocity":80,"confidence":1.0},{"start_time":7.7205882352941195,"end_time":7.941176470588237,"midi_note":52,"velocity":80,"confidence":1.0},{"start_time":7.941176470588237,"end_time":8.161764705882355,"midi_note":45,"velocity":80,"confidence":1.0},{"start_time":8.161764705882355,"end_time":8.382352941176473,"midi_note":48,"velocity":80,"confidence":1.0},{"start_time":8.161764705882355,"end_time":8.382352941176473,"midi_note":52,"velocity":80,"confidence":1.0},{"start_time":8.382352941176473,"end_time":8.60294117647059,"midi_note":40,"velocity":80,"confidence":1.0},{"start_time":8.60294117647059,"end_time":8.823529411764708,"midi_note":48,"velocity":80,"confidence":1.0},{"start_time":8.60294117647059,"end_time":8.823529411764708,"midi_note":52,"velocity":80,"confidence":1.0},{"start_time":8.823529411764708,"end_time":9.044117647058826,"midi_note":64,"velocity":80,"confidence":1.0},{"start_time":9.044117647058826,"end_time":9.264705882352944,"midi_note":65,"velocity":80,"confidence":1.0},{"start_time":9.264705882352944,"end_time":9.485294117647062,"midi_note":68,"velocity":80,"confidence":1.0},{"start_time":9.485294117647062,"end_time":9.70588235294118,"midi_note":69,"velocity":80,"confidence":1.0},{"start_time":9.70588235294118,"end_time":9.926470588235297,"midi_note":71,"velocity":80,"confidence":1.0},{"start_time":9.926470588235297,"end_time":10.147058823529415,"midi_note":74,"velocity":80,"confidence":1.0},{"start_time":10.147058823529415,"end_time":10.367647058823533,"midi_note":72,"velocity":80,"confidence":1.0},{"start_time":10.367647058823533,"end_time":10.58823529411765,"midi_note":71,"velocity":80,"confidence":1.0},{"start_time":10.58823529411765,"end_time":10.808823529411768,"midi_note":52,"velocity":80,"confidence":1.0},{"start_time":10.808823529411768,"end_time":11.029411764705886,"midi_note":56,"velocity":80,"confidence":1.0},{"start_time":10.808823529411768,"end_time":11.029411764705886,"midi_note":59,"velocity":80,"confidence":1.0},{"start_time":11.029411764705886,"end_time":11.250000000000004,"midi_note":47,"velocity":80,"confidence":1.0},{"start_time":11.250000000000004,"end_time":11.470588235294121,"midi_note":56,"velocity":80,"confidence":1.0},{"start_time":11.250000000000004,"end_time":11.470588235294121,"midi_note":59,"velocity":80,"confidence":1.0},{"start_time":11.470588235294121,"end_time":11.691176470588239,"midi_note":52,"velocity":80,"confidence":1.0},{"start_time":11.691176470588239,"end_time":11.911764705882357,"midi_note":40,"velocity":80,"confidence":1.0},{"start_time":11.691176470588239,"end_time":11.911764705882357,"midi_note":52,"velocity":80,"confidence":1.0},{"start_time":11.911764705882357,"end_time":12.132352941176475,"midi_note":42,"velocity":80,"confidence":1.0},{"start_time":11.911764705882357,"end_time":12.132352941176475,"midi_note":54,"velocity":80,"confidence":1.0},{"start_time":12.132352941176475,"end_time":12.352941176470592,"midi_note":44,"velocity":80,"confidence":1.0},{"start_time":12.132352941176475,"end_time":12.352941176470592,"midi_note":56,"velocity":80,"confidence":1.0},{"start_time":12.352941176470592,"end_time":12.794117647058828,"midi_note":69,"velocity":80,"confidence":1.0},{"start_time":12.794117647058828,"end_time":13.235294117647063,"midi_note":68,"velocity":80,"confidence":1.0},{"start_time":13.235294117647063,"end_time":13.455882352941181,"midi_note":69,"velocity":80,"confidence":1.0},{"start_time":13.455882352941181,"end_time":13.676470588235299,"midi_note":64,"velocity":80,"confidence":1.0},{"start_time":13.676470588235299,"end_time":13.897058823529417,"midi_note":69,"velocity":80,"confidence":1.0},{"start_time":13.897058823529417,"end_time":14.117647058823534,"midi_note":71,"velocity":80,"confidence":1.0},{"start_time":14.117647058823534,"end_time":14.55882352941177,"midi_note":45,"velocity":80,"confidence":1.0},{"start_time":14.117647058823534,"end_time":14.55882352941177,"midi_note":57,"velocity":80,"confidence":1.0},{"start_time":14.55882352941177,"end_time":15.000000000000005,"midi_note":40,"velocity":80,"confidence":1.0},{"start_time":14.55882352941177,"end_time":15.000000000000005,"midi_note":52,"velocity":80,"confidence":1.0},{"start_time":15.000000000000005,"end_time":15.44117647058824,"midi_note":45,"velocity":80,"confidence":1.0},{"start_time":15.000000000000005,"end_time":15.44117647058824,"midi_note":57,"velocity":80,"confidence":1.0},{"start_time":15.882352941176476,"end_time":16.102941176470594,"midi_note":72,"velocity":80,"confidence":1.0},{"start_time":16.102941176470594,"end_time":16.54411764705883,"midi_note":69,"velocity":80,"confidence":1.0},{"start_time":16.985294117647065,"end_time":17.20588235294118,"midi_note":64,"velocity":80,"confidence":1.0},{"start_time":17.20588235294118,"end_time":17.426470588235297,"midi_note":69,"velocity":80,"confidence":1.0},{"start_time":17.426470588235297,"end_time":17.647058823529413,"midi_note":71,"velocity":80,"confidence":1.0},{"start_time":17.647058823529413,"end_time":17.86764705882353,"midi_note":45,"velocity":80,"confidence":1.0},{"start_time":17.86764705882353,"end_time":18.088235294117645,"midi_note":48,"velocity":80,"confidence":1.0},{"start_time":17.86764705882353,"end_time":18.088235294117645,"midi_note":52,"velocity":80,"confidence":1.0},{"start_time":18.088235294117645,"end_time":18.30882352941176,"midi_note":40,"velocity":80,"confidence":1.0},{"start_time":18.30882352941176,"end_time":18.529411764705877,"midi_note":48,"velocity":80,"confidence":1.0},{"start_time":18.30882352941176,"end_time":18.529411764705877,"midi_note":52,"velocity":80,"confidence":1.0},{"start_time":18.529411764705877,"end_time":18.749999999999993,"midi_note":45,"velocity":80,"confidence":1.0},{"start_time":18.749999999999993,"end_time":18.97058823529411,"midi_note":48,"velocity":80,"confidence":1.0},{"start_time":18.749999999999993,"end_time":18.97058823529411,"midi_note":52,"velocity":80,"confidence":1.0},{"start_time":18.97058823529411,"end_time":19.191176470588225,"midi_note":40,"velocity":80,"confidence":1.0},{"start_time":19.191176470588225,"end_time":19.41176470588234,"midi_note":48,"velocity":80,"confidence":1.0},{"start_time":19.191176470588225,"end_time":19.41176470588234,"midi_note":52,"velocity":80,"confidence":1.0},{"start_time":19.41176470588234,"end_time":19.632352941176457,"midi_note":72,"velocity":80,"confidence":1.0},{"start_time":19.632352941176457,"end_time":20.073529411764692,"midi_note":69,"velocity":80,"confidence":1.0},{"start_time":20.514705882352928,"end_time":20.735294117647044,"midi_note":64,"velocity":80,"confidence":1.0},{"start_time":20.735294117647044,"end_time":20.95588235294116,"midi_note":69,"velocity":80,"confidence":1.0},{"start_time":20.95588235294116,"end_time":21.176470588235276,"midi_note":71,"velocity":80,"confidence":1.0},{"start_time":21.176470588235276,"end_time":21.39705882352939,"midi_note":45,"velocity":80,"confidence":1.0},{"start_time":21.39705882352939,"end_time":21.617647058823508,"midi_note":48,"velocity":80,"confidence":1.0},{"start_time":21.39705882352939,"end_time":21.617647058823508,"midi_note":52,"velocity":80,"confidence":1.0},{"start_time":21.617647058823508,"end_time":21.838235294117624,"midi_note":40,"velocity":80,"confidence":1.0},{"start_time":21.838235294117624,"end_time":22.05882352941174,"midi_note":48,"velocity":80,"confidence":1.0},{"start_time":21.838235294117624,"end_time":22.05882352941174,"midi_note":52,"velocity":80,"confidence":1.0},{"start_time":22.05882352941174,"end_time":22.279411764705856,"midi_note":45,"velocity":80,"confidence":1.0},{"start_time":22.279411764705856,"end_time":22.49999999999997,"midi_note":48,"velocity":80,"confidence":1.0},{"start_time":22.279411764705856,"end_time":22.49999999999997,"midi_note":52,"velocity":80,"confidence":1.0},{"start_time":22.49999999999997,"end_time":22.720588235294088,"midi_note":40,"velocity":80,"confidence":1.0},{"start_time":22.720588235294088,"end_time":22.941176470588204,"midi_note":48,"velocity":80,"confidence":1.0},{"start_time":22.720588235294088,"end_time":22.941176470588204,"midi_note":52,"velocity":80,"confidence":1.0},{"start_time":22.941176470588204,"end_time":23.38235294117644,"midi_note":64,"velocity":80,"confidence":1.0},{"start_time":22.941176470588204,"end_time":23.38235294117644,"midi_note":69,"velocity":80,"confidence":1.0},{"start_time":22.941176470588204,"end_time":23.38235294117644,"midi_note":72,"velocity":80,"confidence":1.0},{"start_time":23.38235294117644,"end_time":23.602941176470555,"midi_note":71,"velocity":80,"confidence":1.0},{"start_time":23.602941176470555,"end_time":23.82352941176467,"midi_note":69,"velocity":80,"confidence":1.0},{"start_time":23.82352941176467,"end_time":24.264705882352906,"midi_note":64,"velocity":80,"confidence":1.0},{"start_time":23.82352941176467,"end_time":24.264705882352906,"midi_note":69,"velocity":80,"confidence":1.0},{"start_time":23.82352941176467,"end_time":24.264705882352906,"midi_note":72,"velocity":80,"confidence":1.0},{"start_time":24.264705882352906,"end_time":24.485294117647022,"midi_note":71,"velocity":80,"confidence":1.0},{"start_time":24.485294117647022,"end_time":24.70588235294114,"midi_note":69,"velocity":80,"confidence":1.0},{"start_time":24.70588235294114,"end_time":24.926470588235254,"midi_note":45,"velocity":80,"confidence":1.0},{"start_time":24.926470588235254,"end_time":25.14705882352937,"midi_note":48,"velocity":80,"confidence":1.0},{"start_time":24.926470588235254,"end_time":25.14705882352937,"midi_note":52,"velocity":80,"confidence":1.0},{"start_time":25.14705882352937,"end_time":25.367647058823486,"midi_note":40,"velocity":80,"confidence":1.0},{"start_time":25.367647058823486,"end_time":25.588235294117602,"midi_note":48,"velocity":80,"confidence":1.0},{"start_time":25.367647058823486,"end_time":25.588235294117602,"midi_note":52,"velocity":80,"confidence":1.0},{"start_time":25.588235294117602,"end_time":25.80882352941172,"midi_note":45,"velocity":80,"confidence":1.0},{"start_time":25.80882352941172,"end_time":26.029411764705834,"midi_note":48,"velocity":80,"confidence":1.0},{"start_time":25.80882352941172,"end_time":26.029411764705834,"midi_note":52,"velocity":80,"confidence":1.0},{"start_time":26.029411764705834,"end_time":26.24999999999995,"midi_note":40,"velocity":80,"confidence":1.0},{"start_time":26.24999999999995,"end_time":26.470588235294066,"midi_note":48,"velocity":80,"confidence":1.0},{"start_time":26.24999999999995,"end_time":26.470588235294066,"midi_note":52,"velocity":80,"confidence":1.0},{"start_time":26.470588235294066,"end_time":26.9117647058823,"midi_note":64,"velocity":80,"confidence":1.0},{"start_time":26.470588235294066,"end_time":26.9117647058823,"midi_note":76,"velocity":80,"confidence":1.0},{"start_time":26.9117647058823,"end_time":27.352941176470537,"midi_note":64,"velocity":80,"confidence":1.0},{"start_time":26.9117647058823,"end_time":27.352941176470537,"midi_note":76,"velocity":80,"confidence":1.0},{"start_time":27.352941176470537,"end_time":27.794117647058773,"midi_note":64,"velocity":80,"confidence":1.0},{"start_time":27.352941176470537,"end_time":27.794117647058773,"midi_note":76,"velocity":80,"confidence":1.0},{"start_time":27.794117647058773,"end_time":28.01470588235289,"midi_note":74,"velocity":80,"confidence":1.0},{"start_time":28.01470588235289,"end_time":28.235294117647005,"midi_note":76,"velocity":80,"confidence":1.0},{"start_time":28.235294117647005,"end_time":28.45588235294112,"midi_note":45,"velocity":80,"confidence":1.0},{"start_time":28.45588235294112,"end_time":28.676470588235237,"midi_note":48,"velocity":80,"confidence":1.0},{"start_time":28.45588235294112,"end_time":28.676470588235237,"midi_note":52,"velocity":80,"confidence":1.0},{"start_time":28.676470588235237,"end_time":28.897058823529353,"midi_note":40,"velocity":80,"confidence":1.0},{"start_time":28.897058823529353,"end_time":29.11764705882347,"midi_note":48,"velocity":80,"confidence":1.0},{"start_time":28.897058823529353,"end_time":29.11764705882347,"midi_note":52,"velocity":80,"confidence":1.0},{"start_time":29.11764705882347,"end_time":29.338235294117585,"midi_note":45,"velocity":80,"confidence":1.0},{"start_time":29.338235294117585,"end_time":29.5588235294117,"midi_note":33,"velocity":80,"confidence":1.0},{"start_time":29.338235294117585,"end_time":29.5588235294117,"midi_note":45,"velocity":80,"confidence":1.0},{"start_time":29.5588235294117,"end_time":29.779411764705817,"midi_note":35,"velocity":80,"confidence":1.0},{"start_time":29.5588235294117,"end_time":29.779411764705817,"midi_note":47,"velocity":80,"confidence":1.0},{"start_time":29.779411764705817,"end_time":29.999999999999932,"midi_note":36,"velocity":80,"confidence":1.0},{"start_time":29.779411764705817,"end_time":29.999999999999932,"midi_note":48,"velocity":80,"confidence":1.0},{"start_time":29.999999999999932,"end_time":30.22058823529405,"midi_note":77,"velocity":80,"confidence":1.0},{"start_time":30.22058823529405,"end_time":30.661764705882284,"midi_note":77,"velocity":80,"confidence":1.0},{"start_time":31.10294117647052,"end_time":31.323529411764635,"midi_note":77,"velocity":80,"confidence":1.0},{"start_time":31.323529411764635,"end_time":31.54411764705875,"midi_note":76,"velocity":80,"confidence":1.0},{"start_time":31.54411764705875,"end_time":31.764705882352867,"midi_note":74,"velocity":80,"confidence":1.0},{"start_time":31.764705882352867,"end_time":31.985294117646983,"midi_note":38,"velocity":80,"confidence":1.0},{"start_time":31.764705882352867,"end_time":31.985294117646983,"midi_note":50,"velocity":80,"confidence":1.0},{"start_time":31.985294117646983,"end_time":32.2058823529411,"midi_note":53,"velocity":80,"confidence":1.0},{"start_time":31.985294117646983,"end_time":32.2058823529411,"midi_note":57,"velocity":80,"confidence":1.0},{"start_time":32.2058823529411,"end_time":32.42647058823522,"midi_note":45,"velocity":80,"confidence":1.0},{"start_time":32.42647058823522,"end_time":32.647058823529335,"midi_note":53,"velocity":80,"confidence":1.0},{"start_time":32.42647058823522,"end_time":32.647058823529335,"midi_note":57,"velocity":80,"confidence":1.0},{"start_time":32.647058823529335,"end_time":32.86764705882345,"midi_note":50,"velocity":80,"confidence":1.0},{"start_time":32.86764705882345,"end_time":33.08823529411757,"midi_note":53,"velocity":80,"confidence":1.0},{"start_time":32.86764705882345,"end_time":33.08823529411757,"midi_note":57,"velocity":80,"confidence":1.0},{"start_time":33.08823529411757,"end_time":33.30882352941168,"midi_note":45,"velocity":80,"confidence":1.0},{"start_time":33.30882352941168,"end_time":33.5294117647058,"midi_note":53,"velocity":80,"confidence":1.0},{"start_time":33.30882352941168,"end_time":33.5294117647058,"midi_note":57,"velocity":80,"confidence":1.0},{"start_time":33.5294117647058,"end_time":33.749999999999915,"midi_note":77,"velocity":80,"confidence":1.0},{"start_time":33.749999999999915,"end_time":34.19117647058815,"midi_note":76,"velocity":80,"confidence":1.0},{"start_time":34.63235294117638,"end_time":34.852941176470495,"midi_note":76,"velocity":80,"confidence":1.0},{"start_time":34.852941176470495,"end_time":35.07352941176461,"midi_note":74,"velocity":80,"confidence":1.0},{"start_time":35.07352941176461,"end_time":35.29411764705873,"midi_note":72,"velocity":80,"confidence":1.0},{"start_time":35.29411764705873,"end_time":35.51470588235284,"midi_note":45,"velocity":80,"confidence":1.0},{"start_time":35.51470588235284,"end_time":35.73529411764696,"midi_note":48,"velocity":80,"confidence":1.0},{"start_time":35.51470588235284,"end_time":35.73529411764696,"midi_note":52,"velocity":80,"confidence":1.0},{"start_time":35.73529411764696,"end_time":35.955882352941074,"midi_note":40,"velocity":80,"confidence":1.0},{"start_time":35.955882352941074,"end_time":36.17647058823519,"midi_note":48,"velocity":80,"confidence":1.0},{"start_time":35.955882352941074,"end_time":36.17647058823519,"midi_note":52,"velocity":80,"confidence":1.0},{"start_time":36.17647058823519,"end_time":36.397058823529306,"midi_note":45,"velocity":80,"confidence":1.0},{"start_time":36.397058823529306,"end_time":36.61764705882342,"midi_note":48,"velocity":80,"confidence":1.0},{"start_time":36.397058823529306,"end_time":36.61764705882342,"midi_note":52,"velocity":80,"confidence":1.0},{"start_time":36.61764705882342,"end_time":36.83823529411754,"midi_note":40,"velocity":80,"confidence":1.0},{"start_time":36.83823529411754,"end_time":37.058823529411654,"midi_note":48,"velocity":80,"confidence":1.0},{"start_time":36.83823529411754,"end_time":37.058823529411654,"midi_note":52,"velocity":80,"confidence":1.0},{"start_time":37.058823529411654,"end_time":37.499999999999886,"midi_note":71,"velocity":80,"confidence":1.0},{"start_time":37.499999999999886,"end_time":37.94117647058812,"midi_note":76,"velocity":80,"confidence":1.0},{"start_time":37.94117647058812,"end_time":38.38235294117635,"midi_note":72,"velocity":80,"confidence":1.0},{"start_time":38.38235294117635,"end_time":38.82352941176458,"midi_note":71,"velocity":80,"confidence":1.0},{"start_time":38.82352941176458,"end_time":39.0441176470587,"midi_note":40,"velocity":80,"confidence":1.0},{"start_time":39.0441176470587,"end_time":39.264705882352814,"midi_note":47,"velocity":80,"confidence":1.0},{"start_time":39.0441176470587,"end_time":39.264705882352814,"midi_note":52,"velocity":80,"confidence":1.0},{"start_time":39.264705882352814,"end_time":39.48529411764693,"midi_note":35,"velocity":80,"confidence":1.0},{"start_time":39.48529411764693,"end_time":39.705882352941046,"midi_note":47,"velocity":80,"confidence":1.0},{"start_time":39.48529411764693,"end_time":39.705882352941046,"midi_note":52,"velocity":80,"confidence":1.0},{"start_time":39.705882352941046,"end_time":39.92647058823516,"midi_note":40,"velocity":80,"confidence":1.0},{"start_time":39.92647058823516,"end_time":40.14705882352928,"midi_note":47,"velocity":80,"confidence":1.0},{"start_time":39.92647058823516,"end_time":40.14705882352928,"midi_note":52,"velocity":80,"confidence":1.0},{"start_time":40.14705882352928,"end_time":40.367647058823394,"midi_note":35,"velocity":80,"confidence":1.0},{"start_time":40.367647058823394,"end_time":40.58823529411751,"midi_note":47,"velocity":80,"confidence":1.0},{"start_time":40.367647058823394,"end_time":40.58823529411751,"midi_note":52,"velocity":80,"confidence":1.0},{"start_time":40.58823529411751,"end_time":41.02941176470574,"midi_note":69,"velocity":80,"confidence":1.0},{"start_time":41.69117647058809,"end_time":41.911764705882206,"midi_note":64,"velocity":80,"confidence":1.0},{"start_time":41.69117647058809,"end_time":41.911764705882206,"midi_note":76,"velocity":80,"confidence":1.0},{"start_time":41.911764705882206,"end_time":42.13235294117632,"midi_note":69,"velocity":80,"confidence":1.0},{"start_time":41.911764705882206,"end_time":42.13235294117632,"midi_note":81,"velocity":80,"confidence":1.0},{"start_time":42.13235294117632,"end_time":42.35294117647044,"midi_note":71,"velocity":80,"confidence":1.0},{"start_time":42.13235294117632,"end_time":42.35294117647044,"midi_note":83,"velocity":80,"confidence":1.0},{"start_time":42.35294117647044,"end_time":42.573529411764554,"midi_note":45,"velocity":80,"confidence":1.0},{"start_time":42.573529411764554,"end_time":42.79411764705867,"midi_note":48,"velocity":80,"confidence":1.0},{"start_time":42.573529411764554,"end_time":42.79411764705867,"midi_note":52,"velocity":80,"confidence":1.0},{"start_time":42.79411764705867,"end_time":43.014705882352786,"midi_note":40,"velocity":80,"confidence":1.0},{"start_time":43.014705882352786,"end_time":43.2352941176469,"midi_note":48,"velocity":80,"confidence":1.0},{"start_time":43.014705882352786,"end_time":43.2352941176469,"midi_note":52,"velocity":80,"confidence":1.0},{"start_time":43.2352941176469,"end_time":43.45588235294102,"midi_note":45,"velocity":80,"confidence":1.0},{"start_time":43.45588235294102,"end_time":43.676470588235134,"midi_note":48,"velocity":80,"confidence":1.0},{"start_time":43.45588235294102,"end_time":43.676470588235134,"midi_note":52,"velocity":80,"confidence":1.0},{"start_time":43.676470588235134,"end_time":43.89705882352925,"midi_note":40,"velocity":80,"confidence":1.0},{"start_time":43.89705882352925,"end_time":44.117647058823366,"midi_note":48,"velocity":80,"confidence":1.0},{"start_time":43.89705882352925,"end_time":44.117647058823366,"midi_note":52,"velocity":80,"confidence":1.0},{"start_time":44.117647058823366,"end_time":44.33823529411748,"midi_note":72,"velocity":80,"confidence":1.0},{"start_time":44.117647058823366,"end_time":44.33823529411748,"midi_note":84,"velocity":80,"confidence":1.0},{"start_time":44.33823529411748,"end_time":44.77941176470571,"midi_note":69,"velocity":80,"confidence":1.0},{"start_time":44.33823529411748,"end_time":44.77941176470571,"midi_note":81,"velocity":80,"confidence":1.0},{"start_time":45.220588235293945,"end_time":45.44117647058806,"midi_note":64,"velocity":80,"confidence":1.0},{"start_time":45.220588235293945,"end_time":45.44117647058806,"midi_note":76,"velocity":80,"confidence":1.0},{"start_time":45.44117647058806,"end_time":45.66176470588218,"midi_note":69,"velocity":80,"confidence":1.0},{"start_time":45.44117647058806,"end_time":45.66176470588218,"midi_note":81,"velocity":80,"confidence":1.0},{"start_time":45.66176470588218,"end_time":45.88235294117629,"midi_note":71,"velocity":80,"confidence":1.0},{"start_time":45.66176470588218,"end_time":45.88235294117629,"midi_note":83,"velocity":80,"confidence":1.0},{"start_time":45.88235294117629,"end_time":46.10294117647041,"midi_note":45,"velocity":80,"confidence":1.0},{"start_time":46.10294117647041,"end_time":46.323529411764525,"midi_note":48,"velocity":80,"confidence":1.0},{"start_time":46.10294117647041,"end_time":46.323529411764525,"midi_note":52,"velocity":80,"confidence":1.0},{"start_time":46.323529411764525,"end_time":46.54411764705864,"midi_note":40,"velocity":80,"confidence":1.0},{"start_time":46.54411764705864,"end_time":46.76470588235276,"midi_note":48,"velocity":80,"confidence":1.0},{"start_time":46.54411764705864,"end_time":46.76470588235276,"midi_note":52,"velocity":80,"confidence":1.0},{"start_time":46.76470588235276,"end_time":46.98529411764687,"midi_note":45,"velocity":80,"confidence":1.0},{"start_time":46.98529411764687,"end_time":47.20588235294099,"midi_note":48,"velocity":80,"confidence":1.0},{"start_time":46.98529411764687,"end_time":47.20588235294099,"midi_note":52,"velocity":80,"confidence":1.0},{"start_time":47.20588235294099,"end_time":47.426470588235105,"midi_note":40,"velocity":80,"confidence":1.0},{"start_time":47.426470588235105,"end_time":47.64705882352922,"midi_note":48,"velocity":80,"confidence":1.0},{"start_time":47.426470588235105,"end_time":47.64705882352922,"midi_note":52,"velocity":80,"confidence":1.0},{"start_time":47.64705882352922,"end_time":47.86764705882334,"midi_note":72,"velocity":80,"confidence":1.0},{"start_time":47.64705882352922,"end_time":47.86764705882334,"midi_note":84,"velocity":80,"confidence":1.0},{"start_time":47.86764705882334,"end_time":48.30882352941157,"midi_note":69,"velocity":80,"confidence":1.0},{"start_time":47.86764705882334,"end_time":48.30882352941157,"midi_note":81,"velocity":80,"confidence":1.0},{"start_time":48.7499999999998,"end_time":48.97058823529392,"midi_note":64,"velocity":80,"confidence":1.0},{"start_time":48.7499999999998,"end_time":48.97058823529392,"midi_note":76,"velocity":80,"confidence":1.0},{"start_time":48.97058823529392,"end_time":49.19117647058803,"midi_note":69,"velocity":80,"confidence":1.0},{"start_time":48.97058823529392,"end_time":49.19117647058803,"midi_note":81,"velocity":80,"confidence":1.0},{"start_time":49.19117647058803,"end_time":49.41176470588215,"midi_note":71,"velocity":80,"confidence":1.0},{"start_time":49.19117647058803,"end_time":49.41176470588215,"midi_note":83,"velocity":80,"confidence":1.0},{"start_time":49.41176470588215,"end_time":49.632352941176265,"midi_note":45,"velocity":80,"confidence":1.0},{"start_time":49.632352941176265,"end_time":49.85294117647038,"midi_note":48,"velocity":80,"confidence":1.0},{"start_time":49.632352941176265,"end_time":49.85294117647038,"midi_note":52,"velocity":80,"confidence":1.0},{"start_time":49.85294117647038,"end_time":50.0735294117645,"midi_note":40,"velocity":80,"confidence":1.0},{"start_time":50.0735294117645,"end_time":50.29411764705861,"midi_note":48,"velocity":80,"confidence":1.0},{"start_time":50.0735294117645,"end_time":50.29411764705861,"midi_note":52,"velocity":80,"confidence":1.0},{"start_time":50.29411764705861,"end_time":50.51470588235273,"midi_note":45,"velocity":80,"confidence":1.0},{"start_time":50.51470588235273,"end_time":50.735294117646845,"midi_note":48,"velocity":80,"confidence":1.0},{"start_time":50.51470588235273,"end_time":50.735294117646845,"midi_note":52,"velocity":80,"confidence":1.0},{"start_time":50.735294117646845,"end_time":50.95588235294096,"midi_note":40,"velocity":80,"confidence":1.0},{"start_time":50.95588235294096,"end_time":51.17647058823508,"midi_note":48,"velocity":80,"confidence":1.0},{"start_time":50.95588235294096,"end_time":51.17647058823508,"midi_note":52,"velocity":80,"confidence":1.0},{"start_time":51.17647058823508,"end_time":51.61764705882331,"midi_note":72,"velocity":80,"confidence":1.0},{"start_time":51.17647058823508,"end_time":51.61764705882331,"midi_note":84,"velocity":80,"confidence":1.0},{"start_time":51.61764705882331,"end_time":51.838235294117425,"midi_note":71,"velocity":80,"confidence":1.0},{"start_time":51.61764705882331,"end_time":51.838235294117425,"midi_note":83,"velocity":80,"confidence":1.0},{"start_time":51.838235294117425,"end_time":52.05882352941154,"midi_note":69,"velocity":80,"confidence":1.0},{"start_time":51.838235294117425,"end_time":52.05882352941154,"midi_note":81,"velocity":80,"confidence":1.0},{"start_time":52.05882352941154,"end_time":52.49999999999977,"midi_note":72,"velocity":80,"confidence":1.0},{"start_time":52.05882352941154,"end_time":52.49999999999977,"midi_note":84,"velocity":80,"confidence":1.0},{"start_time":52.49999999999977,"end_time":52.72058823529389,"midi_note":71,"velocity":80,"confidence":1.0},{"start_time":52.49999999999977,"end_time":52.72058823529389,"midi_note":83,"velocity":80,"confidence":1.0},{"start_time":52.72058823529389,"end_time":52.941176470588005,"midi_note":69,"velocity":80,"confidence":1.0},{"start_time":52.72058823529389,"end_time":52.941176470588005,"midi_note":81,"velocity":80,"confidence":1.0},{"start_time":52.941176470588005,"end_time":53.16176470588212,"midi_note":45,"velocity":80,"confidence":1.0},{"start_time":53.16176470588212,"end_time":53.38235294117624,"midi_note":48,"velocity":80,"confidence":1.0},{"start_time":53.16176470588212,"end_time":53.38235294117624,"midi_note":52,"velocity":80,"confidence":1.0},{"start_time":53.38235294117624,"end_time":53.60294117647035,"midi_note":40,"velocity":80,"confidence":1.0},{"start_time":53.60294117647035,"end_time":53.82352941176447,"midi_note":48,"velocity":80,"confidence":1.0},{"start_time":53.60294117647035,"end_time":53.82352941176447,"midi_note":52,"velocity":80,"confidence":1.0},{"start_time":53.82352941176447,"end_time":54.044117647058584,"midi_note":45,"velocity":80,"confidence":1.0},{"start_time":54.044117647058584,"end_time":54.2647058823527,"midi_note":48,"velocity":80,"confidence":1.0},{"start_time":54.044117647058584,"end_time":54.2647058823527,"midi_note":52,"velocity":80,"confidence":1.0},{"start_time":54.2647058823527,"end_time":54.485294117646816,"midi_note":40,"velocity":80,"confidence":1.0},{"start_time":54.485294117646816,"end_time":54.70588235294093,"midi_note":48,"velocity":80,"confidence":1.0},{"start_time":54.485294117646816,"end_time":54.70588235294093,"midi_note":52,"velocity":80,"confidence":1.0},{"start_time":54.70588235294093,"end_time":55.147058823529164,"midi_note":76,"velocity":80,"confidence":1.0},{"start_time":54.70588235294093,"end_time":55.147058823529164,"midi_note":88,"velocity":80,"confidence":1.0},{"start_time":55.147058823529164,"end_time":55.588235294117396,"midi_note":76,"velocity":80,"confidence":1.0},{"start_time":55.147058823529164,"end_time":55.588235294117396,"midi_note":88,"velocity":80,"confidence":1.0},{"start_time":55.588235294117396,"end_time":56.02941176470563,"midi_note":76,"velocity":80,"confidence":1.0},{"start_time":55.588235294117396,"end_time":56.02941176470563,"midi_note":88,"velocity":80,"confidence":1.0},{"start_time":56.02941176470563,"end_time":56.249999999999744,"midi_note":74,"velocity":80,"confidence":1.0},{"start_time":56.02941176470563,"end_time":56.249999999999744,"midi_note":86,"velocity":80,"confidence":1.0},{"start_time":56.249999999999744,"end_time":56.47058823529386,"midi_note":76,"velocity":80,"confidence":1.0},{"start_time":56.249999999999744,"end_time":56.47058823529386,"midi_note":88,"velocity":80,"confidence":1.0},{"start_time":56.47058823529386,"end_time":56.691176470587976,"midi_note":45,"velocity":80,"confidence":1.0},{"start_time":56.691176470587976,"end_time":56.91176470588209,"midi_note":48,"velocity":80,"confidence":1.0},{"start_time":56.691176470587976,"end_time":56.91176470588209,"midi_note":52,"velocity":80,"confidence":1.0},{"start_time":56.91176470588209,"end_time":57.13235294117621,"midi_note":40,"velocity":80,"confidence":1.0},{"start_time":57.13235294117621,"end_time":57.352941176470324,"midi_note":48,"velocity":80,"confidence":1.0},{"start_time":57.13235294117621,"end_time":57.352941176470324,"midi_note":52,"velocity":80,"confidence":1.0},{"start_time":57.352941176470324,"end_time":57.57352941176444,"midi_note":45,"velocity":80,"confidence":1.0},{"start_time":57.57352941176444,"end_time":57.794117647058556,"midi_note":33,"velocity":80,"confidence":1.0},{"start_time":57.57352941176444,"end_time":57.794117647058556,"midi_note":45,"velocity":80,"confidence":1.0},{"start_time":57.794117647058556,"end_time":58.01470588235267,"midi_note":35,"velocity":80,"confidence":1.0},{"start_time":57.794117647058556,"end_time":58.01470588235267,"midi_note":47,"velocity":80,"confidence":1.0},{"start_time":58.01470588235267,"end_time":58.23529411764679,"midi_note":36,"velocity":80,"confidence":1.0},{"start_time":58.01470588235267,"end_time":58.23529411764679,"midi_note":48,"velocity":80,"confidence":1.0},{"start_time":58.23529411764679,"end_time":58.455882352940904,"midi_note":77,"velocity":80,"confidence":1.0},{"start_time":58.23529411764679,"end_time":58.455882352940904,"midi_note":89,"velocity":80,"confidence":1.0},{"start_time":58.455882352940904,"end_time":58.897058823529136,"midi_note":77,"velocity":80,"confidence":1.0},{"start_time":58.455882352940904,"end_time":58.897058823529136,"midi_note":89,"velocity":80,"confidence":1.0},{"start_time":59.33823529411737,"end_time":59.558823529411484,"midi_note":77,"velocity":80,"confidence":1.0},{"start_time":59.33823529411737,"end_time":59.558823529411484,"midi_note":89,"velocity":80,"confidence":1.0},{"start_time":59.558823529411484,"end_time":59.7794117647056,"midi_note":76,"velocity":80,"confidence":1.0},{"start_time":59.558823529411484,"end_time":59.7794117647056,"midi_note":88,"velocity":80,"confidence":1.0},{"start_time":59.7794117647056,"end_time":59.999999999999716,"midi_note":74,"velocity":80,"confidence":1.0},{"start_time":59.7794117647056,"end_time":59.999999999999716,"midi_note":86,"velocity":80,"confidence":1.0},{"start_time":59.999999999999716,"end_time":60.22058823529383,"midi_note":38,"velocity":80,"confidence":1.0},{"start_time":59.999999999999716,"end_time":60.22058823529383,"midi_note":50,"velocity":80,"confidence":1.0},{"start_time":60.22058823529383,"end_time":60.44117647058795,"midi_note":53,"velocity":80,"confidence":1.0},{"start_time":60.22058823529383,"end_time":60.44117647058795,"midi_note":57,"velocity":80,"confidence":1.0},{"start_time":60.44117647058795,"end_time":60.661764705882064,"midi_note":45,"velocity":80,"confidence":1.0},{"start_time":60.661764705882064,"end_time":60.88235294117618,"midi_note":53,"velocity":80,"confidence":1.0},{"start_time":60.661764705882064,"end_time":60.88235294117618,"midi_note":57,"velocity":80,"confidence":1.0},{"start_time":60.88235294117618,"end_time":61.102941176470296,"midi_note":50,"velocity":80,"confidence":1.0},{"start_time":61.102941176470296,"end_time":61.32352941176441,"midi_note":53,"velocity":80,"confidence":1.0},{"start_time":61.102941176470296,"end_time":61.32352941176441,"midi_note":57,"velocity":80,"confidence":1.0},{"start_time":61.32352941176441,"end_time":61.54411764705853,"midi_note":45,"velocity":80,"confidence":1.0},{"start_time":61.54411764705853,"end_time":61.764705882352644,"midi_note":53,"velocity":80,"confidence":1.0},{"start_time":61.54411764705853,"end_time":61.764705882352644,"midi_note":57,"velocity":80,"confidence":1.0},{"start_time":61.764705882352644,"end_time":61.98529411764676,"midi_note":77,"velocity":80,"confidence":1.0},{"start_time":61.764705882352644,"end_time":61.98529411764676,"midi_note":89,"velocity":80,"confidence":1.0},{"start_time":61.98529411764676,"end_time":62.42647058823499,"midi_note":76,"velocity":80,"confidence":1.0},{"start_time":61.98529411764676,"end_time":62.42647058823499,"midi_note":88,"velocity":80,"confidence":1.0},{"start_time":63.08823529411734,"end_time":63.308823529411455,"midi_note":74,"velocity":80,"confidence":1.0},{"start_time":63.08823529411734,"end_time":63.308823529411455,"midi_note":86,"velocity":80,"confidence":1.0},{"start_time":63.308823529411455,"end_time":63.52941176470557,"midi_note":72,"velocity":80,"confidence":1.0},{"start_time":63.308823529411455,"end_time":63.52941176470557,"midi_note":84,"velocity":80,"confidence":1.0},{"start_time":63.52941176470557,"end_time":63.74999999999969,"midi_note":45,"velocity":80,"confidence":1.0},{"start_time":63.74999999999969,"end_time":63.9705882352938,"midi_note":48,"velocity":80,"confidence":1.0},{"start_time":63.74999999999969,"end_time":63.9705882352938,"midi_note":52,"velocity":80,"confidence":1.0},{"start_time":63.9705882352938,"end_time":64.19117647058792,"midi_note":40,"velocity":80,"confidence":1.0},{"start_time":64.19117647058792,"end_time":64.41176470588204,"midi_note":48,"velocity":80,"confidence":1.0},{"start_time":64.19117647058792,"end_time":64.41176470588204,"midi_note":52,"velocity":80,"confidence":1.0},{"start_time":64.41176470588204,"end_time":64.63235294117615,"midi_note":45,"velocity":80,"confidence":1.0},{"start_time":64.63235294117615,"end_time":64.85294117647027,"midi_note":48,"velocity":80,"confidence":1.0},{"start_time":64.63235294117615,"end_time":64.85294117647027,"midi_note":52,"velocity":80,"confidence":1.0},{"start_time":64.85294117647027,"end_time":65.07352941176438,"midi_note":40,"velocity":80,"confidence":1.0},{"start_time":65.07352941176438,"end_time":65.2941176470585,"midi_note":48,"velocity":80,"confidence":1.0},{"start_time":65.07352941176438,"end_time":65.2941176470585,"midi_note":52,"velocity":80,"confidence":1.0},{"start_time":65.2941176470585,"end_time":65.73529411764673,"midi_note":71,"velocity":80,"confidence":1.0},{"start_time":65.2941176470585,"end_time":65.73529411764673,"midi_note":83,"velocity":80,"confidence":1.0},{"start_time":65.73529411764673,"end_time":66.17647058823496,"midi_note":76,"velocity":80,"confidence":1.0},{"start_time":65.73529411764673,"end_time":66.17647058823496,"midi_note":88,"velocity":80,"confidence":1.0},{"start_time":66.17647058823496,"end_time":66.6176470588232,"midi_note":72,"velocity":80,"confidence":1.0},{"start_time":66.17647058823496,"end_time":66.6176470588232,"midi_note":84,"velocity":80,"confidence":1.0},{"start_time":66.6176470588232,"end_time":67.05882352941143,"midi_note":71,"velocity":80,"confidence":1.0},{"start_time":66.6176470588232,"end_time":67.05882352941143,"midi_note":83,"velocity":80,"confidence":1.0},{"start_time":67.05882352941143,"end_time":67.27941176470554,"midi_note":40,"velocity":80,"confidence":1.0},{"start_time":67.27941176470554,"end_time":67.49999999999966,"midi_note":47,"velocity":80,"confidence":1.0},{"start_time":67.27941176470554,"end_time":67.49999999999966,"midi_note":52,"velocity":80,"confidence":1.0},{"start_time":67.49999999999966,"end_time":67.72058823529377,"midi_note":35,"velocity":80,"confidence":1.0},{"start_time":67.72058823529377,"end_time":67.94117647058789,"midi_note":47,"velocity":80,"confidence":1.0},{"start_time":67.72058823529377,"end_time":67.94117647058789,"midi_note":52,"velocity":80,"confidence":1.0},{"start_time":67.94117647058789,"end_time":68.161764705882,"midi_note":40,"velocity":80,"confidence":1.0},{"start_time":68.161764705882,"end_time":68.38235294117612,"midi_note":47,"velocity":80,"confidence":1.0},{"start_time":68.161764705882,"end_time":68.38235294117612,"midi_note":52,"velocity":80,"confidence":1.0},{"start_time":68.38235294117612,"end_time":68.60294117647024,"midi_note":35,"velocity":80,"confidence":1.0},{"start_time":68.60294117647024,"end_time":68.82352941176435,"midi_note":47,"velocity":80,"confidence":1.0},{"start_time":68.60294117647024,"end_time":68.82352941176435,"midi_note":52,"velocity":80,"confidence":1.0},{"start_time":68.82352941176435,"end_time":69.26470588235259,"midi_note":69,"velocity":80,"confidence":1.0},{"start_time":68.82352941176435,"end_time":69.26470588235259,"midi_note":81,"velocity":80,"confidence":1.0},{"start_time":69.26470588235259,"end_time":69.70588235294082,"midi_note":68,"velocity":80,"confidence":1.0},{"start_time":69.26470588235259,"end_time":69.70588235294082,"midi_note":80,"velocity":80,"confidence":1.0},{"start_time":69.70588235294082,"end_time":69.92647058823493,"midi_note":69,"velocity":80,"confidence":1.0},{"start_time":69.70588235294082,"end_time":69.92647058823493,"midi_note":81,"velocity":80,"confidence":1.0},{"start_time":69.92647058823493,"end_time":70.14705882352905,"midi_note":69,"velocity":80,"confidence":1.0},{"start_time":70.14705882352905,"end_time":70.36764705882317,"midi_note":68,"velocity":80,"confidence":1.0},{"start_time":70.36764705882317,"end_time":70.58823529411728,"midi_note":65,"velocity":80,"confidence":1.0},{"start_time":70.58823529411728,"end_time":71.02941176470551,"midi_note":45,"velocity":80,"confidence":1.0},{"start_time":71.02941176470551,"end_time":71.47058823529375,"midi_note":40,"velocity":80,"confidence":1.0},{"start_time":71.47058823529375,"end_time":71.91176470588198,"midi_note":45,"velocity":80,"confidence":1.0},{"start_time":72.35294117647021,"end_time":73.23529411764667,"midi_note":64,"velocity":80,"confidence":1.0},{"start_time":73.45588235294079,"end_time":73.6764705882349,"midi_note":74,"velocity":80,"confidence":1.0},{"start_time":73.6764705882349,"end_time":73.89705882352902,"midi_note":72,"velocity":80,"confidence":1.0},{"start_time":73.89705882352902,"end_time":74.11764705882314,"midi_note":71,"velocity":80,"confidence":1.0},{"start_time":74.11764705882314,"end_time":74.33823529411725,"midi_note":52,"velocity":80,"confidence":1.0},{"start_time":74.33823529411725,"end_time":74.55882352941137,"midi_note":56,"velocity":80,"confidence":1.0},{"start_time":74.33823529411725,"end_time":74.55882352941137,"midi_note":59,"velocity":80,"confidence":1.0},{"start_time":74.55882352941137,"end_time":74.77941176470549,"midi_note":47,"velocity":80,"confidence":1.0},{"start_time":74.77941176470549,"end_time":74.9999999999996,"midi_note":56,"velocity":80,"confidence":1.0},{"start_time":74.77941176470549,"end_time":74.9999999999996,"midi_note":59,"velocity":80,"confidence":1.0},{"start_time":74.9999999999996,"end_time":75.22058823529372,"midi_note":52,"velocity":80,"confidence":1.0},{"start_time":75.22058823529372,"end_time":75.44117647058783,"midi_note":56,"velocity":80,"confidence":1.0},{"start_time":75.22058823529372,"end_time":75.44117647058783,"midi_note":59,"velocity":80,"confidence":1.0},{"start_time":75.44117647058783,"end_time":75.66176470588195,"midi_note":47,"velocity":80,"confidence":1.0},{"start_time":75.66176470588195,"end_time":75.88235294117607,"midi_note":56,"velocity":80,"confidence":1.0},{"start_time":75.66176470588195,"end_time":75.88235294117607,"midi_note":59,"velocity":80,"confidence":1.0},{"start_time":75.88235294117607,"end_time":76.76470588235253,"midi_note":69,"velocity":80,"confidence":1.0},{"start_time":76.98529411764665,"end_time":77.20588235294076,"midi_note":69,"velocity":80,"confidence":1.0},{"start_time":77.20588235294076,"end_time":77.42647058823488,"midi_note":68,"velocity":80,"confidence":1.0},{"start_time":77.42647058823488,"end_time":77.647058823529,"midi_note":65,"velocity":80,"confidence":1.0},{"start_time":77.647058823529,"end_time":77.86764705882311,"midi_note":45,"velocity":80,"confidence":1.0},{"start_time":77.86764705882311,"end_time":78.08823529411723,"midi_note":48,"velocity":80,"confidence":1.0},{"start_time":77.86764705882311,"end_time":78.08823529411723,"midi_note":52,"velocity":80,"confidence":1.0},{"start_time":78.08823529411723,"end_time":78.30882352941134,"midi_note":40,"velocity":80,"confidence":1.0},{"start_time":78.30882352941134,"end_time":78.52941176470546,"midi_note":48,"velocity":80,"confidence":1.0},{"start_time":78.30882352941134,"end_time":78.52941176470546,"midi_note":52,"velocity":80,"confidence":1.0},{"start_time":78.52941176470546,"end_time":78.74999999999957,"midi_note":45,"velocity":80,"confidence":1.0},{"start_time":78.74999999999957,"end_time":78.97058823529369,"midi_note":48,"velocity":80,"confidence":1.0},{"start_time":78.74999999999957,"end_time":78.97058823529369,"midi_note":52,"velocity":80,"confidence":1.0},{"start_time":78.97058823529369,"end_time":79.1911764705878,"midi_note":40,"velocity":80,"confidence":1.0},{"start_time":79.1911764705878,"end_time":79.41176470588192,"midi_note":48,"velocity":80,"confidence":1.0},{"start_time":79.1911764705878,"end_time":79.41176470588192,"midi_note":52,"velocity":80,"confidence":1.0},{"start_time":79.41176470588192,"end_time":79.63235294117604,"midi_note":64,"velocity":80,"confidence":1.0},{"start_time":79.63235294117604,"end_time":79.85294117647015,"midi_note":65,"velocity":80,"confidence":1.0},{"start_time":79.85294117647015,"end_time":80.07352941176427,"midi_note":68,"velocity":80,"confidence":1.0},{"start_time":80.07352941176427,"end_time":80.29411764705839,"midi_note":69,"velocity":80,"confidence":1.0},{"start_time":80.29411764705839,"end_time":80.5147058823525,"midi_note":71,"velocity":80,"confidence":1.0},{"start_time":80.5147058823525,"end_time":80.73529411764662,"midi_note":74,"velocity":80,"confidence":1.0},{"start_time":80.73529411764662,"end_time":80.95588235294073,"midi_note":72,"velocity":80,"confidence":1.0},{"start_time":80.95588235294073,"end_time":81.17647058823485,"midi_note":71,"velocity":80,"confidence":1.0},{"start_time":81.17647058823485,"end_time":81.39705882352897,"midi_note":52,"velocity":80,"confidence":1.0},{"start_time":81.39705882352897,"end_time":81.61764705882308,"midi_note":56,"velocity":80,"confidence":1.0},{"start_time":81.39705882352897,"end_time":81.61764705882308,"midi_note":59,"velocity":80,"confidence":1.0},{"start_time":81.61764705882308,"end_time":81.8382352941172,"midi_note":47,"velocity":80,"confidence":1.0},{"start_time":81.8382352941172,"end_time":82.05882352941131,"midi_note":56,"velocity":80,"confidence":1.0},{"start_time":81.8382352941172,"end_time":82.05882352941131,"midi_note":59,"velocity":80,"confidence":1.0},{"start_time":82.05882352941131,"end_time":82.27941176470543,"midi_note":52,"velocity":80,"confidence":1.0},{"start_time":82.27941176470543,"end_time":82.49999999999955,"midi_note":40,"velocity":80,"confidence":1.0},{"start_time":82.27941176470543,"end_time":82.49999999999955,"midi_note":52,"velocity":80,"confidence":1.0},{"start_time":82.49999999999955,"end_time":82.72058823529366,"midi_note":42,"velocity":80,"confidence":1.0},{"start_time":82.49999999999955,"end_time":82.72058823529366,"midi_note":54,"velocity":80,"confidence":1.0},{"start_time":82.72058823529366,"end_time":82.94117647058778,"midi_note":44,"velocity":80,"confidence":1.0},{"start_time":82.72058823529366,"end_time":82.94117647058778,"midi_note":56,"velocity":80,"confidence":1.0},{"start_time":82.94117647058778,"end_time":83.38235294117601,"midi_note":69,"velocity":80,"confidence":1.0},{"start_time":83.38235294117601,"end_time":83.82352941176424,"midi_note":68,"velocity":80,"confidence":1.0},{"start_time":83.82352941176424,"end_time":84.04411764705836,"midi_note":69,"velocity":80,"confidence":1.0},{"start_time":84.04411764705836,"end_time":84.26470588235247,"midi_note":64,"velocity":80,"confidence":1.0},{"start_time":84.26470588235247,"end_time":84.48529411764659,"midi_note":69,"velocity":80,"confidence":1.0},{"start_time":84.48529411764659,"end_time":84.7058823529407,"midi_note":71,"velocity":80,"confidence":1.0},{"start_time":84.7058823529407,"end_time":85.14705882352894,"midi_note":45,"velocity":80,"confidence":1.0},{"start_time":84.7058823529407,"end_time":85.14705882352894,"midi_note":57,"velocity":80,"confidence":1.0},{"start_time":85.14705882352894,"end_time":85.58823529411717,"midi_note":40,"velocity":80,"confidence":1.0},{"start_time":85.14705882352894,"end_time":85.58823529411717,"midi_note":52,"velocity":80,"confidence":1.0},{"start_time":85.58823529411717,"end_time":86.0294117647054,"midi_note":45,"velocity":80,"confidence":1.0},{"start_time":85.58823529411717,"end_time":86.0294117647054,"midi_note":57,"velocity":80,"confidence":1.0},{"start_time":86.47058823529363,"end_time":86.69117647058775,"midi_note":64,"velocity":80,"confidence":1.0},{"start_time":86.47058823529363,"end_time":86.69117647058775,"midi_note":69,"velocity":80,"confidence":1.0},{"start_time":86.47058823529363,"end_time":86.69117647058775,"midi_note":72,"velocity":80,"confidence":1.0},{"start_time":86.69117647058775,"end_time":87.13235294117598,"midi_note":69,"velocity":80,"confidence":1.0},{"start_time":87.57352941176421,"end_time":87.79411764705833,"midi_note":64,"velocity":80,"confidence":1.0},{"start_time":87.79411764705833,"end_time":88.01470588235244,"midi_note":69,"velocity":80,"confidence":1.0},{"start_time":88.01470588235244,"end_time":88.23529411764656,"midi_note":71,"velocity":80,"confidence":1.0},{"start_time":88.23529411764656,"end_time":88.67647058823479,"midi_note":45,"velocity":80,"confidence":1.0},{"start_time":88.23529411764656,"end_time":88.67647058823479,"midi_note":52,"velocity":80,"confidence":1.0},{"start_time":88.23529411764656,"end_time":88.67647058823479,"midi_note":57,"velocity":80,"confidence":1.0},{"start_time":88.67647058823479,"end_time":89.11764705882302,"midi_note":40,"velocity":80,"confidence":1.0},{"start_time":88.67647058823479,"end_time":89.11764705882302,"midi_note":47,"velocity":80,"confidence":1.0},{"start_time":88.67647058823479,"end_time":89.11764705882302,"midi_note":52,"velocity":80,"confidence":1.0},{"start_time":89.11764705882302,"end_time":89.55882352941126,"midi_note":45,"velocity":80,"confidence":1.0},{"start_time":89.11764705882302,"end_time":89.55882352941126,"midi_note":52,"velocity":80,"confidence":1.0},{"start_time":89.11764705882302,"end_time":89.55882352941126,"midi_note":57,"velocity":80,"confidence":1.0},{"start_time":89.99999999999949,"end_time":90.2205882352936,"midi_note":64,"velocity":80,"confidence":1.0},{"start_time":89.99999999999949,"end_time":90.2205882352936,"midi_note":69,"velocity":80,"confidence":1.0},{"start_time":89.99999999999949,"end_time":90.2205882352936,"midi_note":72,"velocity":80,"confidence":1.0},{"start_time":90.2205882352936,"end_time":90.66176470588184,"midi_note":69,"velocity":80,"confidence":1.0},{"start_time":91.10294117647007,"end_time":91.32352941176418,"midi_note":64,"velocity":80,"confidence":1.0},{"start_time":91.32352941176418,"end_time":91.5441176470583,"midi_note":69,"velocity":80,"confidence":1.0},{"start_time":91.5441176470583,"end_time":91.76470588235242,"midi_note":71,"velocity":80,"confidence":1.0},{"start_time":91.76470588235242,"end_time":92.20588235294065,"midi_note":45,"velocity":80,"confidence":1.0},{"start_time":91.76470588235242,"end_time":92.20588235294065,"midi_note":52,"velocity":80,"confidence":1.0},{"start_time":91.76470588235242,"end_time":92.20588235294065,"midi_note":57,"velocity":80,"confidence":1.0},{"start_time":92.20588235294065,"end_time":92.64705882352888,"midi_note":40,"velocity":80,"confidence":1.0},{"start_time":92.20588235294065,"end_time":92.64705882352888,"midi_note":47,"velocity":80,"confidence":1.0},{"start_time":92.20588235294065,"end_time":92.64705882352888,"midi_note":52,"velocity":80,"confidence":1.0},{"start_time":92.64705882352888,"end_time":93.08823529411711,"midi_note":45,"velocity":80,"confidence":1.0},{"start_time":92.64705882352888,"end_time":93.08823529411711,"midi_note":52,"velocity":80,"confidence":1.0},{"start_time":92.64705882352888,"end_time":93.08823529411711,"midi_note":57,"velocity":80,"confidence":1.0},{"start_time":93.52941176470534,"end_time":93.97058823529358,"midi_note":64,"velocity":80,"confidence":1.0},{"start_time":93.52941176470534,"end_time":93.97058823529358,"midi_note":69,"velocity":80,"confidence":1.0},{"start_time":93.52941176470534,"end_time":93.97058823529358,"midi_note":72,"velocity":80,"confidence":1.0},{"start_time":93.97058823529358,"end_time":94.19117647058769,"midi_note":71,"velocity":80,"confidence":1.0},{"start_time":94.19117647058769,"end_time":94.41176470588181,"midi_note":69,"velocity":80,"confidence":1.0},{"start_time":94.41176470588181,"end_time":94.85294117647004,"midi_note":64,"velocity":80,"confidence":1.0},{"start_time":94.41176470588181,"end_time":94.85294117647004,"midi_note":69,"velocity":80,"confidence":1.0},{"start_time":94.41176470588181,"end_time":94.85294117647004,"midi_note":72,"velocity":80,"confidence":1.0},{"start_time":94.85294117647004,"end_time":95.07352941176416,"midi_note":71,"velocity":80,"confidence":1.0},{"start_time":95.07352941176416,"end_time":95.29411764705827,"midi_note":69,"velocity":80,"confidence":1.0},{"start_time":95.29411764705827,"end_time":96.17647058823474,"midi_note":45,"velocity":80,"confidence":1.0},{"start_time":95.29411764705827,"end_time":96.17647058823474,"midi_note":52,"velocity":80,"confidence":1.0},{"start_time":95.29411764705827,"end_time":96.17647058823474,"midi_note":57,"velocity":80,"confidence":1.0},{"start_time":96.17647058823474,"end_time":97.0588235294112,"midi_note":43,"velocity":80,"confidence":1.0},{"start_time":96.17647058823474,"end_time":97.0588235294112,"midi_note":52,"velocity":80,"confidence":1.0},{"start_time":96.17647058823474,"end_time":97.0588235294112,"midi_note":55,"velocity":80,"confidence":1.0},{"start_time":97.0588235294112,"end_time":97.49999999999943,"midi_note":64,"velocity":80,"confidence":1.0},{"start_time":97.0588235294112,"end_time":97.49999999999943,"midi_note":76,"velocity":80,"confidence":1.0},{"start_time":97.49999999999943,"end_time":97.94117647058766,"midi_note":64,"velocity":80,"confidence":1.0},{"start_time":97.49999999999943,"end_time":97.94117647058766,"midi_note":76,"velocity":80,"confidence":1.0},{"start_time":97.94117647058766,"end_time":98.3823529411759,"midi_note":64,"velocity":80,"confidence":1.0},{"start_time":97.94117647058766,"end_time":98.3823529411759,"midi_note":76,"velocity":80,"confidence":1.0},{"start_time":98.3823529411759,"end_time":98.60294117647001,"midi_note":74,"velocity":80,"confidence":1.0},{"start_time":98.60294117647001,"end_time":98.82352941176413,"midi_note":76,"velocity":80,"confidence":1.0},{"start_time":98.82352941176413,"end_time":99.70588235294059,"midi_note":41,"velocity":80,"confidence":1.0},{"start_time":98.82352941176413,"end_time":99.70588235294059,"midi_note":48,"velocity":80,"confidence":1.0},{"start_time":98.82352941176413,"end_time":99.70588235294059,"midi_note":53,"velocity":80,"confidence":1.0},{"start_time":99.70588235294059,"end_time":100.58823529411706,"midi_note":40,"velocity":80,"confidence":1.0},{"start_time":99.70588235294059,"end_time":100.58823529411706,"midi_note":47,"velocity":80,"confidence":1.0},{"start_time":99.70588235294059,"end_time":100.58823529411706,"midi_note":52,"velocity":80,"confidence":1.0},{"start_time":100.58823529411706,"end_time":100.80882352941117,"midi_note":77,"velocity":80,"confidence":1.0},{"start_time":100.80882352941117,"end_time":101.2499999999994,"midi_note":77,"velocity":80,"confidence":1.0},{"start_time":101.69117647058764,"end_time":101.91176470588175,"midi_note":77,"velocity":80,"confidence":1.0},{"start_time":101.91176470588175,"end_time":102.13235294117587,"midi_note":76,"velocity":80,"confidence":1.0},{"start_time":102.13235294117587,"end_time":102.35294117646998,"midi_note":74,"velocity":80,"confidence":1.0},{"start_time":102.35294117646998,"end_time":102.5735294117641,"midi_note":50,"velocity":80,"confidence":1.0},{"start_time":102.5735294117641,"end_time":102.79411764705821,"midi_note":53,"velocity":80,"confidence":1.0},{"start_time":102.5735294117641,"end_time":102.79411764705821,"midi_note":57,"velocity":80,"confidence":1.0},{"start_time":102.79411764705821,"end_time":103.01470588235233,"midi_note":45,"velocity":80,"confidence":1.0},{"start_time":103.01470588235233,"end_time":103.23529411764645,"midi_note":53,"velocity":80,"confidence":1.0},{"start_time":103.01470588235233,"end_time":103.23529411764645,"midi_note":57,"velocity":80,"confidence":1.0},{"start_time":103.23529411764645,"end_time":103.45588235294056,"midi_note":50,"velocity":80,"confidence":1.0},{"start_time":103.45588235294056,"end_time":103.67647058823468,"midi_note":53,"velocity":80,"confidence":1.0},{"start_time":103.45588235294056,"end_time":103.67647058823468,"midi_note":57,"velocity":80,"confidence":1.0},{"start_time":103.67647058823468,"end_time":103.8970588235288,"midi_note":45,"velocity":80,"confidence":1.0},{"start_time":103.8970588235288,"end_time":104.11764705882291,"midi_note":53,"velocity":80,"confidence":1.0},{"start_time":103.8970588235288,"end_time":104.11764705882291,"midi_note":57,"velocity":80,"confidence":1.0},{"start_time":104.11764705882291,"end_time":104.33823529411703,"midi_note":77,"velocity":80,"confidence":1.0},{"start_time":104.33823529411703,"end_time":104.77941176470526,"midi_note":76,"velocity":80,"confidence":1.0},{"start_time":105.4411764705876,"end_time":105.66176470588172,"midi_note":74,"velocity":80,"confidence":1.0},{"start_time":105.66176470588172,"end_time":105.88235294117584,"midi_note":72,"velocity":80,"confidence":1.0},{"start_time":105.88235294117584,"end_time":106.10294117646995,"midi_note":45,"velocity":80,"confidence":1.0},{"start_time":106.10294117646995,"end_time":106.32352941176407,"midi_note":48,"velocity":80,"confidence":1.0},{"start_time":106.10294117646995,"end_time":106.32352941176407,"midi_note":52,"velocity":80,"confidence":1.0},{"start_time":106.32352941176407,"end_time":106.54411764705819,"midi_note":40,"velocity":80,"confidence":1.0},{"start_time":106.54411764705819,"end_time":106.7647058823523,"midi_note":48,"velocity":80,"confidence":1.0},{"start_time":106.54411764705819,"end_time":106.7647058823523,"midi_note":52,"velocity":80,"confidence":1.0},{"start_time":106.7647058823523,"end_time":106.98529411764642,"midi_note":45,"velocity":80,"confidence":1.0},{"start_time":106.98529411764642,"end_time":107.20588235294053,"midi_note":48,"velocity":80,"confidence":1.0},{"start_time":106.98529411764642,"end_time":107.20588235294053,"midi_note":52,"velocity":80,"confidence":1.0},{"start_time":107.20588235294053,"end_time":107.42647058823465,"midi_note":40,"velocity":80,"confidence":1.0},{"start_time":107.42647058823465,"end_time":107.64705882352877,"midi_note":48,"velocity":80,"confidence":1.0},{"start_time":107.42647058823465,"end_time":107.64705882352877,"midi_note":52,"velocity":80,"confidence":1.0},{"start_time":107.64705882352877,"end_time":108.088235294117,"midi_note":71,"velocity":80,"confidence":1.0},{"start_time":108.088235294117,"end_time":108.52941176470523,"midi_note":76,"velocity":80,"confidence":1.0},{"start_time":108.52941176470523,"end_time":108.97058823529346,"midi_note":72,"velocity":80,"confidence":1.0},{"start_time":108.97058823529346,"end_time":109.4117647058817,"midi_note":71,"velocity":80,"confidence":1.0},{"start_time":109.4117647058817,"end_time":109.63235294117581,"midi_note":40,"velocity":80,"confidence":1.0},{"start_time":109.63235294117581,"end_time":109.85294117646993,"midi_note":47,"velocity":80,"confidence":1.0},{"start_time":109.63235294117581,"end_time":109.85294117646993,"midi_note":52,"velocity":80,"confidence":1.0},{"start_time":109.85294117646993,"end_time":110.07352941176404,"midi_note":35,"velocity":80,"confidence":1.0},{"start_time":110.07352941176404,"end_time":110.29411764705816,"midi_note":47,"velocity":80,"confidence":1.0},{"start_time":110.07352941176404,"end_time":110.29411764705816,"midi_note":52,"velocity":80,"confidence":1.0},{"start_time":110.29411764705816,"end_time":110.51470588235227,"midi_note":40,"velocity":80,"confidence":1.0},{"start_time":110.51470588235227,"end_time":110.73529411764639,"midi_note":47,"velocity":80,"confidence":1.0},{"start_time":110.51470588235227,"end_time":110.73529411764639,"midi_note":52,"velocity":80,"confidence":1.0},{"start_time":110.73529411764639,"end_time":110.9558823529405,"midi_note":35,"velocity":80,"confidence":1.0},{"start_time":110.9558823529405,"end_time":111.17647058823462,"midi_note":47,"velocity":80,"confidence":1.0},{"start_time":110.9558823529405,"end_time":111.17647058823462,"midi_note":52,"velocity":80,"confidence":1.0},{"start_time":111.17647058823462,"end_time":112.05882352941109,"midi_note":69,"velocity":80,"confidence":1.0},{"start_time":112.94117647058755,"end_time":113.38235294117578,"midi_note":45,"velocity":80,"confidence":1.0},{"start_time":113.38235294117578,"end_time":113.82352941176401,"midi_note":40,"velocity":80,"confidence":1.0},{"start_time":113.82352941176401,"end_time":114.26470588235225,"midi_note":45,"velocity":80,"confidence":1.0},{"start_time":115.27192008878953,"end_time":115.83795782463858,"midi_note":64,"velocity":80,"confidence":1.0},{"start_time":115.83795782463858,"end_time":116.40399556048763,"midi_note":69,"velocity":80,"confidence":1.0},{"start_time":116.40399556048763,"end_time":116.97003329633668,"midi_note":71,"velocity":80,"confidence":1.0},{"start_time":119.23418423973291,"end_time":119.77963878518746,"midi_note":72,"velocity":80,"confidence":1.0},{"start_time":119.77963878518746,"end_time":120.87054787609655,"midi_note":69,"velocity":80,"confidence":1.0},{"start_time":121.96145696700565,"end_time":122.50691151246019,"midi_note":64,"velocity":80,"confidence":1.0},{"start_time":122.50691151246019,"end_time":123.05236605791474,"midi_note":69,"velocity":80,"confidence":1.0},{"start_time":123.05236605791474,"end_time":123.59782060336929,"midi_note":71,"velocity":80,"confidence":1.0},{"start_time":123.59782060336929,"end_time":124.14327514882383,"midi_note":45,"velocity":80,"confidence":1.0},{"start_time":124.14327514882383,"end_time":124.68872969427838,"midi_note":48,"velocity":80,"confidence":1.0},{"start_time":124.14327514882383,"end_time":124.68872969427838,"midi_note":52,"velocity":80,"confidence":1.0},{"start_time":124.68872969427838,"end_time":125.23418423973293,"midi_note":40,"velocity":80,"confidence":1.0},{"start_time":125.23418423973293,"end_time":125.77963878518747,"midi_note":48,"velocity":80,"confidence":1.0},{"start_time":125.23418423973293,"end_time":125.77963878518747,"midi_note":52,"velocity":80,"confidence":1.0},{"start_time":125.77963878518747,"end_time":126.32509333064202,"midi_note":45,"velocity":80,"confidence":1.0},{"start_time":126.32509333064202,"end_time":126.87054787609657,"midi_note":48,"velocity":80,"confidence":1.0},{"start_time":126.32509333064202,"end_time":126.87054787609657,"midi_note":52,"velocity":80,"confidence":1.0},{"start_time":126.87054787609657,"end_time":127.41600242155111,"midi_note":40,"velocity":80,"confidence":1.0},{"start_time":127.41600242155111,"end_time":127.96145696700566,"midi_note":48,"velocity":80,"confidence":1.0},{"start_time":127.41600242155111,"end_time":127.96145696700566,"midi_note":52,"velocity":80,"confidence":1.0},{"start_time":127.96145696700566,"end_time":128.44532793474758,"midi_note":72,"velocity":80,"confidence":1.0},{"start_time":128.44532793474758,"end_time":129.41306987023145,"midi_note":69,"velocity":80,"confidence":1.0},{"start_time":130.3808118057153,"end_time":130.86468277345722,"midi_note":64,"velocity":80,"confidence":1.0},{"start_time":130.86468277345722,"end_time":131.34855374119914,"midi_note":69,"velocity":80,"confidence":1.0},{"start_time":131.34855374119914,"end_time":131.83242470894106,"midi_note":71,"velocity":80,"confidence":1.0},{"start_time":131.83242470894106,"end_time":132.31629567668298,"midi_note":45,"velocity":80,"confidence":1.0},{"start_time":132.31629567668298,"end_time":132.8001666444249,"midi_note":48,"velocity":80,"confidence":1.0},{"start_time":132.31629567668298,"end_time":132.8001666444249,"midi_note":52,"velocity":80,"confidence":1.0},{"start_time":132.8001666444249,"end_time":133.28403761216683,"midi_note":40,"velocity":80,"confidence":1.0},{"start_time":133.28403761216683,"end_time":133.76790857990875,"midi_note":48,"velocity":80,"confidence":1.0},{"start_time":133.28403761216683,"end_time":133.76790857990875,"midi_note":52,"velocity":80,"confidence":1.0},{"start_time":133.76790857990875,"end_time":134.25177954765067,"midi_note":45,"velocity":80,"confidence":1.0},{"start_time":134.25177954765067,"end_time":134.7356505153926,"midi_note":48,"velocity":80,"confidence":1.0},{"start_time":134.25177954765067,"end_time":134.7356505153926,"midi_note":52,"velocity":80,"confidence":1.0},{"start_time":134.7356505153926,"end_time":135.2195214831345,"midi_note":40,"velocity":80,"confidence":1.0},{"start_time":135.2195214831345,"end_time":135.70339245087644,"midi_note":48,"velocity":80,"confidence":1.0},{"start_time":135.2195214831345,"end_time":135.70339245087644,"midi_note":52,"velocity":80,"confidence":1.0},{"start_time":135.70339245087644,"end_time":136.53672578420978,"midi_note":72,"velocity":80,"confidence":1.0},{"start_time":136.53672578420978,"end_time":136.95339245087644,"midi_note":71,"velocity":80,"confidence":1.0},{"start_time":136.95339245087644,"end_time":137.3700591175431,"midi_note":69,"velocity":80,"confidence":1.0},{"start_time":137.3700591175431,"end_time":138.20339245087644,"midi_note":72,"velocity":80,"confidence":1.0},{"start_time":138.20339245087644,"end_time":138.6200591175431,"midi_note":71,"velocity":80,"confidence":1.0},{"start_time":138.6200591175431,"end_time":139.03672578420975,"midi_note":69,"velocity":80,"confidence":1.0},{"start_time":139.03672578420975,"end_time":139.4533924508764,"midi_note":45,"velocity":80,"confidence":1.0},{"start_time":139.4533924508764,"end_time":139.87005911754306,"midi_note":48,"velocity":80,"confidence":1.0},{"start_time":139.4533924508764,"end_time":139.87005911754306,"midi_note":52,"velocity":80,"confidence":1.0},{"start_time":139.87005911754306,"end_time":140.28672578420972,"midi_note":40,"velocity":80,"confidence":1.0},{"start_time":140.28672578420972,"end_time":140.70339245087638,"midi_note":48,"velocity":80,"confidence":1.0},{"start_time":140.28672578420972,"end_time":140.70339245087638,"midi_note":52,"velocity":80,"confidence":1.0},{"start_time":140.70339245087638,"end_time":141.12005911754304,"midi_note":45,"velocity":80,"confidence":1.0},{"start_time":141.12005911754304,"end_time":141.5367257842097,"midi_note":48,"velocity":80,"confidence":1.0},{"start_time":141.12005911754304,"end_time":141.5367257842097,"midi_note":52,"velocity":80,"confidence":1.0},{"start_time":141.5367257842097,"end_time":141.95339245087635,"midi_note":40,"velocity":80,"confidence":1.0},{"start_time":141.95339245087635,"end_time":142.370059117543,"midi_note":48,"velocity":80,"confidence":1.0},{"start_time":141.95339245087635,"end_time":142.370059117543,"midi_note":52,"velocity":80,"confidence":1.0},{"start_time":142.370059117543,"end_time":143.13928988677378,"midi_note":76,"velocity":80,"confidence":1.0},{"start_time":143.13928988677378,"end_time":143.90852065600455,"midi_note":76,"velocity":80,"confidence":1.0},{"start_time":143.90852065600455,"end_time":144.67775142523533,"midi_note":76,"velocity":80,"confidence":1.0},{"start_time":144.67775142523533,"end_time":145.06236680985072,"midi_note":74,"velocity":80,"confidence":1.0},{"start_time":145.06236680985072,"end_time":145.4469821944661,"midi_note":76,"velocity":80,"confidence":1.0},{"start_time":145.4469821944661,"end_time":145.8315975790815,"midi_note":45,"velocity":80,"confidence":1.0},{"start_time":145.8315975790815,"end_time":146.21621296369688,"midi_note":47,"velocity":80,"confidence":1.0},{"start_time":146.21621296369688,"end_time":146.60082834831226,"midi_note":48,"velocity":80,"confidence":1.0},{"start_time":146.60082834831226,"end_time":146.98544373292765,"midi_note":50,"velocity":80,"confidence":1.0},{"start_time":146.98544373292765,"end_time":147.37005911754304,"midi_note":52,"velocity":80,"confidence":1.0},{"start_time":147.37005911754304,"end_time":147.75467450215842,"midi_note":45,"velocity":80,"confidence":1.0},{"start_time":147.37005911754304,"end_time":147.75467450215842,"midi_note":57,"velocity":80,"confidence":1.0},{"start_time":147.75467450215842,"end_time":148.1392898867738,"midi_note":47,"velocity":80,"confidence":1.0},{"start_time":147.75467450215842,"end_time":148.1392898867738,"midi_note":59,"velocity":80,"confidence":1.0},{"start_time":148.1392898867738,"end_time":148.5239052713892,"midi_note":48,"velocity":80,"confidence":1.0},{"start_time":148.1392898867738,"end_time":148.5239052713892,"midi_note":60,"velocity":80,"confidence":1.0},{"start_time":148.5239052713892,"end_time":148.88535105452172,"midi_note":77,"velocity":80,"confidence":1.0},{"start_time":148.88535105452172,"end_time":149.60824262078677,"midi_note":77,"velocity":80,"confidence":1.0},{"start_time":150.33113418705182,"end_time":150.69257997018434,"midi_note":77,"velocity":80,"confidence":1.0},{"start_time":150.69257997018434,"end_time":151.05402575331686,"midi_note":76,"velocity":80,"confidence":1.0},{"start_time":151.05402575331686,"end_time":151.4154715364494,"midi_note":74,"velocity":80,"confidence":1.0},{"start_time":151.4154715364494,"end_time":151.7769173195819,"midi_note":50,"velocity":80,"confidence":1.0},{"start_time":151.4154715364494,"end_time":151.7769173195819,"midi_note":62,"velocity":80,"confidence":1.0},{"start_time":151.7769173195819,"end_time":152.13836310271444,"midi_note":53,"velocity":80,"confidence":1.0},{"start_time":151.7769173195819,"end_time":152.13836310271444,"midi_note":57,"velocity":80,"confidence":1.0},{"start_time":152.13836310271444,"end_time":152.49980888584696,"midi_note":45,"velocity":80,"confidence":1.0},{"start_time":152.49980888584696,"end_time":152.86125466897948,"midi_note":53,"velocity":80,"confidence":1.0},{"start_time":152.49980888584696,"end_time":152.86125466897948,"midi_note":57,"velocity":80,"confidence":1.0},{"start_time":152.86125466897948,"end_time":153.222700452112,"midi_note":50,"velocity":80,"confidence":1.0},{"start_time":153.222700452112,"end_time":153.58414623524453,"midi_note":53,"velocity":80,"confidence":1.0},{"start_time":153.222700452112,"end_time":153.58414623524453,"midi_note":57,"velocity":80,"confidence":1.0},{"start_time":153.58414623524453,"end_time":153.94559201837706,"midi_note":45,"velocity":80,"confidence":1.0},{"start_time":153.94559201837706,"end_time":154.30703780150958,"midi_note":47,"velocity":80,"confidence":1.0},{"start_time":154.30703780150958,"end_time":154.63312475803133,"midi_note":77,"velocity":80,"confidence":1.0},{"start_time":154.63312475803133,"end_time":155.2852986710748,"midi_note":76,"velocity":80,"confidence":1.0},{"start_time":156.26355954064002,"end_time":156.58964649716177,"midi_note":74,"velocity":80,"confidence":1.0},{"start_time":156.58964649716177,"end_time":156.91573345368352,"midi_note":72,"velocity":80,"confidence":1.0},{"start_time":156.91573345368352,"end_time":157.24182041020526,"midi_note":45,"velocity":80,"confidence":1.0},{"start_time":157.24182041020526,"end_time":157.567907366727,"midi_note":48,"velocity":80,"confidence":1.0},{"start_time":157.24182041020526,"end_time":157.567907366727,"midi_note":52,"velocity":80,"confidence":1.0},{"start_time":157.567907366727,"end_time":157.89399432324876,"midi_note":40,"velocity":80,"confidence":1.0},{"start_time":157.89399432324876,"end_time":158.2200812797705,"midi_note":48,"velocity":80,"confidence":1.0},{"start_time":157.89399432324876,"end_time":158.2200812797705,"midi_note":52,"velocity":80,"confidence":1.0},{"start_time":158.2200812797705,"end_time":158.54616823629226,"midi_note":45,"velocity":80,"confidence":1.0},{"start_time":158.54616823629226,"end_time":158.872255192814,"midi_note":48,"velocity":80,"confidence":1.0},{"start_time":158.54616823629226,"end_time":158.872255192814,"midi_note":52,"velocity":80,"confidence":1.0},{"start_time":158.872255192814,"end_time":159.19834214933576,"midi_note":40,"velocity":80,"confidence":1.0},{"start_time":159.19834214933576,"end_time":159.5244291058575,"midi_note":48,"velocity":80,"confidence":1.0},{"start_time":159.19834214933576,"end_time":159.5244291058575,"midi_note":52,"velocity":80,"confidence":1.0},{"start_time":159.5244291058575,"end_time":160.1304897119181,"midi_note":71,"velocity":80,"confidence":1.0},{"start_time":160.1304897119181,"end_time":160.7365503179787,"midi_note":76,"velocity":80,"confidence":1.0},{"start_time":160.7365503179787,"end_time":161.3426109240393,"midi_note":72,"velocity":80,"confidence":1.0},{"start_time":161.3426109240393,"end_time":161.9486715300999,"midi_note":71,"velocity":80,"confidence":1.0},{"start_time":161.9486715300999,"end_time":162.2517018331302,"midi_note":40,"velocity":80,"confidence":1.0},{"start_time":162.2517018331302,"end_time":162.5547321361605,"midi_note":47,"velocity":80,"confidence":1.0},{"start_time":162.2517018331302,"end_time":162.5547321361605,"midi_note":52,"velocity":80,"confidence":1.0},{"start_time":162.5547321361605,"end_time":162.85776243919082,"midi_note":35,"velocity":80,"confidence":1.0},{"start_time":162.85776243919082,"end_time":163.16079274222113,"midi_note":47,"velocity":80,"confidence":1.0},{"start_time":162.85776243919082,"end_time":163.16079274222113,"midi_note":52,"velocity":80,"confidence":1.0},{"start_time":163.16079274222113,"end_time":163.46382304525144,"midi_note":40,"velocity":80,"confidence":1.0},{"start_time":163.46382304525144,"end_time":163.76685334828176,"midi_note":47,"velocity":80,"confidence":1.0},{"start_time":163.46382304525144,"end_time":163.76685334828176,"midi_note":52,"velocity":80,"confidence":1.0},{"start_time":163.76685334828176,"end_time":164.06988365131207,"midi_note":35,"velocity":80,"confidence":1.0},{"start_time":164.06988365131207,"end_time":164.37291395434238,"midi_note":47,"velocity":80,"confidence":1.0},{"start_time":164.06988365131207,"end_time":164.37291395434238,"midi_note":52,"velocity":80,"confidence":1.0},{"start_time":164.37291395434238,"end_time":164.74791395434238,"midi_note":60,"velocity":80,"confidence":1.0},{"start_time":164.37291395434238,"end_time":164.74791395434238,"midi_note":64,"velocity":80,"confidence":1.0},{"start_time":164.37291395434238,"end_time":164.74791395434238,"midi_note":69,"velocity":80,"confidence":1.0},{"start_time":164.74791395434238,"end_time":165.12291395434238,"midi_note":59,"velocity":80,"confidence":1.0},{"start_time":164.74791395434238,"end_time":165.12291395434238,"midi_note":64,"velocity":80,"confidence":1.0},{"start_time":164.74791395434238,"end_time":165.12291395434238,"midi_note":68,"velocity":80,"confidence":1.0},{"start_time":165.12291395434238,"end_time":165.31041395434238,"midi_note":60,"velocity":80,"confidence":1.0},{"start_time":165.12291395434238,"end_time":165.31041395434238,"midi_note":64,"velocity":80,"confidence":1.0},{"start_time":165.12291395434238,"end_time":165.31041395434238,"midi_note":69,"velocity":80,"confidence":1.0},{"start_time":165.31041395434238,"end_time":165.49791395434238,"midi_note":69,"velocity":80,"confidence":1.0},{"start_time":165.49791395434238,"end_time":165.68541395434238,"midi_note":68,"velocity":80,"confidence":1.0},{"start_time":165.68541395434238,"end_time":165.87291395434238,"midi_note":65,"velocity":80,"confidence":1.0},{"start_time":165.87291395434238,"end_time":166.24791395434238,"midi_note":33,"velocity":80,"confidence":1.0},{"start_time":165.87291395434238,"end_time":166.24791395434238,"midi_note":45,"velocity":80,"confidence":1.0},{"start_time":166.24791395434238,"end_time":166.62291395434238,"midi_note":28,"velocity":80,"confidence":1.0},{"start_time":166.24791395434238,"end_time":166.62291395434238,"midi_note":40,"velocity":80,"confidence":1.0},{"start_time":166.62291395434238,"end_time":166.99791395434238,"midi_note":33,"velocity":80,"confidence":1.0},{"start_time":166.62291395434238,"end_time":166.99791395434238,"midi_note":45,"velocity":80,"confidence":1.0},{"start_time":167.37291395434238,"end_time":168.12291395434238,"midi_note":64,"velocity":80,"confidence":1.0},{"start_time":168.31041395434238,"end_time":168.49791395434238,"midi_note":74,"velocity":80,"confidence":1.0},{"start_time":168.49791395434238,"end_time":168.68541395434238,"midi_note":72,"velocity":80,"confidence":1.0},{"start_time":168.68541395434238,"end_time":168.87291395434238,"midi_note":71,"velocity":80,"confidence":1.0},{"start_time":168.87291395434238,"end_time":169.06041395434238,"midi_note":52,"velocity":80,"confidence":1.0},{"start_time":169.06041395434238,"end_time":169.24791395434238,"midi_note":56,"velocity":80,"confidence":1.0},{"start_time":169.06041395434238,"end_time":169.24791395434238,"midi_note":59,"velocity":80,"confidence":1.0},{"start_time":169.24791395434238,"end_time":169.43541395434238,"midi_note":47,"velocity":80,"confidence":1.0},{"start_time":169.43541395434238,"end_time":169.62291395434238,"midi_note":56,"velocity":80,"confidence":1.0},{"start_time":169.43541395434238,"end_time":169.62291395434238,"midi_note":59,"velocity":80,"confidence":1.0},{"start_time":169.62291395434238,"end_time":169.81041395434238,"midi_note":52,"velocity":80,"confidence":1.0},{"start_time":169.81041395434238,"end_time":169.99791395434238,"midi_note":56,"velocity":80,"confidence":1.0},{"start_time":169.81041395434238,"end_time":169.99791395434238,"midi_note":59,"velocity":80,"confidence":1.0},{"start_time":169.99791395434238,"end_time":170.18541395434238,"midi_note":47,"velocity":80,"confidence":1.0},{"start_time":170.18541395434238,"end_time":170.37291395434238,"midi_note":56,"velocity":80,"confidence":1.0},{"start_time":170.18541395434238,"end_time":170.37291395434238,"midi_note":59,"velocity":80,"confidence":1.0},{"start_time":170.37291395434238,"end_time":171.12291395434238,"midi_note":69,"velocity":80,"confidence":1.0},{"start_time":171.31041395434238,"end_time":171.49791395434238,"midi_note":69,"velocity":80,"confidence":1.0},{"start_time":171.49791395434238,"end_time":171.68541395434238,"midi_note":68,"velocity":80,"confidence":1.0},{"start_time":171.68541395434238,"end_time":171.87291395434238,"midi_note":65,"velocity":80,"confidence":1.0},{"start_time":171.87291395434238,"end_time":172.06041395434238,"midi_note":45,"velocity":80,"confidence":1.0},{"start_time":172.06041395434238,"end_time":172.24791395434238,"midi_note":48,"velocity":80,"confidence":1.0},{"start_time":172.06041395434238,"end_time":172.24791395434238,"midi_note":52,"velocity":80,"confidence":1.0},{"start_time":172.24791395434238,"end_time":172.43541395434238,"midi_note":40,"velocity":80,"confidence":1.0},{"start_time":172.43541395434238,"end_time":172.62291395434238,"midi_note":48,"velocity":80,"confidence":1.0},{"start_time":172.43541395434238,"end_time":172.62291395434238,"midi_note":52,"velocity":80,"confidence":1.0},{"start_time":172.62291395434238,"end_time":172.81041395434238,"midi_note":45,"velocity":80,"confidence":1.0},{"start_time":172.81041395434238,"end_time":172.99791395434238,"midi_note":48,"velocity":80,"confidence":1.0},{"start_time":172.81041395434238,"end_time":172.99791395434238,"midi_note":52,"velocity":80,"confidence":1.0},{"start_time":172.99791395434238,"end_time":173.18541395434238,"midi_note":40,"velocity":80,"confidence":1.0},{"start_time":173.18541395434238,"end_time":173.37291395434238,"midi_note":48,"velocity":80,"confidence":1.0},{"start_time":173.18541395434238,"end_time":173.37291395434238,"midi_note":52,"velocity":80,"confidence":1.0},{"start_time":173.37291395434238,"end_time":173.56041395434238,"midi_note":64,"velocity":80,"confidence":1.0},{"start_time":173.56041395434238,"end_time":173.74791395434238,"midi_note":65,"velocity":80,"confidence":1.0},{"start_time":173.74791395434238,"end_time":173.93541395434238,"midi_note":68,"velocity":80,"confidence":1.0},{"start_time":173.93541395434238,"end_time":174.12291395434238,"midi_note":69,"velocity":80,"confidence":1.0},{"start_time":174.12291395434238,"end_time":174.31041395434238,"midi_note":71,"velocity":80,"confidence":1.0},{"start_time":174.31041395434238,"end_time":174.49791395434238,"midi_note":74,"velocity":80,"confidence":1.0},{"start_time":174.49791395434238,"end_time":174.68541395434238,"midi_note":72,"velocity":80,"confidence":1.0},{"start_time":174.68541395434238,"end_time":174.87291395434238,"midi_note":71,"velocity":80,"confidence":1.0},{"start_time":174.87291395434238,"end_time":175.06041395434238,"midi_note":52,"velocity":80,"confidence":1.0},{"start_time":175.06041395434238,"end_time":175.24791395434238,"midi_note":56,"velocity":80,"confidence":1.0},{"start_time":175.06041395434238,"end_time":175.24791395434238,"midi_note":59,"velocity":80,"confidence":1.0},{"start_time":175.24791395434238,"end_time":175.43541395434238,"midi_note":47,"velocity":80,"confidence":1.0},{"start_time":175.43541395434238,"end_time":175.62291395434238,"midi_note":56,"velocity":80,"confidence":1.0},{"start_time":175.43541395434238,"end_time":175.62291395434238,"midi_note":59,"velocity":80,"confidence":1.0},{"start_time":175.62291395434238,"end_time":175.81041395434238,"midi_note":52,"velocity":80,"confidence":1.0},{"start_time":175.81041395434238,"end_time":175.99791395434238,"midi_note":40,"velocity":80,"confidence":1.0},{"start_time":175.81041395434238,"end_time":175.99791395434238,"midi_note":52,"velocity":80,"confidence":1.0},{"start_time":175.99791395434238,"end_time":176.18541395434238,"midi_note":42,"velocity":80,"confidence":1.0},{"start_time":175.99791395434238,"end_time":176.18541395434238,"midi_note":54,"velocity":80,"confidence":1.0},{"start_time":176.18541395434238,"end_time":176.37291395434238,"midi_note":44,"velocity":80,"confidence":1.0},{"start_time":176.18541395434238,"end_time":176.37291395434238,"midi_note":56,"velocity":80,"confidence":1.0},{"start_time":176.37291395434238,"end_time":176.56041395434238,"midi_note":69,"velocity":80,"confidence":1.0},{"start_time":176.56041395434238,"end_time":176.74791395434238,"midi_note":71,"velocity":80,"confidence":1.0},{"start_time":176.74791395434238,"end_time":176.93541395434238,"midi_note":72,"velocity":80,"confidence":1.0},{"start_time":176.93541395434238,"end_time":177.12291395434238,"midi_note":74,"velocity":80,"confidence":1.0},{"start_time":177.12291395434238,"end_time":177.31041395434238,"midi_note":76,"velocity":80,"confidence":1.0},{"start_time":177.31041395434238,"end_time":177.49791395434238,"midi_note":69,"velocity":80,"confidence":1.0},{"start_time":177.49791395434238,"end_time":177.68541395434238,"midi_note":68,"velocity":80,"confidence":1.0},{"start_time":177.68541395434238,"end_time":177.87291395434238,"midi_note":65,"velocity":80,"confidence":1.0},{"start_time":177.87291395434238,"end_time":178.06041395434238,"midi_note":33,"velocity":80,"confidence":1.0},{"start_time":177.87291395434238,"end_time":178.06041395434238,"midi_note":45,"velocity":80,"confidence":1.0},{"start_time":178.06041395434238,"end_time":178.24791395434238,"midi_note":35,"velocity":80,"confidence":1.0},{"start_time":178.06041395434238,"end_time":178.24791395434238,"midi_note":47,"velocity":80,"confidence":1.0},{"start_time":178.24791395434238,"end_time":178.43541395434238,"midi_note":36,"velocity":80,"confidence":1.0},{"start_time":178.24791395434238,"end_time":178.43541395434238,"midi_note":48,"velocity":80,"confidence":1.0},{"start_time":178.43541395434238,"end_time":178.62291395434238,"midi_note":38,"velocity":80,"confidence":1.0},{"start_time":178.43541395434238,"end_time":178.62291395434238,"midi_note":50,"velocity":80,"confidence":1.0},{"start_time":178.62291395434238,"end_time":178.99791395434238,"midi_note":40,"velocity":80,"confidence":1.0},{"start_time":178.62291395434238,"end_time":178.99791395434238,"midi_note":52,"velocity":80,"confidence":1.0},{"start_time":179.37291395434238,"end_time":180.12291395434238,"midi_note":64,"velocity":80,"confidence":1.0},{"start_time":180.31041395434238,"end_time":180.49791395434238,"midi_note":74,"velocity":80,"confidence":1.0},{"start_time":180.49791395434238,"end_time":180.68541395434238,"midi_note":72,"velocity":80,"confidence":1.0},{"start_time":180.68541395434238,"end_time":180.87291395434238,"midi_note":71,"velocity":80,"confidence":1.0},{"start_time":180.87291395434238,"end_time":181.06041395434238,"midi_note":52,"velocity":80,"confidence":1.0},{"start_time":181.06041395434238,"end_time":181.24791395434238,"midi_note":56,"velocity":80,"confidence":1.0},{"start_time":181.06041395434238,"end_time":181.24791395434238,"midi_note":59,"velocity":80,"confidence":1.0},{"start_time":181.24791395434238,"end_time":181.43541395434238,"midi_note":47,"velocity":80,"confidence":1.0},{"start_time":181.43541395434238,"end_time":181.62291395434238,"midi_note":56,"velocity":80,"confidence":1.0},{"start_time":181.43541395434238,"end_time":181.62291395434238,"midi_note":59,"velocity":80,"confidence":1.0},{"start_time":181.62291395434238,"end_time":181.81041395434238,"midi_note":52,"velocity":80,"confidence":1.0},{"start_time":181.81041395434238,"end_time":181.99791395434238,"midi_note":56,"velocity":80,"confidence":1.0},{"start_time":181.81041395434238,"end_time":181.99791395434238,"midi_note":59,"velocity":80,"confidence":1.0},{"start_time":181.99791395434238,"end_time":182.18541395434238,"midi_note":47,"velocity":80,"confidence":1.0},{"start_time":182.18541395434238,"end_time":182.37291395434238,"midi_note":56,"velocity":80,"confidence":1.0},{"start_time":182.18541395434238,"end_time":182.37291395434238,"midi_note":59,"velocity":80,"confidence":1.0},{"start_time":182.37291395434238,"end_time":183.12291395434238,"midi_note":69,"velocity":80,"confidence":1.0},{"start_time":183.31041395434238,"end_time":183.49791395434238,"midi_note":69,"velocity":80,"confidence":1.0},{"start_time":183.49791395434238,"end_time":183.68541395434238,"midi_note":68,"velocity":80,"confidence":1.0},{"start_time":183.68541395434238,"end_time":183.87291395434238,"midi_note":65,"velocity":80,"confidence":1.0},{"start_time":183.87291395434238,"end_time":184.06041395434238,"midi_note":45,"velocity":80,"confidence":1.0},{"start_time":184.06041395434238,"end_time":184.24791395434238,"midi_note":48,"velocity":80,"confidence":1.0},{"start_time":184.06041395434238,"end_time":184.24791395434238,"midi_note":52,"velocity":80,"confidence":1.0},{"start_time":184.24791395434238,"end_time":184.43541395434238,"midi_note":40,"velocity":80,"confidence":1.0},{"start_time":184.43541395434238,"end_time":184.62291395434238,"midi_note":48,"velocity":80,"confidence":1.0},{"start_time":184.43541395434238,"end_time":184.62291395434238,"midi_note":52,"velocity":80,"confidence":1.0},{"start_time":184.62291395434238,"end_time":184.81041395434238,"midi_note":45,"velocity":80,"confidence":1.0},{"start_time":184.81041395434238,"end_time":184.99791395434238,"midi_note":48,"velocity":80,"confidence":1.0},{"start_time":184.81041395434238,"end_time":184.99791395434238,"midi_note":52,"velocity":80,"confidence":1.0},{"start_time":184.99791395434238,"end_time":185.18541395434238,"midi_note":40,"velocity":80,"confidence":1.0},{"start_time":185.18541395434238,"end_time":185.37291395434238,"midi_note":48,"velocity":80,"confidence":1.0},{"start_time":185.18541395434238,"end_time":185.37291395434238,"midi_note":52,"velocity":80,"confidence":1.0},{"start_time":185.37291395434238,"end_time":185.56041395434238,"midi_note":64,"velocity":80,"confidence":1.0},{"start_time":185.56041395434238,"end_time":185.74791395434238,"midi_note":65,"velocity":80,"confidence":1.0},{"start_time":185.74791395434238,"end_time":185.93541395434238,"midi_note":68,"velocity":80,"confidence":1.0},{"start_time":185.93541395434238,"end_time":186.12291395434238,"midi_note":69,"velocity":80,"confidence":1.0},{"start_time":186.12291395434238,"end_time":186.31041395434238,"midi_note":71,"velocity":80,"confidence":1.0},{"start_time":186.31041395434238,"end_time":186.49791395434238,"midi_note":74,"velocity":80,"confidence":1.0},{"start_time":186.49791395434238,"end_time":186.68541395434238,"midi_note":72,"velocity":80,"confidence":1.0},{"start_time":186.68541395434238,"end_time":186.87291395434238,"midi_note":71,"velocity":80,"confidence":1.0},{"start_time":186.87291395434238,"end_time":187.06041395434238,"midi_note":52,"velocity":80,"confidence":1.0},{"start_time":187.06041395434238,"end_time":187.24791395434238,"midi_note":56,"velocity":80,"confidence":1.0},{"start_time":187.06041395434238,"end_time":187.24791395434238,"midi_note":59,"velocity":80,"confidence":1.0},{"start_time":187.24791395434238,"end_time":187.43541395434238,"midi_note":47,"velocity":80,"confidence":1.0},{"start_time":187.43541395434238,"end_time":187.62291395434238,"midi_note":56,"velocity":80,"confidence":1.0},{"start_time":187.43541395434238,"end_time":187.62291395434238,"midi_note":59,"velocity":80,"confidence":1.0},{"start_time":187.62291395434238,"end_time":187.81041395434238,"midi_note":52,"velocity":80,"confidence":1.0},{"start_time":187.81041395434238,"end_time":187.99791395434238,"midi_note":40,"velocity":80,"confidence":1.0},{"start_time":187.81041395434238,"end_time":187.99791395434238,"midi_note":52,"velocity":80,"confidence":1.0},{"start_time":187.99791395434238,"end_time":188.18541395434238,"midi_note":42,"velocity":80,"confidence":1.0},{"start_time":187.99791395434238,"end_time":188.18541395434238,"midi_note":54,"velocity":80,"confidence":1.0},{"start_time":188.18541395434238,"end_time":188.37291395434238,"midi_note":44,"velocity":80,"confidence":1.0},{"start_time":188.18541395434238,"end_time":188.37291395434238,"midi_note":56,"velocity":80,"confidence":1.0},{"start_time":188.37291395434238,"end_time":188.74791395434238,"midi_note":69,"velocity":80,"confidence":1.0},{"start_time":188.74791395434238,"end_time":189.12291395434238,"midi_note":68,"velocity":80,"confidence":1.0},{"start_time":189.12291395434238,"end_time":189.31041395434238,"midi_note":69,"velocity":80,"confidence":1.0},{"start_time":189.31041395434238,"end_time":189.49791395434238,"midi_note":64,"velocity":80,"confidence":1.0},{"start_time":189.49791395434238,"end_time":189.68541395434238,"midi_note":69,"velocity":80,"confidence":1.0},{"start_time":189.68541395434238,"end_time":189.87291395434238,"midi_note":71,"velocity":80,"confidence":1.0},{"start_time":189.87291395434238,"end_time":190.24791395434238,"midi_note":45,"velocity":80,"confidence":1.0},{"start_time":189.87291395434238,"end_time":190.24791395434238,"midi_note":57,"velocity":80,"confidence":1.0},{"start_time":190.24791395434238,"end_time":190.62291395434238,"midi_note":40,"velocity":80,"confidence":1.0},{"start_time":190.24791395434238,"end_time":190.62291395434238,"midi_note":52,"velocity":80,"confidence":1.0},{"start_time":190.62291395434238,"end_time":190.99791395434238,"midi_note":45,"velocity":80,"confidence":1.0},{"start_time":190.62291395434238,"end_time":190.99791395434238,"midi_note":57,"velocity":80,"confidence":1.0},{"start_time":191.37291395434238,"end_time":191.56041395434238,"midi_note":64,"velocity":80,"confidence":1.0},{"start_time":191.37291395434238,"end_time":191.56041395434238,"midi_note":69,"velocity":80,"confidence":1.0},{"start_time":191.37291395434238,"end_time":191.56041395434238,"midi_note":72,"velocity":80,"confidence":1.0},{"start_time":191.56041395434238,"end_time":191.93541395434238,"midi_note":69,"velocity":80,"confidence":1.0},{"start_time":192.31041395434238,"end_time":192.49791395434238,"midi_note":64,"velocity":80,"confidence":1.0},{"start_time":192.49791395434238,"end_time":192.68541395434238,"midi_note":69,"velocity":80,"confidence":1.0},{"start_time":192.68541395434238,"end_time":192.87291395434238,"midi_note":71,"velocity":80,"confidence":1.0},{"start_time":192.87291395434238,"end_time":193.06041395434238,"midi_note":45,"velocity":80,"confidence":1.0},{"start_time":193.06041395434238,"end_time":193.24791395434238,"midi_note":48,"velocity":80,"confidence":1.0},{"start_time":193.06041395434238,"end_time":193.24791395434238,"midi_note":52,"velocity":80,"confidence":1.0},{"start_time":193.24791395434238,"end_time":193.43541395434238,"midi_note":40,"velocity":80,"confidence":1.0},{"start_time":193.43541395434238,"end_time":193.62291395434238,"midi_note":48,"velocity":80,"confidence":1.0},{"start_time":193.43541395434238,"end_time":193.62291395434238,"midi_note":52,"velocity":80,"confidence":1.0},{"start_time":193.62291395434238,"end_time":193.81041395434238,"midi_note":45,"velocity":80,"confidence":1.0},{"start_time":193.81041395434238,"end_time":193.99791395434238,"midi_note":48,"velocity":80,"confidence":1.0},{"start_time":193.81041395434238,"end_time":193.99791395434238,"midi_note":52,"velocity":80,"confidence":1.0},{"start_time":193.99791395434238,"end_time":194.18541395434238,"midi_note":40,"velocity":80,"confidence":1.0},{"start_time":194.18541395434238,"end_time":194.37291395434238,"midi_note":48,"velocity":80,"confidence":1.0},{"start_time":194.18541395434238,"end_time":194.37291395434238,"midi_note":52,"velocity":80,"confidence":1.0},{"start_time":194.37291395434238,"end_time":194.56041395434238,"midi_note":64,"velocity":80,"confidence":1.0},{"start_time":194.37291395434238,"end_time":194.56041395434238,"midi_note":69,"velocity":80,"confidence":1.0},{"start_time":194.37291395434238,"end_time":194.56041395434238,"midi_note":72,"velocity":80,"confidence":1.0},{"start_time":194.56041395434238,"end_time":194.93541395434238,"midi_note":69,"velocity":80,"confidence":1.0},{"start_time":195.31041395434238,"end_time":195.49791395434238,"midi_note":64,"velocity":80,"confidence":1.0},{"start_time":195.49791395434238,"end_time":195.68541395434238,"midi_note":69,"velocity":80,"confidence":1.0},{"start_time":195.68541395434238,"end_time":195.87291395434238,"midi_note":71,"velocity":80,"confidence":1.0},{"start_time":195.87291395434238,"end_time":196.06041395434238,"midi_note":45,"velocity":80,"confidence":1.0},{"start_time":196.06041395434238,"end_time":196.24791395434238,"midi_note":48,"velocity":80,"confidence":1.0},{"start_time":196.06041395434238,"end_time":196.24791395434238,"midi_note":52,"velocity":80,"confidence":1.0},{"start_time":196.24791395434238,"end_time":196.43541395434238,"midi_note":40,"velocity":80,"confidence":1.0},{"start_time":196.43541395434238,"end_time":196.62291395434238,"midi_note":48,"velocity":80,"confidence":1.0},{"start_time":196.43541395434238,"end_time":196.62291395434238,"midi_note":52,"velocity":80,"confidence":1.0},{"start_time":196.62291395434238,"end_time":196.81041395434238,"midi_note":45,"velocity":80,"confidence":1.0},{"start_time":196.81041395434238,"end_time":196.99791395434238,"midi_note":48,"velocity":80,"confidence":1.0},{"start_time":196.81041395434238,"end_time":196.99791395434238,"midi_note":52,"velocity":80,"confidence":1.0},{"start_time":196.99791395434238,"end_time":197.18541395434238,"midi_note":40,"velocity":80,"confidence":1.0},{"start_time":197.18541395434238,"end_time":197.37291395434238,"midi_note":48,"velocity":80,"confidence":1.0},{"start_time":197.18541395434238,"end_time":197.37291395434238,"midi_note":52,"velocity":80,"confidence":1.0},{"start_time":197.37291395434238,"end_time":197.74791395434238,"midi_note":64,"velocity":80,"confidence":1.0},{"start_time":197.37291395434238,"end_time":197.74791395434238,"midi_note":69,"velocity":80,"confidence":1.0},{"start_time":197.37291395434238,"end_time":197.74791395434238,"midi_note":72,"velocity":80,"confidence":1.0},{"start_time":197.74791395434238,"end_time":197.93541395434238,"midi_note":71,"velocity":80,"confidence":1.0},{"start_time":197.93541395434238,"end_time":198.12291395434238,"midi_note":69,"velocity":80,"confidence":1.0},{"start_time":198.12291395434238,"end_time":198.49791395434238,"midi_note":64,"velocity":80,"confidence":1.0},{"start_time":198.12291395434238,"end_time":198.49791395434238,"midi_note":69,"velocity":80,"confidence":1.0},{"start_time":198.12291395434238,"end_time":198.49791395434238,"midi_note":72,"velocity":80,"confidence":1.0},{"start_time":198.49791395434238,"end_time":198.68541395434238,"midi_note":71,"velocity":80,"confidence":1.0},{"start_time":198.68541395434238,"end_time":198.87291395434238,"midi_note":69,"velocity":80,"confidence":1.0},{"start_time":198.87291395434238,"end_time":199.06041395434238,"midi_note":45,"velocity":80,"confidence":1.0},{"start_time":199.06041395434238,"end_time":199.24791395434238,"midi_note":48,"velocity":80,"confidence":1.0},{"start_time":199.06041395434238,"end_time":199.24791395434238,"midi_note":52,"velocity":80,"confidence":1.0},{"start_time":199.24791395434238,"end_time":199.43541395434238,"midi_note":40,"velocity":80,"confidence":1.0},{"start_time":199.43541395434238,"end_time":199.62291395434238,"midi_note":48,"velocity":80,"confidence":1.0},{"start_time":199.43541395434238,"end_time":199.62291395434238,"midi_note":52,"velocity":80,"confidence":1.0},{"start_time":199.62291395434238,"end_time":199.81041395434238,"midi_note":45,"velocity":80,"confidence":1.0},{"start_time":199.81041395434238,"end_time":199.99791395434238,"midi_note":48,"velocity":80,"confidence":1.0},{"start_time":199.81041395434238,"end_time":199.99791395434238,"midi_note":52,"velocity":80,"confidence":1.0},{"start_time":199.99791395434238,"end_time":200.18541395434238,"midi_note":40,"velocity":80,"confidence":1.0},{"start_time":200.18541395434238,"end_time":200.37291395434238,"midi_note":48,"velocity":80,"confidence":1.0},{"start_time":200.18541395434238,"end_time":200.37291395434238,"midi_note":52,"velocity":80,"confidence":1.0},{"start_time":200.37291395434238,"end_time":200.74791395434238,"midi_note":64,"velocity":80,"confidence":1.0},{"start_time":200.37291395434238,"end_time":200.74791395434238,"midi_note":76,"velocity":80,"confidence":1.0},{"start_time":200.74791395434238,"end_time":201.12291395434238,"midi_note":64,"velocity":80,"confidence":1.0},{"start_time":200.74791395434238,"end_time":201.12291395434238,"midi_note":76,"velocity":80,"confidence":1.0},{"start_time":201.12291395434238,"end_time":201.49791395434238,"midi_note":64,"velocity":80,"confidence":1.0},{"start_time":201.12291395434238,"end_time":201.49791395434238,"midi_note":76,"velocity":80,"confidence":1.0},{"start_time":201.49791395434238,"end_time":201.68541395434238,"midi_note":74,"velocity":80,"confidence":1.0},{"start_time":201.68541395434238,"end_time":201.87291395434238,"midi_note":76,"velocity":80,"confidence":1.0},{"start_time":201.87291395434238,"end_time":202.06041395434238,"midi_note":45,"velocity":80,"confidence":1.0},{"start_time":202.06041395434238,"end_time":202.24791395434238,"midi_note":48,"velocity":80,"confidence":1.0},{"start_time":202.06041395434238,"end_time":202.24791395434238,"midi_note":52,"velocity":80,"confidence":1.0},{"start_time":202.24791395434238,"end_time":202.43541395434238,"midi_note":40,"velocity":80,"confidence":1.0},{"start_time":202.43541395434238,"end_time":202.62291395434238,"midi_note":48,"velocity":80,"confidence":1.0},{"start_time":202.43541395434238,"end_time":202.62291395434238,"midi_note":52,"velocity":80,"confidence":1.0},{"start_time":202.62291395434238,"end_time":202.81041395434238,"midi_note":45,"velocity":80,"confidence":1.0},{"start_time":202.81041395434238,"end_time":202.99791395434238,"midi_note":33,"velocity":80,"confidence":1.0},{"start_time":202.81041395434238,"end_time":202.99791395434238,"midi_note":45,"velocity":80,"confidence":1.0},{"start_time":202.99791395434238,"end_time":203.18541395434238,"midi_note":35,"velocity":80,"confidence":1.0},{"start_time":202.99791395434238,"end_time":203.18541395434238,"midi_note":47,"velocity":80,"confidence":1.0},{"start_time":203.18541395434238,"end_time":203.37291395434238,"midi_note":36,"velocity":80,"confidence":1.0},{"start_time":203.18541395434238,"end_time":203.37291395434238,"midi_note":48,"velocity":80,"confidence":1.0},{"start_time":203.37291395434238,"end_time":203.56041395434238,"midi_note":69,"velocity":80,"confidence":1.0},{"start_time":203.37291395434238,"end_time":203.56041395434238,"midi_note":74,"velocity":80,"confidence":1.0},{"start_time":203.37291395434238,"end_time":203.56041395434238,"midi_note":77,"velocity":80,"confidence":1.0},{"start_time":203.56041395434238,"end_time":203.93541395434238,"midi_note":69,"velocity":80,"confidence":1.0},{"start_time":203.56041395434238,"end_time":203.93541395434238,"midi_note":74,"velocity":80,"confidence":1.0},{"start_time":203.56041395434238,"end_time":203.93541395434238,"midi_note":77,"velocity":80,"confidence":1.0},{"start_time":204.31041395434238,"end_time":204.49791395434238,"midi_note":77,"velocity":80,"confidence":1.0},{"start_time":204.49791395434238,"end_time":204.68541395434238,"midi_note":76,"velocity":80,"confidence":1.0},{"start_time":204.68541395434238,"end_time":204.87291395434238,"midi_note":74,"velocity":80,"confidence":1.0},{"start_time":204.87291395434238,"end_time":205.06041395434238,"midi_note":38,"velocity":80,"confidence":1.0},{"start_time":204.87291395434238,"end_time":205.06041395434238,"midi_note":50,"velocity":80,"confidence":1.0},{"start_time":205.06041395434238,"end_time":205.24791395434238,"midi_note":53,"velocity":80,"confidence":1.0},{"start_time":205.06041395434238,"end_time":205.24791395434238,"midi_note":57,"velocity":80,"confidence":1.0},{"start_time":205.24791395434238,"end_time":205.43541395434238,"midi_note":45,"velocity":80,"confidence":1.0},{"start_time":205.43541395434238,"end_time":205.62291395434238,"midi_note":53,"velocity":80,"confidence":1.0},{"start_time":205.43541395434238,"end_time":205.62291395434238,"midi_note":57,"velocity":80,"confidence":1.0},{"start_time":205.62291395434238,"end_time":205.81041395434238,"midi_note":50,"velocity":80,"confidence":1.0},{"start_time":205.81041395434238,"end_time":205.99791395434238,"midi_note":53,"velocity":80,"confidence":1.0},{"start_time":205.81041395434238,"end_time":205.99791395434238,"midi_note":57,"velocity":80,"confidence":1.0},{"start_time":205.99791395434238,"end_time":206.18541395434238,"midi_note":45,"velocity":80,"confidence":1.0},{"start_time":206.18541395434238,"end_time":206.37291395434238,"midi_note":53,"velocity":80,"confidence":1.0},{"start_time":206.18541395434238,"end_time":206.37291395434238,"midi_note":57,"velocity":80,"confidence":1.0},{"start_time":206.37291395434238,"end_time":206.56041395434238,"midi_note":69,"velocity":80,"confidence":1.0},{"start_time":206.37291395434238,"end_time":206.56041395434238,"midi_note":74,"velocity":80,"confidence":1.0},{"start_time":206.37291395434238,"end_time":206.56041395434238,"midi_note":77,"velocity":80,"confidence":1.0},{"start_time":206.56041395434238,"end_time":206.93541395434238,"midi_note":76,"velocity":80,"confidence":1.0},{"start_time":207.49791395434238,"end_time":207.68541395434238,"midi_note":74,"velocity":80,"confidence":1.0},{"start_time":207.68541395434238,"end_time":207.87291395434238,"midi_note":72,"velocity":80,"confidence":1.0},{"start_time":207.87291395434238,"end_time":208.06041395434238,"midi_note":45,"velocity":80,"confidence":1.0},{"start_time":208.06041395434238,"end_time":208.24791395434238,"midi_note":48,"velocity":80,"confidence":1.0},{"start_time":208.06041395434238,"end_time":208.24791395434238,"midi_note":52,"velocity":80,"confidence":1.0},{"start_time":208.24791395434238,"end_time":208.43541395434238,"midi_note":40,"velocity":80,"confidence":1.0},{"start_time":208.43541395434238,"end_time":208.62291395434238,"midi_note":48,"velocity":80,"confidence":1.0},{"start_time":208.43541395434238,"end_time":208.62291395434238,"midi_note":52,"velocity":80,"confidence":1.0},{"start_time":208.62291395434238,"end_time":208.81041395434238,"midi_note":45,"velocity":80,"confidence":1.0},{"start_time":208.81041395434238,"end_time":208.99791395434238,"midi_note":48,"velocity":80,"confidence":1.0},{"start_time":208.81041395434238,"end_time":208.99791395434238,"midi_note":52,"velocity":80,"confidence":1.0},{"start_time":208.99791395434238,"end_time":209.18541395434238,"midi_note":40,"velocity":80,"confidence":1.0},{"start_time":209.18541395434238,"end_time":209.37291395434238,"midi_note":48,"velocity":80,"confidence":1.0},{"start_time":209.18541395434238,"end_time":209.37291395434238,"midi_note":52,"velocity":80,"confidence":1.0},{"start_time":209.37291395434238,"end_time":209.74791395434238,"midi_note":71,"velocity":80,"confidence":1.0},{"start_time":209.74791395434238,"end_time":210.12291395434238,"midi_note":76,"velocity":80,"confidence":1.0},{"start_time":210.12291395434238,"end_time":210.49791395434238,"midi_note":72,"velocity":80,"confidence":1.0},{"start_time":210.49791395434238,"end_time":210.87291395434238,"midi_note":71,"velocity":80,"confidence":1.0},{"start_time":210.87291395434238,"end_time":211.06041395434238,"midi_note":40,"velocity":80,"confidence":1.0},{"start_time":211.06041395434238,"end_time":211.24791395434238,"midi_note":47,"velocity":80,"confidence":1.0},{"start_time":211.06041395434238,"end_time":211.24791395434238,"midi_note":52,"velocity":80,"confidence":1.0},{"start_time":211.24791395434238,"end_time":211.43541395434238,"midi_note":35,"velocity":80,"confidence":1.0},{"start_time":211.43541395434238,"end_time":211.62291395434238,"midi_note":47,"velocity":80,"confidence":1.0},{"start_time":211.43541395434238,"end_time":211.62291395434238,"midi_note":52,"velocity":80,"confidence":1.0},{"start_time":211.62291395434238,"end_time":211.81041395434238,"midi_note":40,"velocity":80,"confidence":1.0},{"start_time":211.81041395434238,"end_time":211.99791395434238,"midi_note":47,"velocity":80,"confidence":1.0},{"start_time":211.81041395434238,"end_time":211.99791395434238,"midi_note":52,"velocity":80,"confidence":1.0},{"start_time":211.99791395434238,"end_time":212.18541395434238,"midi_note":35,"velocity":80,"confidence":1.0},{"start_time":212.18541395434238,"end_time":212.37291395434238,"midi_note":47,"velocity":80,"confidence":1.0},{"start_time":212.18541395434238,"end_time":212.37291395434238,"midi_note":52,"velocity":80,"confidence":1.0},{"start_time":212.37291395434238,"end_time":212.74791395434238,"midi_note":69,"velocity":80,"confidence":1.0},{"start_time":213.31041395434238,"end_time":213.49791395434238,"midi_note":64,"velocity":80,"confidence":1.0},{"start_time":213.49791395434238,"end_time":213.68541395434238,"midi_note":69,"velocity":80,"confidence":1.0},{"start_time":213.68541395434238,"end_time":213.87291395434238,"midi_note":71,"velocity":80,"confidence":1.0},{"start_time":213.87291395434238,"end_time":214.06041395434238,"midi_note":45,"velocity":80,"confidence":1.0},{"start_time":214.06041395434238,"end_time":214.24791395434238,"midi_note":48,"velocity":80,"confidence":1.0},{"start_time":214.06041395434238,"end_time":214.24791395434238,"midi_note":52,"velocity":80,"confidence":1.0},{"start_time":214.24791395434238,"end_time":214.43541395434238,"midi_note":40,"velocity":80,"confidence":1.0},{"start_time":214.43541395434238,"end_time":214.62291395434238,"midi_note":48,"velocity":80,"confidence":1.0},{"start_time":214.43541395434238,"end_time":214.62291395434238,"midi_note":52,"velocity":80,"confidence":1.0},{"start_time":214.62291395434238,"end_time":214.81041395434238,"midi_note":45,"velocity":80,"confidence":1.0},{"start_time":214.81041395434238,"end_time":214.99791395434238,"midi_note":40,"velocity":80,"confidence":1.0},{"start_time":214.99791395434238,"end_time":215.18541395434238,"midi_note":42,"velocity":80,"confidence":1.0},{"start_time":215.18541395434238,"end_time":215.37291395434238,"midi_note":44,"velocity":80,"confidence":1.0},{"start_time":215.37291395434238,"end_time":215.56041395434238,"midi_note":64,"velocity":80,"confidence":1.0},{"start_time":215.37291395434238,"end_time":215.56041395434238,"midi_note":69,"velocity":80,"confidence":1.0},{"start_time":215.37291395434238,"end_time":215.56041395434238,"midi_note":72,"velocity":80,"confidence":1.0},{"start_time":215.56041395434238,"end_time":215.93541395434238,"midi_note":69,"velocity":80,"confidence":1.0},{"start_time":216.31041395434238,"end_time":216.49791395434238,"midi_note":64,"velocity":80,"confidence":1.0},{"start_time":216.49791395434238,"end_time":216.68541395434238,"midi_note":69,"velocity":80,"confidence":1.0},{"start_time":216.68541395434238,"end_time":216.87291395434238,"midi_note":71,"velocity":80,"confidence":1.0},{"start_time":216.87291395434238,"end_time":217.06041395434238,"midi_note":45,"velocity":80,"confidence":1.0},{"start_time":217.06041395434238,"end_time":217.24791395434238,"midi_note":48,"velocity":80,"confidence":1.0},{"start_time":217.06041395434238,"end_time":217.24791395434238,"midi_note":52,"velocity":80,"confidence":1.0},{"start_time":217.24791395434238,"end_time":217.43541395434238,"midi_note":40,"velocity":80,"confidence":1.0},{"start_time":217.43541395434238,"end_time":217.62291395434238,"midi_note":48,"velocity":80,"confidence":1.0},{"start_time":217.43541395434238,"end_time":217.62291395434238,"midi_note":52,"velocity":80,"confidence":1.0},{"start_time":217.62291395434238,"end_time":217.81041395434238,"midi_note":45,"velocity":80,"confidence":1.0},{"start_time":217.81041395434238,"end_time":217.99791395434238,"midi_note":48,"velocity":80,"confidence":1.0},{"start_time":217.81041395434238,"end_time":217.99791395434238,"midi_note":52,"velocity":80,"confidence":1.0},{"start_time":217.99791395434238,"end_time":218.18541395434238,"midi_note":40,"velocity":80,"confidence":1.0},{"start_time":218.18541395434238,"end_time":218.37291395434238,"midi_note":48,"velocity":80,"confidence":1.0},{"start_time":218.18541395434238,"end_time":218.37291395434238,"midi_note":52,"velocity":80,"confidence":1.0},{"start_time":218.37291395434238,"end_time":218.56041395434238,"midi_note":64,"velocity":80,"confidence":1.0},{"start_time":218.37291395434238,"end_time":218.56041395434238,"midi_note":69,"velocity":80,"confidence":1.0},{"start_time":218.37291395434238,"end_time":218.56041395434238,"midi_note":72,"velocity":80,"confidence":1.0},{"start_time":218.56041395434238,"end_time":218.93541395434238,"midi_note":69,"velocity":80,"confidence":1.0},{"start_time":219.31041395434238,"end_time":219.49791395434238,"midi_note":64,"velocity":80,"confidence":1.0},{"start_time":219.49791395434238,"end_time":219.68541395434238,"midi_note":69,"velocity":80,"confidence":1.0},{"start_time":219.68541395434238,"end_time":219.87291395434238,"midi_note":71,"velocity":80,"confidence":1.0},{"start_time":219.87291395434238,"end_time":220.06041395434238,"midi_note":45,"velocity":80,"confidence":1.0},{"start_time":220.06041395434238,"end_time":220.24791395434238,"midi_note":48,"velocity":80,"confidence":1.0},{"start_time":220.06041395434238,"end_time":220.24791395434238,"midi_note":52,"velocity":80,"confidence":1.0},{"start_time":220.24791395434238,"end_time":220.43541395434238,"midi_note":40,"velocity":80,"confidence":1.0},{"start_time":220.43541395434238,"end_time":220.62291395434238,"midi_note":48,"velocity":80,"confidence":1.0},{"start_time":220.43541395434238,"end_time":220.62291395434238,"midi_note":52,"velocity":80,"confidence":1.0},{"start_time":220.62291395434238,"end_time":220.81041395434238,"midi_note":45,"velocity":80,"confidence":1.0},{"start_time":220.81041395434238,"end_time":220.99791395434238,"midi_note":48,"velocity":80,"confidence":1.0},{"start_time":220.81041395434238,"end_time":220.99791395434238,"midi_note":52,"velocity":80,"confidence":1.0},{"start_time":220.99791395434238,"end_time":221.18541395434238,"midi_note":40,"velocity":80,"confidence":1.0},{"start_time":221.18541395434238,"end_time":221.37291395434238,"midi_note":48,"velocity":80,"confidence":1.0},{"start_time":221.18541395434238,"end_time":221.37291395434238,"midi_note":52,"velocity":80,"confidence":1.0},{"start_time":221.37291395434238,"end_time":221.74791395434238,"midi_note":64,"velocity":80,"confidence":1.0},{"start_time":221.37291395434238,"end_time":221.74791395434238,"midi_note":69,"velocity":80,"confidence":1.0},{"start_time":221.37291395434238,"end_time":221.74791395434238,"midi_note":72,"velocity":80,"confidence":1.0},{"start_time":221.74791395434238,"end_time":221.93541395434238,"midi_note":71,"velocity":80,"confidence":1.0},{"start_time":221.93541395434238,"end_time":222.12291395434238,"midi_note":69,"velocity":80,"confidence":1.0},{"start_time":222.12291395434238,"end_time":222.49791395434238,"midi_note":64,"velocity":80,"confidence":1.0},{"start_time":222.12291395434238,"end_time":222.49791395434238,"midi_note":69,"velocity":80,"confidence":1.0},{"start_time":222.12291395434238,"end_time":222.49791395434238,"midi_note":72,"velocity":80,"confidence":1.0},{"start_time":222.49791395434238,"end_time":222.68541395434238,"midi_note":71,"velocity":80,"confidence":1.0},{"start_time":222.68541395434238,"end_time":222.87291395434238,"midi_note":69,"velocity":80,"confidence":1.0},{"start_time":222.87291395434238,"end_time":223.06041395434238,"midi_note":45,"velocity":80,"confidence":1.0},{"start_time":223.06041395434238,"end_time":223.24791395434238,"midi_note":48,"velocity":80,"confidence":1.0},{"start_time":223.06041395434238,"end_time":223.24791395434238,"midi_note":52,"velocity":80,"confidence":1.0},{"start_time":223.24791395434238,"end_time":223.43541395434238,"midi_note":40,"velocity":80,"confidence":1.0},{"start_time":223.43541395434238,"end_time":223.62291395434238,"midi_note":48,"velocity":80,"confidence":1.0},{"start_time":223.43541395434238,"end_time":223.62291395434238,"midi_note":52,"velocity":80,"confidence":1.0},{"start_time":223.62291395434238,"end_time":223.81041395434238,"midi_note":45,"velocity":80,"confidence":1.0},{"start_time":223.81041395434238,"end_time":223.99791395434238,"midi_note":48,"velocity":80,"confidence":1.0},{"start_time":223.81041395434238,"end_time":223.99791395434238,"midi_note":52,"velocity":80,"confidence":1.0},{"start_time":223.99791395434238,"end_time":224.18541395434238,"midi_note":40,"velocity":80,"confidence":1.0},{"start_time":224.18541395434238,"end_time":224.37291395434238,"midi_note":48,"velocity":80,"confidence":1.0},{"start_time":224.18541395434238,"end_time":224.37291395434238,"midi_note":52,"velocity":80,"confidence":1.0},{"start_time":224.37291395434238,"end_time":224.74791395434238,"midi_note":64,"velocity":80,"confidence":1.0},{"start_time":224.37291395434238,"end_time":224.74791395434238,"midi_note":76,"velocity":80,"confidence":1.0},{"start_time":224.74791395434238,"end_time":225.12291395434238,"midi_note":64,"velocity":80,"confidence":1.0},{"start_time":224.74791395434238,"end_time":225.12291395434238,"midi_note":76,"velocity":80,"confidence":1.0},{"start_time":225.12291395434238,"end_time":225.49791395434238,"midi_note":64,"velocity":80,"confidence":1.0},{"start_time":225.12291395434238,"end_time":225.49791395434238,"midi_note":76,"velocity":80,"confidence":1.0},{"start_time":225.49791395434238,"end_time":225.68541395434238,"midi_note":74,"velocity":80,"confidence":1.0},{"start_time":225.68541395434238,"end_time":225.87291395434238,"midi_note":76,"velocity":80,"confidence":1.0},{"start_time":225.87291395434238,"end_time":226.06041395434238,"midi_note":45,"velocity":80,"confidence":1.0},{"start_time":226.06041395434238,"end_time":226.24791395434238,"midi_note":48,"velocity":80,"confidence":1.0},{"start_time":226.06041395434238,"end_time":226.24791395434238,"midi_note":52,"velocity":80,"confidence":1.0},{"start_time":226.24791395434238,"end_time":226.43541395434238,"midi_note":40,"velocity":80,"confidence":1.0},{"start_time":226.43541395434238,"end_time":226.62291395434238,"midi_note":48,"velocity":80,"confidence":1.0},{"start_time":226.43541395434238,"end_time":226.62291395434238,"midi_note":52,"velocity":80,"confidence":1.0},{"start_time":226.62291395434238,"end_time":226.81041395434238,"midi_note":45,"velocity":80,"confidence":1.0},{"start_time":226.81041395434238,"end_time":226.99791395434238,"midi_note":33,"velocity":80,"confidence":1.0},{"start_time":226.81041395434238,"end_time":226.99791395434238,"midi_note":45,"velocity":80,"confidence":1.0},{"start_time":226.99791395434238,"end_time":227.18541395434238,"midi_note":35,"velocity":80,"confidence":1.0},{"start_time":226.99791395434238,"end_time":227.18541395434238,"midi_note":47,"velocity":80,"confidence":1.0},{"start_time":227.18541395434238,"end_time":227.37291395434238,"midi_note":36,"velocity":80,"confidence":1.0},{"start_time":227.18541395434238,"end_time":227.37291395434238,"midi_note":48,"velocity":80,"confidence":1.0},{"start_time":227.37291395434238,"end_time":227.56041395434238,"midi_note":69,"velocity":80,"confidence":1.0},{"start_time":227.37291395434238,"end_time":227.56041395434238,"midi_note":74,"velocity":80,"confidence":1.0},{"start_time":227.37291395434238,"end_time":227.56041395434238,"midi_note":77,"velocity":80,"confidence":1.0},{"start_time":227.56041395434238,"end_time":227.93541395434238,"midi_note":69,"velocity":80,"confidence":1.0},{"start_time":227.56041395434238,"end_time":227.93541395434238,"midi_note":74,"velocity":80,"confidence":1.0},{"start_time":227.56041395434238,"end_time":227.93541395434238,"midi_note":77,"velocity":80,"confidence":1.0},{"start_time":228.31041395434238,"end_time":228.49791395434238,"midi_note":77,"velocity":80,"confidence":1.0},{"start_time":228.49791395434238,"end_time":228.68541395434238,"midi_note":76,"velocity":80,"confidence":1.0},{"start_time":228.68541395434238,"end_time":228.87291395434238,"midi_note":74,"velocity":80,"confidence":1.0},{"start_time":228.87291395434238,"end_time":229.06041395434238,"midi_note":38,"velocity":80,"confidence":1.0},{"start_time":228.87291395434238,"end_time":229.06041395434238,"midi_note":50,"velocity":80,"confidence":1.0},{"start_time":229.06041395434238,"end_time":229.24791395434238,"midi_note":53,"velocity":80,"confidence":1.0},{"start_time":229.06041395434238,"end_time":229.24791395434238,"midi_note":57,"velocity":80,"confidence":1.0},{"start_time":229.24791395434238,"end_time":229.43541395434238,"midi_note":45,"velocity":80,"confidence":1.0},{"start_time":229.43541395434238,"end_time":229.62291395434238,"midi_note":53,"velocity":80,"confidence":1.0},{"start_time":229.43541395434238,"end_time":229.62291395434238,"midi_note":57,"velocity":80,"confidence":1.0},{"start_time":229.62291395434238,"end_time":229.81041395434238,"midi_note":50,"velocity":80,"confidence":1.0},{"start_time":229.81041395434238,"end_time":229.99791395434238,"midi_note":53,"velocity":80,"confidence":1.0},{"start_time":229.81041395434238,"end_time":229.99791395434238,"midi_note":57,"velocity":80,"confidence":1.0},{"start_time":229.99791395434238,"end_time":230.18541395434238,"midi_note":45,"velocity":80,"confidence":1.0},{"start_time":230.18541395434238,"end_time":230.37291395434238,"midi_note":53,"velocity":80,"confidence":1.0},{"start_time":230.18541395434238,"end_time":230.37291395434238,"midi_note":57,"velocity":80,"confidence":1.0},{"start_time":230.37291395434238,"end_time":230.56041395434238,"midi_note":69,"velocity":80,"confidence":1.0},{"start_time":230.37291395434238,"end_time":230.56041395434238,"midi_note":74,"velocity":80,"confidence":1.0},{"start_time":230.37291395434238,"end_time":230.56041395434238,"midi_note":77,"velocity":80,"confidence":1.0},{"start_time":230.56041395434238,"end_time":230.93541395434238,"midi_note":76,"velocity":80,"confidence":1.0},{"start_time":231.49791395434238,"end_time":231.68541395434238,"midi_note":74,"velocity":80,"confidence":1.0},{"start_time":231.68541395434238,"end_time":231.87291395434238,"midi_note":72,"velocity":80,"confidence":1.0},{"start_time":231.87291395434238,"end_time":232.06041395434238,"midi_note":45,"velocity":80,"confidence":1.0},{"start_time":232.06041395434238,"end_time":232.24791395434238,"midi_note":48,"velocity":80,"confidence":1.0},{"start_time":232.06041395434238,"end_time":232.24791395434238,"midi_note":52,"velocity":80,"confidence":1.0},{"start_time":232.24791395434238,"end_time":232.43541395434238,"midi_note":40,"velocity":80,"confidence":1.0},{"start_time":232.43541395434238,"end_time":232.62291395434238,"midi_note":48,"velocity":80,"confidence":1.0},{"start_time":232.43541395434238,"end_time":232.62291395434238,"midi_note":52,"velocity":80,"confidence":1.0},{"start_time":232.62291395434238,"end_time":232.81041395434238,"midi_note":45,"velocity":80,"confidence":1.0},{"start_time":232.81041395434238,"end_time":232.99791395434238,"midi_note":48,"velocity":80,"confidence":1.0},{"start_time":232.81041395434238,"end_time":232.99791395434238,"midi_note":52,"velocity":80,"confidence":1.0},{"start_time":232.99791395434238,"end_time":233.18541395434238,"midi_note":40,"velocity":80,"confidence":1.0},{"start_time":233.18541395434238,"end_time":233.37291395434238,"midi_note":48,"velocity":80,"confidence":1.0},{"start_time":233.18541395434238,"end_time":233.37291395434238,"midi_note":52,"velocity":80,"confidence":1.0},{"start_time":233.37291395434238,"end_time":233.74791395434238,"midi_note":71,"velocity":80,"confidence":1.0},{"start_time":233.74791395434238,"end_time":234.12291395434238,"midi_note":76,"velocity":80,"confidence":1.0},{"start_time":234.12291395434238,"end_time":234.49791395434238,"midi_note":72,"velocity":80,"confidence":1.0},{"start_time":234.49791395434238,"end_time":234.87291395434238,"midi_note":71,"velocity":80,"confidence":1.0},{"start_time":234.87291395434238,"end_time":235.06041395434238,"midi_note":40,"velocity":80,"confidence":1.0},{"start_time":235.06041395434238,"end_time":235.24791395434238,"midi_note":47,"velocity":80,"confidence":1.0},{"start_time":235.06041395434238,"end_time":235.24791395434238,"midi_note":52,"velocity":80,"confidence":1.0},{"start_time":235.24791395434238,"end_time":235.43541395434238,"midi_note":35,"velocity":80,"confidence":1.0},{"start_time":235.43541395434238,"end_time":235.62291395434238,"midi_note":47,"velocity":80,"confidence":1.0},{"start_time":235.43541395434238,"end_time":235.62291395434238,"midi_note":52,"velocity":80,"confidence":1.0},{"start_time":235.62291395434238,"end_time":235.81041395434238,"midi_note":40,"velocity":80,"confidence":1.0},{"start_time":235.81041395434238,"end_time":235.99791395434238,"midi_note":47,"velocity":80,"confidence":1.0},{"start_time":235.81041395434238,"end_time":235.99791395434238,"midi_note":52,"velocity":80,"confidence":1.0},{"start_time":235.99791395434238,"end_time":236.18541395434238,"midi_note":35,"velocity":80,"confidence":1.0},{"start_time":236.18541395434238,"end_time":236.37291395434238,"midi_note":47,"velocity":80,"confidence":1.0},{"start_time":236.18541395434238,"end_time":236.37291395434238,"midi_note":52,"velocity":80,"confidence":1.0},{"start_time":236.37291395434238,"end_time":236.74791395434238,"midi_note":69,"velocity":80,"confidence":1.0},{"start_time":237.49791395434238,"end_time":237.68541395434238,"midi_note":62,"velocity":80,"confidence":1.0},{"start_time":237.49791395434238,"end_time":237.68541395434238,"midi_note":74,"velocity":80,"confidence":1.0},{"start_time":237.68541395434238,"end_time":237.87291395434238,"midi_note":64,"velocity":80,"confidence":1.0},{"start_time":237.68541395434238,"end_time":237.87291395434238,"midi_note":76,"velocity":80,"confidence":1.0},{"start_time":237.87291395434238,"end_time":238.06041395434238,"midi_note":45,"velocity":80,"confidence":1.0},{"start_time":238.06041395434238,"end_time":238.24791395434238,"midi_note":48,"velocity":80,"confidence":1.0},{"start_time":238.06041395434238,"end_time":238.24791395434238,"midi_note":52,"velocity":80,"confidence":1.0},{"start_time":238.24791395434238,"end_time":238.43541395434238,"midi_note":40,"velocity":80,"confidence":1.0},{"start_time":238.43541395434238,"end_time":238.62291395434238,"midi_note":48,"velocity":80,"confidence":1.0},{"start_time":238.43541395434238,"end_time":238.62291395434238,"midi_note":52,"velocity":80,"confidence":1.0},{"start_time":238.62291395434238,"end_time":238.81041395434238,"midi_note":45,"velocity":80,"confidence":1.0},{"start_time":238.81041395434238,"end_time":238.99791395434238,"midi_note":33,"velocity":80,"confidence":1.0},{"start_time":238.81041395434238,"end_time":238.99791395434238,"midi_note":45,"velocity":80,"confidence":1.0},{"start_time":238.99791395434238,"end_time":239.18541395434238,"midi_note":35,"velocity":80,"confidence":1.0},{"start_time":238.99791395434238,"end_time":239.18541395434238,"midi_note":47,"velocity":80,"confidence":1.0},{"start_time":239.18541395434238,"end_time":239.37291395434238,"midi_note":36,"velocity":80,"confidence":1.0},{"start_time":239.18541395434238,"end_time":239.37291395434238,"midi_note":48,"velocity":80,"confidence":1.0},{"start_time":239.37291395434238,"end_time":239.56041395434238,"midi_note":65,"velocity":80,"confidence":1.0},{"start_time":239.37291395434238,"end_time":239.56041395434238,"midi_note":77,"velocity":80,"confidence":1.0},{"start_time":239.56041395434238,"end_time":239.93541395434238,"midi_note":65,"velocity":80,"confidence":1.0},{"start_time":239.56041395434238,"end_time":239.93541395434238,"midi_note":77,"velocity":80,"confidence":1.0},{"start_time":240.31041395434238,"end_time":240.49791395434238,"midi_note":65,"velocity":80,"confidence":1.0},{"start_time":240.31041395434238,"end_time":240.49791395434238,"midi_note":77,"velocity":80,"confidence":1.0},{"start_time":240.49791395434238,"end_time":240.68541395434238,"midi_note":64,"velocity":80,"confidence":1.0},{"start_time":240.49791395434238,"end_time":240.68541395434238,"midi_note":76,"velocity":80,"confidence":1.0},{"start_time":240.68541395434238,"end_time":240.87291395434238,"midi_note":62,"velocity":80,"confidence":1.0},{"start_time":240.68541395434238,"end_time":240.87291395434238,"midi_note":74,"velocity":80,"confidence":1.0},{"start_time":240.87291395434238,"end_time":241.06041395434238,"midi_note":50,"velocity":80,"confidence":1.0},{"start_time":241.06041395434238,"end_time":241.24791395434238,"midi_note":53,"velocity":80,"confidence":1.0},{"start_time":241.06041395434238,"end_time":241.24791395434238,"midi_note":57,"velocity":80,"confidence":1.0},{"start_time":241.24791395434238,"end_time":241.43541395434238,"midi_note":45,"velocity":80,"confidence":1.0},{"start_time":241.43541395434238,"end_time":241.62291395434238,"midi_note":53,"velocity":80,"confidence":1.0},{"start_time":241.43541395434238,"end_time":241.62291395434238,"midi_note":57,"velocity":80,"confidence":1.0},{"start_time":241.62291395434238,"end_time":241.81041395434238,"midi_note":50,"velocity":80,"confidence":1.0},{"start_time":241.81041395434238,"end_time":241.99791395434238,"midi_note":53,"velocity":80,"confidence":1.0},{"start_time":241.81041395434238,"end_time":241.99791395434238,"midi_note":57,"velocity":80,"confidence":1.0},{"start_time":241.99791395434238,"end_time":242.18541395434238,"midi_note":45,"velocity":80,"confidence":1.0},{"start_time":242.18541395434238,"end_time":242.37291395434238,"midi_note":53,"velocity":80,"confidence":1.0},{"start_time":242.18541395434238,"end_time":242.37291395434238,"midi_note":57,"velocity":80,"confidence":1.0},{"start_time":242.37291395434238,"end_time":242.56041395434238,"midi_note":65,"velocity":80,"confidence":1.0},{"start_time":242.37291395434238,"end_time":242.56041395434238,"midi_note":77,"velocity":80,"confidence":1.0},{"start_time":242.56041395434238,"end_time":242.93541395434238,"midi_note":64,"velocity":80,"confidence":1.0},{"start_time":242.56041395434238,"end_time":242.93541395434238,"midi_note":76,"velocity":80,"confidence":1.0},{"start_time":243.49791395434238,"end_time":243.68541395434238,"midi_note":74,"velocity":80,"confidence":1.0},{"start_time":243.68541395434238,"end_time":243.87291395434238,"midi_note":72,"velocity":80,"confidence":1.0},{"start_time":243.87291395434238,"end_time":244.06041395434238,"midi_note":45,"velocity":80,"confidence":1.0},{"start_time":244.06041395434238,"end_time":244.24791395434238,"midi_note":48,"velocity":80,"confidence":1.0},{"start_time":244.06041395434238,"end_time":244.24791395434238,"midi_note":52,"velocity":80,"confidence":1.0},{"start_time":244.24791395434238,"end_time":244.43541395434238,"midi_note":40,"velocity":80,"confidence":1.0},{"start_time":244.43541395434238,"end_time":244.62291395434238,"midi_note":48,"velocity":80,"confidence":1.0},{"start_time":244.43541395434238,"end_time":244.62291395434238,"midi_note":52,"velocity":80,"confidence":1.0},{"start_time":244.62291395434238,"end_time":244.81041395434238,"midi_note":45,"velocity":80,"confidence":1.0},{"start_time":244.81041395434238,"end_time":244.99791395434238,"midi_note":48,"velocity":80,"confidence":1.0},{"start_time":244.81041395434238,"end_time":244.99791395434238,"midi_note":52,"velocity":80,"confidence":1.0},{"start_time":244.99791395434238,"end_time":245.18541395434238,"midi_note":40,"velocity":80,"confidence":1.0},{"start_time":245.18541395434238,"end_time":245.37291395434238,"midi_note":48,"velocity":80,"confidence":1.0},{"start_time":245.18541395434238,"end_time":245.37291395434238,"midi_note":52,"velocity":80,"confidence":1.0},{"start_time":245.37291395434238,"end_time":245.74791395434238,"midi_note":59,"velocity":80,"confidence":1.0},{"start_time":245.37291395434238,"end_time":245.74791395434238,"midi_note":71,"velocity":80,"confidence":1.0},{"start_time":245.74791395434238,"end_time":246.12291395434238,"midi_note":64,"velocity":80,"confidence":1.0},{"start_time":245.74791395434238,"end_time":246.12291395434238,"midi_note":76,"velocity":80,"confidence":1.0},{"start_time":246.12291395434238,"end_time":246.49791395434238,"midi_note":60,"velocity":80,"confidence":1.0},{"start_time":246.12291395434238,"end_time":246.49791395434238,"midi_note":72,"velocity":80,"confidence":1.0},{"start_time":246.49791395434238,"end_time":246.87291395434238,"midi_note":59,"velocity":80,"confidence":1.0},{"start_time":246.49791395434238,"end_time":246.87291395434238,"midi_note":71,"velocity":80,"confidence":1.0},{"start_time":246.87291395434238,"end_time":247.06041395434238,"midi_note":40,"velocity":80,"confidence":1.0},{"start_time":247.06041395434238,"end_time":247.24791395434238,"midi_note":47,"velocity":80,"confidence":1.0},{"start_time":247.06041395434238,"end_time":247.24791395434238,"midi_note":52,"velocity":80,"confidence":1.0},{"start_time":247.24791395434238,"end_time":247.43541395434238,"midi_note":35,"velocity":80,"confidence":1.0},{"start_time":247.43541395434238,"end_time":247.62291395434238,"midi_note":47,"velocity":80,"confidence":1.0},{"start_time":247.43541395434238,"end_time":247.62291395434238,"midi_note":52,"velocity":80,"confidence":1.0},{"start_time":247.62291395434238,"end_time":247.81041395434238,"midi_note":40,"velocity":80,"confidence":1.0},{"start_time":247.81041395434238,"end_time":247.99791395434238,"midi_note":47,"velocity":80,"confidence":1.0},{"start_time":247.81041395434238,"end_time":247.99791395434238,"midi_note":52,"velocity":80,"confidence":1.0},{"start_time":247.99791395434238,"end_time":248.18541395434238,"midi_note":35,"velocity":80,"confidence":1.0},{"start_time":248.18541395434238,"end_time":248.37291395434238,"midi_note":47,"velocity":80,"confidence":1.0},{"start_time":248.18541395434238,"end_time":248.37291395434238,"midi_note":52,"velocity":80,"confidence":1.0},{"start_time":248.37291395434238,"end_time":249.12291395434238,"midi_note":57,"velocity":80,"confidence":1.0},{"start_time":248.37291395434238,"end_time":249.12291395434238,"midi_note":69,"velocity":80,"confidence":1.0},{"start_time":249.49791395434238,"end_time":249.68541395434238,"midi_note":74,"velocity":80,"confidence":1.0},{"start_time":249.49791395434238,"end_time":249.68541395434238,"midi_note":86,"velocity":80,"confidence":1.0},{"start_time":249.68541395434238,"end_time":249.87291395434238,"midi_note":76,"velocity":80,"confidence":1.0},{"start_time":249.68541395434238,"end_time":249.87291395434238,"midi_note":88,"velocity":80,"confidence":1.0},{"start_time":249.87291395434238,"end_time":250.06041395434238,"midi_note":45,"velocity":80,"confidence":1.0},{"start_time":250.06041395434238,"end_time":250.24791395434238,"midi_note":48,"velocity":80,"confidence":1.0},{"start_time":250.06041395434238,"end_time":250.24791395434238,"midi_note":52,"velocity":80,"confidence":1.0},{"start_time":250.24791395434238,"end_time":250.43541395434238,"midi_note":40,"velocity":80,"confidence":1.0},{"start_time":250.43541395434238,"end_time":250.62291395434238,"midi_note":48,"velocity":80,"confidence":1.0},{"start_time":250.43541395434238,"end_time":250.62291395434238,"midi_note":52,"velocity":80,"confidence":1.0},{"start_time":250.62291395434238,"end_time":250.81041395434238,"midi_note":45,"velocity":80,"confidence":1.0},{"start_time":250.81041395434238,"end_time":250.99791395434238,"midi_note":33,"velocity":80,"confidence":1.0},{"start_time":250.81041395434238,"end_time":250.99791395434238,"midi_note":45,"velocity":80,"confidence":1.0},{"start_time":250.99791395434238,"end_time":251.18541395434238,"midi_note":35,"velocity":80,"confidence":1.0},{"start_time":250.99791395434238,"end_time":251.18541395434238,"midi_note":47,"velocity":80,"confidence":1.0},{"start_time":251.18541395434238,"end_time":251.37291395434238,"midi_note":36,"velocity":80,"confidence":1.0},{"start_time":251.18541395434238,"end_time":251.37291395434238,"midi_note":48,"velocity":80,"confidence":1.0},{"start_time":251.37291395434238,"end_time":251.56041395434238,"midi_note":77,"velocity":80,"confidence":1.0},{"start_time":251.37291395434238,"end_time":251.56041395434238,"midi_note":89,"velocity":80,"confidence":1.0},{"start_time":251.56041395434238,"end_time":251.93541395434238,"midi_note":77,"velocity":80,"confidence":1.0},{"start_time":251.56041395434238,"end_time":251.93541395434238,"midi_note":89,"velocity":80,"confidence":1.0},{"start_time":252.31041395434238,"end_time":252.49791395434238,"midi_note":77,"velocity":80,"confidence":1.0},{"start_time":252.31041395434238,"end_time":252.49791395434238,"midi_note":89,"velocity":80,"confidence":1.0},{"start_time":252.49791395434238,"end_time":252.68541395434238,"midi_note":76,"velocity":80,"confidence":1.0},{"start_time":252.49791395434238,"end_time":252.68541395434238,"midi_note":88,"velocity":80,"confidence":1.0},{"start_time":252.68541395434238,"end_time":252.87291395434238,"midi_note":74,"velocity":80,"confidence":1.0},{"start_time":252.68541395434238,"end_time":252.87291395434238,"midi_note":86,"velocity":80,"confidence":1.0},{"start_time":252.87291395434238,"end_time":253.06041395434238,"midi_note":50,"velocity":80,"confidence":1.0},{"start_time":253.06041395434238,"end_time":253.24791395434238,"midi_note":53,"velocity":80,"confidence":1.0},{"start_time":253.06041395434238,"end_time":253.24791395434238,"midi_note":57,"velocity":80,"confidence":1.0},{"start_time":253.24791395434238,"end_time":253.43541395434238,"midi_note":45,"velocity":80,"confidence":1.0},{"start_time":253.43541395434238,"end_time":253.62291395434238,"midi_note":53,"velocity":80,"confidence":1.0},{"start_time":253.43541395434238,"end_time":253.62291395434238,"midi_note":57,"velocity":80,"confidence":1.0},{"start_time":253.62291395434238,"end_time":253.81041395434238,"midi_note":50,"velocity":80,"confidence":1.0},{"start_time":253.81041395434238,"end_time":253.99791395434238,"midi_note":53,"velocity":80,"confidence":1.0},{"start_time":253.81041395434238,"end_time":253.99791395434238,"midi_note":57,"velocity":80,"confidence":1.0},{"start_time":253.99791395434238,"end_time":254.18541395434238,"midi_note":45,"velocity":80,"confidence":1.0},{"start_time":254.18541395434238,"end_time":254.37291395434238,"midi_note":53,"velocity":80,"confidence":1.0},{"start_time":254.18541395434238,"end_time":254.37291395434238,"midi_note":57,"velocity":80,"confidence":1.0},{"start_time":254.37291395434238,"end_time":254.56041395434238,"midi_note":77,"velocity":80,"confidence":1.0},{"start_time":254.37291395434238,"end_time":254.56041395434238,"midi_note":89,"velocity":80,"confidence":1.0},{"start_time":254.56041395434238,"end_time":254.93541395434238,"midi_note":76,"velocity":80,"confidence":1.0},{"start_time":254.56041395434238,"end_time":254.93541395434238,"midi_note":88,"velocity":80,"confidence":1.0},{"start_time":255.49791395434238,"end_time":255.68541395434238,"midi_note":74,"velocity":80,"confidence":1.0},{"start_time":255.49791395434238,"end_time":255.68541395434238,"midi_note":86,"velocity":80,"confidence":1.0},{"start_time":255.68541395434238,"end_time":255.87291395434238,"midi_note":72,"velocity":80,"confidence":1.0},{"start_time":255.68541395434238,"end_time":255.87291395434238,"midi_note":84,"velocity":80,"confidence":1.0},{"start_time":255.87291395434238,"end_time":256.0604139543424,"midi_note":45,"velocity":80,"confidence":1.0},{"start_time":256.0604139543424,"end_time":256.2479139543424,"midi_note":48,"velocity":80,"confidence":1.0},{"start_time":256.0604139543424,"end_time":256.2479139543424,"midi_note":52,"velocity":80,"confidence":1.0},{"start_time":256.2479139543424,"end_time":256.4354139543424,"midi_note":40,"velocity":80,"confidence":1.0},{"start_time":256.4354139543424,"end_time":256.6229139543424,"midi_note":48,"velocity":80,"confidence":1.0},{"start_time":256.4354139543424,"end_time":256.6229139543424,"midi_note":52,"velocity":80,"confidence":1.0},{"start_time":256.6229139543424,"end_time":256.8104139543424,"midi_note":45,"velocity":80,"confidence":1.0},{"start_time":256.8104139543424,"end_time":256.9979139543424,"midi_note":48,"velocity":80,"confidence":1.0},{"start_time":256.8104139543424,"end_time":256.9979139543424,"midi_note":52,"velocity":80,"confidence":1.0},{"start_time":256.9979139543424,"end_time":257.1854139543424,"midi_note":40,"velocity":80,"confidence":1.0},{"start_time":257.1854139543424,"end_time":257.3729139543424,"midi_note":48,"velocity":80,"confidence":1.0},{"start_time":257.1854139543424,"end_time":257.3729139543424,"midi_note":52,"velocity":80,"confidence":1.0},{"start_time":257.3729139543424,"end_time":257.7479139543424,"midi_note":71,"velocity":80,"confidence":1.0},{"start_time":257.3729139543424,"end_time":257.7479139543424,"midi_note":83,"velocity":80,"confidence":1.0},{"start_time":257.7479139543424,"end_time":258.1229139543424,"midi_note":76,"velocity":80,"confidence":1.0},{"start_time":257.7479139543424,"end_time":258.1229139543424,"midi_note":88,"velocity":80,"confidence":1.0},{"start_time":258.1229139543424,"end_time":258.4979139543424,"midi_note":78,"velocity":80,"confidence":1.0},{"start_time":258.1229139543424,"end_time":258.4979139543424,"midi_note":90,"velocity":80,"confidence":1.0},{"start_time":258.4979139543424,"end_time":258.8729139543424,"midi_note":80,"velocity":80,"confidence":1.0},{"start_time":258.4979139543424,"end_time":258.8729139543424,"midi_note":92,"velocity":80,"confidence":1.0},{"start_time":258.8729139543424,"end_time":259.0604139543424,"midi_note":40,"velocity":80,"confidence":1.0},{"start_time":259.0604139543424,"end_time":259.2479139543424,"midi_note":47,"velocity":80,"confidence":1.0},{"start_time":259.0604139543424,"end_time":259.2479139543424,"midi_note":52,"velocity":80,"confidence":1.0},{"start_time":259.2479139543424,"end_time":259.4354139543424,"midi_note":35,"velocity":80,"confidence":1.0},{"start_time":259.4354139543424,"end_time":259.6229139543424,"midi_note":47,"velocity":80,"confidence":1.0},{"start_time":259.4354139543424,"end_time":259.6229139543424,"midi_note":52,"velocity":80,"confidence":1.0},{"start_time":259.6229139543424,"end_time":259.8104139543424,"midi_note":40,"velocity":80,"confidence":1.0},{"start_time":259.8104139543424,"end_time":259.9979139543424,"midi_note":47,"velocity":80,"confidence":1.0},{"start_time":259.8104139543424,"end_time":259.9979139543424,"midi_note":52,"velocity":80,"confidence":1.0},{"start_time":259.9979139543424,"end_time":260.1854139543424,"midi_note":35,"velocity":80,"confidence":1.0},{"start_time":260.1854139543424,"end_time":260.3729139543424,"midi_note":47,"velocity":80,"confidence":1.0},{"start_time":260.1854139543424,"end_time":260.3729139543424,"midi_note":52,"velocity":80,"confidence":1.0},{"start_time":260.3729139543424,"end_time":261.1229139543424,"midi_note":81,"velocity":80,"confidence":1.0},{"start_time":260.3729139543424,"end_time":261.1229139543424,"midi_note":93,"velocity":80,"confidence":1.0},{"start_time":261.1229139543424,"end_time":261.8729139543424,"midi_note":45,"velocity":80,"confidence":1.0}]', 120.0, 120.0, '2026-03-21T13:13:39.941453', '2026-03-21T13:13:39.941453', NULL, NULL);

INSERT INTO songs (id, song_title, artist, score_id, category, difficulty, is_favorite, created_at) 
VALUES ('ea95608c-7754-4030-ac11-9b7576fb1b6c', 'Bella Ciao', 'Traditional', '0f7c207f-2565-4228-a73f-7e440b527943', 'Clásica', 3, 0, '2026-03-21T13:13:39.941453');

